<svg id="グループ_100" data-name="グループ 100" xmlns="http://www.w3.org/2000/svg" xmlns:xlink="http://www.w3.org/1999/xlink" width="33.676" height="31.3" viewBox="0 0 33.676 31.3">
  <defs>
    <clipPath id="clip-path">
      <rect id="長方形_3440" data-name="長方形 3440" width="33.676" height="31.3"/>
    </clipPath>
  </defs>
  <path id="パス_6900" data-name="パス 6900" d="M73.072,33.681l-5.424-5.424-3.167,3.167,8.6,8.6,18.57-18.71-3.179-3.155Z" transform="translate(-57.978 -16.33)" fill="#00b49f"/>
  <g id="グループ_12" data-name="グループ 12">
    <g id="グループ_11" data-name="グループ 11" clip-path="url(#clip-path)">
      <path id="パス_6901" data-name="パス 6901" d="M24.111,31.3H7.189A7.2,7.2,0,0,1,0,24.111V7.189A7.2,7.2,0,0,1,7.189,0H24.111V2.559H7.189a4.635,4.635,0,0,0-4.63,4.63V24.111a4.635,4.635,0,0,0,4.63,4.63H24.111a4.635,4.635,0,0,0,4.63-4.63V13.948L31.3,12.157V24.111A7.2,7.2,0,0,1,24.111,31.3"/>
    </g>
  </g>
</svg>
