<?xml version="1.0" encoding="utf-8"?>
<!-- Generator: Adobe Illustrator 24.2.0, SVG Export Plug-In . SVG Version: 6.00 Build 0)  -->
<svg version="1.1" id="レイヤー_1" xmlns="http://www.w3.org/2000/svg" xmlns:xlink="http://www.w3.org/1999/xlink" x="0px"
	 y="0px" viewBox="0 0 35 66" style="enable-background:new 0 0 35 66;" xml:space="preserve">
<style type="text/css">
	.st0{enable-background:new    ;}
</style>
<g class="st0">
	<path d="M13,16.7c-2-0.5-3.5-1.4-4.6-2.7c-1.1-1.4-1.6-3-1.6-4.8c0-1.7,0.4-3.1,1.2-4.2c0.8-1.1,1.6-2,2.6-2.5
		C11,2.3,11.3,2.2,11.6,2c0.3-0.1,0.7-0.2,1.1-0.3c0.9-0.1,2.5-0.2,5-0.2c2.5,0,4.1,0.1,5,0.2c0.8,0.2,1.5,0.4,2,0.7
		c1,0.5,1.9,1.3,2.6,2.5c0.8,1.1,1.2,2.5,1.2,4.2c0,2.1-0.6,3.7-1.8,5c-1.2,1.3-2.7,2.1-4.5,2.5v-3.4c0.9-0.3,1.6-0.7,2.2-1.4
		c0.6-0.7,0.9-1.6,0.9-2.6c0-0.8-0.2-1.4-0.5-2c-0.3-0.6-0.7-1-1.1-1.3c-0.5-0.4-1-0.7-1.8-0.8c-0.8-0.2-2.2-0.2-4.3-0.2
		S14.2,4.9,13.4,5c-0.7,0.1-1.3,0.4-1.8,0.8c-0.4,0.3-0.8,0.8-1.1,1.3c-0.3,0.5-0.5,1.2-0.5,2c0,1.8,1,3.2,2.9,4.1V16.7z"/>
	<path d="M8.3,28.1L8.3,28.1c-0.5-0.3-0.9-0.8-1.1-1.4c-0.3-0.6-0.4-1.4-0.4-2.4c0-1.7,0.5-3,1.3-3.9c0.9-1,2-1.5,3.3-1.5
		c1.3,0,2.3,0.4,3.2,1.3c0.9,0.8,1.3,2.1,1.3,3.7v4.2h1.6c1.3,0,2-1,1.9-3.1c0-0.8-0.1-1.4-0.2-1.8c-0.2-0.5-0.5-0.8-0.9-1.1
		l1.8-2.4c1.5,1.2,2.3,2.9,2.2,5.1c0,1.9-0.3,3.4-1.1,4.6c-0.8,1.1-2.1,1.7-3.9,1.7H7v-3.1H8.3z M13.4,28.1v-3.7
		c0-1.8-0.6-2.7-1.8-2.6c-0.5,0-1,0.2-1.3,0.7c-0.4,0.4-0.6,1.2-0.6,2.2c0,1.3,0.1,2.2,0.5,2.7c0.3,0.5,1.1,0.7,2.2,0.7H13.4z"/>
	<path d="M9.7,41.9c0,0.9,0.2,1.6,0.5,2.2s0.8,0.8,1.4,0.8c0.5,0,0.9-0.2,1.1-0.5c0.2-0.3,0.3-0.8,0.4-1.4l0.2-2.7
		c0.1-1.3,0.5-2.3,1.3-3.1c0.7-0.8,1.7-1.2,3-1.3c1.6,0,2.7,0.6,3.5,1.7c0.8,1.1,1.2,2.4,1.2,4c0,0.7,0,1.3-0.1,1.9
		c-0.1,0.6-0.2,1.1-0.4,1.6c-0.4,0.9-0.9,1.8-1.5,2.5l-2.2-1.9c0.4-0.6,0.8-1.2,1-1.9c0.2-0.6,0.4-1.4,0.4-2.2c0-1-0.2-1.6-0.5-2
		c-0.3-0.4-0.8-0.6-1.3-0.6c-0.3,0-0.6,0.1-0.9,0.5c-0.3,0.3-0.5,0.8-0.5,1.6l-0.2,2.5c-0.1,1.6-0.6,2.7-1.4,3.4
		c-0.8,0.7-1.9,1-3.1,1c-1.5,0-2.6-0.6-3.4-1.8c-0.8-1.2-1.2-2.7-1.3-4.5c0-2.5,0.9-4.7,2.7-6.7l2.1,2.1C10.3,38.4,9.7,40,9.7,41.9z
		"/>
	<path d="M13.4,54.9c-1.2,0-2.1,0.4-2.8,1.1c-0.6,0.7-1,1.5-1,2.6c0,1.2,0.5,2.3,1.5,3.3L9.3,64c-1.7-1.6-2.5-3.4-2.5-5.5
		c0-0.8,0.1-1.6,0.4-2.3c0.1-0.4,0.3-0.8,0.5-1.1c0.2-0.4,0.4-0.7,0.7-1.1c0.6-0.6,1.4-1.2,2.4-1.6c1-0.4,2.2-0.7,3.8-0.7
		c1.5,0,2.8,0.2,3.8,0.6c1,0.4,1.8,0.9,2.4,1.5c0.6,0.6,1,1.3,1.3,2c0.3,0.7,0.4,1.5,0.4,2.2c0,1.7-0.6,3.2-1.7,4.4
		c-1.1,1.2-2.7,1.8-4.7,1.9h-2.5V54.9z M16,61.3c1.2,0,2.1-0.4,2.7-1c0.6-0.6,0.9-1.3,0.9-2.3s-0.3-1.7-0.9-2.3
		c-0.6-0.6-1.5-0.9-2.7-1V61.3z"/>
</g>
</svg>
