<?xml version="1.0" encoding="utf-8"?>
<!-- Generator: Adobe Illustrator 24.2.0, SVG Export Plug-In . SVG Version: 6.00 Build 0)  -->
<svg version="1.1" id="レイヤー_1" xmlns="http://www.w3.org/2000/svg" xmlns:xlink="http://www.w3.org/1999/xlink" x="0px"
	 y="0px" viewBox="0 0 285.7 28" style="enable-background:new 0 0 285.7 28;" xml:space="preserve">
<style type="text/css">
	.st0{enable-background:new    ;}
	.st1{fill:#FFFFFF;}
</style>
<g id="state" transform="translate(-618.089 -1082.995)">
	<path id="長方形_2_のコピー" d="M754.6,1083h149.1l-14.5,28H740.1L754.6,1083z"/>
	<path id="長方形_2_のコピー-2" d="M632.6,1083H747l-14.5,28H618.1L632.6,1083z"/>
	<g class="st0">
		<path class="st1" d="M770.7,1090.8c0,0.1-0.2,0.1-0.3,0.1c-0.7,0.4-1.6,0.7-2.6,0.9v3.1h3.2v1h-3.2v1.2c0.7,0.6,2.6,2.1,3.1,2.6
			l-0.6,0.9c-0.5-0.5-1.6-1.6-2.4-2.4v6.6h-1.1v-7.3c-0.8,1.9-2,3.8-3,5c-0.1-0.3-0.4-0.8-0.6-1c1.2-1.2,2.6-3.6,3.4-5.6h-3.2v-1
			h3.4v-2.8c-1,0.2-2.1,0.4-3.2,0.6c-0.1-0.2-0.2-0.6-0.4-0.8c2.3-0.4,5.1-1.1,6.5-1.9L770.7,1090.8z M772.2,1091.9l1.4,0.1
			c0,0.1-0.1,0.2-0.3,0.2v8.6h-1.1V1091.9z M776.2,1090.3l1.4,0.1c0,0.1-0.1,0.2-0.3,0.2v12.8c0,0.8-0.2,1.1-0.7,1.3
			c-0.5,0.2-1.4,0.2-2.9,0.2c-0.1-0.3-0.2-0.8-0.4-1.1c0.6,0,1.1,0,1.6,0c1.3,0,1.3,0,1.3-0.4V1090.3z"/>
		<path class="st1" d="M793.8,1091.1v12.2c0,1.5-0.7,1.5-3.7,1.5c0-0.3-0.2-0.8-0.4-1c0.6,0,1.2,0,1.6,0c1.3,0,1.4,0,1.4-0.4v-3.5
			h-4.6v4.9h-1v-4.9h-4.2c-0.2,1.8-0.8,3.7-2,5.1c-0.2-0.2-0.6-0.6-0.8-0.7c1.8-2,2-4.9,2-7.2v-5.9H793.8z M783,1097
			c0,0.6,0,1.2-0.1,1.8h4.1v-2.8h-4V1097z M787.1,1092.1h-4v2.8h4V1092.1z M792.7,1095v-2.8h-4.6v2.8H792.7z M788.1,1098.8h4.6v-2.8
			h-4.6V1098.8z"/>
		<path class="st1" d="M811.8,1096.2h-6.2c-0.9,0.6-1.8,1.2-2.7,1.8h6.7v6.8h-1.1v-0.5h-6.6v0.5h-1v-5.8c-1,0.5-2.1,1-3.2,1.4
			c-0.1-0.2-0.4-0.6-0.6-0.8c2.4-0.9,4.7-2,6.8-3.4h-6.6v-0.9h5.7v-2.2h-4.2v-0.9h4.2v-2.2l1.4,0.1c0,0.1-0.1,0.2-0.3,0.2v1.9h4.2
			v0.5c0.7-0.7,1.3-1.4,1.9-2.1l1.1,0.7c0,0.1-0.1,0.1-0.3,0.1c0,0-0.1,0-0.2,0c-1.1,1.4-2.5,2.8-3.9,4h5V1096.2z M808.5,1100.7
			v-1.7h-6.6v1.7H808.5z M801.9,1103.3h6.6v-1.8h-6.6V1103.3z M804,1095.3h1.2c0.9-0.7,1.8-1.4,2.6-2.2H804V1095.3z"/>
		<path class="st1" d="M817.5,1097.1v-2.1c-0.8,1-1.9,1.9-2.9,2.5c-0.1-0.2-0.4-0.6-0.6-0.8c1.2-0.5,2.5-1.6,3.2-2.7h-3.2v-0.9h3.4
			v-3.1l1.3,0.1c0,0.1-0.1,0.2-0.3,0.2v2.8h3.4v0.9h-3.4v0.4c0.7,0.4,2.4,1.5,2.8,1.8l-0.6,0.8c-0.4-0.4-1.4-1.2-2.2-1.7v1.9H817.5z
			 M822,1099.6h-1.4c-0.2,1-0.6,1.8-1.1,2.5c0.7,0.4,1.4,0.8,1.9,1.1l-0.7,0.8c-0.5-0.4-1.1-0.8-1.8-1.2c-0.9,0.8-2.2,1.5-4,1.9
			c-0.1-0.3-0.3-0.7-0.5-0.9c1.5-0.3,2.7-0.8,3.5-1.5c-0.6-0.3-1.2-0.6-1.9-0.8l-0.3,0.6l-0.9-0.4c0.4-0.6,0.8-1.4,1.2-2.2H814v-0.9
			h2.3c0.3-0.5,0.5-1.1,0.7-1.5l1.3,0.3c0,0.1-0.1,0.2-0.4,0.1c-0.2,0.3-0.3,0.7-0.5,1.1h4.5V1099.6z M815.5,1090.4
			c0.5,0.7,0.9,1.5,1.1,2.1l-0.8,0.4c-0.2-0.6-0.6-1.5-1.1-2.2L815.5,1090.4z M817,1099.6c-0.2,0.4-0.4,0.8-0.6,1.2
			c0.7,0.3,1.4,0.6,2.1,0.9c0.5-0.6,0.8-1.3,1-2.1H817z M819.2,1092.6c0.4-0.6,1-1.5,1.3-2.2l1.1,0.5c0,0.1-0.2,0.1-0.3,0.1
			c-0.3,0.6-0.9,1.4-1.4,1.9L819.2,1092.6z M828.9,1094h-1.1c-0.4,2.6-1,4.8-2,6.6c0.8,1.5,1.9,2.6,3.2,3.3
			c-0.3,0.2-0.6,0.6-0.8,0.9c-1.3-0.8-2.3-1.9-3.1-3.2c-1,1.3-2.2,2.4-3.9,3.2c-0.1-0.3-0.4-0.7-0.6-0.9c1.7-0.8,3-1.9,3.9-3.4
			c-0.7-1.4-1.2-2.9-1.5-4.6c-0.3,0.7-0.7,1.4-1,1.9c-0.2-0.2-0.6-0.5-0.8-0.7c1.1-1.6,2-4.4,2.4-7.2l1.4,0.3c0,0.1-0.1,0.2-0.4,0.2
			c-0.2,0.8-0.4,1.7-0.6,2.5h4.8V1094z M823.8,1094l0,0.2c0.3,1.9,0.8,3.7,1.5,5.3c0.7-1.5,1.2-3.3,1.5-5.4H823.8z"/>
		<path class="st1" d="M836.5,1100.5l1.5-0.1c0.1,0.7,0.4,1.3,0.8,1.6s0.9,0.5,1.4,0.5c0.7,0,1.2-0.3,1.7-0.8s0.7-1.2,0.7-2
			c0-0.8-0.2-1.4-0.7-1.9c-0.5-0.5-1-0.7-1.8-0.7c-0.5,0-0.9,0.1-1.2,0.3c-0.4,0.2-0.7,0.5-0.9,0.8l-1.3-0.2l1.1-5.9h5.7v1.3H839
			l-0.6,3.1c0.7-0.5,1.4-0.7,2.2-0.7c1,0,1.8,0.3,2.5,1s1,1.6,1,2.7c0,1-0.3,1.9-0.9,2.7c-0.7,0.9-1.7,1.4-3,1.4
			c-1,0-1.9-0.3-2.6-0.9C837,1102.2,836.6,1101.4,836.5,1100.5z"/>
		<path class="st1" d="M846.4,1097.8c0-1.4,0.1-2.4,0.4-3.3c0.3-0.8,0.7-1.5,1.2-1.9c0.5-0.4,1.2-0.7,2.1-0.7c0.6,0,1.2,0.1,1.6,0.4
			c0.5,0.2,0.8,0.6,1.1,1.1c0.3,0.5,0.5,1,0.7,1.7s0.3,1.6,0.3,2.7c0,1.3-0.1,2.4-0.4,3.3c-0.3,0.8-0.7,1.5-1.2,1.9
			c-0.5,0.5-1.2,0.7-2.1,0.7c-1.1,0-2-0.4-2.6-1.2C846.7,1101.5,846.4,1100,846.4,1097.8z M847.8,1097.8c0,1.9,0.2,3.1,0.7,3.8
			c0.4,0.6,1,0.9,1.6,0.9c0.6,0,1.2-0.3,1.6-0.9c0.4-0.6,0.7-1.9,0.7-3.7c0-1.9-0.2-3.1-0.7-3.8c-0.4-0.6-1-0.9-1.6-0.9
			c-0.6,0-1.2,0.3-1.5,0.8C848,1094.7,847.8,1095.9,847.8,1097.8z"/>
		<path class="st1" d="M856.2,1097.8c0-1.4,0.1-2.4,0.4-3.3s0.7-1.5,1.2-1.9s1.2-0.7,2.1-0.7c0.6,0,1.2,0.1,1.6,0.4s0.8,0.6,1.1,1.1
			s0.5,1,0.7,1.7s0.3,1.6,0.3,2.7c0,1.3-0.1,2.4-0.4,3.3s-0.7,1.5-1.2,1.9s-1.2,0.7-2.1,0.7c-1.1,0-2-0.4-2.6-1.2
			C856.6,1101.5,856.2,1100,856.2,1097.8z M857.7,1097.8c0,1.9,0.2,3.1,0.7,3.8s1,0.9,1.6,0.9s1.2-0.3,1.6-0.9s0.7-1.9,0.7-3.7
			c0-1.9-0.2-3.1-0.7-3.8s-1-0.9-1.6-0.9c-0.6,0-1.2,0.3-1.5,0.8C857.9,1094.7,857.7,1095.9,857.7,1097.8z"/>
		<path class="st1" d="M879.7,1098v6.9h-1.1v-0.7h-6.9v0.6h-1.1v-5.3c-1.3,0.8-2.7,1.4-4.1,1.9c-0.1-0.3-0.4-0.7-0.6-0.9
			c2.1-0.6,4.2-1.7,6.1-3.2c-0.6-0.7-1.7-1.6-2.6-2.3l0.8-0.7c0.9,0.6,2,1.5,2.6,2.2c1.3-1.2,2.4-2.5,3.1-4h-5.1
			c-1.1,1.2-2.4,2.4-4.1,3.5c-0.2-0.3-0.5-0.6-0.8-0.8c2.6-1.5,4.5-3.6,5.4-5.3l1.4,0.2c0,0.1-0.1,0.2-0.4,0.2
			c-0.2,0.4-0.5,0.8-0.8,1.2h4.9l0.2-0.1l0.8,0.4c0,0.1-0.1,0.1-0.2,0.1c-1,2.3-2.6,4.3-4.5,5.9H879.7z M871.7,1103.2h6.9v-4.2h-6.9
			V1103.2z"/>
	</g>
	<g class="st0">
		<path class="st1" d="M642.8,1093.2c0,1.4-0.3,3.2-0.9,4.2c-0.6-0.4-0.7-0.4-0.8-0.4c0.6-0.9,0.8-2.5,0.9-3.9L642.8,1093.2z
			 M643.5,1089.9l1.4,0.1c0,0.1-0.1,0.2-0.3,0.2v14.5h-1.1V1089.9z M645.9,1095.1c-0.2-0.6-0.7-1.6-1.2-2.4l0.7-0.4
			c0.5,0.7,1,1.7,1.2,2.3L645.9,1095.1z M651.5,1095.3h4.5v0.9h-9.9v-0.9h4.3v-1.2h-3.1v-0.8h3.1v-1.1h-3.8v-0.9h3.8v-1.4l1.4,0.1
			c0,0.1-0.1,0.2-0.3,0.2v1.1h3.9v0.9h-3.9v1.1h3.2v0.8h-3.2V1095.3z M654.6,1097.3v6.4c0,1-0.4,1.2-2.6,1.2c0-0.3-0.2-0.7-0.3-0.9
			c0.4,0,0.9,0,1.2,0c0.7,0,0.7,0,0.7-0.3v-1.4h-5v2.5h-1v-7.5H654.6z M653.5,1098.2h-5v1.2h5V1098.2z M648.5,1101.4h5v-1.2h-5
			V1101.4z"/>
		<path class="st1" d="M662.4,1092.5v1.8h3.2v0.9h-7.4v-0.9h3.2v-1.8h-2.6v-0.9h2.6v-1.6l1.3,0.1c0,0.1-0.1,0.2-0.3,0.2v1.3h2.5v0.9
			H662.4z M662.7,1097.8c0.3-0.6,0.8-1.7,1-2.4l1.1,0.4c0,0.1-0.2,0.1-0.3,0.1c-0.3,0.6-0.7,1.4-1,2h1.9v0.9h-2.9v1.9h2.7v0.9h-2.7
			v3.2h-1v-3.2h-2.8v-0.9h2.8v-1.9h-3v-0.9h4.5L662.7,1097.8z M660,1097.8c-0.1-0.6-0.4-1.5-0.7-2.2l0.8-0.2
			c0.4,0.7,0.7,1.6,0.8,2.2L660,1097.8z M671.8,1096.8l0.7,0.2c0,0.1-0.1,0.1-0.1,0.2c-0.3,1.7-0.9,3.4-1.8,4.8
			c0.7,0.8,1.5,1.4,2.4,1.8c-0.3,0.2-0.6,0.6-0.8,0.9c-0.9-0.4-1.6-1.1-2.3-1.9c-0.5,0.7-1.2,1.3-1.9,1.7c-0.2-0.2-0.5-0.5-0.7-0.7
			c0.8-0.5,1.4-1.1,2-1.9c-0.8-1.1-1.4-2.4-1.8-3.8l0.9-0.2c0.4,1.1,0.9,2.2,1.5,3.1c0.6-1,1-2.2,1.3-3.4h-4.1v7.1h-1v-14.1h6.2v4
			c0,1.2-0.6,1.2-2.8,1.2c0-0.3-0.2-0.7-0.3-0.9c0.4,0,0.8,0,1.1,0c0.9,0,0.9,0,0.9-0.3v-3h-4.2v5.1h4.5L671.8,1096.8z"/>
		<path class="st1" d="M678.6,1096.4v5.3c1.2,1.9,3.5,1.9,6.5,1.9c1.7,0,3.8,0,5-0.1c-0.1,0.2-0.3,0.7-0.4,1.1
			c-1.1,0-2.8,0.1-4.4,0.1c-3.5,0-5.7,0-7.3-2c-0.8,0.7-1.7,1.4-2.4,2c0,0.1,0,0.2-0.1,0.3l-0.6-1.2c0.8-0.5,1.8-1.2,2.6-1.9v-4.3
			h-2.4v-1H678.6z M676.1,1090.3c1,0.7,2.2,1.8,2.8,2.7l-0.8,0.7c-0.5-0.8-1.7-2-2.7-2.7L676.1,1090.3z M685.1,1094
			c-1-0.5-2.2-1-3.3-1.4l0.7-0.6c0.7,0.3,1.5,0.6,2.3,0.9c0.8-0.4,1.7-0.9,2.4-1.4h-7v-0.9h8.1l0.2,0l0.8,0.5c0,0.1-0.2,0.1-0.3,0.1
			c-0.8,0.7-2,1.5-3.3,2.1c0.5,0.2,0.9,0.5,1.3,0.7h2.1v7.3c0,1.1-0.3,1.2-2.7,1.2c0-0.3-0.2-0.7-0.3-0.9c0.5,0,0.9,0,1.2,0
			c0.7,0,0.8,0,0.8-0.3v-1.6h-3v2.7h-1v-2.7h-2.9v2.8h-1v-8.4H685.1z M684.2,1094.9h-2.9v1.5h2.9V1094.9z M681.3,1098.8h2.9v-1.6
			h-2.9V1098.8z M688.2,1096.4v-1.5h-3v1.5H688.2z M685.2,1098.8h3v-1.6h-3V1098.8z"/>
		<path class="st1" d="M694.2,1095.6c-0.6,1-1.3,1.9-2,2.7c-0.1-0.3-0.4-0.8-0.6-1c1.5-1.7,3.1-4.4,4-7.2l1.3,0.4
			c-0.1,0.1-0.2,0.2-0.4,0.1c-0.4,1.1-0.9,2.2-1.5,3.3l0.4,0.1c0,0.1-0.1,0.2-0.3,0.2v10.6h-1V1095.6z M696.3,1093h10.6v0.9h-10.6
			V1093z M697.5,1104.8v-5.1h8.3v5.1h-1.1v-0.8h-6.1v0.8H697.5z M705.7,1095.2v0.9h-8v-0.9H705.7z M697.7,1098.4v-0.9h8v0.9H697.7z
			 M705.4,1090.7v0.9h-7.5v-0.9H705.4z M704.7,1100.6h-6.1v2.5h6.1V1100.6z"/>
		<path class="st1" d="M723.5,1100.9H718c1.5,1.2,3.8,2.3,5.9,2.7c-0.2,0.2-0.6,0.7-0.7,0.9c-2.2-0.6-4.7-1.9-6.3-3.4v3.7h-1.1v-3.6
			c-1.6,1.5-4,2.7-6.2,3.3c-0.1-0.3-0.5-0.7-0.7-0.9c2.1-0.5,4.4-1.5,5.9-2.7h-5.5v-0.9h6.5v-1.3h-5v-0.9h5v-1.3h-5.8v-0.9h3.6
			c-0.2-0.5-0.5-1.2-0.8-1.7l0.6-0.1h-4.1v-0.9h2.7c-0.2-0.7-0.8-1.7-1.3-2.4l0.9-0.3c0.6,0.7,1.2,1.8,1.4,2.4l-0.8,0.3h2.1v-2.9
			l1.4,0.1c0,0.2-0.1,0.2-0.4,0.3v2.6h2.1v-2.9l1.4,0.1c0,0.2-0.2,0.2-0.4,0.3v2.6h2c-0.2-0.1-0.4-0.2-0.6-0.2
			c0.5-0.7,1-1.8,1.3-2.5l1.3,0.4c0,0.1-0.2,0.1-0.3,0.1c-0.3,0.6-0.8,1.5-1.3,2.1h2.6v0.9h-3.6l0.5,0.1c0,0.1-0.2,0.2-0.3,0.1
			c-0.2,0.4-0.6,1.1-0.9,1.5h3.8v0.9h-5.9v1.3h5.2v0.9h-5.2v1.3h6.6V1100.9z M718,1095.6c0.3-0.5,0.7-1.2,0.9-1.7h-5
			c0.4,0.5,0.7,1.2,0.9,1.7l-0.5,0.1h4L718,1095.6z"/>
	</g>
</g>
</svg>
