<?xml version="1.0" encoding="utf-8"?>
<!-- Generator: Adobe Illustrator 24.2.0, SVG Export Plug-In . SVG Version: 6.00 Build 0)  -->
<svg version="1.1" id="レイヤー_1" xmlns="http://www.w3.org/2000/svg" xmlns:xlink="http://www.w3.org/1999/xlink" x="0px"
	 y="0px" viewBox="0 0 253.7 28" style="enable-background:new 0 0 253.7 28;" xml:space="preserve">
<style type="text/css">
	.st0{enable-background:new    ;}
	.st1{fill:#FFFFFF;}
</style>
<g id="state" transform="translate(-618.089 -1082.995)">
	<path id="長方形_2_のコピー" d="M722.6,1083h149.1l-14.5,28H708.1L722.6,1083z"/>
	<path id="長方形_2_のコピー-2" d="M632.6,1083H714l-14.5,28h-81.4L632.6,1083z"/>
	<g class="st0">
		<path class="st1" d="M738.7,1090.8c0,0.1-0.2,0.1-0.3,0.1c-0.7,0.4-1.6,0.7-2.6,0.9v3.1h3.2v1h-3.2v1.2c0.7,0.6,2.6,2.1,3.1,2.6
			l-0.6,0.9c-0.5-0.5-1.6-1.6-2.4-2.4v6.6h-1.1v-7.3c-0.8,1.9-2,3.8-3,5c-0.1-0.3-0.4-0.8-0.6-1c1.2-1.2,2.6-3.6,3.4-5.6h-3.2v-1
			h3.4v-2.8c-1,0.2-2.1,0.4-3.2,0.6c-0.1-0.2-0.2-0.6-0.4-0.8c2.3-0.4,5.1-1.1,6.5-1.9L738.7,1090.8z M740.2,1091.9l1.4,0.1
			c0,0.1-0.1,0.2-0.3,0.2v8.6h-1.1V1091.9z M744.2,1090.3l1.4,0.1c0,0.1-0.1,0.2-0.3,0.2v12.8c0,0.8-0.2,1.1-0.7,1.3
			c-0.5,0.2-1.4,0.2-2.9,0.2c-0.1-0.3-0.2-0.8-0.4-1.1c0.6,0,1.1,0,1.6,0c1.3,0,1.3,0,1.3-0.4V1090.3z"/>
		<path class="st1" d="M761.8,1091.1v12.2c0,1.5-0.7,1.5-3.7,1.5c0-0.3-0.2-0.8-0.4-1c0.6,0,1.2,0,1.6,0c1.3,0,1.4,0,1.4-0.4v-3.5
			h-4.6v4.9h-1v-4.9h-4.2c-0.2,1.8-0.8,3.7-2,5.1c-0.2-0.2-0.6-0.6-0.8-0.7c1.8-2,2-4.9,2-7.2v-5.9H761.8z M751,1097
			c0,0.6,0,1.2-0.1,1.8h4.1v-2.8h-4V1097z M755.1,1092.1h-4v2.8h4V1092.1z M760.7,1095v-2.8h-4.6v2.8H760.7z M756.1,1098.8h4.6v-2.8
			h-4.6V1098.8z"/>
		<path class="st1" d="M779.8,1096.2h-6.2c-0.9,0.6-1.8,1.2-2.7,1.8h6.7v6.8h-1.1v-0.5h-6.6v0.5h-1v-5.8c-1,0.5-2.1,1-3.2,1.4
			c-0.1-0.2-0.4-0.6-0.6-0.8c2.4-0.9,4.7-2,6.8-3.4h-6.6v-0.9h5.7v-2.2h-4.2v-0.9h4.2v-2.2l1.4,0.1c0,0.1-0.1,0.2-0.3,0.2v1.9h4.2
			v0.5c0.7-0.7,1.3-1.4,1.9-2.1l1.1,0.7c0,0.1-0.1,0.1-0.3,0.1c0,0-0.1,0-0.2,0c-1.1,1.4-2.5,2.8-3.9,4h5V1096.2z M776.5,1100.7
			v-1.7h-6.6v1.7H776.5z M769.9,1103.3h6.6v-1.8h-6.6V1103.3z M772,1095.3h1.2c0.9-0.7,1.8-1.4,2.6-2.2H772V1095.3z"/>
		<path class="st1" d="M785.5,1097.1v-2.1c-0.8,1-1.9,1.9-2.9,2.5c-0.1-0.2-0.4-0.6-0.6-0.8c1.2-0.5,2.5-1.6,3.2-2.7h-3.2v-0.9h3.4
			v-3.1l1.3,0.1c0,0.1-0.1,0.2-0.3,0.2v2.8h3.4v0.9h-3.4v0.4c0.7,0.4,2.4,1.5,2.8,1.8l-0.6,0.8c-0.4-0.4-1.4-1.2-2.2-1.7v1.9H785.5z
			 M790,1099.6h-1.4c-0.2,1-0.6,1.8-1.1,2.5c0.7,0.4,1.4,0.8,1.9,1.1l-0.7,0.8c-0.5-0.4-1.1-0.8-1.8-1.2c-0.9,0.8-2.2,1.5-4,1.9
			c-0.1-0.3-0.3-0.7-0.5-0.9c1.5-0.3,2.7-0.8,3.5-1.5c-0.6-0.3-1.2-0.6-1.9-0.8l-0.3,0.6l-0.9-0.4c0.4-0.6,0.8-1.4,1.2-2.2H782v-0.9
			h2.3c0.3-0.5,0.5-1.1,0.7-1.5l1.3,0.3c0,0.1-0.1,0.2-0.4,0.1c-0.2,0.3-0.3,0.7-0.5,1.1h4.5V1099.6z M783.5,1090.4
			c0.5,0.7,0.9,1.5,1.1,2.1l-0.8,0.4c-0.2-0.6-0.6-1.5-1.1-2.2L783.5,1090.4z M785,1099.6c-0.2,0.4-0.4,0.8-0.6,1.2
			c0.7,0.3,1.4,0.6,2.1,0.9c0.5-0.6,0.8-1.3,1-2.1H785z M787.2,1092.6c0.4-0.6,1-1.5,1.3-2.2l1.1,0.5c0,0.1-0.2,0.1-0.3,0.1
			c-0.3,0.6-0.9,1.4-1.4,1.9L787.2,1092.6z M796.9,1094h-1.1c-0.4,2.6-1,4.8-2,6.6c0.8,1.5,1.9,2.6,3.2,3.3
			c-0.3,0.2-0.6,0.6-0.8,0.9c-1.3-0.8-2.3-1.9-3.1-3.2c-1,1.3-2.2,2.4-3.9,3.2c-0.1-0.3-0.4-0.7-0.6-0.9c1.7-0.8,3-1.9,3.9-3.4
			c-0.7-1.4-1.2-2.9-1.5-4.6c-0.3,0.7-0.7,1.4-1,1.9c-0.2-0.2-0.6-0.5-0.8-0.7c1.1-1.6,2-4.4,2.4-7.2l1.4,0.3c0,0.1-0.1,0.2-0.4,0.2
			c-0.2,0.8-0.4,1.7-0.6,2.5h4.8V1094z M791.8,1094l0,0.2c0.3,1.9,0.8,3.7,1.5,5.3c0.7-1.5,1.2-3.3,1.5-5.4H791.8z"/>
		<path class="st1" d="M809,1103.5v-2.7h-5v-1.3l5.2-7.4h1.1v7.4h1.5v1.3h-1.5v2.7H809z M809,1099.4v-5.2l-3.6,5.2H809z"/>
		<path class="st1" d="M814.4,1097.8c0-1.4,0.1-2.4,0.4-3.3c0.3-0.8,0.7-1.5,1.2-1.9c0.5-0.4,1.2-0.7,2.1-0.7c0.6,0,1.2,0.1,1.6,0.4
			c0.5,0.2,0.8,0.6,1.1,1.1c0.3,0.5,0.5,1,0.7,1.7s0.3,1.6,0.3,2.7c0,1.3-0.1,2.4-0.4,3.3c-0.3,0.8-0.7,1.5-1.2,1.9
			c-0.5,0.5-1.2,0.7-2.1,0.7c-1.1,0-2-0.4-2.6-1.2C814.7,1101.5,814.4,1100,814.4,1097.8z M815.8,1097.8c0,1.9,0.2,3.1,0.7,3.8
			c0.4,0.6,1,0.9,1.6,0.9c0.6,0,1.2-0.3,1.6-0.9c0.4-0.6,0.7-1.9,0.7-3.7c0-1.9-0.2-3.1-0.7-3.8c-0.4-0.6-1-0.9-1.6-0.9
			c-0.6,0-1.2,0.3-1.5,0.8C816,1094.7,815.8,1095.9,815.8,1097.8z"/>
		<path class="st1" d="M824.2,1097.8c0-1.4,0.1-2.4,0.4-3.3s0.7-1.5,1.2-1.9s1.2-0.7,2.1-0.7c0.6,0,1.2,0.1,1.6,0.4s0.8,0.6,1.1,1.1
			s0.5,1,0.7,1.7s0.3,1.6,0.3,2.7c0,1.3-0.1,2.4-0.4,3.3s-0.7,1.5-1.2,1.9s-1.2,0.7-2.1,0.7c-1.1,0-2-0.4-2.6-1.2
			C824.6,1101.5,824.2,1100,824.2,1097.8z M825.7,1097.8c0,1.9,0.2,3.1,0.7,3.8s1,0.9,1.6,0.9s1.2-0.3,1.6-0.9s0.7-1.9,0.7-3.7
			c0-1.9-0.2-3.1-0.7-3.8s-1-0.9-1.6-0.9c-0.6,0-1.2,0.3-1.5,0.8C825.9,1094.7,825.7,1095.9,825.7,1097.8z"/>
		<path class="st1" d="M847.7,1098v6.9h-1.1v-0.7h-6.9v0.6h-1.1v-5.3c-1.3,0.8-2.7,1.4-4.1,1.9c-0.1-0.3-0.4-0.7-0.6-0.9
			c2.1-0.6,4.2-1.7,6.1-3.2c-0.6-0.7-1.7-1.6-2.6-2.3l0.8-0.7c0.9,0.6,2,1.5,2.6,2.2c1.3-1.2,2.4-2.5,3.1-4h-5.1
			c-1.1,1.2-2.4,2.4-4.1,3.5c-0.2-0.3-0.5-0.6-0.8-0.8c2.6-1.5,4.5-3.6,5.4-5.3l1.4,0.2c0,0.1-0.1,0.2-0.4,0.2
			c-0.2,0.4-0.5,0.8-0.8,1.2h4.9l0.2-0.1l0.8,0.4c0,0.1-0.1,0.1-0.2,0.1c-1,2.3-2.6,4.3-4.5,5.9H847.7z M839.7,1103.2h6.9v-4.2h-6.9
			V1103.2z"/>
	</g>
	<g class="st0">
		<path class="st1" d="M645.3,1094.3c0,0.1-0.1,0.2-0.4,0.2c-0.5,2.1-1.4,5-2.9,6.8c-0.3-0.2-0.7-0.4-1-0.6c1.5-1.7,2.4-4.5,2.8-6.7
			L645.3,1094.3z M648.1,1090.2l1.5,0.1c0,0.1-0.1,0.2-0.3,0.2v12.8c0,0.8-0.2,1.2-0.8,1.4c-0.6,0.2-1.6,0.2-3.1,0.2
			c-0.1-0.3-0.3-0.8-0.5-1.1c0.7,0,1.4,0,1.9,0c1.1,0,1.2,0,1.2-0.4V1090.2z M655.1,1101.6c-0.4-1.9-1.7-5-3.1-7.3l1-0.4
			c1.4,2.3,2.8,5.3,3.2,7.2L655.1,1101.6z"/>
		<path class="st1" d="M664.2,1098.7c0,0.1-0.1,0.2-0.3,0.2c-0.4,2.9-1.1,4.9-5,5.9c-0.1-0.3-0.4-0.7-0.6-0.9
			c3.6-0.9,4.3-2.5,4.5-5.3L664.2,1098.7z M665,1094.4v-1.7h-6.5v-1h6.5v-1.7l1.4,0.1c0,0.1-0.1,0.2-0.3,0.2v1.4h6.6v1h-6.6v1.7h5.1
			v1H660v-1H665z M672.1,1099.8h-1.1v-2h-11v2h-1v-3h13.2V1099.8z M667.9,1103c0,0.4,0.1,0.5,0.8,0.5h2.3c0.6,0,0.7-0.3,0.8-2.2
			c0.2,0.2,0.7,0.4,1,0.4c-0.1,2.2-0.4,2.7-1.7,2.7h-2.4c-1.4,0-1.8-0.3-1.8-1.5v-4.4l1.4,0.1c0,0.1-0.1,0.2-0.3,0.2V1103z"/>
		<path class="st1" d="M689.6,1100.9h-5.6c1.5,1.2,3.8,2.3,5.9,2.7c-0.2,0.2-0.6,0.7-0.7,0.9c-2.2-0.6-4.7-1.9-6.3-3.4v3.7h-1.1
			v-3.6c-1.6,1.5-4,2.7-6.2,3.3c-0.1-0.3-0.5-0.7-0.7-0.9c2.1-0.5,4.4-1.5,5.9-2.7h-5.5v-0.9h6.5v-1.3h-5v-0.9h5v-1.3h-5.8v-0.9h3.6
			c-0.2-0.5-0.5-1.2-0.8-1.7l0.6-0.1h-4.1v-0.9h2.7c-0.2-0.7-0.8-1.7-1.3-2.4l0.9-0.3c0.6,0.7,1.2,1.8,1.4,2.4l-0.8,0.3h2.1v-2.9
			l1.4,0.1c0,0.2-0.1,0.2-0.4,0.3v2.6h2.1v-2.9l1.4,0.1c0,0.2-0.2,0.2-0.4,0.3v2.6h2c-0.2-0.1-0.4-0.2-0.6-0.2
			c0.5-0.7,1-1.8,1.3-2.5l1.3,0.4c0,0.1-0.2,0.1-0.3,0.1c-0.3,0.6-0.8,1.5-1.3,2.1h2.6v0.9h-3.6l0.5,0.1c0,0.1-0.2,0.2-0.3,0.1
			c-0.2,0.4-0.6,1.1-0.9,1.5h3.8v0.9H683v1.3h5.2v0.9H683v1.3h6.6V1100.9z M684.1,1095.6c0.3-0.5,0.7-1.2,0.9-1.7h-5
			c0.4,0.5,0.7,1.2,0.9,1.7l-0.5,0.1h4L684.1,1095.6z"/>
	</g>
</g>
</svg>
