<?xml version="1.0" encoding="utf-8"?>
<!-- Generator: Adobe Illustrator 24.2.0, SVG Export Plug-In . SVG Version: 6.00 Build 0)  -->
<svg version="1.1" id="レイヤー_1" xmlns="http://www.w3.org/2000/svg" xmlns:xlink="http://www.w3.org/1999/xlink" x="0px"
	 y="0px" viewBox="0 0 35 104" style="enable-background:new 0 0 35 104;" xml:space="preserve">
<style type="text/css">
	.st0{enable-background:new    ;}
</style>
<g class="st0">
	<path d="M13,16.7c-2-0.5-3.5-1.4-4.6-2.7c-1.1-1.4-1.6-3-1.6-4.8c0-1.7,0.4-3.1,1.2-4.2c0.8-1.1,1.6-2,2.6-2.5
		C11,2.3,11.3,2.2,11.6,2c0.3-0.1,0.7-0.2,1.1-0.3c0.9-0.1,2.5-0.2,5-0.2c2.5,0,4.1,0.1,5,0.2c0.8,0.2,1.5,0.4,2,0.7
		c1,0.5,1.9,1.3,2.6,2.5c0.8,1.1,1.2,2.5,1.2,4.2c0,2.1-0.6,3.7-1.8,5c-1.2,1.3-2.7,2.1-4.5,2.5v-3.4c0.9-0.3,1.6-0.7,2.2-1.4
		c0.6-0.7,0.9-1.6,0.9-2.6c0-0.8-0.2-1.4-0.5-2c-0.3-0.6-0.7-1-1.1-1.3c-0.5-0.4-1-0.7-1.8-0.8c-0.8-0.2-2.2-0.2-4.3-0.2
		S14.2,4.9,13.4,5c-0.7,0.1-1.3,0.4-1.8,0.8c-0.4,0.3-0.8,0.8-1.1,1.3c-0.3,0.5-0.5,1.2-0.5,2c0,1.8,1,3.2,2.9,4.1V16.7z"/>
	<path d="M22.2,20.2v3.1h-9.1c-1,0-1.8,0.3-2.4,0.9c-0.6,0.6-0.9,1.3-0.9,2.2s0.3,1.6,0.9,2.2c0.6,0.6,1.4,0.8,2.4,0.8h9.1v3.1H7
		v-3.1h1.6v-0.1c-1.2-1-1.8-2.3-1.8-3.9c0-1.3,0.5-2.4,1.4-3.4c0.9-1.1,2.2-1.7,3.9-1.7H22.2z"/>
	<path d="M9.7,43c0,0.9,0.2,1.6,0.5,2.2S11,46,11.6,46c0.5,0,0.9-0.2,1.1-0.5c0.2-0.3,0.3-0.8,0.4-1.4l0.2-2.7
		c0.1-1.3,0.5-2.3,1.3-3.1c0.7-0.8,1.7-1.2,3-1.3c1.6,0,2.7,0.6,3.5,1.7c0.8,1.1,1.2,2.4,1.2,4c0,0.7,0,1.3-0.1,1.9
		c-0.1,0.6-0.2,1.1-0.4,1.6c-0.4,0.9-0.9,1.8-1.5,2.5l-2.2-1.9c0.4-0.6,0.8-1.2,1-1.9c0.2-0.6,0.4-1.4,0.4-2.2c0-1-0.2-1.6-0.5-2
		c-0.3-0.4-0.8-0.6-1.3-0.6c-0.3,0-0.6,0.1-0.9,0.5c-0.3,0.3-0.5,0.8-0.5,1.6l-0.2,2.5c-0.1,1.6-0.6,2.7-1.4,3.4
		c-0.8,0.7-1.9,1-3.1,1c-1.5,0-2.6-0.6-3.4-1.8c-0.8-1.2-1.2-2.7-1.3-4.5c0-2.5,0.9-4.7,2.7-6.7l2.1,2.1C10.3,39.5,9.7,41.1,9.7,43z
		"/>
	<path d="M26.8,53.9v3.1h-4.6v2.2h-2.3v-2.2H11c-0.8,0-1.1,0.3-1.1,1.1v1.1H7v-1.6c0-1.1,0.3-2,1-2.6c0.6-0.7,1.6-1.1,2.8-1.1h9.1
		v-1.5h2.3v1.5H26.8z"/>
	<path d="M14.6,62.8c1.6,0,2.8,0.1,3.7,0.4c0.8,0.3,1.5,0.7,2.1,1.3c0.5,0.4,1,1,1.4,1.8c0.4,0.7,0.6,1.7,0.6,2.9
		c0,1.2-0.2,2.2-0.6,2.9c-0.4,0.7-0.9,1.3-1.4,1.7c-0.6,0.6-1.3,1-2.1,1.3c-0.9,0.2-2.1,0.4-3.7,0.4s-2.8-0.1-3.7-0.4
		c-0.8-0.3-1.6-0.7-2.2-1.3c-0.2-0.2-0.4-0.4-0.7-0.7c-0.2-0.3-0.5-0.6-0.6-1c-0.4-0.7-0.6-1.7-0.7-2.9c0-1.2,0.2-2.1,0.7-2.9
		c0.4-0.8,0.8-1.3,1.3-1.8c0.6-0.6,1.3-1,2.2-1.3C11.8,62.9,13,62.8,14.6,62.8z M14.6,72.2c1.1,0,1.9,0,2.4-0.1
		c0.5-0.1,0.9-0.3,1.3-0.6c0.3-0.2,0.6-0.6,0.8-1c0.2-0.4,0.3-0.9,0.3-1.5c0-0.5-0.1-1-0.3-1.4c-0.2-0.4-0.5-0.8-0.8-1
		c-0.4-0.3-0.8-0.5-1.3-0.6c-0.5-0.1-1.3-0.2-2.3-0.2c-1.1,0-1.8,0.1-2.3,0.2c-0.5,0.1-0.9,0.3-1.3,0.6c-0.3,0.3-0.6,0.6-0.8,1
		C10,68,9.9,68.5,9.9,69c0,0.6,0.1,1,0.3,1.5c0.2,0.4,0.5,0.8,0.8,1c0.4,0.3,0.8,0.5,1.3,0.6C12.8,72.2,13.6,72.2,14.6,72.2z"/>
	<path d="M22.2,80.2v3.1h-1.6v0.1c1.2,1,1.8,2.3,1.8,4c0,1.1-0.2,1.9-0.5,2.5c-0.4,0.6-0.9,1.2-1.5,1.7c1.3,1.2,2,2.8,2,4.8
		c0,1.3-0.4,2.4-1.3,3.5c-0.9,1-2.2,1.6-4,1.6H7v-3.1h9.1c1.1,0,1.9-0.3,2.4-0.8c0.6-0.6,0.8-1.3,0.8-2.2s-0.3-1.6-0.8-2.2
		c-0.6-0.6-1.4-0.9-2.4-0.9H7v-3.1h9.1c1.1,0,1.9-0.3,2.4-0.8c0.6-0.6,0.8-1.3,0.8-2.2s-0.3-1.6-0.8-2.2c-0.6-0.6-1.4-0.9-2.4-0.9H7
		v-3.1H22.2z"/>
</g>
</svg>
