<?xml version="1.0" encoding="utf-8"?>
<!-- Generator: Adobe Illustrator 24.2.0, SVG Export Plug-In . SVG Version: 6.00 Build 0)  -->
<svg version="1.1" id="レイヤー_1" xmlns="http://www.w3.org/2000/svg" xmlns:xlink="http://www.w3.org/1999/xlink" x="0px"
	 y="0px" viewBox="0 0 628 598" style="enable-background:new 0 0 628 598;" xml:space="preserve">
<style type="text/css">
	.st0{fill:#FFFFFF;}
	.st1{fill:none;stroke:#A5A9AC;}
	.st2{fill:#F5F8FA;}
	.st3{fill:#A5A9AC;}
	.st4{enable-background:new    ;}
</style>
<g transform="translate(-497 -2345)">
	<g transform="translate(497 2756)">
		<g transform="translate(105)">
			<rect class="st0" width="263" height="187"/>
			<rect x="0.5" y="0.5" class="st1" width="262" height="186"/>
		</g>
		<rect x="236" y="1" class="st2" width="130" height="185"/>
		<rect x="105" y="94" class="st3" width="263" height="1"/>
		<g transform="translate(-315.584 134.171)">
			<g class="st4">
				<path d="M439.7,15.8h-1.8V4.6c-0.4,0.4-1,0.8-1.7,1.2s-1.3,0.7-1.9,0.9V5c1-0.5,1.8-1,2.6-1.7s1.3-1.3,1.6-1.9h1.1V15.8z"/>
				<path d="M450.8,15.8v-3.4h-6.2v-1.6l6.5-9.3h1.4v9.3h1.9v1.6h-1.9v3.4H450.8z M450.8,10.8V4.3l-4.5,6.5H450.8z"/>
				<path d="M457.3,8.8c0-1.7,0.2-3.1,0.5-4.1s0.9-1.8,1.6-2.4s1.6-0.8,2.6-0.8c0.8,0,1.4,0.2,2,0.5s1.1,0.8,1.4,1.3
					s0.7,1.3,0.9,2.1s0.3,2,0.3,3.4c0,1.7-0.2,3-0.5,4.1s-0.9,1.8-1.5,2.4s-1.6,0.8-2.6,0.8c-1.4,0-2.5-0.5-3.3-1.5
					C457.8,13.4,457.3,11.5,457.3,8.8z M459.1,8.8c0,2.4,0.3,3.9,0.8,4.7s1.2,1.2,2,1.2s1.5-0.4,2-1.2s0.8-2.3,0.8-4.7
					c0-2.4-0.3-3.9-0.8-4.7s-1.2-1.2-2.1-1.2c-0.8,0-1.5,0.3-1.9,1C459.4,4.8,459.1,6.4,459.1,8.8z"/>
				<path d="M470.4,15.8v-2h2v2c0,0.7-0.1,1.3-0.4,1.8s-0.7,0.8-1.2,1l-0.5-0.8c0.4-0.2,0.6-0.4,0.8-0.7s0.3-0.8,0.3-1.4H470.4z"/>
				<path d="M476,8.8c0-1.7,0.2-3.1,0.5-4.1s0.9-1.8,1.6-2.4s1.6-0.8,2.6-0.8c0.8,0,1.4,0.2,2,0.5s1.1,0.8,1.4,1.3s0.7,1.3,0.9,2.1
					s0.3,2,0.3,3.4c0,1.7-0.2,3-0.5,4.1s-0.9,1.8-1.5,2.4s-1.6,0.8-2.6,0.8c-1.4,0-2.5-0.5-3.3-1.5C476.5,13.4,476,11.5,476,8.8z
					 M477.8,8.8c0,2.4,0.3,3.9,0.8,4.7s1.2,1.2,2,1.2s1.5-0.4,2-1.2s0.8-2.3,0.8-4.7c0-2.4-0.3-3.9-0.8-4.7s-1.2-1.2-2.1-1.2
					c-0.8,0-1.5,0.3-1.9,1C478.1,4.8,477.8,6.4,477.8,8.8z"/>
				<path d="M488.1,8.8c0-1.7,0.2-3.1,0.5-4.1s0.9-1.8,1.6-2.4s1.6-0.8,2.6-0.8c0.8,0,1.4,0.2,2,0.5s1.1,0.8,1.4,1.3
					s0.7,1.3,0.9,2.1s0.3,2,0.3,3.4c0,1.7-0.2,3-0.5,4.1s-0.9,1.8-1.5,2.4s-1.6,0.8-2.6,0.8c-1.4,0-2.5-0.5-3.3-1.5
					C488.6,13.4,488.1,11.5,488.1,8.8z M489.9,8.8c0,2.4,0.3,3.9,0.8,4.7s1.2,1.2,2,1.2s1.5-0.4,2-1.2s0.8-2.3,0.8-4.7
					c0-2.4-0.3-3.9-0.8-4.7s-1.2-1.2-2.1-1.2c-0.8,0-1.5,0.3-1.9,1C490.2,4.8,489.9,6.4,489.9,8.8z"/>
				<path d="M500.3,8.8c0-1.7,0.2-3.1,0.5-4.1s0.9-1.8,1.6-2.4s1.6-0.8,2.6-0.8c0.8,0,1.4,0.2,2,0.5s1.1,0.8,1.4,1.3
					s0.7,1.3,0.9,2.1s0.3,2,0.3,3.4c0,1.7-0.2,3-0.5,4.1s-0.9,1.8-1.5,2.4s-1.6,0.8-2.6,0.8c-1.4,0-2.5-0.5-3.3-1.5
					C500.7,13.4,500.3,11.5,500.3,8.8z M502.1,8.8c0,2.4,0.3,3.9,0.8,4.7s1.2,1.2,2,1.2s1.5-0.4,2-1.2s0.8-2.3,0.8-4.7
					c0-2.4-0.3-3.9-0.8-4.7s-1.2-1.2-2.1-1.2c-0.8,0-1.5,0.3-1.9,1C502.4,4.8,502.1,6.4,502.1,8.8z"/>
			</g>
			<g class="st4">
				<path d="M576.7,14.8h-1.8V3.6c-0.4,0.4-1,0.8-1.7,1.2s-1.3,0.7-1.9,0.9V4c1-0.5,1.8-1,2.6-1.7s1.3-1.3,1.6-1.9h1.1V14.8z"/>
				<path d="M582.2,11.1l1.8-0.2c0.1,0.9,0.5,1.6,1,2s1.1,0.7,1.8,0.7c0.8,0,1.6-0.3,2.1-1s0.9-1.5,0.9-2.5c0-1-0.3-1.8-0.8-2.4
					s-1.3-0.9-2.2-0.9c-0.6,0-1.1,0.1-1.5,0.4s-0.8,0.6-1.1,1l-1.7-0.2l1.4-7.4h7.1v1.7h-5.7l-0.8,3.8c0.9-0.6,1.8-0.9,2.7-0.9
					c1.2,0,2.3,0.4,3.2,1.3s1.3,2,1.3,3.3c0,1.3-0.4,2.4-1.1,3.4c-0.9,1.2-2.2,1.7-3.8,1.7c-1.3,0-2.4-0.4-3.2-1.1
					S582.3,12.3,582.2,11.1z"/>
				<path d="M594.3,7.8c0-1.7,0.2-3.1,0.5-4.1s0.9-1.8,1.6-2.4s1.6-0.8,2.6-0.8c0.8,0,1.4,0.2,2,0.5s1.1,0.8,1.4,1.3
					s0.7,1.3,0.9,2.1s0.3,2,0.3,3.4c0,1.7-0.2,3-0.5,4.1s-0.9,1.8-1.5,2.4s-1.6,0.8-2.6,0.8c-1.4,0-2.5-0.5-3.3-1.5
					C594.8,12.4,594.3,10.5,594.3,7.8z M596.1,7.8c0,2.4,0.3,3.9,0.8,4.7s1.2,1.2,2,1.2s1.5-0.4,2-1.2s0.8-2.3,0.8-4.7
					c0-2.4-0.3-3.9-0.8-4.7s-1.2-1.2-2.1-1.2c-0.8,0-1.5,0.3-1.9,1C596.4,3.8,596.1,5.4,596.1,7.8z"/>
				<path d="M607.4,14.8v-2h2v2c0,0.7-0.1,1.3-0.4,1.8s-0.7,0.8-1.2,1l-0.5-0.8c0.4-0.2,0.6-0.4,0.8-0.7s0.3-0.8,0.3-1.4H607.4z"/>
				<path d="M613,7.8c0-1.7,0.2-3.1,0.5-4.1s0.9-1.8,1.6-2.4s1.6-0.8,2.6-0.8c0.8,0,1.4,0.2,2,0.5s1.1,0.8,1.4,1.3s0.7,1.3,0.9,2.1
					s0.3,2,0.3,3.4c0,1.7-0.2,3-0.5,4.1s-0.9,1.8-1.5,2.4s-1.6,0.8-2.6,0.8c-1.4,0-2.5-0.5-3.3-1.5C613.5,12.4,613,10.5,613,7.8z
					 M614.8,7.8c0,2.4,0.3,3.9,0.8,4.7s1.2,1.2,2,1.2s1.5-0.4,2-1.2s0.8-2.3,0.8-4.7c0-2.4-0.3-3.9-0.8-4.7s-1.2-1.2-2.1-1.2
					c-0.8,0-1.5,0.3-1.9,1C615.1,3.8,614.8,5.4,614.8,7.8z"/>
				<path d="M625.1,7.8c0-1.7,0.2-3.1,0.5-4.1s0.9-1.8,1.6-2.4s1.6-0.8,2.6-0.8c0.8,0,1.4,0.2,2,0.5c0.6,0.3,1.1,0.8,1.4,1.3
					c0.4,0.6,0.7,1.3,0.9,2.1s0.3,2,0.3,3.4c0,1.7-0.2,3-0.5,4.1c-0.3,1-0.9,1.8-1.5,2.4c-0.7,0.6-1.6,0.8-2.6,0.8
					c-1.4,0-2.5-0.5-3.3-1.5C625.6,12.4,625.1,10.5,625.1,7.8z M626.9,7.8c0,2.4,0.3,3.9,0.8,4.7s1.2,1.2,2,1.2c0.8,0,1.5-0.4,2-1.2
					c0.5-0.8,0.8-2.3,0.8-4.7c0-2.4-0.3-3.9-0.8-4.7c-0.6-0.8-1.2-1.2-2.1-1.2c-0.8,0-1.5,0.3-1.9,1C627.2,3.8,626.9,5.4,626.9,7.8z
					"/>
				<path d="M637.3,7.8c0-1.7,0.2-3.1,0.5-4.1c0.3-1,0.9-1.8,1.6-2.4c0.7-0.6,1.6-0.8,2.6-0.8c0.8,0,1.4,0.2,2,0.5
					c0.6,0.3,1.1,0.8,1.4,1.3c0.4,0.6,0.7,1.3,0.9,2.1s0.3,2,0.3,3.4c0,1.7-0.2,3-0.5,4.1c-0.3,1-0.9,1.8-1.5,2.4
					c-0.7,0.6-1.6,0.8-2.6,0.8c-1.4,0-2.5-0.5-3.3-1.5C637.7,12.4,637.3,10.5,637.3,7.8z M639.1,7.8c0,2.4,0.3,3.9,0.8,4.7
					c0.5,0.8,1.2,1.2,2,1.2c0.8,0,1.5-0.4,2-1.2c0.5-0.8,0.8-2.3,0.8-4.7c0-2.4-0.3-3.9-0.8-4.7c-0.6-0.8-1.2-1.2-2.1-1.2
					c-0.8,0-1.5,0.3-1.9,1C639.4,3.8,639.1,5.4,639.1,7.8z"/>
			</g>
		</g>
		<g transform="translate(-339.584 42.021)">
			<g class="st4">
				<path d="M458,7.2c-0.7-0.3-1.3-0.6-1.6-1.1s-0.5-1.1-0.5-1.8c0-1,0.4-1.9,1.1-2.6s1.7-1.1,3-1.1c1.2,0,2.3,0.4,3,1.1
					s1.1,1.6,1.1,2.7c0,0.7-0.2,1.2-0.5,1.7s-0.9,0.9-1.6,1.1c0.9,0.3,1.5,0.7,2,1.4s0.7,1.4,0.7,2.3c0,1.2-0.4,2.3-1.3,3.1
					s-2,1.2-3.4,1.2s-2.6-0.4-3.4-1.3s-1.3-1.9-1.3-3.1c0-0.9,0.2-1.7,0.7-2.3S457.1,7.4,458,7.2z M457.1,10.8c0,0.5,0.1,1,0.4,1.5
					s0.6,0.8,1.1,1.1s1,0.4,1.5,0.4c0.8,0,1.5-0.3,2.1-0.8s0.8-1.2,0.8-2.1c0-0.8-0.3-1.5-0.8-2.1S460.8,8,460,8
					c-0.8,0-1.5,0.3-2.1,0.8S457.1,10,457.1,10.8z M457.6,4.2c0,0.7,0.2,1.2,0.7,1.7s1,0.6,1.7,0.6c0.7,0,1.2-0.2,1.7-0.6
					s0.6-0.9,0.6-1.6c0-0.6-0.2-1.2-0.7-1.6S460.6,2,460,2c-0.7,0-1.2,0.2-1.7,0.6S457.6,3.6,457.6,4.2z"/>
				<path d="M467.4,7.9c0-1.7,0.2-3.1,0.5-4.1s0.9-1.8,1.6-2.4s1.6-0.8,2.6-0.8c0.8,0,1.4,0.2,2,0.5s1.1,0.8,1.4,1.3
					s0.7,1.3,0.9,2.1s0.3,2,0.3,3.4c0,1.7-0.2,3-0.5,4.1s-0.9,1.8-1.5,2.4s-1.6,0.8-2.6,0.8c-1.4,0-2.5-0.5-3.3-1.5
					C467.9,12.5,467.4,10.6,467.4,7.9z M469.2,7.9c0,2.4,0.3,3.9,0.8,4.7s1.2,1.2,2,1.2s1.5-0.4,2-1.2s0.8-2.3,0.8-4.7
					c0-2.4-0.3-3.9-0.8-4.7s-1.2-1.2-2.1-1.2c-0.8,0-1.5,0.3-1.9,1C469.5,4,469.2,5.6,469.2,7.9z"/>
				<path d="M486.2,15h-1.8V3.8c-0.4,0.4-1,0.8-1.7,1.2s-1.3,0.7-1.9,0.9V4.2c1-0.5,1.8-1,2.6-1.7s1.3-1.3,1.6-1.9h1.1V15z"/>
				<path d="M510,6.5c-1.3,2.3-3.1,3.5-5.2,3.5c-1.8,0-3.1-0.7-4.5-2.1c-1.1-1.1-2-1.7-3.5-1.7c-1.6,0-3,1.1-3.9,2.7l-1.3-0.7
					c1.3-2.3,3.1-3.5,5.2-3.5c1.8,0,3.1,0.7,4.5,2.1c1.1,1.1,2,1.7,3.5,1.7c1.6,0,3-1.1,3.9-2.7L510,6.5z"/>
				<path d="M512.9,11.7l1.7-0.2c0.1,0.8,0.4,1.4,0.8,1.7s0.9,0.5,1.6,0.5c0.5,0,1-0.1,1.4-0.4s0.7-0.6,1-1s0.5-1,0.7-1.7
					s0.3-1.4,0.3-2.1c0-0.1,0-0.2,0-0.4c-0.4,0.6-0.8,1-1.4,1.4s-1.3,0.5-2,0.5c-1.2,0-2.2-0.4-3-1.3s-1.2-2-1.2-3.4
					c0-1.5,0.4-2.6,1.3-3.5s1.9-1.3,3.2-1.3c0.9,0,1.8,0.3,2.6,0.8s1.4,1.2,1.8,2.1s0.6,2.3,0.6,4c0,1.8-0.2,3.3-0.6,4.4
					s-1,1.9-1.8,2.5s-1.7,0.8-2.8,0.8c-1.1,0-2-0.3-2.7-0.9S513.1,12.8,512.9,11.7z M520.1,5.4c0-1-0.3-1.8-0.8-2.4
					s-1.2-0.9-1.9-0.9c-0.8,0-1.5,0.3-2,1s-0.9,1.5-0.9,2.5c0,0.9,0.3,1.7,0.8,2.2s1.2,0.9,2,0.9c0.8,0,1.5-0.3,2-0.9
					S520.1,6.4,520.1,5.4z"/>
				<path d="M524.8,7.9c0-1.7,0.2-3.1,0.5-4.1s0.9-1.8,1.6-2.4s1.6-0.8,2.6-0.8c0.8,0,1.4,0.2,2,0.5s1.1,0.8,1.4,1.3
					s0.7,1.3,0.9,2.1s0.3,2,0.3,3.4c0,1.7-0.2,3-0.5,4.1s-0.9,1.8-1.5,2.4s-1.6,0.8-2.6,0.8c-1.4,0-2.5-0.5-3.3-1.5
					C525.3,12.5,524.8,10.6,524.8,7.9z M526.6,7.9c0,2.4,0.3,3.9,0.8,4.7s1.2,1.2,2,1.2s1.5-0.4,2-1.2s0.8-2.3,0.8-4.7
					c0-2.4-0.3-3.9-0.8-4.7s-1.2-1.2-2.1-1.2c-0.8,0-1.5,0.3-1.9,1C526.9,4,526.6,5.6,526.6,7.9z"/>
				<path d="M536.9,7.9c0-1.7,0.2-3.1,0.5-4.1s0.9-1.8,1.6-2.4s1.6-0.8,2.6-0.8c0.8,0,1.4,0.2,2,0.5s1.1,0.8,1.4,1.3
					s0.7,1.3,0.9,2.1s0.3,2,0.3,3.4c0,1.7-0.2,3-0.5,4.1s-0.9,1.8-1.5,2.4s-1.6,0.8-2.6,0.8c-1.4,0-2.5-0.5-3.3-1.5
					C537.4,12.5,536.9,10.6,536.9,7.9z M538.7,7.9c0,2.4,0.3,3.9,0.8,4.7s1.2,1.2,2,1.2s1.5-0.4,2-1.2s0.8-2.3,0.8-4.7
					c0-2.4-0.3-3.9-0.8-4.7s-1.2-1.2-2.1-1.2c-0.8,0-1.5,0.3-1.9,1C539,4,538.7,5.6,538.7,7.9z"/>
			</g>
			<g class="st4">
				<path d="M583.5,11.7l1.7-0.2c0.1,0.8,0.4,1.4,0.8,1.7s0.9,0.5,1.6,0.5c0.5,0,1-0.1,1.4-0.4s0.7-0.6,1-1s0.5-1,0.7-1.7
					s0.3-1.4,0.3-2.1c0-0.1,0-0.2,0-0.4c-0.4,0.6-0.8,1-1.4,1.4s-1.3,0.5-2,0.5c-1.2,0-2.2-0.4-3-1.3s-1.2-2-1.2-3.4
					c0-1.5,0.4-2.6,1.3-3.5s1.9-1.3,3.2-1.3c0.9,0,1.8,0.3,2.6,0.8s1.4,1.2,1.8,2.1s0.6,2.3,0.6,4c0,1.8-0.2,3.3-0.6,4.4
					s-1,1.9-1.8,2.5s-1.7,0.8-2.8,0.8c-1.1,0-2-0.3-2.7-0.9S583.7,12.8,583.5,11.7z M590.7,5.4c0-1-0.3-1.8-0.8-2.4
					s-1.2-0.9-1.9-0.9c-0.8,0-1.5,0.3-2,1s-0.9,1.5-0.9,2.5c0,0.9,0.3,1.7,0.8,2.2s1.2,0.9,2,0.9c0.8,0,1.5-0.3,2-0.9
					S590.7,6.4,590.7,5.4z"/>
				<path d="M595.4,7.9c0-1.7,0.2-3.1,0.5-4.1s0.9-1.8,1.6-2.4s1.6-0.8,2.6-0.8c0.8,0,1.4,0.2,2,0.5s1.1,0.8,1.4,1.3
					s0.7,1.3,0.9,2.1s0.3,2,0.3,3.4c0,1.7-0.2,3-0.5,4.1s-0.9,1.8-1.5,2.4s-1.6,0.8-2.6,0.8c-1.4,0-2.5-0.5-3.3-1.5
					C595.8,12.5,595.4,10.6,595.4,7.9z M597.2,7.9c0,2.4,0.3,3.9,0.8,4.7s1.2,1.2,2,1.2s1.5-0.4,2-1.2s0.8-2.3,0.8-4.7
					c0-2.4-0.3-3.9-0.8-4.7s-1.2-1.2-2.1-1.2c-0.8,0-1.5,0.3-1.9,1C597.5,4,597.2,5.6,597.2,7.9z"/>
				<path d="M614.1,15h-1.8V3.8c-0.4,0.4-1,0.8-1.7,1.2s-1.3,0.7-1.9,0.9V4.2c1-0.5,1.8-1,2.6-1.7s1.3-1.3,1.6-1.9h1.1V15z"/>
				<path d="M637.9,6.5c-1.3,2.3-3.1,3.5-5.2,3.5c-1.8,0-3.1-0.7-4.5-2.1c-1.1-1.1-2-1.7-3.5-1.7c-1.6,0-3,1.1-3.9,2.7l-1.3-0.7
					c1.3-2.3,3.1-3.5,5.2-3.5c1.8,0,3.1,0.7,4.5,2.1c1.1,1.1,2,1.7,3.5,1.7c1.6,0,3-1.1,3.9-2.7L637.9,6.5z"/>
				<path d="M647.2,15h-1.8V3.8c-0.4,0.4-1,0.8-1.7,1.2s-1.3,0.7-1.9,0.9V4.2c1-0.5,1.8-1,2.6-1.7s1.3-1.3,1.6-1.9h1.1V15z"/>
				<path d="M652.7,7.9c0-1.7,0.2-3.1,0.5-4.1c0.3-1,0.9-1.8,1.6-2.4c0.7-0.6,1.6-0.8,2.6-0.8c0.8,0,1.4,0.2,2,0.5
					c0.6,0.3,1.1,0.8,1.4,1.3c0.4,0.6,0.7,1.3,0.9,2.1s0.3,2,0.3,3.4c0,1.7-0.2,3-0.5,4.1c-0.3,1-0.9,1.8-1.5,2.4
					c-0.7,0.6-1.6,0.8-2.6,0.8c-1.4,0-2.5-0.5-3.3-1.5C653.2,12.5,652.7,10.6,652.7,7.9z M654.5,7.9c0,2.4,0.3,3.9,0.8,4.7
					c0.5,0.8,1.2,1.2,2,1.2c0.8,0,1.5-0.4,2-1.2c0.5-0.8,0.8-2.3,0.8-4.7c0-2.4-0.3-3.9-0.8-4.7c-0.6-0.8-1.2-1.2-2.1-1.2
					c-0.8,0-1.5,0.3-1.9,1C654.8,4,654.5,5.6,654.5,7.9z"/>
				<path d="M664.9,7.9c0-1.7,0.2-3.1,0.5-4.1c0.3-1,0.9-1.8,1.6-2.4c0.7-0.6,1.6-0.8,2.6-0.8c0.8,0,1.4,0.2,2,0.5
					c0.6,0.3,1.1,0.8,1.4,1.3c0.4,0.6,0.7,1.3,0.9,2.1s0.3,2,0.3,3.4c0,1.7-0.2,3-0.5,4.1c-0.3,1-0.9,1.8-1.5,2.4
					c-0.7,0.6-1.6,0.8-2.6,0.8c-1.4,0-2.5-0.5-3.3-1.5C665.3,12.5,664.9,10.6,664.9,7.9z M666.7,7.9c0,2.4,0.3,3.9,0.8,4.7
					c0.5,0.8,1.2,1.2,2,1.2c0.8,0,1.5-0.4,2-1.2c0.5-0.8,0.8-2.3,0.8-4.7c0-2.4-0.3-3.9-0.8-4.7c-0.6-0.8-1.2-1.2-2.1-1.2
					c-0.8,0-1.5,0.3-1.9,1C667,4,666.7,5.6,666.7,7.9z"/>
				<path d="M677,7.9c0-1.7,0.2-3.1,0.5-4.1c0.3-1,0.9-1.8,1.6-2.4c0.7-0.6,1.6-0.8,2.6-0.8c0.8,0,1.4,0.2,2,0.5
					c0.6,0.3,1.1,0.8,1.4,1.3c0.4,0.6,0.7,1.3,0.9,2.1s0.3,2,0.3,3.4c0,1.7-0.2,3-0.5,4.1c-0.3,1-0.9,1.8-1.5,2.4
					c-0.7,0.6-1.6,0.8-2.6,0.8c-1.4,0-2.5-0.5-3.3-1.5C677.5,12.5,677,10.6,677,7.9z M678.8,7.9c0,2.4,0.3,3.9,0.8,4.7
					c0.5,0.8,1.2,1.2,2,1.2c0.8,0,1.5-0.4,2-1.2c0.5-0.8,0.8-2.3,0.8-4.7c0-2.4-0.3-3.9-0.8-4.7c-0.6-0.8-1.2-1.2-2.1-1.2
					c-0.8,0-1.5,0.3-1.9,1C679.1,4,678.8,5.6,678.8,7.9z"/>
			</g>
		</g>
		<rect width="105" height="187"/>
		<g class="st4">
			<path class="st0" d="M14,137.4c-0.7,1.2-1.4,2.3-2.1,3.2c-0.1-0.3-0.5-1-0.7-1.3c1.7-2.1,3.4-5.6,4.4-9l1.6,0.5
				c-0.1,0.1-0.2,0.2-0.5,0.2c-0.4,1.3-1,2.7-1.5,4l0.5,0.1c0,0.1-0.1,0.2-0.4,0.3v13.4H14V137.4z M30.3,133.1h-4.2v4h3.8v11.3h-1.3
				v-1.1h-10v1.2h-1.3v-11.4H21v-4h-4v-1.3h13.3V133.1z M18.6,138.3v7.8h2.5v-7.8H18.6z M24.8,137.1v-4h-2.5v4H24.8z M24.8,138.3
				h-2.5v7.8h2.5V138.3z M28.6,146v-7.8H26v7.8H28.6z"/>
			<path class="st0" d="M48.5,132.3c0.3,0,0.4,0,0.6-0.1l0.9,0.4c0,0.1-0.1,0.2-0.2,0.2c-0.7,2.1-1.9,3.8-3.3,5.3
				c1.4,1.2,3.1,2.3,5.1,2.9c-0.3,0.3-0.7,0.8-0.9,1.1c-0.3-0.1-0.6-0.2-0.9-0.4v6.8h-1.3v-0.9h-5.9v0.9h-1.3v-6.8
				c-0.5,0.3-1.1,0.5-1.6,0.7c-0.2-0.3-0.5-0.8-0.8-1.1l0.1,0c-0.3-0.7-1.1-1.8-1.7-2.7v9.9H36v-10c-0.8,2.4-1.8,4.7-2.8,6.1
				c-0.2-0.4-0.5-0.9-0.7-1.2c1.4-1.7,2.8-5,3.4-7.9h-2.9v-1.3H36v-4.4l1.7,0.1c0,0.1-0.1,0.2-0.4,0.3v4H40v1.3h-2.7v1.4
				c0.6,0.7,2.2,2.8,2.6,3.3c-0.4,0.5-0.6,0.7-0.7,0.9c1.9-0.7,3.8-1.8,5.4-3.2c-0.9-1-1.7-2.1-2.3-3.2c-0.7,0.9-1.4,1.7-2.1,2.4
				c-0.2-0.2-0.7-0.6-1-0.9c1.7-1.4,3.4-3.8,4.3-6.4l1.6,0.5c-0.1,0.1-0.2,0.2-0.4,0.2c-0.2,0.5-0.4,1-0.7,1.5H48.5z M48.7,141.3
				c-1.2-0.6-2.2-1.4-3.1-2.2c-0.9,0.9-2,1.6-3,2.2H48.7z M42.6,146.6h5.9v-4.1h-5.9V146.6z M43.4,133.5l-0.2,0.3
				c0.6,1.2,1.4,2.3,2.4,3.4c1-1.1,1.9-2.4,2.5-3.8H43.4z"/>
			<path class="st0" d="M59,151.2h-1.9c-1-1.5-1.8-3.1-2.3-4.7s-0.8-3.2-0.8-4.7c0-1.9,0.3-3.7,1-5.3c0.6-1.5,1.3-2.8,2.1-4H59
				c-0.9,2-1.5,3.7-1.8,5s-0.5,2.8-0.5,4.4c0,1.1,0.1,2.2,0.3,3.3s0.5,2.2,0.8,3.2C58,149,58.4,150,59,151.2z"/>
			<path class="st0" d="M78.8,131.5v15.3c0,1.7-0.8,1.8-4.5,1.8c-0.1-0.4-0.3-1-0.5-1.4c0.7,0,1.4,0,2,0c1.6,0,1.7,0,1.7-0.5v-6.5
				h-14v8.4h-1.3v-17.2H78.8z M63.5,132.8v6.1h6.2v-6.1H63.5z M71.1,139h6.4v-6.1h-6.4V139z"/>
			<path class="st0" d="M81.9,151.2c0.5-1.2,0.9-2,1.1-2.7s0.4-1.3,0.6-2.1s0.3-1.6,0.4-2.3s0.1-1.5,0.1-2.2c0-1.5-0.2-3-0.5-4.4
				s-0.9-3.1-1.8-5h1.9c1,1.4,1.7,2.9,2.3,4.5s0.8,3.2,0.8,4.8c0,1.4-0.2,2.8-0.6,4.4c-0.5,1.7-1.3,3.5-2.4,5.2H81.9z"/>
		</g>
		<g class="st4">
			<path class="st0" d="M32.4,57V42.7h2.9V57H32.4z"/>
			<path class="st0" d="M39,42.7h5.3c1.2,0,2.1,0.1,2.7,0.3c0.8,0.2,1.6,0.7,2.2,1.3s1.1,1.4,1.4,2.3s0.5,2,0.5,3.4
				c0,1.2-0.1,2.2-0.4,3c-0.4,1-0.9,1.9-1.5,2.5c-0.5,0.5-1.2,0.9-2,1.1c-0.6,0.2-1.5,0.3-2.6,0.3H39V42.7z M41.9,45.1v9.5h2.2
				c0.8,0,1.4,0,1.7-0.1c0.5-0.1,0.9-0.3,1.2-0.6s0.6-0.7,0.8-1.4S48,51,48,49.9s-0.1-2-0.3-2.5s-0.5-1.1-0.8-1.4s-0.8-0.6-1.3-0.7
				c-0.4-0.1-1.2-0.1-2.4-0.1H41.9z"/>
			<path class="st0" d="M58,49v-2.6c-1,1.2-2.4,2.4-3.7,3.1c-0.2-0.3-0.5-0.8-0.7-1c1.5-0.6,3.1-2,4.1-3.4h-3.9V44H58v-3.8l1.6,0.1
				c0,0.1-0.1,0.2-0.4,0.3V44h4.2v1.1h-4.2v0.5c0.8,0.5,3,1.9,3.5,2.3l-0.8,1c-0.5-0.5-1.8-1.5-2.7-2.2V49H58z M63.6,52.2h-1.8
				c-0.3,1.2-0.8,2.3-1.4,3.2c0.9,0.5,1.7,1,2.3,1.4l-0.9,1c-0.6-0.5-1.4-1-2.3-1.5c-1.2,1.1-2.8,1.8-5,2.4
				c-0.1-0.4-0.4-0.9-0.6-1.1c1.9-0.4,3.3-1,4.4-1.9c-0.8-0.4-1.5-0.7-2.3-1.1l-0.4,0.7l-1.2-0.4c0.4-0.7,1-1.7,1.5-2.7h-2.3V51h2.9
				c0.3-0.7,0.6-1.3,0.9-1.9l1.6,0.4c-0.1,0.1-0.2,0.2-0.4,0.2c-0.2,0.4-0.4,0.9-0.7,1.4h5.7V52.2z M55.6,40.7
				c0.6,0.8,1.2,1.9,1.4,2.7l-1.1,0.5c-0.2-0.7-0.8-1.9-1.4-2.7L55.6,40.7z M57.4,52.2c-0.3,0.5-0.5,1-0.8,1.5
				c0.9,0.3,1.8,0.7,2.7,1.1c0.6-0.7,1-1.6,1.3-2.6H57.4z M60.2,43.4c0.5-0.7,1.2-1.9,1.6-2.7l1.4,0.6c-0.1,0.1-0.2,0.2-0.4,0.1
				c-0.4,0.7-1.1,1.7-1.7,2.4L60.2,43.4z M72.3,45.2H71c-0.5,3.3-1.3,6-2.5,8.3c1,1.8,2.3,3.3,4,4.1c-0.3,0.3-0.7,0.8-1,1.2
				c-1.6-0.9-2.9-2.3-3.9-4c-1.2,1.7-2.8,3-4.9,4c-0.1-0.3-0.5-0.9-0.7-1.1c2.1-1,3.7-2.4,4.9-4.2c-0.8-1.7-1.4-3.7-1.9-5.8
				c-0.4,0.9-0.8,1.7-1.3,2.4c-0.2-0.3-0.7-0.7-1-0.9c1.4-2,2.4-5.5,3-9l1.7,0.4c0,0.2-0.2,0.2-0.4,0.2c-0.2,1.1-0.4,2.1-0.7,3.2h6
				V45.2z M65.9,45.2l-0.1,0.2c0.4,2.4,1,4.6,1.9,6.6c0.9-1.9,1.5-4.1,1.9-6.8H65.9z"/>
		</g>
	</g>
	<g transform="translate(497 2551)">
		<g transform="translate(105)">
			<rect class="st0" width="523" height="187"/>
			<rect x="0.5" y="0.5" class="st1" width="522" height="186"/>
		</g>
		<rect x="236" y="1" class="st2" width="130" height="185"/>
		<rect x="497" y="1" class="st2" width="130" height="185"/>
		<rect x="105" y="94" class="st3" width="523" height="1"/>
		<g transform="translate(-315.584 134.171)">
			<g class="st4">
				<path d="M447.9,12.5l1.7-0.2c0.1,0.8,0.4,1.4,0.8,1.7s0.9,0.5,1.6,0.5c0.5,0,1-0.1,1.4-0.4s0.7-0.6,1-1s0.5-1,0.7-1.7
					s0.3-1.4,0.3-2.1c0-0.1,0-0.2,0-0.4c-0.4,0.6-0.8,1-1.4,1.4s-1.3,0.5-2,0.5c-1.2,0-2.2-0.4-3-1.3s-1.2-2-1.2-3.4
					c0-1.5,0.4-2.6,1.3-3.5s1.9-1.3,3.2-1.3c0.9,0,1.8,0.3,2.6,0.8s1.4,1.2,1.8,2.1s0.6,2.3,0.6,4c0,1.8-0.2,3.3-0.6,4.4
					s-1,1.9-1.8,2.5s-1.7,0.8-2.8,0.8c-1.1,0-2-0.3-2.7-0.9S448,13.6,447.9,12.5z M455.1,6.2c0-1-0.3-1.8-0.8-2.4s-1.2-0.9-1.9-0.9
					c-0.8,0-1.5,0.3-2,1s-0.9,1.5-0.9,2.5c0,0.9,0.3,1.7,0.8,2.2s1.2,0.9,2,0.9c0.8,0,1.5-0.3,2-0.9S455.1,7.2,455.1,6.2z"/>
				<path d="M459.7,12.1l1.8-0.2c0.1,0.9,0.5,1.6,1,2s1.1,0.7,1.8,0.7c0.8,0,1.6-0.3,2.1-1s0.9-1.5,0.9-2.5c0-1-0.3-1.8-0.8-2.4
					s-1.3-0.9-2.2-0.9c-0.6,0-1.1,0.1-1.5,0.4s-0.8,0.6-1.1,1L460,9.1l1.4-7.4h7.1v1.7h-5.7l-0.8,3.8c0.9-0.6,1.8-0.9,2.7-0.9
					c1.2,0,2.3,0.4,3.2,1.3s1.3,2,1.3,3.3c0,1.3-0.4,2.4-1.1,3.4c-0.9,1.2-2.2,1.7-3.8,1.7c-1.3,0-2.4-0.4-3.2-1.1
					S459.8,13.3,459.7,12.1z"/>
				<path d="M472.8,15.8v-2h2v2c0,0.7-0.1,1.3-0.4,1.8s-0.7,0.8-1.2,1l-0.5-0.8c0.4-0.2,0.6-0.4,0.8-0.7s0.3-0.8,0.3-1.4H472.8z"/>
				<path d="M478.4,8.8c0-1.7,0.2-3.1,0.5-4.1s0.9-1.8,1.6-2.4s1.6-0.8,2.6-0.8c0.8,0,1.4,0.2,2,0.5s1.1,0.8,1.4,1.3
					s0.7,1.3,0.9,2.1s0.3,2,0.3,3.4c0,1.7-0.2,3-0.5,4.1s-0.9,1.8-1.5,2.4s-1.6,0.8-2.6,0.8c-1.4,0-2.5-0.5-3.3-1.5
					C478.9,13.4,478.4,11.5,478.4,8.8z M480.2,8.8c0,2.4,0.3,3.9,0.8,4.7s1.2,1.2,2,1.2s1.5-0.4,2-1.2s0.8-2.3,0.8-4.7
					c0-2.4-0.3-3.9-0.8-4.7s-1.2-1.2-2.1-1.2c-0.8,0-1.5,0.3-1.9,1C480.5,4.8,480.2,6.4,480.2,8.8z"/>
				<path d="M490.5,8.8c0-1.7,0.2-3.1,0.5-4.1s0.9-1.8,1.6-2.4s1.6-0.8,2.6-0.8c0.8,0,1.4,0.2,2,0.5s1.1,0.8,1.4,1.3
					s0.7,1.3,0.9,2.1s0.3,2,0.3,3.4c0,1.7-0.2,3-0.5,4.1s-0.9,1.8-1.5,2.4s-1.6,0.8-2.6,0.8c-1.4,0-2.5-0.5-3.3-1.5
					C491,13.4,490.5,11.5,490.5,8.8z M492.3,8.8c0,2.4,0.3,3.9,0.8,4.7s1.2,1.2,2,1.2s1.5-0.4,2-1.2s0.8-2.3,0.8-4.7
					c0-2.4-0.3-3.9-0.8-4.7s-1.2-1.2-2.1-1.2c-0.8,0-1.5,0.3-1.9,1C492.6,4.8,492.3,6.4,492.3,8.8z"/>
				<path d="M502.6,8.8c0-1.7,0.2-3.1,0.5-4.1s0.9-1.8,1.6-2.4s1.6-0.8,2.6-0.8c0.8,0,1.4,0.2,2,0.5s1.1,0.8,1.4,1.3
					s0.7,1.3,0.9,2.1s0.3,2,0.3,3.4c0,1.7-0.2,3-0.5,4.1s-0.9,1.8-1.5,2.4s-1.6,0.8-2.6,0.8c-1.4,0-2.5-0.5-3.3-1.5
					C503.1,13.4,502.6,11.5,502.6,8.8z M504.5,8.8c0,2.4,0.3,3.9,0.8,4.7s1.2,1.2,2,1.2s1.5-0.4,2-1.2s0.8-2.3,0.8-4.7
					c0-2.4-0.3-3.9-0.8-4.7s-1.2-1.2-2.1-1.2c-0.8,0-1.5,0.3-1.9,1C504.8,4.8,504.5,6.4,504.5,8.8z"/>
			</g>
			<g class="st4">
				<path d="M576.7,14.8h-1.8V3.6c-0.4,0.4-1,0.8-1.7,1.2s-1.3,0.7-1.9,0.9V4c1-0.5,1.8-1,2.6-1.7s1.3-1.3,1.6-1.9h1.1V14.8z"/>
				<path d="M587.3,14.8h-1.8V3.6c-0.4,0.4-1,0.8-1.7,1.2s-1.3,0.7-1.9,0.9V4c1-0.5,1.8-1,2.6-1.7s1.3-1.3,1.6-1.9h1.1V14.8z"/>
				<path d="M592.8,7.8c0-1.7,0.2-3.1,0.5-4.1s0.9-1.8,1.6-2.4s1.6-0.8,2.6-0.8c0.8,0,1.4,0.2,2,0.5s1.1,0.8,1.4,1.3
					s0.7,1.3,0.9,2.1s0.3,2,0.3,3.4c0,1.7-0.2,3-0.5,4.1s-0.9,1.8-1.5,2.4s-1.6,0.8-2.6,0.8c-1.4,0-2.5-0.5-3.3-1.5
					C593.3,12.4,592.8,10.5,592.8,7.8z M594.6,7.8c0,2.4,0.3,3.9,0.8,4.7s1.2,1.2,2,1.2s1.5-0.4,2-1.2s0.8-2.3,0.8-4.7
					c0-2.4-0.3-3.9-0.8-4.7s-1.2-1.2-2.1-1.2c-0.8,0-1.5,0.3-1.9,1C594.9,3.8,594.6,5.4,594.6,7.8z"/>
				<path d="M605.9,14.8v-2h2v2c0,0.7-0.1,1.3-0.4,1.8s-0.7,0.8-1.2,1l-0.5-0.8c0.4-0.2,0.6-0.4,0.8-0.7s0.3-0.8,0.3-1.4H605.9z"/>
				<path d="M611.5,7.8c0-1.7,0.2-3.1,0.5-4.1s0.9-1.8,1.6-2.4s1.6-0.8,2.6-0.8c0.8,0,1.4,0.2,2,0.5s1.1,0.8,1.4,1.3
					s0.7,1.3,0.9,2.1s0.3,2,0.3,3.4c0,1.7-0.2,3-0.5,4.1s-0.9,1.8-1.5,2.4s-1.6,0.8-2.6,0.8c-1.4,0-2.5-0.5-3.3-1.5
					C612,12.4,611.5,10.5,611.5,7.8z M613.3,7.8c0,2.4,0.3,3.9,0.8,4.7s1.2,1.2,2,1.2s1.5-0.4,2-1.2s0.8-2.3,0.8-4.7
					c0-2.4-0.3-3.9-0.8-4.7s-1.2-1.2-2.1-1.2c-0.8,0-1.5,0.3-1.9,1C613.6,3.8,613.3,5.4,613.3,7.8z"/>
				<path d="M623.6,7.8c0-1.7,0.2-3.1,0.5-4.1s0.9-1.8,1.6-2.4s1.6-0.8,2.6-0.8c0.8,0,1.4,0.2,2,0.5c0.6,0.3,1.1,0.8,1.4,1.3
					c0.4,0.6,0.7,1.3,0.9,2.1s0.3,2,0.3,3.4c0,1.7-0.2,3-0.5,4.1c-0.3,1-0.9,1.8-1.5,2.4c-0.7,0.6-1.6,0.8-2.6,0.8
					c-1.4,0-2.5-0.5-3.3-1.5C624.1,12.4,623.6,10.5,623.6,7.8z M625.4,7.8c0,2.4,0.3,3.9,0.8,4.7s1.2,1.2,2,1.2s1.5-0.4,2-1.2
					c0.5-0.8,0.8-2.3,0.8-4.7c0-2.4-0.3-3.9-0.8-4.7c-0.6-0.8-1.2-1.2-2.1-1.2c-0.8,0-1.5,0.3-1.9,1C625.8,3.8,625.4,5.4,625.4,7.8z
					"/>
				<path d="M635.8,7.8c0-1.7,0.2-3.1,0.5-4.1c0.3-1,0.9-1.8,1.6-2.4c0.7-0.6,1.6-0.8,2.6-0.8c0.8,0,1.4,0.2,2,0.5
					c0.6,0.3,1.1,0.8,1.4,1.3c0.4,0.6,0.7,1.3,0.9,2.1s0.3,2,0.3,3.4c0,1.7-0.2,3-0.5,4.1c-0.3,1-0.9,1.8-1.5,2.4
					c-0.7,0.6-1.6,0.8-2.6,0.8c-1.4,0-2.5-0.5-3.3-1.5C636.2,12.4,635.8,10.5,635.8,7.8z M637.6,7.8c0,2.4,0.3,3.9,0.8,4.7
					c0.5,0.8,1.2,1.2,2,1.2c0.8,0,1.5-0.4,2-1.2c0.5-0.8,0.8-2.3,0.8-4.7c0-2.4-0.3-3.9-0.8-4.7c-0.6-0.8-1.2-1.2-2.1-1.2
					c-0.8,0-1.5,0.3-1.9,1C637.9,3.8,637.6,5.4,637.6,7.8z"/>
			</g>
			<g class="st4">
				<path d="M707.7,14.8h-1.8V3.6c-0.4,0.4-1,0.8-1.7,1.2c-0.7,0.4-1.3,0.7-1.9,0.9V4c1-0.5,1.8-1,2.6-1.7c0.7-0.7,1.3-1.3,1.6-1.9
					h1.1V14.8z"/>
				<path d="M722.4,13.1v1.7H713c0-0.4,0.1-0.8,0.2-1.2c0.2-0.6,0.6-1.3,1.2-1.9c0.5-0.6,1.3-1.3,2.3-2.2c1.6-1.3,2.6-2.3,3.2-3
					s0.8-1.5,0.8-2.1c0-0.7-0.2-1.3-0.7-1.8s-1.1-0.7-1.9-0.7c-0.8,0-1.5,0.3-2,0.8s-0.8,1.2-0.8,2.1l-1.8-0.2
					c0.1-1.3,0.6-2.4,1.4-3.1c0.8-0.7,1.9-1.1,3.3-1.1c1.4,0,2.5,0.4,3.3,1.1s1.2,1.7,1.2,2.8c0,0.6-0.1,1.1-0.4,1.7
					s-0.6,1.1-1.2,1.7c-0.5,0.6-1.4,1.5-2.7,2.5c-1.1,0.9-1.7,1.5-2,1.8c-0.3,0.3-0.5,0.6-0.7,1H722.4z"/>
				<path d="M725.3,7.8c0-1.7,0.2-3.1,0.5-4.1c0.3-1,0.9-1.8,1.6-2.4c0.7-0.6,1.6-0.8,2.6-0.8c0.8,0,1.4,0.2,2,0.5
					c0.6,0.3,1.1,0.8,1.4,1.3c0.4,0.6,0.7,1.3,0.9,2.1s0.3,2,0.3,3.4c0,1.7-0.2,3-0.5,4.1c-0.3,1-0.9,1.8-1.5,2.4
					c-0.7,0.6-1.6,0.8-2.6,0.8c-1.4,0-2.5-0.5-3.3-1.5C725.8,12.4,725.3,10.5,725.3,7.8z M727.1,7.8c0,2.4,0.3,3.9,0.8,4.7
					c0.5,0.8,1.2,1.2,2,1.2c0.8,0,1.5-0.4,2-1.2c0.5-0.8,0.8-2.3,0.8-4.7c0-2.4-0.3-3.9-0.8-4.7c-0.6-0.8-1.2-1.2-2.1-1.2
					c-0.8,0-1.5,0.3-1.9,1C727.4,3.8,727.1,5.4,727.1,7.8z"/>
				<path d="M738.4,14.8v-2h2v2c0,0.7-0.1,1.3-0.4,1.8c-0.3,0.5-0.7,0.8-1.2,1l-0.5-0.8c0.4-0.2,0.6-0.4,0.8-0.7s0.3-0.8,0.3-1.4
					H738.4z"/>
				<path d="M744,7.8c0-1.7,0.2-3.1,0.5-4.1c0.3-1,0.9-1.8,1.6-2.4c0.7-0.6,1.6-0.8,2.6-0.8c0.8,0,1.4,0.2,2,0.5
					c0.6,0.3,1.1,0.8,1.4,1.3c0.4,0.6,0.7,1.3,0.9,2.1s0.3,2,0.3,3.4c0,1.7-0.2,3-0.5,4.1c-0.3,1-0.9,1.8-1.5,2.4
					c-0.7,0.6-1.6,0.8-2.6,0.8c-1.4,0-2.5-0.5-3.3-1.5C744.5,12.4,744,10.5,744,7.8z M745.8,7.8c0,2.4,0.3,3.9,0.8,4.7
					c0.5,0.8,1.2,1.2,2,1.2c0.8,0,1.5-0.4,2-1.2c0.5-0.8,0.8-2.3,0.8-4.7c0-2.4-0.3-3.9-0.8-4.7c-0.6-0.8-1.2-1.2-2.1-1.2
					c-0.8,0-1.5,0.3-1.9,1C746.1,3.8,745.8,5.4,745.8,7.8z"/>
				<path d="M756.1,7.8c0-1.7,0.2-3.1,0.5-4.1c0.3-1,0.9-1.8,1.6-2.4c0.7-0.6,1.6-0.8,2.6-0.8c0.8,0,1.4,0.2,2,0.5
					c0.6,0.3,1.1,0.8,1.4,1.3c0.4,0.6,0.7,1.3,0.9,2.1s0.3,2,0.3,3.4c0,1.7-0.2,3-0.5,4.1c-0.3,1-0.9,1.8-1.5,2.4
					c-0.7,0.6-1.6,0.8-2.6,0.8c-1.4,0-2.5-0.5-3.3-1.5C756.6,12.4,756.1,10.5,756.1,7.8z M757.9,7.8c0,2.4,0.3,3.9,0.8,4.7
					c0.5,0.8,1.2,1.2,2,1.2c0.8,0,1.5-0.4,2-1.2c0.5-0.8,0.8-2.3,0.8-4.7c0-2.4-0.3-3.9-0.8-4.7c-0.6-0.8-1.2-1.2-2.1-1.2
					c-0.8,0-1.5,0.3-1.9,1C758.2,3.8,757.9,5.4,757.9,7.8z"/>
				<path d="M768.3,7.8c0-1.7,0.2-3.1,0.5-4.1c0.3-1,0.9-1.8,1.6-2.4c0.7-0.6,1.6-0.8,2.6-0.8c0.8,0,1.4,0.2,2,0.5
					c0.6,0.3,1.1,0.8,1.4,1.3c0.4,0.6,0.7,1.3,0.9,2.1s0.3,2,0.3,3.4c0,1.7-0.2,3-0.5,4.1c-0.3,1-0.9,1.8-1.5,2.4
					c-0.7,0.6-1.6,0.8-2.6,0.8c-1.4,0-2.5-0.5-3.3-1.5C768.7,12.4,768.3,10.5,768.3,7.8z M770.1,7.8c0,2.4,0.3,3.9,0.8,4.7
					c0.5,0.8,1.2,1.2,2,1.2c0.8,0,1.5-0.4,2-1.2c0.5-0.8,0.8-2.3,0.8-4.7c0-2.4-0.3-3.9-0.8-4.7c-0.6-0.8-1.2-1.2-2.1-1.2
					c-0.8,0-1.5,0.3-1.9,1C770.4,3.8,770.1,5.4,770.1,7.8z"/>
			</g>
			<g class="st4">
				<path d="M837.7,14.8h-1.8V3.6c-0.4,0.4-1,0.8-1.7,1.2c-0.7,0.4-1.3,0.7-1.9,0.9V4c1-0.5,1.8-1,2.6-1.7c0.7-0.7,1.3-1.3,1.6-1.9
					h1.1V14.8z"/>
				<path d="M843.2,11l1.8-0.2c0.2,1,0.5,1.7,1,2.2c0.5,0.4,1.1,0.7,1.8,0.7c0.8,0,1.5-0.3,2.1-0.9c0.6-0.6,0.9-1.3,0.9-2.1
					c0-0.8-0.3-1.5-0.8-2s-1.2-0.8-2-0.8c-0.3,0-0.7,0.1-1.2,0.2l0.2-1.5c0.1,0,0.2,0,0.3,0c0.7,0,1.4-0.2,2-0.6
					c0.6-0.4,0.9-1,0.9-1.8c0-0.6-0.2-1.2-0.7-1.6c-0.4-0.4-1-0.6-1.7-0.6c-0.7,0-1.3,0.2-1.7,0.6c-0.5,0.4-0.7,1.1-0.9,1.9
					l-1.8-0.3c0.2-1.2,0.7-2.1,1.5-2.7s1.7-1,2.8-1c0.8,0,1.5,0.2,2.2,0.5c0.7,0.3,1.2,0.8,1.5,1.4c0.3,0.6,0.5,1.2,0.5,1.8
					c0,0.6-0.2,1.2-0.5,1.7s-0.8,0.9-1.5,1.2c0.8,0.2,1.5,0.6,2,1.2s0.7,1.4,0.7,2.3c0,1.2-0.5,2.3-1.4,3.2
					c-0.9,0.9-2.1,1.3-3.5,1.3c-1.3,0-2.3-0.4-3.1-1.1S843.3,12.2,843.2,11z"/>
				<path d="M855.3,7.8c0-1.7,0.2-3.1,0.5-4.1c0.3-1,0.9-1.8,1.6-2.4c0.7-0.6,1.6-0.8,2.6-0.8c0.8,0,1.4,0.2,2,0.5
					c0.6,0.3,1.1,0.8,1.4,1.3c0.4,0.6,0.7,1.3,0.9,2.1s0.3,2,0.3,3.4c0,1.7-0.2,3-0.5,4.1c-0.3,1-0.9,1.8-1.5,2.4
					c-0.7,0.6-1.6,0.8-2.6,0.8c-1.4,0-2.5-0.5-3.3-1.5C855.8,12.4,855.3,10.5,855.3,7.8z M857.1,7.8c0,2.4,0.3,3.9,0.8,4.7
					c0.5,0.8,1.2,1.2,2,1.2c0.8,0,1.5-0.4,2-1.2c0.5-0.8,0.8-2.3,0.8-4.7c0-2.4-0.3-3.9-0.8-4.7c-0.6-0.8-1.2-1.2-2.1-1.2
					c-0.8,0-1.5,0.3-1.9,1C857.4,3.8,857.1,5.4,857.1,7.8z"/>
				<path d="M868.4,14.8v-2h2v2c0,0.7-0.1,1.3-0.4,1.8c-0.3,0.5-0.7,0.8-1.2,1l-0.5-0.8c0.4-0.2,0.6-0.4,0.8-0.7s0.3-0.8,0.3-1.4
					H868.4z"/>
				<path d="M874,7.8c0-1.7,0.2-3.1,0.5-4.1c0.3-1,0.9-1.8,1.6-2.4c0.7-0.6,1.6-0.8,2.6-0.8c0.8,0,1.4,0.2,2,0.5
					c0.6,0.3,1.1,0.8,1.4,1.3c0.4,0.6,0.7,1.3,0.9,2.1s0.3,2,0.3,3.4c0,1.7-0.2,3-0.5,4.1c-0.3,1-0.9,1.8-1.5,2.4
					c-0.7,0.6-1.6,0.8-2.6,0.8c-1.4,0-2.5-0.5-3.3-1.5C874.5,12.4,874,10.5,874,7.8z M875.8,7.8c0,2.4,0.3,3.9,0.8,4.7
					c0.5,0.8,1.2,1.2,2,1.2c0.8,0,1.5-0.4,2-1.2c0.5-0.8,0.8-2.3,0.8-4.7c0-2.4-0.3-3.9-0.8-4.7c-0.6-0.8-1.2-1.2-2.1-1.2
					c-0.8,0-1.5,0.3-1.9,1C876.1,3.8,875.8,5.4,875.8,7.8z"/>
				<path d="M886.1,7.8c0-1.7,0.2-3.1,0.5-4.1c0.3-1,0.9-1.8,1.6-2.4c0.7-0.6,1.6-0.8,2.6-0.8c0.8,0,1.4,0.2,2,0.5
					c0.6,0.3,1.1,0.8,1.4,1.3c0.4,0.6,0.7,1.3,0.9,2.1s0.3,2,0.3,3.4c0,1.7-0.2,3-0.5,4.1c-0.3,1-0.9,1.8-1.5,2.4
					c-0.7,0.6-1.6,0.8-2.6,0.8c-1.4,0-2.5-0.5-3.3-1.5C886.6,12.4,886.1,10.5,886.1,7.8z M887.9,7.8c0,2.4,0.3,3.9,0.8,4.7
					c0.5,0.8,1.2,1.2,2,1.2c0.8,0,1.5-0.4,2-1.2c0.5-0.8,0.8-2.3,0.8-4.7c0-2.4-0.3-3.9-0.8-4.7c-0.6-0.8-1.2-1.2-2.1-1.2
					c-0.8,0-1.5,0.3-1.9,1C888.2,3.8,887.9,5.4,887.9,7.8z"/>
				<path d="M898.3,7.8c0-1.7,0.2-3.1,0.5-4.1c0.3-1,0.9-1.8,1.6-2.4c0.7-0.6,1.6-0.8,2.6-0.8c0.8,0,1.4,0.2,2,0.5
					c0.6,0.3,1.1,0.8,1.4,1.3c0.4,0.6,0.7,1.3,0.9,2.1s0.3,2,0.3,3.4c0,1.7-0.2,3-0.5,4.1c-0.3,1-0.9,1.8-1.5,2.4
					c-0.7,0.6-1.6,0.8-2.6,0.8c-1.4,0-2.5-0.5-3.3-1.5C898.7,12.4,898.3,10.5,898.3,7.8z M900.1,7.8c0,2.4,0.3,3.9,0.8,4.7
					c0.5,0.8,1.2,1.2,2,1.2c0.8,0,1.5-0.4,2-1.2c0.5-0.8,0.8-2.3,0.8-4.7c0-2.4-0.3-3.9-0.8-4.7c-0.6-0.8-1.2-1.2-2.1-1.2
					c-0.8,0-1.5,0.3-1.9,1C900.4,3.8,900.1,5.4,900.1,7.8z"/>
			</g>
		</g>
		<g transform="translate(-339.584 42.021)">
			<g class="st4">
				<path d="M460.9,15v-3.4h-6.2V9.9l6.5-9.3h1.4v9.3h1.9v1.6h-1.9V15H460.9z M460.9,9.9V3.5l-4.5,6.5H460.9z"/>
				<path d="M467.4,7.9c0-1.7,0.2-3.1,0.5-4.1s0.9-1.8,1.6-2.4s1.6-0.8,2.6-0.8c0.8,0,1.4,0.2,2,0.5s1.1,0.8,1.4,1.3
					s0.7,1.3,0.9,2.1s0.3,2,0.3,3.4c0,1.7-0.2,3-0.5,4.1s-0.9,1.8-1.5,2.4s-1.6,0.8-2.6,0.8c-1.4,0-2.5-0.5-3.3-1.5
					C467.9,12.5,467.4,10.6,467.4,7.9z M469.2,7.9c0,2.4,0.3,3.9,0.8,4.7s1.2,1.2,2,1.2s1.5-0.4,2-1.2s0.8-2.3,0.8-4.7
					c0-2.4-0.3-3.9-0.8-4.7s-1.2-1.2-2.1-1.2c-0.8,0-1.5,0.3-1.9,1C469.5,4,469.2,5.6,469.2,7.9z"/>
				<path d="M486.2,15h-1.8V3.8c-0.4,0.4-1,0.8-1.7,1.2s-1.3,0.7-1.9,0.9V4.2c1-0.5,1.8-1,2.6-1.7s1.3-1.3,1.6-1.9h1.1V15z"/>
				<path d="M510,6.5c-1.3,2.3-3.1,3.5-5.2,3.5c-1.8,0-3.1-0.7-4.5-2.1c-1.1-1.1-2-1.7-3.5-1.7c-1.6,0-3,1.1-3.9,2.7l-1.3-0.7
					c1.3-2.3,3.1-3.5,5.2-3.5c1.8,0,3.1,0.7,4.5,2.1c1.1,1.1,2,1.7,3.5,1.7c1.6,0,3-1.1,3.9-2.7L510,6.5z"/>
				<path d="M512.7,11.2l1.8-0.2c0.1,0.9,0.5,1.6,1,2s1.1,0.7,1.8,0.7c0.8,0,1.6-0.3,2.1-1s0.9-1.5,0.9-2.5c0-1-0.3-1.8-0.8-2.4
					S518.1,7,517.2,7c-0.6,0-1.1,0.1-1.5,0.4s-0.8,0.6-1.1,1L513,8.2l1.4-7.4h7.1v1.7h-5.7L515,6.4c0.9-0.6,1.8-0.9,2.7-0.9
					c1.2,0,2.3,0.4,3.2,1.3s1.3,2,1.3,3.3c0,1.3-0.4,2.4-1.1,3.4c-0.9,1.2-2.2,1.7-3.8,1.7c-1.3,0-2.4-0.4-3.2-1.1
					S512.8,12.4,512.7,11.2z"/>
				<path d="M524.8,7.9c0-1.7,0.2-3.1,0.5-4.1s0.9-1.8,1.6-2.4s1.6-0.8,2.6-0.8c0.8,0,1.4,0.2,2,0.5s1.1,0.8,1.4,1.3
					s0.7,1.3,0.9,2.1s0.3,2,0.3,3.4c0,1.7-0.2,3-0.5,4.1s-0.9,1.8-1.5,2.4s-1.6,0.8-2.6,0.8c-1.4,0-2.5-0.5-3.3-1.5
					C525.3,12.5,524.8,10.6,524.8,7.9z M526.6,7.9c0,2.4,0.3,3.9,0.8,4.7s1.2,1.2,2,1.2s1.5-0.4,2-1.2s0.8-2.3,0.8-4.7
					c0-2.4-0.3-3.9-0.8-4.7s-1.2-1.2-2.1-1.2c-0.8,0-1.5,0.3-1.9,1C526.9,4,526.6,5.6,526.6,7.9z"/>
				<path d="M536.9,7.9c0-1.7,0.2-3.1,0.5-4.1s0.9-1.8,1.6-2.4s1.6-0.8,2.6-0.8c0.8,0,1.4,0.2,2,0.5s1.1,0.8,1.4,1.3
					s0.7,1.3,0.9,2.1s0.3,2,0.3,3.4c0,1.7-0.2,3-0.5,4.1s-0.9,1.8-1.5,2.4s-1.6,0.8-2.6,0.8c-1.4,0-2.5-0.5-3.3-1.5
					C537.4,12.5,536.9,10.6,536.9,7.9z M538.7,7.9c0,2.4,0.3,3.9,0.8,4.7s1.2,1.2,2,1.2s1.5-0.4,2-1.2s0.8-2.3,0.8-4.7
					c0-2.4-0.3-3.9-0.8-4.7s-1.2-1.2-2.1-1.2c-0.8,0-1.5,0.3-1.9,1C539,4,538.7,5.6,538.7,7.9z"/>
			</g>
			<g class="st4">
				<path d="M586.3,11.2l1.8-0.2c0.1,0.9,0.5,1.6,1,2s1.1,0.7,1.8,0.7c0.8,0,1.6-0.3,2.1-1s0.9-1.5,0.9-2.5c0-1-0.3-1.8-0.8-2.4
					S591.8,7,590.9,7c-0.6,0-1.1,0.1-1.5,0.4s-0.8,0.6-1.1,1l-1.7-0.2l1.4-7.4h7.1v1.7h-5.7l-0.8,3.8c0.9-0.6,1.8-0.9,2.7-0.9
					c1.2,0,2.3,0.4,3.2,1.3s1.3,2,1.3,3.3c0,1.3-0.4,2.4-1.1,3.4c-0.9,1.2-2.2,1.7-3.8,1.7c-1.3,0-2.4-0.4-3.2-1.1
					S586.4,12.4,586.3,11.2z"/>
				<path d="M598.4,7.9c0-1.7,0.2-3.1,0.5-4.1s0.9-1.8,1.6-2.4s1.6-0.8,2.6-0.8c0.8,0,1.4,0.2,2,0.5s1.1,0.8,1.4,1.3
					s0.7,1.3,0.9,2.1s0.3,2,0.3,3.4c0,1.7-0.2,3-0.5,4.1s-0.9,1.8-1.5,2.4s-1.6,0.8-2.6,0.8c-1.4,0-2.5-0.5-3.3-1.5
					C598.9,12.5,598.4,10.6,598.4,7.9z M600.2,7.9c0,2.4,0.3,3.9,0.8,4.7s1.2,1.2,2,1.2s1.5-0.4,2-1.2s0.8-2.3,0.8-4.7
					c0-2.4-0.3-3.9-0.8-4.7s-1.2-1.2-2.1-1.2c-0.8,0-1.5,0.3-1.9,1C600.5,4,600.2,5.6,600.2,7.9z"/>
				<path d="M617.2,15h-1.8V3.8c-0.4,0.4-1,0.8-1.7,1.2s-1.3,0.7-1.9,0.9V4.2c1-0.5,1.8-1,2.6-1.7s1.3-1.3,1.6-1.9h1.1V15z"/>
				<path d="M641,6.5c-1.3,2.3-3.1,3.5-5.2,3.5c-1.8,0-3.1-0.7-4.5-2.1c-1.1-1.1-2-1.7-3.5-1.7c-1.6,0-3,1.1-3.9,2.7l-1.3-0.7
					c1.3-2.3,3.1-3.5,5.2-3.5c1.8,0,3.1,0.7,4.5,2.1c1.1,1.1,2,1.7,3.5,1.7c1.6,0,3-1.1,3.9-2.7L641,6.5z"/>
				<path d="M652.8,4.2L651,4.3c-0.2-0.7-0.4-1.2-0.7-1.5c-0.5-0.5-1.1-0.8-1.8-0.8c-0.6,0-1.1,0.2-1.5,0.5c-0.6,0.4-1,1-1.3,1.8
					s-0.5,1.9-0.5,3.3c0.4-0.6,0.9-1.1,1.6-1.4s1.3-0.5,1.9-0.5c1.2,0,2.2,0.4,3,1.3s1.2,2,1.2,3.3c0,0.9-0.2,1.7-0.6,2.5
					s-0.9,1.4-1.6,1.8s-1.4,0.6-2.3,0.6c-1.5,0-2.7-0.5-3.6-1.6s-1.4-2.9-1.4-5.3c0-2.8,0.5-4.8,1.5-6c0.9-1.1,2.1-1.6,3.6-1.6
					c1.1,0,2,0.3,2.8,0.9S652.6,3.1,652.8,4.2z M645.6,10.3c0,0.6,0.1,1.2,0.4,1.7s0.6,1,1.1,1.3s0.9,0.4,1.5,0.4
					c0.7,0,1.4-0.3,1.9-0.9s0.8-1.4,0.8-2.4c0-1-0.3-1.8-0.8-2.3s-1.2-0.9-2-0.9c-0.8,0-1.5,0.3-2,0.9S645.6,9.4,645.6,10.3z"/>
				<path d="M655.8,7.9c0-1.7,0.2-3.1,0.5-4.1c0.3-1,0.9-1.8,1.6-2.4c0.7-0.6,1.6-0.8,2.6-0.8c0.8,0,1.4,0.2,2,0.5
					c0.6,0.3,1.1,0.8,1.4,1.3c0.4,0.6,0.7,1.3,0.9,2.1s0.3,2,0.3,3.4c0,1.7-0.2,3-0.5,4.1c-0.3,1-0.9,1.8-1.5,2.4
					c-0.7,0.6-1.6,0.8-2.6,0.8c-1.4,0-2.5-0.5-3.3-1.5C656.3,12.5,655.8,10.6,655.8,7.9z M657.6,7.9c0,2.4,0.3,3.9,0.8,4.7
					c0.6,0.8,1.2,1.2,2,1.2c0.8,0,1.5-0.4,2-1.2c0.6-0.8,0.8-2.3,0.8-4.7c0-2.4-0.3-3.9-0.8-4.7c-0.5-0.8-1.2-1.2-2.1-1.2
					c-0.8,0-1.5,0.3-1.9,1C657.9,4,657.6,5.6,657.6,7.9z"/>
				<path d="M667.9,7.9c0-1.7,0.2-3.1,0.5-4.1c0.3-1,0.9-1.8,1.6-2.4c0.7-0.6,1.6-0.8,2.6-0.8c0.8,0,1.4,0.2,2,0.5
					c0.6,0.3,1.1,0.8,1.4,1.3c0.4,0.6,0.7,1.3,0.9,2.1s0.3,2,0.3,3.4c0,1.7-0.2,3-0.5,4.1c-0.3,1-0.9,1.8-1.5,2.4
					c-0.7,0.6-1.6,0.8-2.6,0.8c-1.4,0-2.5-0.5-3.3-1.5C668.4,12.5,667.9,10.6,667.9,7.9z M669.7,7.9c0,2.4,0.3,3.9,0.8,4.7
					c0.6,0.8,1.2,1.2,2,1.2c0.8,0,1.5-0.4,2-1.2c0.6-0.8,0.8-2.3,0.8-4.7c0-2.4-0.3-3.9-0.8-4.7c-0.5-0.8-1.2-1.2-2.1-1.2
					c-0.8,0-1.5,0.3-1.9,1C670,4,669.7,5.6,669.7,7.9z"/>
			</g>
			<g class="st4">
				<path d="M725.4,4.2l-1.7,0.1c-0.2-0.7-0.4-1.2-0.7-1.5c-0.5-0.5-1.1-0.8-1.8-0.8c-0.6,0-1.1,0.2-1.5,0.5c-0.6,0.4-1,1-1.3,1.8
					c-0.3,0.8-0.5,1.9-0.5,3.3c0.4-0.6,0.9-1.1,1.6-1.4c0.6-0.3,1.3-0.5,1.9-0.5c1.2,0,2.2,0.4,3,1.3c0.8,0.9,1.2,2,1.2,3.3
					c0,0.9-0.2,1.7-0.6,2.5c-0.4,0.8-0.9,1.4-1.6,1.8c-0.7,0.4-1.4,0.6-2.3,0.6c-1.5,0-2.7-0.5-3.6-1.6c-0.9-1.1-1.4-2.9-1.4-5.3
					c0-2.8,0.5-4.8,1.5-6c0.9-1.1,2.1-1.6,3.6-1.6c1.1,0,2,0.3,2.8,0.9C724.8,2.2,725.3,3.1,725.4,4.2z M718.2,10.3
					c0,0.6,0.1,1.2,0.4,1.7c0.3,0.6,0.6,1,1.1,1.3c0.5,0.3,0.9,0.4,1.5,0.4c0.7,0,1.4-0.3,1.9-0.9c0.5-0.6,0.8-1.4,0.8-2.4
					c0-1-0.3-1.8-0.8-2.3s-1.2-0.9-2-0.9c-0.8,0-1.5,0.3-2,0.9C718.5,8.7,718.2,9.4,718.2,10.3z"/>
				<path d="M728.4,7.9c0-1.7,0.2-3.1,0.5-4.1c0.3-1,0.9-1.8,1.6-2.4c0.7-0.6,1.6-0.8,2.6-0.8c0.8,0,1.4,0.2,2,0.5
					c0.6,0.3,1.1,0.8,1.4,1.3c0.4,0.6,0.7,1.3,0.9,2.1s0.3,2,0.3,3.4c0,1.7-0.2,3-0.5,4.1c-0.3,1-0.9,1.8-1.5,2.4
					c-0.7,0.6-1.6,0.8-2.6,0.8c-1.4,0-2.5-0.5-3.3-1.5C728.9,12.5,728.4,10.6,728.4,7.9z M730.2,7.9c0,2.4,0.3,3.9,0.8,4.7
					c0.6,0.8,1.2,1.2,2,1.2c0.8,0,1.5-0.4,2-1.2c0.6-0.8,0.8-2.3,0.8-4.7c0-2.4-0.3-3.9-0.8-4.7c-0.5-0.8-1.2-1.2-2.1-1.2
					c-0.8,0-1.5,0.3-1.9,1C730.5,4,730.2,5.6,730.2,7.9z"/>
				<path d="M747.2,15h-1.8V3.8c-0.4,0.4-1,0.8-1.7,1.2c-0.7,0.4-1.3,0.7-1.9,0.9V4.2c1-0.5,1.8-1,2.6-1.7c0.7-0.7,1.3-1.3,1.6-1.9
					h1.1V15z"/>
				<path d="M771,6.5c-1.3,2.3-3.1,3.5-5.2,3.5c-1.8,0-3.1-0.7-4.5-2.1c-1.1-1.1-2-1.7-3.5-1.7c-1.6,0-3,1.1-3.9,2.7l-1.3-0.7
					c1.3-2.3,3.1-3.5,5.2-3.5c1.8,0,3.1,0.7,4.5,2.1c1.1,1.1,2,1.7,3.5,1.7c1.6,0,3-1.1,3.9-2.7L771,6.5z"/>
				<path d="M773.8,2.5V0.8h9.3v1.4c-0.9,1-1.8,2.3-2.7,3.9c-0.9,1.6-1.6,3.3-2.1,5c-0.4,1.2-0.6,2.5-0.7,3.9h-1.8
					c0-1.1,0.2-2.5,0.7-4.1c0.4-1.6,1-3.1,1.8-4.6s1.6-2.7,2.5-3.7H773.8z"/>
				<path d="M785.8,7.9c0-1.7,0.2-3.1,0.5-4.1c0.3-1,0.9-1.8,1.6-2.4c0.7-0.6,1.6-0.8,2.6-0.8c0.8,0,1.4,0.2,2,0.5
					c0.6,0.3,1.1,0.8,1.4,1.3c0.4,0.6,0.7,1.3,0.9,2.1s0.3,2,0.3,3.4c0,1.7-0.2,3-0.5,4.1c-0.3,1-0.9,1.8-1.5,2.4
					c-0.7,0.6-1.6,0.8-2.6,0.8c-1.4,0-2.5-0.5-3.3-1.5C786.3,12.5,785.8,10.6,785.8,7.9z M787.6,7.9c0,2.4,0.3,3.9,0.8,4.7
					c0.6,0.8,1.2,1.2,2,1.2c0.8,0,1.5-0.4,2-1.2c0.6-0.8,0.8-2.3,0.8-4.7c0-2.4-0.3-3.9-0.8-4.7c-0.5-0.8-1.2-1.2-2.1-1.2
					c-0.8,0-1.5,0.3-1.9,1C787.9,4,787.6,5.6,787.6,7.9z"/>
				<path d="M797.9,7.9c0-1.7,0.2-3.1,0.5-4.1c0.3-1,0.9-1.8,1.6-2.4c0.7-0.6,1.6-0.8,2.6-0.8c0.8,0,1.4,0.2,2,0.5
					c0.6,0.3,1.1,0.8,1.4,1.3c0.4,0.6,0.7,1.3,0.9,2.1s0.3,2,0.3,3.4c0,1.7-0.2,3-0.5,4.1c-0.3,1-0.9,1.8-1.5,2.4
					c-0.7,0.6-1.6,0.8-2.6,0.8c-1.4,0-2.5-0.5-3.3-1.5C798.4,12.5,797.9,10.6,797.9,7.9z M799.7,7.9c0,2.4,0.3,3.9,0.8,4.7
					c0.6,0.8,1.2,1.2,2,1.2c0.8,0,1.5-0.4,2-1.2c0.6-0.8,0.8-2.3,0.8-4.7c0-2.4-0.3-3.9-0.8-4.7c-0.5-0.8-1.2-1.2-2.1-1.2
					c-0.8,0-1.5,0.3-1.9,1C800,4,799.7,5.6,799.7,7.9z"/>
			</g>
			<g class="st4">
				<path d="M847.4,2.5V0.8h9.3v1.4c-0.9,1-1.8,2.3-2.7,3.9c-0.9,1.6-1.6,3.3-2.1,5c-0.4,1.2-0.6,2.5-0.7,3.9h-1.8
					c0-1.1,0.2-2.5,0.7-4.1c0.4-1.6,1-3.1,1.8-4.6s1.6-2.7,2.5-3.7H847.4z"/>
				<path d="M859.4,7.9c0-1.7,0.2-3.1,0.5-4.1c0.3-1,0.9-1.8,1.6-2.4c0.7-0.6,1.6-0.8,2.6-0.8c0.8,0,1.4,0.2,2,0.5
					c0.6,0.3,1.1,0.8,1.4,1.3c0.4,0.6,0.7,1.3,0.9,2.1s0.3,2,0.3,3.4c0,1.7-0.2,3-0.5,4.1c-0.3,1-0.9,1.8-1.5,2.4
					c-0.7,0.6-1.6,0.8-2.6,0.8c-1.4,0-2.5-0.5-3.3-1.5C859.9,12.5,859.4,10.6,859.4,7.9z M861.2,7.9c0,2.4,0.3,3.9,0.8,4.7
					c0.6,0.8,1.2,1.2,2,1.2c0.8,0,1.5-0.4,2-1.2c0.6-0.8,0.8-2.3,0.8-4.7c0-2.4-0.3-3.9-0.8-4.7c-0.5-0.8-1.2-1.2-2.1-1.2
					c-0.8,0-1.5,0.3-1.9,1C861.5,4,861.2,5.6,861.2,7.9z"/>
				<path d="M878.2,15h-1.8V3.8c-0.4,0.4-1,0.8-1.7,1.2c-0.7,0.4-1.3,0.7-1.9,0.9V4.2c1-0.5,1.8-1,2.6-1.7c0.7-0.7,1.3-1.3,1.6-1.9
					h1.1V15z"/>
				<path d="M902,6.5c-1.3,2.3-3.1,3.5-5.2,3.5c-1.8,0-3.1-0.7-4.5-2.1c-1.1-1.1-2-1.7-3.5-1.7c-1.6,0-3,1.1-3.9,2.7l-1.3-0.7
					c1.3-2.3,3.1-3.5,5.2-3.5c1.8,0,3.1,0.7,4.5,2.1c1.1,1.1,2,1.7,3.5,1.7c1.6,0,3-1.1,3.9-2.7L902,6.5z"/>
				<path d="M907.4,7.2c-0.7-0.3-1.3-0.6-1.6-1.1s-0.5-1.1-0.5-1.8c0-1,0.4-1.9,1.1-2.6c0.7-0.7,1.7-1.1,3-1.1c1.2,0,2.3,0.4,3,1.1
					s1.1,1.6,1.1,2.7c0,0.7-0.2,1.2-0.5,1.7c-0.3,0.5-0.9,0.9-1.6,1.1c0.9,0.3,1.5,0.7,2,1.4s0.7,1.4,0.7,2.3c0,1.2-0.4,2.3-1.3,3.1
					c-0.9,0.8-2,1.2-3.4,1.2c-1.4,0-2.6-0.4-3.4-1.3c-0.9-0.8-1.3-1.9-1.3-3.1c0-0.9,0.2-1.7,0.7-2.3C905.8,7.9,906.5,7.4,907.4,7.2
					z M906.5,10.8c0,0.5,0.1,1,0.4,1.5c0.2,0.5,0.6,0.8,1.1,1.1s1,0.4,1.5,0.4c0.8,0,1.5-0.3,2.1-0.8s0.8-1.2,0.8-2.1
					c0-0.8-0.3-1.5-0.8-2.1c-0.6-0.6-1.3-0.8-2.1-0.8c-0.8,0-1.5,0.3-2.1,0.8C906.7,9.3,906.5,10,906.5,10.8z M907,4.2
					c0,0.7,0.2,1.2,0.7,1.7c0.4,0.4,1,0.6,1.7,0.6c0.7,0,1.2-0.2,1.7-0.6c0.4-0.4,0.6-0.9,0.6-1.6c0-0.6-0.2-1.2-0.7-1.6
					c-0.4-0.4-1-0.7-1.7-0.7c-0.7,0-1.2,0.2-1.7,0.6C907.2,3.1,907,3.6,907,4.2z"/>
				<path d="M916.8,7.9c0-1.7,0.2-3.1,0.5-4.1c0.3-1,0.9-1.8,1.6-2.4c0.7-0.6,1.6-0.8,2.6-0.8c0.8,0,1.4,0.2,2,0.5
					c0.6,0.3,1.1,0.8,1.4,1.3c0.4,0.6,0.7,1.3,0.9,2.1s0.3,2,0.3,3.4c0,1.7-0.2,3-0.5,4.1c-0.3,1-0.9,1.8-1.5,2.4
					c-0.7,0.6-1.6,0.8-2.6,0.8c-1.4,0-2.5-0.5-3.3-1.5C917.3,12.5,916.8,10.6,916.8,7.9z M918.6,7.9c0,2.4,0.3,3.9,0.8,4.7
					c0.6,0.8,1.2,1.2,2,1.2c0.8,0,1.5-0.4,2-1.2c0.6-0.8,0.8-2.3,0.8-4.7c0-2.4-0.3-3.9-0.8-4.7c-0.5-0.8-1.2-1.2-2.1-1.2
					c-0.8,0-1.5,0.3-1.9,1C918.9,4,918.6,5.6,918.6,7.9z"/>
				<path d="M928.9,7.9c0-1.7,0.2-3.1,0.5-4.1c0.3-1,0.9-1.8,1.6-2.4c0.7-0.6,1.6-0.8,2.6-0.8c0.8,0,1.4,0.2,2,0.5
					c0.6,0.3,1.1,0.8,1.4,1.3c0.4,0.6,0.7,1.3,0.9,2.1s0.3,2,0.3,3.4c0,1.7-0.2,3-0.5,4.1c-0.3,1-0.9,1.8-1.5,2.4
					c-0.7,0.6-1.6,0.8-2.6,0.8c-1.4,0-2.5-0.5-3.3-1.5C929.4,12.5,928.9,10.6,928.9,7.9z M930.7,7.9c0,2.4,0.3,3.9,0.8,4.7
					c0.6,0.8,1.2,1.2,2,1.2c0.8,0,1.5-0.4,2-1.2c0.6-0.8,0.8-2.3,0.8-4.7c0-2.4-0.3-3.9-0.8-4.7c-0.5-0.8-1.2-1.2-2.1-1.2
					c-0.8,0-1.5,0.3-1.9,1C931,4,930.7,5.6,930.7,7.9z"/>
			</g>
		</g>
		<rect width="105" height="187"/>
		<g class="st4">
			<path class="st0" d="M14,137.4c-0.7,1.2-1.4,2.3-2.1,3.2c-0.1-0.3-0.5-1-0.7-1.3c1.7-2.1,3.4-5.6,4.4-9l1.6,0.5
				c-0.1,0.1-0.2,0.2-0.5,0.2c-0.4,1.3-1,2.7-1.5,4l0.5,0.1c0,0.1-0.1,0.2-0.4,0.3v13.4H14V137.4z M30.3,133.1h-4.2v4h3.8v11.3h-1.3
				v-1.1h-10v1.2h-1.3v-11.4H21v-4h-4v-1.3h13.3V133.1z M18.6,138.3v7.8h2.5v-7.8H18.6z M24.8,137.1v-4h-2.5v4H24.8z M24.8,138.3
				h-2.5v7.8h2.5V138.3z M28.6,146v-7.8H26v7.8H28.6z"/>
			<path class="st0" d="M48.5,132.3c0.3,0,0.4,0,0.6-0.1l0.9,0.4c0,0.1-0.1,0.2-0.2,0.2c-0.7,2.1-1.9,3.8-3.3,5.3
				c1.4,1.2,3.1,2.3,5.1,2.9c-0.3,0.3-0.7,0.8-0.9,1.1c-0.3-0.1-0.6-0.2-0.9-0.4v6.8h-1.3v-0.9h-5.9v0.9h-1.3v-6.8
				c-0.5,0.3-1.1,0.5-1.6,0.7c-0.2-0.3-0.5-0.8-0.8-1.1l0.1,0c-0.3-0.7-1.1-1.8-1.7-2.7v9.9H36v-10c-0.8,2.4-1.8,4.7-2.8,6.1
				c-0.2-0.4-0.5-0.9-0.7-1.2c1.4-1.7,2.8-5,3.4-7.9h-2.9v-1.3H36v-4.4l1.7,0.1c0,0.1-0.1,0.2-0.4,0.3v4H40v1.3h-2.7v1.4
				c0.6,0.7,2.2,2.8,2.6,3.3c-0.4,0.5-0.6,0.7-0.7,0.9c1.9-0.7,3.8-1.8,5.4-3.2c-0.9-1-1.7-2.1-2.3-3.2c-0.7,0.9-1.4,1.7-2.1,2.4
				c-0.2-0.2-0.7-0.6-1-0.9c1.7-1.4,3.4-3.8,4.3-6.4l1.6,0.5c-0.1,0.1-0.2,0.2-0.4,0.2c-0.2,0.5-0.4,1-0.7,1.5H48.5z M48.7,141.3
				c-1.2-0.6-2.2-1.4-3.1-2.2c-0.9,0.9-2,1.6-3,2.2H48.7z M42.6,146.6h5.9v-4.1h-5.9V146.6z M43.4,133.5l-0.2,0.3
				c0.6,1.2,1.4,2.3,2.4,3.4c1-1.1,1.9-2.4,2.5-3.8H43.4z"/>
			<path class="st0" d="M59,151.2h-1.9c-1-1.5-1.8-3.1-2.3-4.7s-0.8-3.2-0.8-4.7c0-1.9,0.3-3.7,1-5.3c0.6-1.5,1.3-2.8,2.1-4H59
				c-0.9,2-1.5,3.7-1.8,5s-0.5,2.8-0.5,4.4c0,1.1,0.1,2.2,0.3,3.3s0.5,2.2,0.8,3.2C58,149,58.4,150,59,151.2z"/>
			<path class="st0" d="M78.8,131.5v15.3c0,1.7-0.8,1.8-4.5,1.8c-0.1-0.4-0.3-1-0.5-1.4c0.7,0,1.4,0,2,0c1.6,0,1.7,0,1.7-0.5v-6.5
				h-14v8.4h-1.3v-17.2H78.8z M63.5,132.8v6.1h6.2v-6.1H63.5z M71.1,139h6.4v-6.1h-6.4V139z"/>
			<path class="st0" d="M81.9,151.2c0.5-1.2,0.9-2,1.1-2.7s0.4-1.3,0.6-2.1s0.3-1.6,0.4-2.3s0.1-1.5,0.1-2.2c0-1.5-0.2-3-0.5-4.4
				s-0.9-3.1-1.8-5h1.9c1,1.4,1.7,2.9,2.3,4.5s0.8,3.2,0.8,4.8c0,1.4-0.2,2.8-0.6,4.4c-0.5,1.7-1.3,3.5-2.4,5.2H81.9z"/>
		</g>
		<g class="st4">
			<path class="st0" d="M32.4,57V42.7h2.9V57H32.4z"/>
			<path class="st0" d="M39,42.7h5.3c1.2,0,2.1,0.1,2.7,0.3c0.8,0.2,1.6,0.7,2.2,1.3s1.1,1.4,1.4,2.3s0.5,2,0.5,3.4
				c0,1.2-0.1,2.2-0.4,3c-0.4,1-0.9,1.9-1.5,2.5c-0.5,0.5-1.2,0.9-2,1.1c-0.6,0.2-1.5,0.3-2.6,0.3H39V42.7z M41.9,45.1v9.5h2.2
				c0.8,0,1.4,0,1.7-0.1c0.5-0.1,0.9-0.3,1.2-0.6s0.6-0.7,0.8-1.4S48,51,48,49.9s-0.1-2-0.3-2.5s-0.5-1.1-0.8-1.4s-0.8-0.6-1.3-0.7
				c-0.4-0.1-1.2-0.1-2.4-0.1H41.9z"/>
			<path class="st0" d="M58,49v-2.6c-1,1.2-2.4,2.4-3.7,3.1c-0.2-0.3-0.5-0.8-0.7-1c1.5-0.6,3.1-2,4.1-3.4h-3.9V44H58v-3.8l1.6,0.1
				c0,0.1-0.1,0.2-0.4,0.3V44h4.2v1.1h-4.2v0.5c0.8,0.5,3,1.9,3.5,2.3l-0.8,1c-0.5-0.5-1.8-1.5-2.7-2.2V49H58z M63.6,52.2h-1.8
				c-0.3,1.2-0.8,2.3-1.4,3.2c0.9,0.5,1.7,1,2.3,1.4l-0.9,1c-0.6-0.5-1.4-1-2.3-1.5c-1.2,1.1-2.8,1.8-5,2.4
				c-0.1-0.4-0.4-0.9-0.6-1.1c1.9-0.4,3.3-1,4.4-1.9c-0.8-0.4-1.5-0.7-2.3-1.1l-0.4,0.7l-1.2-0.4c0.4-0.7,1-1.7,1.5-2.7h-2.3V51h2.9
				c0.3-0.7,0.6-1.3,0.9-1.9l1.6,0.4c-0.1,0.1-0.2,0.2-0.4,0.2c-0.2,0.4-0.4,0.9-0.7,1.4h5.7V52.2z M55.6,40.7
				c0.6,0.8,1.2,1.9,1.4,2.7l-1.1,0.5c-0.2-0.7-0.8-1.9-1.4-2.7L55.6,40.7z M57.4,52.2c-0.3,0.5-0.5,1-0.8,1.5
				c0.9,0.3,1.8,0.7,2.7,1.1c0.6-0.7,1-1.6,1.3-2.6H57.4z M60.2,43.4c0.5-0.7,1.2-1.9,1.6-2.7l1.4,0.6c-0.1,0.1-0.2,0.2-0.4,0.1
				c-0.4,0.7-1.1,1.7-1.7,2.4L60.2,43.4z M72.3,45.2H71c-0.5,3.3-1.3,6-2.5,8.3c1,1.8,2.3,3.3,4,4.1c-0.3,0.3-0.7,0.8-1,1.2
				c-1.6-0.9-2.9-2.3-3.9-4c-1.2,1.7-2.8,3-4.9,4c-0.1-0.3-0.5-0.9-0.7-1.1c2.1-1,3.7-2.4,4.9-4.2c-0.8-1.7-1.4-3.7-1.9-5.8
				c-0.4,0.9-0.8,1.7-1.3,2.4c-0.2-0.3-0.7-0.7-1-0.9c1.4-2,2.4-5.5,3-9l1.7,0.4c0,0.2-0.2,0.2-0.4,0.2c-0.2,1.1-0.4,2.1-0.7,3.2h6
				V45.2z M65.9,45.2l-0.1,0.2c0.4,2.4,1,4.6,1.9,6.6c0.9-1.9,1.5-4.1,1.9-6.8H65.9z"/>
		</g>
	</g>
	<g transform="translate(497 2345)">
		<g transform="translate(105)">
			<rect class="st0" width="519" height="187"/>
			<rect x="0.5" y="0.5" class="st1" width="518" height="186"/>
		</g>
		<rect x="234" y="1" class="st2" width="130" height="185"/>
		<rect x="494" y="1" class="st2" width="129" height="185"/>
		<rect x="105" y="94" class="st3" width="519" height="1"/>
		<g transform="translate(153.416 130.171)">
			<g class="st4">
				<path d="M-16.8,15.8v-3.4H-23v-1.6l6.5-9.3h1.4v9.3h1.9v1.6H-15v3.4H-16.8z M-16.8,10.8V4.3l-4.5,6.5H-16.8z"/>
				<path d="M-10.3,8.8c0-1.7,0.2-3.1,0.5-4.1s0.9-1.8,1.6-2.4s1.6-0.8,2.6-0.8c0.8,0,1.4,0.2,2,0.5s1.1,0.8,1.4,1.3
					s0.7,1.3,0.9,2.1s0.3,2,0.3,3.4c0,1.7-0.2,3-0.5,4.1s-0.9,1.8-1.5,2.4s-1.6,0.8-2.6,0.8c-1.4,0-2.5-0.5-3.3-1.5
					C-9.8,13.4-10.3,11.5-10.3,8.8z M-8.5,8.8c0,2.4,0.3,3.9,0.8,4.7s1.2,1.2,2,1.2s1.5-0.4,2-1.2s0.8-2.3,0.8-4.7
					c0-2.4-0.3-3.9-0.8-4.7s-1.2-1.2-2.1-1.2c-0.8,0-1.5,0.3-1.9,1C-8.2,4.8-8.5,6.4-8.5,8.8z"/>
				<path d="M2.8,15.8v-2h2v2c0,0.7-0.1,1.3-0.4,1.8s-0.7,0.8-1.2,1l-0.5-0.8c0.4-0.2,0.6-0.4,0.8-0.7s0.3-0.8,0.3-1.4H2.8z"/>
				<path d="M8.4,8.8c0-1.7,0.2-3.1,0.5-4.1s0.9-1.8,1.6-2.4s1.6-0.8,2.6-0.8c0.8,0,1.4,0.2,2,0.5s1.1,0.8,1.4,1.3s0.7,1.3,0.9,2.1
					s0.3,2,0.3,3.4c0,1.7-0.2,3-0.5,4.1s-0.9,1.8-1.5,2.4s-1.6,0.8-2.6,0.8c-1.4,0-2.5-0.5-3.3-1.5C8.9,13.4,8.4,11.5,8.4,8.8z
					 M10.2,8.8c0,2.4,0.3,3.9,0.8,4.7s1.2,1.2,2,1.2s1.5-0.4,2-1.2s0.8-2.3,0.8-4.7c0-2.4-0.3-3.9-0.8-4.7S13.9,2.9,13,2.9
					c-0.8,0-1.5,0.3-1.9,1C10.5,4.8,10.2,6.4,10.2,8.8z"/>
				<path d="M20.5,8.8c0-1.7,0.2-3.1,0.5-4.1s0.9-1.8,1.6-2.4s1.6-0.8,2.6-0.8c0.8,0,1.4,0.2,2,0.5s1.1,0.8,1.4,1.3s0.7,1.3,0.9,2.1
					s0.3,2,0.3,3.4c0,1.7-0.2,3-0.5,4.1s-0.9,1.8-1.5,2.4s-1.6,0.8-2.6,0.8c-1.4,0-2.5-0.5-3.3-1.5C21,13.4,20.5,11.5,20.5,8.8z
					 M22.3,8.8c0,2.4,0.3,3.9,0.8,4.7s1.2,1.2,2,1.2s1.5-0.4,2-1.2s0.8-2.3,0.8-4.7c0-2.4-0.3-3.9-0.8-4.7S26,2.9,25.2,2.9
					c-0.8,0-1.5,0.3-1.9,1C22.6,4.8,22.3,6.4,22.3,8.8z"/>
				<path d="M32.6,8.8c0-1.7,0.2-3.1,0.5-4.1s0.9-1.8,1.6-2.4s1.6-0.8,2.6-0.8c0.8,0,1.4,0.2,2,0.5s1.1,0.8,1.4,1.3s0.7,1.3,0.9,2.1
					s0.3,2,0.3,3.4c0,1.7-0.2,3-0.5,4.1s-0.9,1.8-1.5,2.4s-1.6,0.8-2.6,0.8c-1.4,0-2.5-0.5-3.3-1.5C33.1,13.4,32.6,11.5,32.6,8.8z
					 M34.5,8.8c0,2.4,0.3,3.9,0.8,4.7s1.2,1.2,2,1.2s1.5-0.4,2-1.2s0.8-2.3,0.8-4.7c0-2.4-0.3-3.9-0.8-4.7s-1.2-1.2-2.1-1.2
					c-0.8,0-1.5,0.3-1.9,1C34.8,4.8,34.5,6.4,34.5,8.8z"/>
			</g>
			<g class="st4">
				<path d="M107.6,12.1l1.8-0.2c0.1,0.9,0.5,1.6,1,2s1.1,0.7,1.8,0.7c0.8,0,1.6-0.3,2.1-1s0.9-1.5,0.9-2.5c0-1-0.3-1.8-0.8-2.4
					s-1.3-0.9-2.2-0.9c-0.6,0-1.1,0.1-1.5,0.4s-0.8,0.6-1.1,1l-1.7-0.2l1.4-7.4h7.1v1.7h-5.7l-0.8,3.8c0.9-0.6,1.8-0.9,2.7-0.9
					c1.2,0,2.3,0.4,3.2,1.3s1.3,2,1.3,3.3c0,1.3-0.4,2.4-1.1,3.4c-0.9,1.2-2.2,1.7-3.8,1.7c-1.3,0-2.4-0.4-3.2-1.1
					S107.7,13.3,107.6,12.1z"/>
				<path d="M119.7,12.1l1.8-0.2c0.1,0.9,0.5,1.6,1,2s1.1,0.7,1.8,0.7c0.8,0,1.6-0.3,2.1-1s0.9-1.5,0.9-2.5c0-1-0.3-1.8-0.8-2.4
					s-1.3-0.9-2.2-0.9c-0.6,0-1.1,0.1-1.5,0.4s-0.8,0.6-1.1,1L120,9.1l1.4-7.4h7.1v1.7h-5.7l-0.8,3.8c0.9-0.6,1.8-0.9,2.7-0.9
					c1.2,0,2.3,0.4,3.2,1.3s1.3,2,1.3,3.3c0,1.3-0.4,2.4-1.1,3.4c-0.9,1.2-2.2,1.7-3.8,1.7c-1.3,0-2.4-0.4-3.2-1.1
					S119.8,13.3,119.7,12.1z"/>
				<path d="M132.8,15.8v-2h2v2c0,0.7-0.1,1.3-0.4,1.8s-0.7,0.8-1.2,1l-0.5-0.8c0.4-0.2,0.6-0.4,0.8-0.7s0.3-0.8,0.3-1.4H132.8z"/>
				<path d="M138.4,8.8c0-1.7,0.2-3.1,0.5-4.1s0.9-1.8,1.6-2.4s1.6-0.8,2.6-0.8c0.8,0,1.4,0.2,2,0.5s1.1,0.8,1.4,1.3
					s0.7,1.3,0.9,2.1s0.3,2,0.3,3.4c0,1.7-0.2,3-0.5,4.1s-0.9,1.8-1.5,2.4s-1.6,0.8-2.6,0.8c-1.4,0-2.5-0.5-3.3-1.5
					C138.9,13.4,138.4,11.5,138.4,8.8z M140.2,8.8c0,2.4,0.3,3.9,0.8,4.7s1.2,1.2,2,1.2s1.5-0.4,2-1.2s0.8-2.3,0.8-4.7
					c0-2.4-0.3-3.9-0.8-4.7s-1.2-1.2-2.1-1.2c-0.8,0-1.5,0.3-1.9,1C140.5,4.8,140.2,6.4,140.2,8.8z"/>
				<path d="M150.5,8.8c0-1.7,0.2-3.1,0.5-4.1s0.9-1.8,1.6-2.4s1.6-0.8,2.6-0.8c0.8,0,1.4,0.2,2,0.5s1.1,0.8,1.4,1.3
					s0.7,1.3,0.9,2.1s0.3,2,0.3,3.4c0,1.7-0.2,3-0.5,4.1s-0.9,1.8-1.5,2.4s-1.6,0.8-2.6,0.8c-1.4,0-2.5-0.5-3.3-1.5
					C151,13.4,150.5,11.5,150.5,8.8z M152.3,8.8c0,2.4,0.3,3.9,0.8,4.7s1.2,1.2,2,1.2s1.5-0.4,2-1.2s0.8-2.3,0.8-4.7
					c0-2.4-0.3-3.9-0.8-4.7s-1.2-1.2-2.1-1.2c-0.8,0-1.5,0.3-1.9,1C152.6,4.8,152.3,6.4,152.3,8.8z"/>
				<path d="M162.6,8.8c0-1.7,0.2-3.1,0.5-4.1c0.3-1,0.9-1.8,1.6-2.4c0.7-0.6,1.6-0.8,2.6-0.8c0.8,0,1.4,0.2,2,0.5
					c0.6,0.3,1.1,0.8,1.4,1.3c0.4,0.6,0.7,1.3,0.9,2.1s0.3,2,0.3,3.4c0,1.7-0.2,3-0.5,4.1c-0.3,1-0.9,1.8-1.5,2.4
					c-0.7,0.6-1.6,0.8-2.6,0.8c-1.4,0-2.5-0.5-3.3-1.5C163.1,13.4,162.6,11.5,162.6,8.8z M164.5,8.8c0,2.4,0.3,3.9,0.8,4.7
					c0.6,0.8,1.2,1.2,2,1.2c0.8,0,1.5-0.4,2-1.2c0.6-0.8,0.8-2.3,0.8-4.7c0-2.4-0.3-3.9-0.8-4.7c-0.5-0.8-1.2-1.2-2.1-1.2
					c-0.8,0-1.5,0.3-1.9,1C164.8,4.8,164.5,6.4,164.5,8.8z"/>
			</g>
			<g class="st4">
				<path d="M237.7,3.4V1.7h9.3v1.4c-0.9,1-1.8,2.3-2.7,3.9c-0.9,1.6-1.6,3.3-2.1,5c-0.4,1.2-0.6,2.5-0.7,3.9h-1.8
					c0-1.1,0.2-2.5,0.7-4.1c0.4-1.6,1-3.1,1.8-4.6s1.6-2.7,2.5-3.7H237.7z"/>
				<path d="M249.7,8.8c0-1.7,0.2-3.1,0.5-4.1c0.3-1,0.9-1.8,1.6-2.4c0.7-0.6,1.6-0.8,2.6-0.8c0.8,0,1.4,0.2,2,0.5
					c0.6,0.3,1.1,0.8,1.4,1.3c0.4,0.6,0.7,1.3,0.9,2.1s0.3,2,0.3,3.4c0,1.7-0.2,3-0.5,4.1c-0.3,1-0.9,1.8-1.5,2.4
					c-0.7,0.6-1.6,0.8-2.6,0.8c-1.4,0-2.5-0.5-3.3-1.5C250.2,13.4,249.7,11.5,249.7,8.8z M251.5,8.8c0,2.4,0.3,3.9,0.8,4.7
					c0.6,0.8,1.2,1.2,2,1.2c0.8,0,1.5-0.4,2-1.2c0.6-0.8,0.8-2.3,0.8-4.7c0-2.4-0.3-3.9-0.8-4.7c-0.5-0.8-1.2-1.2-2.1-1.2
					c-0.8,0-1.5,0.3-1.9,1C251.8,4.8,251.5,6.4,251.5,8.8z"/>
				<path d="M262.8,15.8v-2h2v2c0,0.7-0.1,1.3-0.4,1.8c-0.3,0.5-0.7,0.8-1.2,1l-0.5-0.8c0.4-0.2,0.6-0.4,0.8-0.7s0.3-0.8,0.3-1.4
					H262.8z"/>
				<path d="M268.4,8.8c0-1.7,0.2-3.1,0.5-4.1c0.3-1,0.9-1.8,1.6-2.4c0.7-0.6,1.6-0.8,2.6-0.8c0.8,0,1.4,0.2,2,0.5
					c0.6,0.3,1.1,0.8,1.4,1.3c0.4,0.6,0.7,1.3,0.9,2.1s0.3,2,0.3,3.4c0,1.7-0.2,3-0.5,4.1c-0.3,1-0.9,1.8-1.5,2.4
					c-0.7,0.6-1.6,0.8-2.6,0.8c-1.4,0-2.5-0.5-3.3-1.5C268.9,13.4,268.4,11.5,268.4,8.8z M270.2,8.8c0,2.4,0.3,3.9,0.8,4.7
					c0.6,0.8,1.2,1.2,2,1.2c0.8,0,1.5-0.4,2-1.2c0.6-0.8,0.8-2.3,0.8-4.7c0-2.4-0.3-3.9-0.8-4.7c-0.5-0.8-1.2-1.2-2.1-1.2
					c-0.8,0-1.5,0.3-1.9,1C270.5,4.8,270.2,6.4,270.2,8.8z"/>
				<path d="M280.5,8.8c0-1.7,0.2-3.1,0.5-4.1c0.3-1,0.9-1.8,1.6-2.4c0.7-0.6,1.6-0.8,2.6-0.8c0.8,0,1.4,0.2,2,0.5
					c0.6,0.3,1.1,0.8,1.4,1.3c0.4,0.6,0.7,1.3,0.9,2.1s0.3,2,0.3,3.4c0,1.7-0.2,3-0.5,4.1c-0.3,1-0.9,1.8-1.5,2.4
					c-0.7,0.6-1.6,0.8-2.6,0.8c-1.4,0-2.5-0.5-3.3-1.5C281,13.4,280.5,11.5,280.5,8.8z M282.3,8.8c0,2.4,0.3,3.9,0.8,4.7
					c0.6,0.8,1.2,1.2,2,1.2c0.8,0,1.5-0.4,2-1.2c0.6-0.8,0.8-2.3,0.8-4.7c0-2.4-0.3-3.9-0.8-4.7c-0.5-0.8-1.2-1.2-2.1-1.2
					c-0.8,0-1.5,0.3-1.9,1C282.6,4.8,282.3,6.4,282.3,8.8z"/>
				<path d="M292.6,8.8c0-1.7,0.2-3.1,0.5-4.1c0.3-1,0.9-1.8,1.6-2.4c0.7-0.6,1.6-0.8,2.6-0.8c0.8,0,1.4,0.2,2,0.5
					c0.6,0.3,1.1,0.8,1.4,1.3c0.4,0.6,0.7,1.3,0.9,2.1s0.3,2,0.3,3.4c0,1.7-0.2,3-0.5,4.1c-0.3,1-0.9,1.8-1.5,2.4
					c-0.7,0.6-1.6,0.8-2.6,0.8c-1.4,0-2.5-0.5-3.3-1.5C293.1,13.4,292.6,11.5,292.6,8.8z M294.5,8.8c0,2.4,0.3,3.9,0.8,4.7
					c0.6,0.8,1.2,1.2,2,1.2c0.8,0,1.5-0.4,2-1.2c0.6-0.8,0.8-2.3,0.8-4.7c0-2.4-0.3-3.9-0.8-4.7c-0.5-0.8-1.2-1.2-2.1-1.2
					c-0.8,0-1.5,0.3-1.9,1C294.8,4.8,294.5,6.4,294.5,8.8z"/>
			</g>
			<g class="st4">
				<path d="M369.3,8.1c-0.7-0.3-1.3-0.6-1.6-1.1s-0.5-1.1-0.5-1.8c0-1,0.4-1.9,1.1-2.6c0.7-0.7,1.7-1.1,3-1.1c1.2,0,2.3,0.4,3,1.1
					s1.1,1.6,1.1,2.7c0,0.7-0.2,1.2-0.5,1.7c-0.3,0.5-0.9,0.9-1.6,1.1c0.9,0.3,1.5,0.7,2,1.4s0.7,1.4,0.7,2.3c0,1.2-0.4,2.3-1.3,3.1
					c-0.9,0.8-2,1.2-3.4,1.2c-1.4,0-2.6-0.4-3.4-1.3c-0.9-0.8-1.3-1.9-1.3-3.1c0-0.9,0.2-1.7,0.7-2.3C367.8,8.7,368.4,8.3,369.3,8.1
					z M368.4,11.7c0,0.5,0.1,1,0.4,1.5c0.2,0.5,0.6,0.8,1.1,1.1s1,0.4,1.5,0.4c0.8,0,1.5-0.3,2.1-0.8s0.8-1.2,0.8-2.1
					c0-0.8-0.3-1.5-0.8-2.1c-0.6-0.6-1.3-0.8-2.1-0.8c-0.8,0-1.5,0.3-2.1,0.8C368.7,10.2,368.4,10.9,368.4,11.7z M369,5.1
					c0,0.7,0.2,1.2,0.7,1.7c0.4,0.4,1,0.6,1.7,0.6c0.7,0,1.2-0.2,1.7-0.6c0.4-0.4,0.6-0.9,0.6-1.6c0-0.6-0.2-1.2-0.7-1.6
					c-0.4-0.4-1-0.7-1.7-0.7c-0.7,0-1.2,0.2-1.7,0.6C369.2,4,369,4.5,369,5.1z"/>
				<path d="M378.7,12.1l1.8-0.2c0.1,0.9,0.5,1.6,1,2s1.1,0.7,1.8,0.7c0.8,0,1.6-0.3,2.1-1s0.9-1.5,0.9-2.5c0-1-0.3-1.8-0.8-2.4
					c-0.6-0.6-1.3-0.9-2.2-0.9c-0.6,0-1.1,0.1-1.5,0.4c-0.5,0.3-0.8,0.6-1.1,1L379,9.1l1.4-7.4h7.1v1.7h-5.7l-0.8,3.8
					c0.9-0.6,1.8-0.9,2.7-0.9c1.2,0,2.3,0.4,3.2,1.3s1.3,2,1.3,3.3c0,1.3-0.4,2.4-1.1,3.4c-0.9,1.2-2.2,1.7-3.8,1.7
					c-1.3,0-2.4-0.4-3.2-1.1C379.3,14.2,378.8,13.3,378.7,12.1z"/>
				<path d="M391.8,15.8v-2h2v2c0,0.7-0.1,1.3-0.4,1.8c-0.3,0.5-0.7,0.8-1.2,1l-0.5-0.8c0.4-0.2,0.6-0.4,0.8-0.7s0.3-0.8,0.3-1.4
					H391.8z"/>
				<path d="M397.4,8.8c0-1.7,0.2-3.1,0.5-4.1c0.3-1,0.9-1.8,1.6-2.4c0.7-0.6,1.6-0.8,2.6-0.8c0.8,0,1.4,0.2,2,0.5
					c0.6,0.3,1.1,0.8,1.4,1.3c0.4,0.6,0.7,1.3,0.9,2.1s0.3,2,0.3,3.4c0,1.7-0.2,3-0.5,4.1c-0.3,1-0.9,1.8-1.5,2.4
					c-0.7,0.6-1.6,0.8-2.6,0.8c-1.4,0-2.5-0.5-3.3-1.5C397.9,13.4,397.4,11.5,397.4,8.8z M399.2,8.8c0,2.4,0.3,3.9,0.8,4.7
					c0.6,0.8,1.2,1.2,2,1.2c0.8,0,1.5-0.4,2-1.2c0.6-0.8,0.8-2.3,0.8-4.7c0-2.4-0.3-3.9-0.8-4.7c-0.5-0.8-1.2-1.2-2.1-1.2
					c-0.8,0-1.5,0.3-1.9,1C399.5,4.8,399.2,6.4,399.2,8.8z"/>
				<path d="M409.5,8.8c0-1.7,0.2-3.1,0.5-4.1c0.3-1,0.9-1.8,1.6-2.4c0.7-0.6,1.6-0.8,2.6-0.8c0.8,0,1.4,0.2,2,0.5
					c0.6,0.3,1.1,0.8,1.4,1.3c0.4,0.6,0.7,1.3,0.9,2.1s0.3,2,0.3,3.4c0,1.7-0.2,3-0.5,4.1c-0.3,1-0.9,1.8-1.5,2.4
					c-0.7,0.6-1.6,0.8-2.6,0.8c-1.4,0-2.5-0.5-3.3-1.5C410,13.4,409.5,11.5,409.5,8.8z M411.3,8.8c0,2.4,0.3,3.9,0.8,4.7
					c0.6,0.8,1.2,1.2,2,1.2c0.8,0,1.5-0.4,2-1.2c0.6-0.8,0.8-2.3,0.8-4.7c0-2.4-0.3-3.9-0.8-4.7c-0.5-0.8-1.2-1.2-2.1-1.2
					c-0.8,0-1.5,0.3-1.9,1C411.6,4.8,411.3,6.4,411.3,8.8z"/>
				<path d="M421.6,8.8c0-1.7,0.2-3.1,0.5-4.1c0.3-1,0.9-1.8,1.6-2.4c0.7-0.6,1.6-0.8,2.6-0.8c0.8,0,1.4,0.2,2,0.5
					c0.6,0.3,1.1,0.8,1.4,1.3c0.4,0.6,0.7,1.3,0.9,2.1s0.3,2,0.3,3.4c0,1.7-0.2,3-0.5,4.1c-0.3,1-0.9,1.8-1.5,2.4
					c-0.7,0.6-1.6,0.8-2.6,0.8c-1.4,0-2.5-0.5-3.3-1.5C422.1,13.4,421.6,11.5,421.6,8.8z M423.5,8.8c0,2.4,0.3,3.9,0.8,4.7
					c0.6,0.8,1.2,1.2,2,1.2c0.8,0,1.5-0.4,2-1.2c0.6-0.8,0.8-2.3,0.8-4.7c0-2.4-0.3-3.9-0.8-4.7c-0.5-0.8-1.2-1.2-2.1-1.2
					c-0.8,0-1.5,0.3-1.9,1C423.8,4.8,423.5,6.4,423.5,8.8z"/>
			</g>
		</g>
		<g transform="translate(129.416 46.021)">
			<g class="st4">
				<path d="M6,15H4.2V3.8C3.8,4.2,3.2,4.6,2.5,5S1.2,5.7,0.7,5.9V4.2c1-0.5,1.8-1,2.6-1.7s1.3-1.3,1.6-1.9H6V15z"/>
				<path d="M29.8,6.5c-1.3,2.3-3.1,3.5-5.2,3.5c-1.8,0-3.1-0.7-4.5-2.1c-1.1-1.1-2-1.7-3.5-1.7c-1.6,0-3,1.1-3.9,2.7l-1.3-0.7
					c1.3-2.3,3.1-3.5,5.2-3.5c1.8,0,3.1,0.7,4.5,2.1c1.1,1.1,2,1.7,3.5,1.7c1.6,0,3-1.1,3.9-2.7L29.8,6.5z"/>
				<path d="M39.1,15h-1.8V3.8c-0.4,0.4-1,0.8-1.7,1.2s-1.3,0.7-1.9,0.9V4.2c1-0.5,1.8-1,2.6-1.7s1.3-1.3,1.6-1.9h1.1V15z"/>
				<path d="M44.6,7.9c0-1.7,0.2-3.1,0.5-4.1S46,2,46.7,1.4s1.6-0.8,2.6-0.8c0.8,0,1.4,0.2,2,0.5s1.1,0.8,1.4,1.3s0.7,1.3,0.9,2.1
					s0.3,2,0.3,3.4c0,1.7-0.2,3-0.5,4.1s-0.9,1.8-1.5,2.4s-1.6,0.8-2.6,0.8c-1.4,0-2.5-0.5-3.3-1.5C45.1,12.5,44.6,10.6,44.6,7.9z
					 M46.4,7.9c0,2.4,0.3,3.9,0.8,4.7s1.2,1.2,2,1.2s1.5-0.4,2-1.2s0.8-2.3,0.8-4.7c0-2.4-0.3-3.9-0.8-4.7S50,2.1,49.2,2.1
					c-0.8,0-1.5,0.3-1.9,1C46.7,4,46.4,5.6,46.4,7.9z"/>
				<path d="M56.7,7.9c0-1.7,0.2-3.1,0.5-4.1s0.9-1.8,1.6-2.4s1.6-0.8,2.6-0.8c0.8,0,1.4,0.2,2,0.5s1.1,0.8,1.4,1.3s0.7,1.3,0.9,2.1
					s0.3,2,0.3,3.4c0,1.7-0.2,3-0.5,4.1s-0.9,1.8-1.5,2.4s-1.6,0.8-2.6,0.8c-1.4,0-2.5-0.5-3.3-1.5C57.2,12.5,56.7,10.6,56.7,7.9z
					 M58.5,7.9c0,2.4,0.3,3.9,0.8,4.7s1.2,1.2,2,1.2s1.5-0.4,2-1.2s0.8-2.3,0.8-4.7c0-2.4-0.3-3.9-0.8-4.7s-1.2-1.2-2.1-1.2
					c-0.8,0-1.5,0.3-1.9,1C58.8,4,58.5,5.6,58.5,7.9z"/>
			</g>
			<g class="st4">
				<path d="M119.9,15h-1.8V3.8c-0.4,0.4-1,0.8-1.7,1.2s-1.3,0.7-1.9,0.9V4.2c1-0.5,1.8-1,2.6-1.7s1.3-1.3,1.6-1.9h1.1V15z"/>
				<path d="M125.4,7.9c0-1.7,0.2-3.1,0.5-4.1s0.9-1.8,1.6-2.4s1.6-0.8,2.6-0.8c0.8,0,1.4,0.2,2,0.5s1.1,0.8,1.4,1.3
					s0.7,1.3,0.9,2.1s0.3,2,0.3,3.4c0,1.7-0.2,3-0.5,4.1s-0.9,1.8-1.5,2.4s-1.6,0.8-2.6,0.8c-1.4,0-2.5-0.5-3.3-1.5
					C125.9,12.5,125.4,10.6,125.4,7.9z M127.2,7.9c0,2.4,0.3,3.9,0.8,4.7s1.2,1.2,2,1.2s1.5-0.4,2-1.2s0.8-2.3,0.8-4.7
					c0-2.4-0.3-3.9-0.8-4.7s-1.2-1.2-2.1-1.2c-0.8,0-1.5,0.3-1.9,1C127.5,4,127.2,5.6,127.2,7.9z"/>
				<path d="M144.2,15h-1.8V3.8c-0.4,0.4-1,0.8-1.7,1.2s-1.3,0.7-1.9,0.9V4.2c1-0.5,1.8-1,2.6-1.7s1.3-1.3,1.6-1.9h1.1V15z"/>
				<path d="M168,6.5c-1.3,2.3-3.1,3.5-5.2,3.5c-1.8,0-3.1-0.7-4.5-2.1c-1.1-1.1-2-1.7-3.5-1.7c-1.6,0-3,1.1-3.9,2.7l-1.3-0.7
					c1.3-2.3,3.1-3.5,5.2-3.5c1.8,0,3.1,0.7,4.5,2.1c1.1,1.1,2,1.7,3.5,1.7c1.6,0,3-1.1,3.9-2.7L168,6.5z"/>
				<path d="M179.9,13.3V15h-9.5c0-0.4,0.1-0.8,0.2-1.2c0.2-0.6,0.6-1.3,1.2-1.9s1.3-1.3,2.3-2.2c1.6-1.3,2.6-2.3,3.2-3
					s0.8-1.5,0.8-2.1c0-0.7-0.2-1.3-0.7-1.8s-1.1-0.7-1.9-0.7c-0.8,0-1.5,0.3-2,0.8s-0.8,1.2-0.8,2.1l-1.8-0.2
					c0.1-1.3,0.6-2.4,1.4-3.1s1.9-1.1,3.3-1.1c1.4,0,2.5,0.4,3.3,1.1s1.2,1.7,1.2,2.8c0,0.6-0.1,1.1-0.4,1.7s-0.6,1.1-1.2,1.7
					s-1.4,1.5-2.7,2.5c-1.1,0.9-1.7,1.5-2,1.8s-0.5,0.6-0.7,1H179.9z"/>
				<path d="M182.8,7.9c0-1.7,0.2-3.1,0.5-4.1s0.9-1.8,1.6-2.4c0.7-0.6,1.6-0.8,2.6-0.8c0.8,0,1.4,0.2,2,0.5
					c0.6,0.3,1.1,0.8,1.4,1.3c0.4,0.6,0.7,1.3,0.9,2.1s0.3,2,0.3,3.4c0,1.7-0.2,3-0.5,4.1c-0.3,1-0.9,1.8-1.5,2.4
					c-0.7,0.6-1.6,0.8-2.6,0.8c-1.4,0-2.5-0.5-3.3-1.5C183.3,12.5,182.8,10.6,182.8,7.9z M184.6,7.9c0,2.4,0.3,3.9,0.8,4.7
					c0.6,0.8,1.2,1.2,2,1.2c0.8,0,1.5-0.4,2-1.2c0.6-0.8,0.8-2.3,0.8-4.7c0-2.4-0.3-3.9-0.8-4.7c-0.5-0.8-1.2-1.2-2.1-1.2
					c-0.8,0-1.5,0.3-1.9,1C184.9,4,184.6,5.6,184.6,7.9z"/>
				<path d="M194.9,7.9c0-1.7,0.2-3.1,0.5-4.1c0.3-1,0.9-1.8,1.6-2.4c0.7-0.6,1.6-0.8,2.6-0.8c0.8,0,1.4,0.2,2,0.5
					c0.6,0.3,1.1,0.8,1.4,1.3c0.4,0.6,0.7,1.3,0.9,2.1s0.3,2,0.3,3.4c0,1.7-0.2,3-0.5,4.1c-0.3,1-0.9,1.8-1.5,2.4
					c-0.7,0.6-1.6,0.8-2.6,0.8c-1.4,0-2.5-0.5-3.3-1.5C195.4,12.5,194.9,10.6,194.9,7.9z M196.7,7.9c0,2.4,0.3,3.9,0.8,4.7
					c0.6,0.8,1.2,1.2,2,1.2c0.8,0,1.5-0.4,2-1.2c0.6-0.8,0.8-2.3,0.8-4.7c0-2.4-0.3-3.9-0.8-4.7c-0.5-0.8-1.2-1.2-2.1-1.2
					c-0.8,0-1.5,0.3-1.9,1C197,4,196.7,5.6,196.7,7.9z"/>
			</g>
			<g class="st4">
				<path d="M252.5,13.3V15h-9.5c0-0.4,0.1-0.8,0.2-1.2c0.2-0.6,0.6-1.3,1.2-1.9c0.5-0.6,1.3-1.3,2.3-2.2c1.6-1.3,2.6-2.3,3.2-3
					s0.8-1.5,0.8-2.1c0-0.7-0.2-1.3-0.7-1.8s-1.1-0.7-1.9-0.7c-0.8,0-1.5,0.3-2,0.8s-0.8,1.2-0.8,2.1l-1.8-0.2
					c0.1-1.3,0.6-2.4,1.4-3.1c0.8-0.7,1.9-1.1,3.3-1.1c1.4,0,2.5,0.4,3.3,1.1s1.2,1.7,1.2,2.8c0,0.6-0.1,1.1-0.4,1.7
					S251.5,7.4,251,8c-0.5,0.6-1.4,1.5-2.7,2.5c-1.1,0.9-1.7,1.5-2,1.8c-0.3,0.3-0.5,0.6-0.7,1H252.5z"/>
				<path d="M255.4,7.9c0-1.7,0.2-3.1,0.5-4.1c0.3-1,0.9-1.8,1.6-2.4c0.7-0.6,1.6-0.8,2.6-0.8c0.8,0,1.4,0.2,2,0.5
					c0.6,0.3,1.1,0.8,1.4,1.3c0.4,0.6,0.7,1.3,0.9,2.1s0.3,2,0.3,3.4c0,1.7-0.2,3-0.5,4.1c-0.3,1-0.9,1.8-1.5,2.4
					c-0.7,0.6-1.6,0.8-2.6,0.8c-1.4,0-2.5-0.5-3.3-1.5C255.9,12.5,255.4,10.6,255.4,7.9z M257.2,7.9c0,2.4,0.3,3.9,0.8,4.7
					c0.6,0.8,1.2,1.2,2,1.2c0.8,0,1.5-0.4,2-1.2c0.6-0.8,0.8-2.3,0.8-4.7c0-2.4-0.3-3.9-0.8-4.7c-0.5-0.8-1.2-1.2-2.1-1.2
					c-0.8,0-1.5,0.3-1.9,1C257.5,4,257.2,5.6,257.2,7.9z"/>
				<path d="M274.2,15h-1.8V3.8c-0.4,0.4-1,0.8-1.7,1.2c-0.7,0.4-1.3,0.7-1.9,0.9V4.2c1-0.5,1.8-1,2.6-1.7c0.7-0.7,1.3-1.3,1.6-1.9
					h1.1V15z"/>
				<path d="M298,6.5c-1.3,2.3-3.1,3.5-5.2,3.5c-1.8,0-3.1-0.7-4.5-2.1c-1.1-1.1-2-1.7-3.5-1.7c-1.6,0-3,1.1-3.9,2.7l-1.3-0.7
					c1.3-2.3,3.1-3.5,5.2-3.5c1.8,0,3.1,0.7,4.5,2.1c1.1,1.1,2,1.7,3.5,1.7c1.6,0,3-1.1,3.9-2.7L298,6.5z"/>
				<path d="M300.7,11.2l1.8-0.2c0.2,1,0.5,1.7,1,2.2c0.5,0.4,1.1,0.7,1.8,0.7c0.8,0,1.5-0.3,2.1-0.9c0.6-0.6,0.9-1.3,0.9-2.1
					c0-0.8-0.3-1.5-0.8-2s-1.2-0.8-2-0.8c-0.3,0-0.7,0.1-1.2,0.2l0.2-1.5c0.1,0,0.2,0,0.3,0c0.7,0,1.4-0.2,2-0.6
					c0.6-0.4,0.9-1,0.9-1.8c0-0.6-0.2-1.2-0.7-1.6c-0.4-0.4-1-0.6-1.7-0.6c-0.7,0-1.3,0.2-1.7,0.6c-0.5,0.4-0.7,1.1-0.9,1.9
					l-1.8-0.3c0.2-1.2,0.7-2.1,1.5-2.7s1.7-1,2.8-1c0.8,0,1.5,0.2,2.2,0.5c0.7,0.3,1.2,0.8,1.5,1.4c0.3,0.6,0.5,1.2,0.5,1.8
					c0,0.6-0.2,1.2-0.5,1.7s-0.8,0.9-1.5,1.2c0.8,0.2,1.5,0.6,2,1.2s0.7,1.4,0.7,2.3c0,1.2-0.5,2.3-1.4,3.2
					c-0.9,0.9-2.1,1.3-3.5,1.3c-1.3,0-2.3-0.4-3.1-1.1S300.8,12.4,300.7,11.2z"/>
				<path d="M312.8,7.9c0-1.7,0.2-3.1,0.5-4.1c0.3-1,0.9-1.8,1.6-2.4c0.7-0.6,1.6-0.8,2.6-0.8c0.8,0,1.4,0.2,2,0.5
					c0.6,0.3,1.1,0.8,1.4,1.3c0.4,0.6,0.7,1.3,0.9,2.1s0.3,2,0.3,3.4c0,1.7-0.2,3-0.5,4.1c-0.3,1-0.9,1.8-1.5,2.4
					c-0.7,0.6-1.6,0.8-2.6,0.8c-1.4,0-2.5-0.5-3.3-1.5C313.3,12.5,312.8,10.6,312.8,7.9z M314.6,7.9c0,2.4,0.3,3.9,0.8,4.7
					c0.6,0.8,1.2,1.2,2,1.2c0.8,0,1.5-0.4,2-1.2c0.6-0.8,0.8-2.3,0.8-4.7c0-2.4-0.3-3.9-0.8-4.7c-0.5-0.8-1.2-1.2-2.1-1.2
					c-0.8,0-1.5,0.3-1.9,1C314.9,4,314.6,5.6,314.6,7.9z"/>
				<path d="M324.9,7.9c0-1.7,0.2-3.1,0.5-4.1c0.3-1,0.9-1.8,1.6-2.4c0.7-0.6,1.6-0.8,2.6-0.8c0.8,0,1.4,0.2,2,0.5
					c0.6,0.3,1.1,0.8,1.4,1.3c0.4,0.6,0.7,1.3,0.9,2.1s0.3,2,0.3,3.4c0,1.7-0.2,3-0.5,4.1c-0.3,1-0.9,1.8-1.5,2.4
					c-0.7,0.6-1.6,0.8-2.6,0.8c-1.4,0-2.5-0.5-3.3-1.5C325.4,12.5,324.9,10.6,324.9,7.9z M326.7,7.9c0,2.4,0.3,3.9,0.8,4.7
					c0.6,0.8,1.2,1.2,2,1.2c0.8,0,1.5-0.4,2-1.2c0.6-0.8,0.8-2.3,0.8-4.7c0-2.4-0.3-3.9-0.8-4.7c-0.5-0.8-1.2-1.2-2.1-1.2
					c-0.8,0-1.5,0.3-1.9,1C327,4,326.7,5.6,326.7,7.9z"/>
			</g>
			<g class="st4">
				<path d="M373.3,11.2l1.8-0.2c0.2,1,0.5,1.7,1,2.2c0.5,0.4,1.1,0.7,1.8,0.7c0.8,0,1.5-0.3,2.1-0.9c0.6-0.6,0.9-1.3,0.9-2.1
					c0-0.8-0.3-1.5-0.8-2S378.8,8,378,8c-0.3,0-0.7,0.1-1.2,0.2l0.2-1.5c0.1,0,0.2,0,0.3,0c0.7,0,1.4-0.2,2-0.6
					c0.6-0.4,0.9-1,0.9-1.8c0-0.6-0.2-1.2-0.7-1.6c-0.4-0.4-1-0.6-1.7-0.6c-0.7,0-1.3,0.2-1.7,0.6c-0.5,0.4-0.7,1.1-0.9,1.9
					l-1.8-0.3c0.2-1.2,0.7-2.1,1.5-2.7s1.7-1,2.8-1c0.8,0,1.5,0.2,2.2,0.5c0.7,0.3,1.2,0.8,1.5,1.4c0.3,0.6,0.5,1.2,0.5,1.8
					c0,0.6-0.2,1.2-0.5,1.7s-0.8,0.9-1.5,1.2c0.8,0.2,1.5,0.6,2,1.2s0.7,1.4,0.7,2.3c0,1.2-0.5,2.3-1.4,3.2
					c-0.9,0.9-2.1,1.3-3.5,1.3c-1.3,0-2.3-0.4-3.1-1.1S373.4,12.4,373.3,11.2z"/>
				<path d="M385.4,7.9c0-1.7,0.2-3.1,0.5-4.1c0.3-1,0.9-1.8,1.6-2.4c0.7-0.6,1.6-0.8,2.6-0.8c0.8,0,1.4,0.2,2,0.5
					c0.6,0.3,1.1,0.8,1.4,1.3c0.4,0.6,0.7,1.3,0.9,2.1s0.3,2,0.3,3.4c0,1.7-0.2,3-0.5,4.1c-0.3,1-0.9,1.8-1.5,2.4
					c-0.7,0.6-1.6,0.8-2.6,0.8c-1.4,0-2.5-0.5-3.3-1.5C385.9,12.5,385.4,10.6,385.4,7.9z M387.2,7.9c0,2.4,0.3,3.9,0.8,4.7
					c0.6,0.8,1.2,1.2,2,1.2c0.8,0,1.5-0.4,2-1.2c0.6-0.8,0.8-2.3,0.8-4.7c0-2.4-0.3-3.9-0.8-4.7c-0.5-0.8-1.2-1.2-2.1-1.2
					c-0.8,0-1.5,0.3-1.9,1C387.5,4,387.2,5.6,387.2,7.9z"/>
				<path d="M404.2,15h-1.8V3.8c-0.4,0.4-1,0.8-1.7,1.2c-0.7,0.4-1.3,0.7-1.9,0.9V4.2c1-0.5,1.8-1,2.6-1.7c0.7-0.7,1.3-1.3,1.6-1.9
					h1.1V15z"/>
				<path d="M428,6.5c-1.3,2.3-3.1,3.5-5.2,3.5c-1.8,0-3.1-0.7-4.5-2.1c-1.1-1.1-2-1.7-3.5-1.7c-1.6,0-3,1.1-3.9,2.7l-1.3-0.7
					c1.3-2.3,3.1-3.5,5.2-3.5c1.8,0,3.1,0.7,4.5,2.1c1.1,1.1,2,1.7,3.5,1.7c1.6,0,3-1.1,3.9-2.7L428,6.5z"/>
				<path d="M436.3,15v-3.4h-6.2V9.9l6.5-9.3h1.4v9.3h1.9v1.6h-1.9V15H436.3z M436.3,9.9V3.5l-4.5,6.5H436.3z"/>
				<path d="M442.8,7.9c0-1.7,0.2-3.1,0.5-4.1c0.3-1,0.9-1.8,1.6-2.4c0.7-0.6,1.6-0.8,2.6-0.8c0.8,0,1.4,0.2,2,0.5
					c0.6,0.3,1.1,0.8,1.4,1.3c0.4,0.6,0.7,1.3,0.9,2.1s0.3,2,0.3,3.4c0,1.7-0.2,3-0.5,4.1c-0.3,1-0.9,1.8-1.5,2.4
					c-0.7,0.6-1.6,0.8-2.6,0.8c-1.4,0-2.5-0.5-3.3-1.5C443.3,12.5,442.8,10.6,442.8,7.9z M444.6,7.9c0,2.4,0.3,3.9,0.8,4.7
					c0.6,0.8,1.2,1.2,2,1.2c0.8,0,1.5-0.4,2-1.2c0.6-0.8,0.8-2.3,0.8-4.7c0-2.4-0.3-3.9-0.8-4.7c-0.5-0.8-1.2-1.2-2.1-1.2
					c-0.8,0-1.5,0.3-1.9,1C444.9,4,444.6,5.6,444.6,7.9z"/>
				<path d="M454.9,7.9c0-1.7,0.2-3.1,0.5-4.1c0.3-1,0.9-1.8,1.6-2.4c0.7-0.6,1.6-0.8,2.6-0.8c0.8,0,1.4,0.2,2,0.5
					c0.6,0.3,1.1,0.8,1.4,1.3c0.4,0.6,0.7,1.3,0.9,2.1s0.3,2,0.3,3.4c0,1.7-0.2,3-0.5,4.1c-0.3,1-0.9,1.8-1.5,2.4
					c-0.7,0.6-1.6,0.8-2.6,0.8c-1.4,0-2.5-0.5-3.3-1.5C455.4,12.5,454.9,10.6,454.9,7.9z M456.7,7.9c0,2.4,0.3,3.9,0.8,4.7
					c0.6,0.8,1.2,1.2,2,1.2c0.8,0,1.5-0.4,2-1.2c0.6-0.8,0.8-2.3,0.8-4.7c0-2.4-0.3-3.9-0.8-4.7c-0.5-0.8-1.2-1.2-2.1-1.2
					c-0.8,0-1.5,0.3-1.9,1C457,4,456.7,5.6,456.7,7.9z"/>
			</g>
		</g>
		<rect width="105" height="187"/>
		<g class="st4">
			<path class="st0" d="M14,137.4c-0.7,1.2-1.4,2.3-2.1,3.2c-0.1-0.3-0.5-1-0.7-1.3c1.7-2.1,3.4-5.6,4.4-9l1.6,0.5
				c-0.1,0.1-0.2,0.2-0.5,0.2c-0.4,1.3-1,2.7-1.5,4l0.5,0.1c0,0.1-0.1,0.2-0.4,0.3v13.4H14V137.4z M30.3,133.1h-4.2v4h3.8v11.3h-1.3
				v-1.1h-10v1.2h-1.3v-11.4H21v-4h-4v-1.3h13.3V133.1z M18.6,138.3v7.8h2.5v-7.8H18.6z M24.8,137.1v-4h-2.5v4H24.8z M24.8,138.3
				h-2.5v7.8h2.5V138.3z M28.6,146v-7.8H26v7.8H28.6z"/>
			<path class="st0" d="M48.5,132.3c0.3,0,0.4,0,0.6-0.1l0.9,0.4c0,0.1-0.1,0.2-0.2,0.2c-0.7,2.1-1.9,3.8-3.3,5.3
				c1.4,1.2,3.1,2.3,5.1,2.9c-0.3,0.3-0.7,0.8-0.9,1.1c-0.3-0.1-0.6-0.2-0.9-0.4v6.8h-1.3v-0.9h-5.9v0.9h-1.3v-6.8
				c-0.5,0.3-1.1,0.5-1.6,0.7c-0.2-0.3-0.5-0.8-0.8-1.1l0.1,0c-0.3-0.7-1.1-1.8-1.7-2.7v9.9H36v-10c-0.8,2.4-1.8,4.7-2.8,6.1
				c-0.2-0.4-0.5-0.9-0.7-1.2c1.4-1.7,2.8-5,3.4-7.9h-2.9v-1.3H36v-4.4l1.7,0.1c0,0.1-0.1,0.2-0.4,0.3v4H40v1.3h-2.7v1.4
				c0.6,0.7,2.2,2.8,2.6,3.3c-0.4,0.5-0.6,0.7-0.7,0.9c1.9-0.7,3.8-1.8,5.4-3.2c-0.9-1-1.7-2.1-2.3-3.2c-0.7,0.9-1.4,1.7-2.1,2.4
				c-0.2-0.2-0.7-0.6-1-0.9c1.7-1.4,3.4-3.8,4.3-6.4l1.6,0.5c-0.1,0.1-0.2,0.2-0.4,0.2c-0.2,0.5-0.4,1-0.7,1.5H48.5z M48.7,141.3
				c-1.2-0.6-2.2-1.4-3.1-2.2c-0.9,0.9-2,1.6-3,2.2H48.7z M42.6,146.6h5.9v-4.1h-5.9V146.6z M43.4,133.5l-0.2,0.3
				c0.6,1.2,1.4,2.3,2.4,3.4c1-1.1,1.9-2.4,2.5-3.8H43.4z"/>
			<path class="st0" d="M59,151.2h-1.9c-1-1.5-1.8-3.1-2.3-4.7s-0.8-3.2-0.8-4.7c0-1.9,0.3-3.7,1-5.3c0.6-1.5,1.3-2.8,2.1-4H59
				c-0.9,2-1.5,3.7-1.8,5s-0.5,2.8-0.5,4.4c0,1.1,0.1,2.2,0.3,3.3s0.5,2.2,0.8,3.2C58,149,58.4,150,59,151.2z"/>
			<path class="st0" d="M78.8,131.5v15.3c0,1.7-0.8,1.8-4.5,1.8c-0.1-0.4-0.3-1-0.5-1.4c0.7,0,1.4,0,2,0c1.6,0,1.7,0,1.7-0.5v-6.5
				h-14v8.4h-1.3v-17.2H78.8z M63.5,132.8v6.1h6.2v-6.1H63.5z M71.1,139h6.4v-6.1h-6.4V139z"/>
			<path class="st0" d="M81.9,151.2c0.5-1.2,0.9-2,1.1-2.7s0.4-1.3,0.6-2.1s0.3-1.6,0.4-2.3s0.1-1.5,0.1-2.2c0-1.5-0.2-3-0.5-4.4
				s-0.9-3.1-1.8-5h1.9c1,1.4,1.7,2.9,2.3,4.5s0.8,3.2,0.8,4.8c0,1.4-0.2,2.8-0.6,4.4c-0.5,1.7-1.3,3.5-2.4,5.2H81.9z"/>
		</g>
		<g class="st4">
			<path class="st0" d="M32.4,57V42.7h2.9V57H32.4z"/>
			<path class="st0" d="M39,42.7h5.3c1.2,0,2.1,0.1,2.7,0.3c0.8,0.2,1.6,0.7,2.2,1.3s1.1,1.4,1.4,2.3s0.5,2,0.5,3.4
				c0,1.2-0.1,2.2-0.4,3c-0.4,1-0.9,1.9-1.5,2.5c-0.5,0.5-1.2,0.9-2,1.1c-0.6,0.2-1.5,0.3-2.6,0.3H39V42.7z M41.9,45.1v9.5h2.2
				c0.8,0,1.4,0,1.7-0.1c0.5-0.1,0.9-0.3,1.2-0.6s0.6-0.7,0.8-1.4S48,51,48,49.9s-0.1-2-0.3-2.5s-0.5-1.1-0.8-1.4s-0.8-0.6-1.3-0.7
				c-0.4-0.1-1.2-0.1-2.4-0.1H41.9z"/>
			<path class="st0" d="M58,49v-2.6c-1,1.2-2.4,2.4-3.7,3.1c-0.2-0.3-0.5-0.8-0.7-1c1.5-0.6,3.1-2,4.1-3.4h-3.9V44H58v-3.8l1.6,0.1
				c0,0.1-0.1,0.2-0.4,0.3V44h4.2v1.1h-4.2v0.5c0.8,0.5,3,1.9,3.5,2.3l-0.8,1c-0.5-0.5-1.8-1.5-2.7-2.2V49H58z M63.6,52.2h-1.8
				c-0.3,1.2-0.8,2.3-1.4,3.2c0.9,0.5,1.7,1,2.3,1.4l-0.9,1c-0.6-0.5-1.4-1-2.3-1.5c-1.2,1.1-2.8,1.8-5,2.4
				c-0.1-0.4-0.4-0.9-0.6-1.1c1.9-0.4,3.3-1,4.4-1.9c-0.8-0.4-1.5-0.7-2.3-1.1l-0.4,0.7l-1.2-0.4c0.4-0.7,1-1.7,1.5-2.7h-2.3V51h2.9
				c0.3-0.7,0.6-1.3,0.9-1.9l1.6,0.4c-0.1,0.1-0.2,0.2-0.4,0.2c-0.2,0.4-0.4,0.9-0.7,1.4h5.7V52.2z M55.6,40.7
				c0.6,0.8,1.2,1.9,1.4,2.7l-1.1,0.5c-0.2-0.7-0.8-1.9-1.4-2.7L55.6,40.7z M57.4,52.2c-0.3,0.5-0.5,1-0.8,1.5
				c0.9,0.3,1.8,0.7,2.7,1.1c0.6-0.7,1-1.6,1.3-2.6H57.4z M60.2,43.4c0.5-0.7,1.2-1.9,1.6-2.7l1.4,0.6c-0.1,0.1-0.2,0.2-0.4,0.1
				c-0.4,0.7-1.1,1.7-1.7,2.4L60.2,43.4z M72.3,45.2H71c-0.5,3.3-1.3,6-2.5,8.3c1,1.8,2.3,3.3,4,4.1c-0.3,0.3-0.7,0.8-1,1.2
				c-1.6-0.9-2.9-2.3-3.9-4c-1.2,1.7-2.8,3-4.9,4c-0.1-0.3-0.5-0.9-0.7-1.1c2.1-1,3.7-2.4,4.9-4.2c-0.8-1.7-1.4-3.7-1.9-5.8
				c-0.4,0.9-0.8,1.7-1.3,2.4c-0.2-0.3-0.7-0.7-1-0.9c1.4-2,2.4-5.5,3-9l1.7,0.4c0,0.2-0.2,0.2-0.4,0.2c-0.2,1.1-0.4,2.1-0.7,3.2h6
				V45.2z M65.9,45.2l-0.1,0.2c0.4,2.4,1,4.6,1.9,6.6c0.9-1.9,1.5-4.1,1.9-6.8H65.9z"/>
		</g>
	</g>
</g>
</svg>
