<?xml version="1.0" encoding="utf-8"?>
<!-- Generator: Adobe Illustrator 24.2.0, SVG Export Plug-In . SVG Version: 6.00 Build 0)  -->
<svg version="1.1" id="レイヤー_1" xmlns="http://www.w3.org/2000/svg" xmlns:xlink="http://www.w3.org/1999/xlink" x="0px"
	 y="0px" viewBox="0 0 35 80" style="enable-background:new 0 0 35 80;" xml:space="preserve">
<style type="text/css">
	.st0{enable-background:new    ;}
</style>
<g class="st0">
	<path d="M28.4,2.3v7.5c0,2.9-1.2,5.1-3.6,6.5c-0.8,0.5-1.6,0.8-2.5,1c-0.9,0.1-2.4,0.2-4.6,0.2c-2.3,0-3.9-0.1-4.8-0.2
		c-0.5-0.1-0.9-0.2-1.2-0.4c-0.4-0.2-0.7-0.4-1.1-0.6c-1-0.6-1.8-1.5-2.5-2.6C7.4,12.5,7,11.1,7,9.5V2.3H28.4z M10.1,5.5v3.9
		c0,1.8,0.6,3.1,1.9,4c0.5,0.4,1,0.6,1.7,0.7c0.7,0.1,2,0.1,3.9,0.1c1.9,0,3.2,0,4-0.1c0.8-0.1,1.5-0.4,1.9-0.8
		c1.2-0.9,1.8-2.2,1.8-3.8V5.5H10.1z"/>
	<path d="M13.4,24.7c-1.2,0-2.1,0.4-2.8,1.1c-0.6,0.7-1,1.5-1,2.6c0,1.2,0.5,2.3,1.5,3.3l-1.9,2.2c-1.7-1.6-2.5-3.4-2.5-5.5
		c0-0.8,0.1-1.6,0.4-2.3c0.1-0.4,0.3-0.8,0.5-1.1c0.2-0.4,0.4-0.7,0.7-1.1c0.6-0.6,1.4-1.2,2.4-1.6c1-0.4,2.2-0.7,3.8-0.7
		c1.5,0,2.8,0.2,3.8,0.6c1,0.4,1.8,0.9,2.4,1.5c0.6,0.6,1,1.3,1.3,2c0.3,0.7,0.4,1.5,0.4,2.2c0,1.7-0.6,3.2-1.7,4.4
		c-1.1,1.2-2.7,1.8-4.7,1.9h-2.5V24.7z M16,31.1c1.2,0,2.1-0.4,2.7-1c0.6-0.6,0.9-1.3,0.9-2.3s-0.3-1.7-0.9-2.3
		c-0.6-0.6-1.5-0.9-2.7-1V31.1z"/>
	<path d="M26.8,39v3.1h-4.6v2.2h-2.3v-2.2H11c-0.8,0-1.1,0.3-1.1,1.1v1.1H7v-1.6c0-1.1,0.3-2,1-2.6c0.6-0.7,1.6-1.1,2.8-1.1h9.1
		v-1.5h2.3V39H26.8z"/>
	<path d="M8.3,56.7L8.3,56.7c-0.5-0.3-0.9-0.8-1.1-1.4c-0.3-0.6-0.4-1.4-0.4-2.4c0-1.7,0.5-3,1.3-3.9c0.9-1,2-1.5,3.3-1.5
		c1.3,0,2.3,0.4,3.2,1.3c0.9,0.8,1.3,2.1,1.3,3.7v4.2h1.6c1.3,0,2-1,1.9-3.1c0-0.8-0.1-1.4-0.2-1.8c-0.2-0.5-0.5-0.8-0.9-1.1
		l1.8-2.4c1.5,1.2,2.3,2.9,2.2,5.1c0,1.9-0.3,3.4-1.1,4.6c-0.8,1.1-2.1,1.7-3.9,1.7H7v-3.1H8.3z M13.4,56.7V53
		c0-1.8-0.6-2.7-1.8-2.6c-0.5,0-1,0.2-1.3,0.7c-0.4,0.4-0.6,1.2-0.6,2.2c0,1.3,0.1,2.2,0.5,2.7c0.3,0.5,1.1,0.7,2.2,0.7H13.4z"/>
	<path d="M22.2,65.3v3.1H7v-3.1H22.2z M28.4,65.3v3.1h-3.1v-3.1H28.4z"/>
	<path d="M28.4,73.9V77H10.9c-0.7,0-1,0.4-1,1.1v1.1H7v-1.4c0-1.1,0.3-2,0.8-2.8c0.6-0.8,1.5-1.1,2.9-1.1H28.4z"/>
</g>
</svg>
