<?xml version="1.0" encoding="utf-8"?>
<!-- Generator: Adobe Illustrator 24.2.0, SVG Export Plug-In . SVG Version: 6.00 Build 0)  -->
<svg version="1.1" id="レイヤー_1" xmlns="http://www.w3.org/2000/svg" xmlns:xlink="http://www.w3.org/1999/xlink" x="0px"
	 y="0px" viewBox="0 0 889 315" style="enable-background:new 0 0 889 315;" xml:space="preserve">
<style type="text/css">
	.st0{fill:#FFFFFF;}
	.st1{fill:none;stroke:#A5A9AC;}
	.st2{fill:#F5F8FA;}
	.st3{fill:#A5A9AC;}
	.st4{enable-background:new    ;}
</style>
<g transform="translate(-516 -2265)">
	<g transform="translate(-222 106)">
		<g transform="translate(845 2324)">
			<rect class="st0" width="196" height="150"/>
			<rect x="0.5" y="0.5" class="st1" width="195" height="149"/>
		</g>
		<rect x="941" y="2325" class="st2" width="99" height="148"/>
		<rect x="845" y="2399" class="st3" width="195" height="1"/>
		<g transform="translate(930 2428)">
			<g class="st4">
				<path d="M-66.1,13h-1.2V5.2C-67.6,5.4-68,5.7-68.5,6s-0.9,0.5-1.3,0.6V5.5c0.7-0.3,1.3-0.7,1.8-1.2s0.9-0.9,1.1-1.3h0.8V13z"/>
				<path d="M-58.3,13v-2.4h-4.3V9.5l4.6-6.5h1v6.5h1.4v1.1h-1.4V13H-58.3z M-58.3,9.5V5l-3.1,4.5H-58.3z"/>
				<path d="M-53.8,8.1c0-1.2,0.1-2.1,0.4-2.9c0.2-0.7,0.6-1.3,1.1-1.7s1.1-0.6,1.8-0.6c0.5,0,1,0.1,1.4,0.3c0.4,0.2,0.7,0.5,1,0.9
					c0.3,0.4,0.5,0.9,0.6,1.5c0.2,0.6,0.2,1.4,0.2,2.4c0,1.2-0.1,2.1-0.4,2.8c-0.2,0.7-0.6,1.3-1.1,1.7c-0.5,0.4-1.1,0.6-1.8,0.6
					c-1,0-1.7-0.3-2.3-1C-53.5,11.3-53.8,9.9-53.8,8.1z M-52.5,8.1c0,1.6,0.2,2.7,0.6,3.3c0.4,0.5,0.9,0.8,1.4,0.8s1-0.3,1.4-0.8
					s0.6-1.6,0.6-3.3c0-1.6-0.2-2.7-0.6-3.3S-50,4-50.5,4c-0.6,0-1,0.2-1.4,0.7C-52.3,5.3-52.5,6.4-52.5,8.1z"/>
				<path d="M-44.6,13v-1.4h1.4V13c0,0.5-0.1,0.9-0.3,1.2c-0.2,0.3-0.5,0.6-0.9,0.7l-0.3-0.5c0.3-0.1,0.5-0.3,0.6-0.5
					c0.1-0.2,0.2-0.5,0.2-1H-44.6z"/>
				<path d="M-40.7,8.1c0-1.2,0.1-2.1,0.4-2.9c0.2-0.7,0.6-1.3,1.1-1.7s1.1-0.6,1.8-0.6c0.5,0,1,0.1,1.4,0.3c0.4,0.2,0.7,0.5,1,0.9
					c0.3,0.4,0.5,0.9,0.6,1.5c0.2,0.6,0.2,1.4,0.2,2.4c0,1.2-0.1,2.1-0.4,2.8c-0.2,0.7-0.6,1.3-1.1,1.7c-0.5,0.4-1.1,0.6-1.8,0.6
					c-1,0-1.7-0.3-2.3-1C-40.4,11.3-40.7,9.9-40.7,8.1z M-39.4,8.1c0,1.6,0.2,2.7,0.6,3.3c0.4,0.5,0.9,0.8,1.4,0.8s1-0.3,1.4-0.8
					s0.6-1.6,0.6-3.3c0-1.6-0.2-2.7-0.6-3.3S-36.9,4-37.5,4c-0.6,0-1,0.2-1.4,0.7C-39.2,5.3-39.4,6.4-39.4,8.1z"/>
				<path d="M-32.2,8.1c0-1.2,0.1-2.1,0.4-2.9c0.2-0.7,0.6-1.3,1.1-1.7s1.1-0.6,1.8-0.6c0.5,0,1,0.1,1.4,0.3c0.4,0.2,0.7,0.5,1,0.9
					c0.3,0.4,0.5,0.9,0.6,1.5c0.2,0.6,0.2,1.4,0.2,2.4c0,1.2-0.1,2.1-0.4,2.8c-0.2,0.7-0.6,1.3-1.1,1.7c-0.5,0.4-1.1,0.6-1.8,0.6
					c-1,0-1.7-0.3-2.3-1C-31.9,11.3-32.2,9.9-32.2,8.1z M-31,8.1c0,1.6,0.2,2.7,0.6,3.3c0.4,0.5,0.9,0.8,1.4,0.8s1-0.3,1.4-0.8
					s0.6-1.6,0.6-3.3c0-1.6-0.2-2.7-0.6-3.3S-28.4,4-29,4c-0.6,0-1,0.2-1.4,0.7C-30.7,5.3-31,6.4-31,8.1z"/>
				<path d="M-23.7,8.1c0-1.2,0.1-2.1,0.4-2.9c0.2-0.7,0.6-1.3,1.1-1.7s1.1-0.6,1.8-0.6c0.5,0,1,0.1,1.4,0.3c0.4,0.2,0.7,0.5,1,0.9
					c0.3,0.4,0.5,0.9,0.6,1.5c0.2,0.6,0.2,1.4,0.2,2.4c0,1.2-0.1,2.1-0.4,2.8c-0.2,0.7-0.6,1.3-1.1,1.7c-0.5,0.4-1.1,0.6-1.8,0.6
					c-1,0-1.7-0.3-2.3-1C-23.4,11.3-23.7,9.9-23.7,8.1z M-22.5,8.1c0,1.6,0.2,2.7,0.6,3.3c0.4,0.5,0.9,0.8,1.4,0.8s1-0.3,1.4-0.8
					s0.6-1.6,0.6-3.3c0-1.6-0.2-2.7-0.6-3.3S-19.9,4-20.5,4c-0.6,0-1,0.2-1.4,0.7C-22.3,5.3-22.5,6.4-22.5,8.1z"/>
			</g>
			<g class="st4">
				<path d="M30.9,13h-1.2V5.2C29.4,5.4,29,5.7,28.5,6s-0.9,0.5-1.3,0.6V5.5c0.7-0.3,1.3-0.7,1.8-1.2s0.9-0.9,1.1-1.3h0.8V13z"/>
				<path d="M34.7,10.4l1.3-0.1c0.1,0.6,0.3,1.1,0.7,1.4c0.3,0.3,0.8,0.5,1.3,0.5c0.6,0,1.1-0.2,1.5-0.7s0.6-1,0.6-1.8
					c0-0.7-0.2-1.3-0.6-1.7s-0.9-0.6-1.5-0.6c-0.4,0-0.8,0.1-1.1,0.3c-0.3,0.2-0.6,0.4-0.8,0.7L35,8.3l1-5.1h5v1.2h-4L36.4,7
					c0.6-0.4,1.2-0.6,1.9-0.6c0.9,0,1.6,0.3,2.2,0.9s0.9,1.4,0.9,2.3c0,0.9-0.3,1.7-0.8,2.4c-0.6,0.8-1.5,1.2-2.6,1.2
					c-0.9,0-1.7-0.3-2.2-0.8S34.8,11.2,34.7,10.4z"/>
				<path d="M43.2,8.1c0-1.2,0.1-2.1,0.4-2.9c0.2-0.7,0.6-1.3,1.1-1.7s1.1-0.6,1.8-0.6c0.5,0,1,0.1,1.4,0.3c0.4,0.2,0.7,0.5,1,0.9
					c0.3,0.4,0.5,0.9,0.6,1.5c0.2,0.6,0.2,1.4,0.2,2.4c0,1.2-0.1,2.1-0.4,2.8c-0.2,0.7-0.6,1.3-1.1,1.7c-0.5,0.4-1.1,0.6-1.8,0.6
					c-1,0-1.7-0.3-2.3-1C43.5,11.3,43.2,9.9,43.2,8.1z M44.5,8.1c0,1.6,0.2,2.7,0.6,3.3c0.4,0.5,0.9,0.8,1.4,0.8s1-0.3,1.4-0.8
					s0.6-1.6,0.6-3.3c0-1.6-0.2-2.7-0.6-3.3S47,4,46.5,4c-0.6,0-1,0.2-1.4,0.7C44.7,5.3,44.5,6.4,44.5,8.1z"/>
				<path d="M52.4,13v-1.4h1.4V13c0,0.5-0.1,0.9-0.3,1.2c-0.2,0.3-0.5,0.6-0.9,0.7l-0.3-0.5c0.3-0.1,0.5-0.3,0.6-0.5
					c0.1-0.2,0.2-0.5,0.2-1H52.4z"/>
				<path d="M56.3,8.1c0-1.2,0.1-2.1,0.4-2.9c0.2-0.7,0.6-1.3,1.1-1.7s1.1-0.6,1.8-0.6c0.5,0,1,0.1,1.4,0.3c0.4,0.2,0.7,0.5,1,0.9
					c0.3,0.4,0.5,0.9,0.6,1.5c0.2,0.6,0.2,1.4,0.2,2.4c0,1.2-0.1,2.1-0.4,2.8c-0.2,0.7-0.6,1.3-1.1,1.7c-0.5,0.4-1.1,0.6-1.8,0.6
					c-1,0-1.7-0.3-2.3-1C56.6,11.3,56.3,9.9,56.3,8.1z M57.6,8.1c0,1.6,0.2,2.7,0.6,3.3c0.4,0.5,0.9,0.8,1.4,0.8s1-0.3,1.4-0.8
					s0.6-1.6,0.6-3.3c0-1.6-0.2-2.7-0.6-3.3S60.1,4,59.5,4c-0.6,0-1,0.2-1.4,0.7C57.8,5.3,57.6,6.4,57.6,8.1z"/>
				<path d="M64.8,8.1c0-1.2,0.1-2.1,0.4-2.9c0.2-0.7,0.6-1.3,1.1-1.7s1.1-0.6,1.8-0.6c0.5,0,1,0.1,1.4,0.3c0.4,0.2,0.7,0.5,1,0.9
					c0.3,0.4,0.5,0.9,0.6,1.5c0.2,0.6,0.2,1.4,0.2,2.4c0,1.2-0.1,2.1-0.4,2.8c-0.2,0.7-0.6,1.3-1.1,1.7c-0.5,0.4-1.1,0.6-1.8,0.6
					c-1,0-1.7-0.3-2.3-1C65.1,11.3,64.8,9.9,64.8,8.1z M66,8.1c0,1.6,0.2,2.7,0.6,3.3c0.4,0.5,0.9,0.8,1.4,0.8s1-0.3,1.4-0.8
					s0.6-1.6,0.6-3.3c0-1.6-0.2-2.7-0.6-3.3S68.6,4,68,4c-0.6,0-1,0.2-1.4,0.7C66.3,5.3,66,6.4,66,8.1z"/>
				<path d="M73.3,8.1c0-1.2,0.1-2.1,0.4-2.9c0.2-0.7,0.6-1.3,1.1-1.7s1.1-0.6,1.8-0.6c0.5,0,1,0.1,1.4,0.3c0.4,0.2,0.7,0.5,1,0.9
					c0.3,0.4,0.5,0.9,0.6,1.5c0.2,0.6,0.2,1.4,0.2,2.4c0,1.2-0.1,2.1-0.4,2.8c-0.2,0.7-0.6,1.3-1.1,1.7c-0.5,0.4-1.1,0.6-1.8,0.6
					c-1,0-1.7-0.3-2.3-1C73.6,11.3,73.3,9.9,73.3,8.1z M74.5,8.1c0,1.6,0.2,2.7,0.6,3.3c0.4,0.5,0.9,0.8,1.4,0.8s1-0.3,1.4-0.8
					s0.6-1.6,0.6-3.3c0-1.6-0.2-2.7-0.6-3.3S77.1,4,76.5,4c-0.6,0-1,0.2-1.4,0.7C74.7,5.3,74.5,6.4,74.5,8.1z"/>
			</g>
		</g>
		<g transform="translate(873 2354)">
			<g class="st4">
				<path d="M-12.3,7.6c-0.5-0.2-0.9-0.5-1.1-0.8s-0.4-0.8-0.4-1.2c0-0.7,0.3-1.3,0.8-1.8s1.2-0.7,2.1-0.7c0.9,0,1.6,0.3,2.1,0.8
					C-8.2,4.2-8,4.8-8,5.6C-8,6-8.1,6.4-8.3,6.8c-0.2,0.3-0.6,0.6-1.1,0.8c0.6,0.2,1.1,0.5,1.4,1s0.5,1,0.5,1.6
					c0,0.9-0.3,1.6-0.9,2.2s-1.4,0.9-2.4,0.9s-1.8-0.3-2.4-0.9c-0.6-0.6-0.9-1.3-0.9-2.2c0-0.7,0.2-1.2,0.5-1.6
					C-13.3,8-12.9,7.7-12.3,7.6z M-12.9,10.1c0,0.4,0.1,0.7,0.2,1s0.4,0.6,0.7,0.8c0.3,0.2,0.7,0.3,1.1,0.3c0.6,0,1.1-0.2,1.5-0.6
					s0.6-0.9,0.6-1.4c0-0.6-0.2-1.1-0.6-1.5s-0.9-0.6-1.5-0.6c-0.6,0-1.1,0.2-1.4,0.6S-12.9,9.5-12.9,10.1z M-12.5,5.5
					c0,0.5,0.2,0.9,0.5,1.2s0.7,0.5,1.2,0.5c0.5,0,0.9-0.1,1.2-0.4C-9.4,6.3-9.2,6-9.2,5.5c0-0.5-0.2-0.8-0.5-1.1
					c-0.3-0.3-0.7-0.5-1.2-0.5c-0.5,0-0.9,0.2-1.2,0.5S-12.5,5.1-12.5,5.5z"/>
				<path d="M-5.7,8.1c0-1.2,0.1-2.1,0.4-2.9C-5,4.5-4.7,3.9-4.2,3.5s1.1-0.6,1.8-0.6c0.5,0,1,0.1,1.4,0.3c0.4,0.2,0.7,0.5,1,0.9
					c0.3,0.4,0.5,0.9,0.6,1.5c0.2,0.6,0.2,1.4,0.2,2.4c0,1.2-0.1,2.1-0.4,2.8c-0.2,0.7-0.6,1.3-1.1,1.7C-1,13-1.7,13.2-2.4,13.2
					c-1,0-1.7-0.3-2.3-1C-5.3,11.3-5.7,9.9-5.7,8.1z M-4.4,8.1c0,1.6,0.2,2.7,0.6,3.3c0.4,0.5,0.9,0.8,1.4,0.8s1-0.3,1.4-0.8
					s0.6-1.6,0.6-3.3c0-1.6-0.2-2.7-0.6-3.3S-1.8,4-2.4,4c-0.6,0-1,0.2-1.4,0.7C-4.2,5.3-4.4,6.4-4.4,8.1z"/>
				<path d="M7.5,13H6.2V5.2C5.9,5.4,5.5,5.7,5.1,6S4.2,6.5,3.8,6.6V5.5c0.7-0.3,1.3-0.7,1.8-1.2s0.9-0.9,1.1-1.3h0.8V13z"/>
				<path d="M24.2,7.1c-0.9,1.6-2.2,2.4-3.6,2.4c-1.3,0-2.1-0.5-3.1-1.5c-0.8-0.7-1.4-1.2-2.4-1.2c-1.1,0-2.1,0.8-2.7,1.9l-0.9-0.5
					c0.9-1.6,2.2-2.4,3.6-2.4c1.3,0,2.1,0.5,3.1,1.5c0.8,0.7,1.4,1.2,2.4,1.2c1.1,0,2.1-0.8,2.7-1.9L24.2,7.1z"/>
				<path d="M26.2,10.7l1.2-0.1c0.1,0.6,0.3,1,0.6,1.2s0.6,0.4,1.1,0.4c0.4,0,0.7-0.1,1-0.3s0.5-0.4,0.7-0.7
					c0.2-0.3,0.3-0.7,0.5-1.2s0.2-1,0.2-1.5c0-0.1,0-0.1,0-0.2c-0.2,0.4-0.6,0.7-1,1c-0.4,0.2-0.9,0.4-1.4,0.4
					c-0.8,0-1.5-0.3-2.1-0.9S26,7.3,26,6.3c0-1,0.3-1.8,0.9-2.5s1.4-0.9,2.3-0.9c0.7,0,1.2,0.2,1.8,0.5s1,0.9,1.2,1.5
					c0.3,0.6,0.4,1.6,0.4,2.8c0,1.3-0.1,2.3-0.4,3.1c-0.3,0.8-0.7,1.3-1.2,1.7s-1.2,0.6-1.9,0.6c-0.8,0-1.4-0.2-1.9-0.7
					C26.6,12.1,26.3,11.5,26.2,10.7z M31.2,6.3c0-0.7-0.2-1.3-0.6-1.7S29.8,4,29.3,4c-0.5,0-1,0.2-1.4,0.7s-0.6,1-0.6,1.7
					c0,0.6,0.2,1.2,0.6,1.6c0.4,0.4,0.9,0.6,1.4,0.6c0.6,0,1-0.2,1.4-0.6C31.1,7.5,31.2,7,31.2,6.3z"/>
				<path d="M34.5,8.1c0-1.2,0.1-2.1,0.4-2.9c0.2-0.7,0.6-1.3,1.1-1.7s1.1-0.6,1.8-0.6c0.5,0,1,0.1,1.4,0.3c0.4,0.2,0.7,0.5,1,0.9
					c0.3,0.4,0.5,0.9,0.6,1.5C41,6.3,41,7.1,41,8.1c0,1.2-0.1,2.1-0.4,2.8c-0.2,0.7-0.6,1.3-1.1,1.7c-0.5,0.4-1.1,0.6-1.8,0.6
					c-1,0-1.7-0.3-2.3-1C34.8,11.3,34.5,9.9,34.5,8.1z M35.8,8.1c0,1.6,0.2,2.7,0.6,3.3c0.4,0.5,0.9,0.8,1.4,0.8s1-0.3,1.4-0.8
					s0.6-1.6,0.6-3.3c0-1.6-0.2-2.7-0.6-3.3S38.3,4,37.8,4c-0.6,0-1,0.2-1.4,0.7C36,5.3,35.8,6.4,35.8,8.1z"/>
				<path d="M43,8.1c0-1.2,0.1-2.1,0.4-2.9c0.2-0.7,0.6-1.3,1.1-1.7s1.1-0.6,1.8-0.6c0.5,0,1,0.1,1.4,0.3c0.4,0.2,0.7,0.5,1,0.9
					c0.3,0.4,0.5,0.9,0.6,1.5c0.2,0.6,0.2,1.4,0.2,2.4c0,1.2-0.1,2.1-0.4,2.8c-0.2,0.7-0.6,1.3-1.1,1.7c-0.5,0.4-1.1,0.6-1.8,0.6
					c-1,0-1.7-0.3-2.3-1C43.3,11.3,43,9.9,43,8.1z M44.3,8.1c0,1.6,0.2,2.7,0.6,3.3c0.4,0.5,0.9,0.8,1.4,0.8s1-0.3,1.4-0.8
					s0.6-1.6,0.6-3.3c0-1.6-0.2-2.7-0.6-3.3S46.8,4,46.2,4c-0.6,0-1,0.2-1.4,0.7C44.5,5.3,44.3,6.4,44.3,8.1z"/>
			</g>
			<g class="st4">
				<path d="M78.5,10.7l1.2-0.1c0.1,0.6,0.3,1,0.6,1.2s0.6,0.4,1.1,0.4c0.4,0,0.7-0.1,1-0.3s0.5-0.4,0.7-0.7
					c0.2-0.3,0.3-0.7,0.5-1.2s0.2-1,0.2-1.5c0-0.1,0-0.1,0-0.2c-0.2,0.4-0.6,0.7-1,1c-0.4,0.2-0.9,0.4-1.4,0.4
					c-0.8,0-1.5-0.3-2.1-0.9s-0.9-1.4-0.9-2.4c0-1,0.3-1.8,0.9-2.5s1.4-0.9,2.3-0.9c0.7,0,1.2,0.2,1.8,0.5s1,0.9,1.2,1.5
					c0.3,0.6,0.4,1.6,0.4,2.8c0,1.3-0.1,2.3-0.4,3.1c-0.3,0.8-0.7,1.3-1.2,1.7s-1.2,0.6-1.9,0.6c-0.8,0-1.4-0.2-1.9-0.7
					C78.9,12.1,78.6,11.5,78.5,10.7z M83.5,6.3c0-0.7-0.2-1.3-0.6-1.7S82.1,4,81.6,4c-0.5,0-1,0.2-1.4,0.7s-0.6,1-0.6,1.7
					c0,0.6,0.2,1.2,0.6,1.6c0.4,0.4,0.9,0.6,1.4,0.6c0.6,0,1-0.2,1.4-0.6C83.4,7.5,83.5,7,83.5,6.3z"/>
				<path d="M86.8,8.1c0-1.2,0.1-2.1,0.4-2.9c0.2-0.7,0.6-1.3,1.1-1.7s1.1-0.6,1.8-0.6c0.5,0,1,0.1,1.4,0.3c0.4,0.2,0.7,0.5,1,0.9
					c0.3,0.4,0.5,0.9,0.6,1.5c0.2,0.6,0.2,1.4,0.2,2.4c0,1.2-0.1,2.1-0.4,2.8c-0.2,0.7-0.6,1.3-1.1,1.7c-0.5,0.4-1.1,0.6-1.8,0.6
					c-1,0-1.7-0.3-2.3-1C87.1,11.3,86.8,9.9,86.8,8.1z M88.1,8.1c0,1.6,0.2,2.7,0.6,3.3c0.4,0.5,0.9,0.8,1.4,0.8s1-0.3,1.4-0.8
					s0.6-1.6,0.6-3.3c0-1.6-0.2-2.7-0.6-3.3S90.6,4,90.1,4c-0.6,0-1,0.2-1.4,0.7C88.3,5.3,88.1,6.4,88.1,8.1z"/>
				<path d="M99.9,13h-1.2V5.2C98.4,5.4,98,5.7,97.5,6s-0.9,0.5-1.3,0.6V5.5c0.7-0.3,1.3-0.7,1.8-1.2s0.9-0.9,1.1-1.3h0.8V13z"/>
				<path d="M116.6,7.1c-0.9,1.6-2.2,2.4-3.6,2.4c-1.3,0-2.1-0.5-3.1-1.5c-0.8-0.7-1.4-1.2-2.4-1.2c-1.1,0-2.1,0.8-2.7,1.9l-0.9-0.5
					c0.9-1.6,2.2-2.4,3.6-2.4c1.3,0,2.1,0.5,3.1,1.5c0.8,0.7,1.4,1.2,2.4,1.2c1.1,0,2.1-0.8,2.7-1.9L116.6,7.1z"/>
				<path d="M123.1,13h-1.2V5.2c-0.3,0.3-0.7,0.6-1.2,0.8s-0.9,0.5-1.3,0.6V5.5c0.7-0.3,1.3-0.7,1.8-1.2s0.9-0.9,1.1-1.3h0.8V13z"/>
				<path d="M127,8.1c0-1.2,0.1-2.1,0.4-2.9c0.2-0.7,0.6-1.3,1.1-1.7s1.1-0.6,1.8-0.6c0.5,0,1,0.1,1.4,0.3c0.4,0.2,0.7,0.5,1,0.9
					c0.3,0.4,0.5,0.9,0.6,1.5c0.2,0.6,0.2,1.4,0.2,2.4c0,1.2-0.1,2.1-0.4,2.8c-0.2,0.7-0.6,1.3-1.1,1.7c-0.5,0.4-1.1,0.6-1.8,0.6
					c-1,0-1.7-0.3-2.3-1C127.3,11.3,127,9.9,127,8.1z M128.2,8.1c0,1.6,0.2,2.7,0.6,3.3c0.4,0.5,0.9,0.8,1.4,0.8s1-0.3,1.4-0.8
					s0.6-1.6,0.6-3.3c0-1.6-0.2-2.7-0.6-3.3S130.8,4,130.2,4c-0.6,0-1,0.2-1.4,0.7C128.4,5.3,128.2,6.4,128.2,8.1z"/>
				<path d="M135.4,8.1c0-1.2,0.1-2.1,0.4-2.9c0.2-0.7,0.6-1.3,1.1-1.7s1.1-0.6,1.8-0.6c0.5,0,1,0.1,1.4,0.3c0.4,0.2,0.7,0.5,1,0.9
					c0.3,0.4,0.5,0.9,0.6,1.5c0.2,0.6,0.2,1.4,0.2,2.4c0,1.2-0.1,2.1-0.4,2.8c-0.2,0.7-0.6,1.3-1.1,1.7c-0.5,0.4-1.1,0.6-1.8,0.6
					c-1,0-1.7-0.3-2.3-1C135.8,11.3,135.4,9.9,135.4,8.1z M136.7,8.1c0,1.6,0.2,2.7,0.6,3.3c0.4,0.5,0.9,0.8,1.4,0.8s1-0.3,1.4-0.8
					s0.6-1.6,0.6-3.3c0-1.6-0.2-2.7-0.6-3.3S139.3,4,138.7,4c-0.6,0-1,0.2-1.4,0.7C136.9,5.3,136.7,6.4,136.7,8.1z"/>
				<path d="M143.9,8.1c0-1.2,0.1-2.1,0.4-2.9c0.2-0.7,0.6-1.3,1.1-1.7s1.1-0.6,1.8-0.6c0.5,0,1,0.1,1.4,0.3c0.4,0.2,0.7,0.5,1,0.9
					c0.3,0.4,0.5,0.9,0.6,1.5c0.2,0.6,0.2,1.4,0.2,2.4c0,1.2-0.1,2.1-0.4,2.8c-0.2,0.7-0.6,1.3-1.1,1.7c-0.5,0.4-1.1,0.6-1.8,0.6
					c-1,0-1.7-0.3-2.3-1C144.3,11.3,143.9,9.9,143.9,8.1z M145.2,8.1c0,1.6,0.2,2.7,0.6,3.3c0.4,0.5,0.9,0.8,1.4,0.8s1-0.3,1.4-0.8
					s0.6-1.6,0.6-3.3c0-1.6-0.2-2.7-0.6-3.3S147.8,4,147.2,4c-0.6,0-1,0.2-1.4,0.7C145.4,5.3,145.2,6.4,145.2,8.1z"/>
			</g>
		</g>
		<rect x="738" y="2324" width="107" height="150"/>
		<g class="st4">
			<path class="st0" d="M758.4,2434.3c-0.5,0.9-1.1,1.8-1.7,2.6c-0.1-0.3-0.4-0.8-0.5-1c1.4-1.7,2.7-4.5,3.5-7.2l1.3,0.4
				c0,0.1-0.2,0.2-0.4,0.2c-0.4,1.1-0.8,2.1-1.2,3.2l0.4,0.1c0,0.1-0.1,0.2-0.3,0.2v10.7h-1V2434.3z M771.4,2430.9h-3.3v3.2h3v9h-1
				v-0.9h-8v1h-1v-9.1h2.9v-3.2h-3.2v-1h10.7V2430.9z M762.1,2435v6.2h2v-6.2H762.1z M767.1,2434v-3.2h-2v3.2H767.1z M767.1,2435h-2
				v6.2h2V2435z M770.1,2441.2v-6.2H768v6.2H770.1z"/>
			<path class="st0" d="M786,2430.2c0.3,0,0.3,0,0.5,0l0.7,0.4c0,0.1-0.1,0.1-0.2,0.1c-0.6,1.6-1.5,3.1-2.6,4.2
				c1.1,1,2.5,1.8,4.1,2.3c-0.2,0.2-0.5,0.6-0.7,0.9c-0.3-0.1-0.5-0.2-0.7-0.3v5.5H786v-0.7h-4.7v0.8h-1v-5.4
				c-0.4,0.2-0.9,0.4-1.3,0.6c-0.1-0.3-0.4-0.7-0.6-0.9l0.1,0c-0.3-0.5-0.9-1.4-1.4-2.2v7.9h-1v-8c-0.6,1.9-1.4,3.8-2.3,4.9
				c-0.1-0.3-0.4-0.7-0.6-0.9c1.1-1.4,2.2-4,2.7-6.3h-2.4v-1h2.5v-3.5l1.3,0.1c0,0.1-0.1,0.2-0.3,0.2v3.2h2.2v1h-2.2v1.2
				c0.5,0.5,1.8,2.2,2.1,2.7c-0.3,0.4-0.4,0.6-0.5,0.7c1.5-0.5,3-1.4,4.3-2.6c-0.8-0.8-1.4-1.7-1.8-2.6c-0.5,0.7-1.1,1.4-1.7,1.9
				c-0.2-0.2-0.5-0.5-0.8-0.7c1.4-1.1,2.7-3.1,3.4-5.1l1.3,0.4c0,0.1-0.2,0.2-0.4,0.1c-0.2,0.4-0.4,0.8-0.6,1.2H786z M786.1,2437.4
				c-0.9-0.5-1.8-1.1-2.5-1.8c-0.8,0.7-1.6,1.3-2.4,1.8H786.1z M781.3,2441.7h4.7v-3.3h-4.7V2441.7z M781.9,2431.2l-0.2,0.3
				c0.4,0.9,1.1,1.9,1.9,2.8c0.8-0.9,1.5-1.9,2-3H781.9z"/>
			<path class="st0" d="M794.4,2445.4h-1.5c-0.8-1.2-1.4-2.5-1.8-3.8c-0.4-1.3-0.6-2.6-0.6-3.8c0-1.5,0.3-2.9,0.8-4.3
				c0.4-1.2,1-2.2,1.7-3.2h1.5c-0.7,1.6-1.2,2.9-1.5,4c-0.3,1.1-0.4,2.3-0.4,3.5c0,0.9,0.1,1.7,0.2,2.6c0.2,0.9,0.4,1.7,0.7,2.6
				C793.6,2443.6,793.9,2444.4,794.4,2445.4z"/>
			<path class="st0" d="M810.3,2429.6v12.3c0,1.4-0.6,1.5-3.6,1.5c-0.1-0.3-0.3-0.8-0.4-1.1c0.6,0,1.1,0,1.6,0c1.3,0,1.4,0,1.4-0.4
				v-5.2H798v6.7H797v-13.8H810.3z M798,2430.7v4.9h5v-4.9H798z M804.1,2435.6h5.1v-4.9h-5.1V2435.6z"/>
			<path class="st0" d="M812.7,2445.4c0.4-0.9,0.7-1.6,0.9-2.1c0.2-0.5,0.3-1.1,0.5-1.7c0.2-0.6,0.3-1.3,0.3-1.8
				c0.1-0.6,0.1-1.2,0.1-1.8c0-1.2-0.1-2.4-0.4-3.5s-0.8-2.4-1.5-4h1.5c0.8,1.1,1.4,2.3,1.8,3.6c0.4,1.3,0.7,2.5,0.7,3.8
				c0,1.1-0.2,2.3-0.5,3.5c-0.4,1.4-1,2.8-1.9,4.1H812.7z"/>
		</g>
		<g class="st4">
			<path class="st0" d="M774.1,2372v-11.5h2.3v11.5H774.1z"/>
			<path class="st0" d="M779.4,2360.5h4.2c1,0,1.7,0.1,2.2,0.2c0.7,0.2,1.2,0.5,1.7,1.1c0.5,0.5,0.8,1.1,1.1,1.9s0.4,1.6,0.4,2.7
				c0,0.9-0.1,1.8-0.4,2.4c-0.3,0.8-0.7,1.5-1.2,2c-0.4,0.4-0.9,0.7-1.6,0.9c-0.5,0.2-1.2,0.2-2,0.2h-4.4V2360.5z M781.7,2362.5v7.6
				h1.7c0.6,0,1.1,0,1.4-0.1c0.4-0.1,0.7-0.3,0.9-0.5c0.2-0.2,0.4-0.6,0.6-1.1s0.2-1.2,0.2-2.1s-0.1-1.6-0.2-2s-0.4-0.8-0.7-1.1
				s-0.6-0.4-1.1-0.5c-0.3-0.1-1-0.1-1.9-0.1H781.7z"/>
			<path class="st0" d="M794.6,2365.6v-2.1c-0.8,1-1.9,1.9-2.9,2.5c-0.1-0.2-0.4-0.6-0.6-0.8c1.2-0.5,2.5-1.6,3.2-2.7h-3.2v-0.9h3.4
				v-3.1l1.3,0.1c0,0.1-0.1,0.2-0.3,0.2v2.8h3.4v0.9h-3.4v0.4c0.7,0.4,2.4,1.5,2.8,1.8l-0.6,0.8c-0.4-0.4-1.4-1.2-2.2-1.7v1.9H794.6
				z M799.1,2368.1h-1.4c-0.2,1-0.6,1.8-1.1,2.5c0.7,0.4,1.4,0.8,1.9,1.1l-0.7,0.8c-0.5-0.4-1.1-0.8-1.8-1.2c-0.9,0.8-2.2,1.5-4,1.9
				c-0.1-0.3-0.3-0.7-0.5-0.9c1.5-0.3,2.7-0.8,3.5-1.5c-0.6-0.3-1.2-0.6-1.9-0.8l-0.3,0.6l-0.9-0.4c0.4-0.6,0.8-1.4,1.2-2.2h-1.8
				v-0.9h2.3c0.3-0.5,0.5-1.1,0.7-1.5l1.3,0.3c0,0.1-0.1,0.2-0.4,0.1c-0.2,0.3-0.3,0.7-0.5,1.1h4.5V2368.1z M792.7,2359
				c0.5,0.7,0.9,1.5,1.1,2.1l-0.8,0.4c-0.2-0.6-0.6-1.5-1.1-2.2L792.7,2359z M794.1,2368.1c-0.2,0.4-0.4,0.8-0.6,1.2
				c0.7,0.3,1.4,0.6,2.1,0.9c0.5-0.6,0.8-1.3,1-2.1H794.1z M796.3,2361.1c0.4-0.6,1-1.5,1.3-2.2l1.1,0.5c0,0.1-0.2,0.1-0.3,0.1
				c-0.3,0.6-0.9,1.4-1.4,1.9L796.3,2361.1z M806,2362.5H805c-0.4,2.6-1,4.8-2,6.6c0.8,1.5,1.9,2.6,3.2,3.3
				c-0.3,0.2-0.6,0.6-0.8,0.9c-1.3-0.8-2.3-1.9-3.1-3.2c-1,1.3-2.2,2.4-3.9,3.2c-0.1-0.3-0.4-0.7-0.6-0.9c1.7-0.8,3-1.9,3.9-3.4
				c-0.7-1.4-1.2-2.9-1.5-4.6c-0.3,0.7-0.7,1.4-1,1.9c-0.2-0.2-0.6-0.5-0.8-0.7c1.1-1.6,2-4.4,2.4-7.2l1.4,0.3
				c0,0.1-0.1,0.2-0.4,0.2c-0.2,0.8-0.4,1.7-0.6,2.5h4.8V2362.5z M800.9,2362.5l0,0.2c0.3,1.9,0.8,3.7,1.5,5.3
				c0.7-1.5,1.2-3.3,1.5-5.4H800.9z"/>
		</g>
	</g>
	<g transform="translate(-222 -59)">
		<g transform="translate(822 2324)">
			<rect class="st0" width="805" height="150"/>
			<rect x="0.5" y="0.5" class="st1" width="804" height="149"/>
		</g>
		<rect x="941" y="2325" class="st2" width="99" height="148"/>
		<rect x="1136" y="2325" class="st2" width="99" height="148"/>
		<rect x="1331" y="2325" class="st2" width="99" height="148"/>
		<rect x="1527" y="2325" class="st2" width="99" height="148"/>
		<rect x="845" y="2399" class="st3" width="782" height="1"/>
		<g transform="translate(930 2428)">
			<g class="st4">
				<path d="M-57.7,13v-2.4h-4.3V9.5l4.6-6.5h1v6.5h1.4v1.1h-1.4V13H-57.7z M-57.7,9.5V5l-3.1,4.5H-57.7z"/>
				<path d="M-53.2,8.1c0-1.2,0.1-2.1,0.4-2.9c0.2-0.7,0.6-1.3,1.1-1.7s1.1-0.6,1.8-0.6c0.5,0,1,0.1,1.4,0.3c0.4,0.2,0.7,0.5,1,0.9
					c0.3,0.4,0.5,0.9,0.6,1.5c0.2,0.6,0.2,1.4,0.2,2.4c0,1.2-0.1,2.1-0.4,2.8c-0.2,0.7-0.6,1.3-1.1,1.7c-0.5,0.4-1.1,0.6-1.8,0.6
					c-1,0-1.7-0.3-2.3-1C-52.9,11.3-53.2,9.9-53.2,8.1z M-51.9,8.1c0,1.6,0.2,2.7,0.6,3.3c0.4,0.5,0.9,0.8,1.4,0.8s1-0.3,1.4-0.8
					s0.6-1.6,0.6-3.3c0-1.6-0.2-2.7-0.6-3.3S-49.4,4-49.9,4c-0.6,0-1,0.2-1.4,0.7C-51.7,5.3-51.9,6.4-51.9,8.1z"/>
				<path d="M-44,13v-1.4h1.4V13c0,0.5-0.1,0.9-0.3,1.2c-0.2,0.3-0.5,0.6-0.9,0.7l-0.3-0.5c0.3-0.1,0.5-0.3,0.6-0.5
					c0.1-0.2,0.2-0.5,0.2-1H-44z"/>
				<path d="M-40.1,8.1c0-1.2,0.1-2.1,0.4-2.9c0.2-0.7,0.6-1.3,1.1-1.7s1.1-0.6,1.8-0.6c0.5,0,1,0.1,1.4,0.3c0.4,0.2,0.7,0.5,1,0.9
					c0.3,0.4,0.5,0.9,0.6,1.5c0.2,0.6,0.2,1.4,0.2,2.4c0,1.2-0.1,2.1-0.4,2.8c-0.2,0.7-0.6,1.3-1.1,1.7c-0.5,0.4-1.1,0.6-1.8,0.6
					c-1,0-1.7-0.3-2.3-1C-39.8,11.3-40.1,9.9-40.1,8.1z M-38.9,8.1c0,1.6,0.2,2.7,0.6,3.3c0.4,0.5,0.9,0.8,1.4,0.8s1-0.3,1.4-0.8
					s0.6-1.6,0.6-3.3c0-1.6-0.2-2.7-0.6-3.3S-36.3,4-36.9,4c-0.6,0-1,0.2-1.4,0.7C-38.6,5.3-38.9,6.4-38.9,8.1z"/>
				<path d="M-31.6,8.1c0-1.2,0.1-2.1,0.4-2.9c0.2-0.7,0.6-1.3,1.1-1.7s1.1-0.6,1.8-0.6c0.5,0,1,0.1,1.4,0.3c0.4,0.2,0.7,0.5,1,0.9
					c0.3,0.4,0.5,0.9,0.6,1.5c0.2,0.6,0.2,1.4,0.2,2.4c0,1.2-0.1,2.1-0.4,2.8c-0.2,0.7-0.6,1.3-1.1,1.7c-0.5,0.4-1.1,0.6-1.8,0.6
					c-1,0-1.7-0.3-2.3-1C-31.3,11.3-31.6,9.9-31.6,8.1z M-30.4,8.1c0,1.6,0.2,2.7,0.6,3.3c0.4,0.5,0.9,0.8,1.4,0.8s1-0.3,1.4-0.8
					s0.6-1.6,0.6-3.3c0-1.6-0.2-2.7-0.6-3.3S-27.8,4-28.4,4c-0.6,0-1,0.2-1.4,0.7C-30.2,5.3-30.4,6.4-30.4,8.1z"/>
				<path d="M-23.1,8.1c0-1.2,0.1-2.1,0.4-2.9c0.2-0.7,0.6-1.3,1.1-1.7s1.1-0.6,1.8-0.6c0.5,0,1,0.1,1.4,0.3c0.4,0.2,0.7,0.5,1,0.9
					c0.3,0.4,0.5,0.9,0.6,1.5c0.2,0.6,0.2,1.4,0.2,2.4c0,1.2-0.1,2.1-0.4,2.8c-0.2,0.7-0.6,1.3-1.1,1.7c-0.5,0.4-1.1,0.6-1.8,0.6
					c-1,0-1.7-0.3-2.3-1C-22.8,11.3-23.1,9.9-23.1,8.1z M-21.9,8.1c0,1.6,0.2,2.7,0.6,3.3c0.4,0.5,0.9,0.8,1.4,0.8s1-0.3,1.4-0.8
					s0.6-1.6,0.6-3.3c0-1.6-0.2-2.7-0.6-3.3S-19.3,4-19.9,4c-0.6,0-1,0.2-1.4,0.7C-21.7,5.3-21.9,6.4-21.9,8.1z"/>
			</g>
			<g class="st4">
				<path d="M36.3,10.4l1.3-0.1c0.1,0.6,0.3,1.1,0.7,1.4c0.3,0.3,0.8,0.5,1.3,0.5c0.6,0,1.1-0.2,1.5-0.7s0.6-1,0.6-1.8
					c0-0.7-0.2-1.3-0.6-1.7s-0.9-0.6-1.5-0.6c-0.4,0-0.8,0.1-1.1,0.3c-0.3,0.2-0.6,0.4-0.8,0.7l-1.2-0.2l1-5.1h5v1.2h-4L38,7
					c0.6-0.4,1.2-0.6,1.9-0.6c0.9,0,1.6,0.3,2.2,0.9S43,8.7,43,9.6c0,0.9-0.3,1.7-0.8,2.4c-0.6,0.8-1.5,1.2-2.6,1.2
					c-0.9,0-1.7-0.3-2.2-0.8S36.4,11.2,36.3,10.4z"/>
				<path d="M44.8,10.4l1.3-0.1c0.1,0.6,0.3,1.1,0.7,1.4c0.3,0.3,0.8,0.5,1.3,0.5c0.6,0,1.1-0.2,1.5-0.7s0.6-1,0.6-1.8
					c0-0.7-0.2-1.3-0.6-1.7S48.6,7.4,48,7.4c-0.4,0-0.8,0.1-1.1,0.3c-0.3,0.2-0.6,0.4-0.8,0.7L45,8.3l1-5.1h5v1.2h-4L46.4,7
					c0.6-0.4,1.2-0.6,1.9-0.6c0.9,0,1.6,0.3,2.2,0.9s0.9,1.4,0.9,2.3c0,0.9-0.3,1.7-0.8,2.4c-0.6,0.8-1.5,1.2-2.6,1.2
					c-0.9,0-1.7-0.3-2.2-0.8S44.9,11.2,44.8,10.4z"/>
				<path d="M54,13v-1.4h1.4V13c0,0.5-0.1,0.9-0.3,1.2c-0.2,0.3-0.5,0.6-0.9,0.7l-0.3-0.5c0.3-0.1,0.5-0.3,0.6-0.5
					c0.1-0.2,0.2-0.5,0.2-1H54z"/>
				<path d="M57.9,8.1c0-1.2,0.1-2.1,0.4-2.9c0.2-0.7,0.6-1.3,1.1-1.7s1.1-0.6,1.8-0.6c0.5,0,1,0.1,1.4,0.3c0.4,0.2,0.7,0.5,1,0.9
					c0.3,0.4,0.5,0.9,0.6,1.5c0.2,0.6,0.2,1.4,0.2,2.4c0,1.2-0.1,2.1-0.4,2.8c-0.2,0.7-0.6,1.3-1.1,1.7c-0.5,0.4-1.1,0.6-1.8,0.6
					c-1,0-1.7-0.3-2.3-1C58.2,11.3,57.9,9.9,57.9,8.1z M59.1,8.1c0,1.6,0.2,2.7,0.6,3.3c0.4,0.5,0.9,0.8,1.4,0.8s1-0.3,1.4-0.8
					s0.6-1.6,0.6-3.3c0-1.6-0.2-2.7-0.6-3.3S61.7,4,61.1,4c-0.6,0-1,0.2-1.4,0.7C59.4,5.3,59.1,6.4,59.1,8.1z"/>
				<path d="M66.4,8.1c0-1.2,0.1-2.1,0.4-2.9c0.2-0.7,0.6-1.3,1.1-1.7s1.1-0.6,1.8-0.6c0.5,0,1,0.1,1.4,0.3c0.4,0.2,0.7,0.5,1,0.9
					c0.3,0.4,0.5,0.9,0.6,1.5c0.2,0.6,0.2,1.4,0.2,2.4c0,1.2-0.1,2.1-0.4,2.8c-0.2,0.7-0.6,1.3-1.1,1.7c-0.5,0.4-1.1,0.6-1.8,0.6
					c-1,0-1.7-0.3-2.3-1C66.7,11.3,66.4,9.9,66.4,8.1z M67.6,8.1c0,1.6,0.2,2.7,0.6,3.3c0.4,0.5,0.9,0.8,1.4,0.8s1-0.3,1.4-0.8
					s0.6-1.6,0.6-3.3c0-1.6-0.2-2.7-0.6-3.3S70.2,4,69.6,4c-0.6,0-1,0.2-1.4,0.7C67.8,5.3,67.6,6.4,67.6,8.1z"/>
				<path d="M74.9,8.1c0-1.2,0.1-2.1,0.4-2.9c0.2-0.7,0.6-1.3,1.1-1.7s1.1-0.6,1.8-0.6c0.5,0,1,0.1,1.4,0.3c0.4,0.2,0.7,0.5,1,0.9
					c0.3,0.4,0.5,0.9,0.6,1.5c0.2,0.6,0.2,1.4,0.2,2.4c0,1.2-0.1,2.1-0.4,2.8c-0.2,0.7-0.6,1.3-1.1,1.7c-0.5,0.4-1.1,0.6-1.8,0.6
					c-1,0-1.7-0.3-2.3-1C75.2,11.3,74.9,9.9,74.9,8.1z M76.1,8.1c0,1.6,0.2,2.7,0.6,3.3c0.4,0.5,0.9,0.8,1.4,0.8s1-0.3,1.4-0.8
					s0.6-1.6,0.6-3.3c0-1.6-0.2-2.7-0.6-3.3S78.7,4,78.1,4c-0.6,0-1,0.2-1.4,0.7C76.3,5.3,76.1,6.4,76.1,8.1z"/>
			</g>
			<g class="st4">
				<path d="M134.4,4.3V3.1h6.5v1c-0.6,0.7-1.3,1.6-1.9,2.7c-0.6,1.1-1.1,2.3-1.5,3.5c-0.2,0.8-0.4,1.8-0.5,2.8h-1.3
					c0-0.8,0.2-1.7,0.5-2.9c0.3-1.1,0.7-2.2,1.3-3.2c0.6-1,1.1-1.9,1.8-2.6H134.4z"/>
				<path d="M142.8,8.1c0-1.2,0.1-2.1,0.4-2.9c0.2-0.7,0.6-1.3,1.1-1.7c0.5-0.4,1.1-0.6,1.8-0.6c0.5,0,1,0.1,1.4,0.3
					c0.4,0.2,0.7,0.5,1,0.9c0.3,0.4,0.5,0.9,0.6,1.5c0.2,0.6,0.2,1.4,0.2,2.4c0,1.2-0.1,2.1-0.4,2.8c-0.2,0.7-0.6,1.3-1.1,1.7
					c-0.5,0.4-1.1,0.6-1.8,0.6c-1,0-1.7-0.3-2.3-1C143.1,11.3,142.8,9.9,142.8,8.1z M144.1,8.1c0,1.6,0.2,2.7,0.6,3.3
					c0.4,0.5,0.9,0.8,1.4,0.8c0.6,0,1-0.3,1.4-0.8c0.4-0.5,0.6-1.6,0.6-3.3c0-1.6-0.2-2.7-0.6-3.3c-0.4-0.5-0.9-0.8-1.4-0.8
					c-0.6,0-1,0.2-1.4,0.7C144.3,5.3,144.1,6.4,144.1,8.1z"/>
				<path d="M152,13v-1.4h1.4V13c0,0.5-0.1,0.9-0.3,1.2c-0.2,0.3-0.5,0.6-0.9,0.7l-0.3-0.5c0.3-0.1,0.5-0.3,0.6-0.5
					c0.1-0.2,0.2-0.5,0.2-1H152z"/>
				<path d="M155.9,8.1c0-1.2,0.1-2.1,0.4-2.9c0.2-0.7,0.6-1.3,1.1-1.7c0.5-0.4,1.1-0.6,1.8-0.6c0.5,0,1,0.1,1.4,0.3
					c0.4,0.2,0.7,0.5,1,0.9c0.3,0.4,0.5,0.9,0.6,1.5c0.2,0.6,0.2,1.4,0.2,2.4c0,1.2-0.1,2.1-0.4,2.8c-0.2,0.7-0.6,1.3-1.1,1.7
					c-0.5,0.4-1.1,0.6-1.8,0.6c-1,0-1.7-0.3-2.3-1C156.2,11.3,155.9,9.9,155.9,8.1z M157.1,8.1c0,1.6,0.2,2.7,0.6,3.3
					c0.4,0.5,0.9,0.8,1.4,0.8c0.6,0,1-0.3,1.4-0.8c0.4-0.5,0.6-1.6,0.6-3.3c0-1.6-0.2-2.7-0.6-3.3c-0.4-0.5-0.9-0.8-1.4-0.8
					c-0.6,0-1,0.2-1.4,0.7C157.4,5.3,157.1,6.4,157.1,8.1z"/>
				<path d="M164.4,8.1c0-1.2,0.1-2.1,0.4-2.9c0.2-0.7,0.6-1.3,1.1-1.7c0.5-0.4,1.1-0.6,1.8-0.6c0.5,0,1,0.1,1.4,0.3
					c0.4,0.2,0.7,0.5,1,0.9c0.3,0.4,0.5,0.9,0.6,1.5c0.2,0.6,0.2,1.4,0.2,2.4c0,1.2-0.1,2.1-0.4,2.8c-0.2,0.7-0.6,1.3-1.1,1.7
					c-0.5,0.4-1.1,0.6-1.8,0.6c-1,0-1.7-0.3-2.3-1C164.7,11.3,164.4,9.9,164.4,8.1z M165.6,8.1c0,1.6,0.2,2.7,0.6,3.3
					c0.4,0.5,0.9,0.8,1.4,0.8c0.6,0,1-0.3,1.4-0.8c0.4-0.5,0.6-1.6,0.6-3.3c0-1.6-0.2-2.7-0.6-3.3c-0.4-0.5-0.9-0.8-1.4-0.8
					c-0.6,0-1,0.2-1.4,0.7C165.8,5.3,165.6,6.4,165.6,8.1z"/>
				<path d="M172.9,8.1c0-1.2,0.1-2.1,0.4-2.9c0.2-0.7,0.6-1.3,1.1-1.7c0.5-0.4,1.1-0.6,1.8-0.6c0.5,0,1,0.1,1.4,0.3
					c0.4,0.2,0.7,0.5,1,0.9c0.3,0.4,0.5,0.9,0.6,1.5c0.2,0.6,0.2,1.4,0.2,2.4c0,1.2-0.1,2.1-0.4,2.8c-0.2,0.7-0.6,1.3-1.1,1.7
					c-0.5,0.4-1.1,0.6-1.8,0.6c-1,0-1.7-0.3-2.3-1C173.2,11.3,172.9,9.9,172.9,8.1z M174.1,8.1c0,1.6,0.2,2.7,0.6,3.3
					c0.4,0.5,0.9,0.8,1.4,0.8c0.6,0,1-0.3,1.4-0.8c0.4-0.5,0.6-1.6,0.6-3.3c0-1.6-0.2-2.7-0.6-3.3c-0.4-0.5-0.9-0.8-1.4-0.8
					c-0.6,0-1,0.2-1.4,0.7C174.3,5.3,174.1,6.4,174.1,8.1z"/>
			</g>
			<g class="st4">
				<path d="M234.2,7.6c-0.5-0.2-0.9-0.5-1.1-0.8s-0.4-0.8-0.4-1.2c0-0.7,0.3-1.3,0.8-1.8c0.5-0.5,1.2-0.7,2.1-0.7
					c0.9,0,1.6,0.3,2.1,0.8c0.5,0.5,0.8,1.1,0.8,1.9c0,0.5-0.1,0.9-0.4,1.2c-0.2,0.3-0.6,0.6-1.1,0.8c0.6,0.2,1.1,0.5,1.4,1
					s0.5,1,0.5,1.6c0,0.9-0.3,1.6-0.9,2.2c-0.6,0.6-1.4,0.9-2.4,0.9c-1,0-1.8-0.3-2.4-0.9c-0.6-0.6-0.9-1.3-0.9-2.2
					c0-0.7,0.2-1.2,0.5-1.6C233.1,8,233.6,7.7,234.2,7.6z M233.6,10.1c0,0.4,0.1,0.7,0.2,1c0.2,0.3,0.4,0.6,0.7,0.8
					c0.3,0.2,0.7,0.3,1.1,0.3c0.6,0,1.1-0.2,1.5-0.6s0.6-0.9,0.6-1.4c0-0.6-0.2-1.1-0.6-1.5c-0.4-0.4-0.9-0.6-1.5-0.6
					c-0.6,0-1.1,0.2-1.4,0.6C233.8,9.1,233.6,9.5,233.6,10.1z M234,5.5c0,0.5,0.2,0.9,0.5,1.2c0.3,0.3,0.7,0.5,1.2,0.5
					c0.5,0,0.9-0.1,1.2-0.4c0.3-0.3,0.5-0.7,0.5-1.1c0-0.5-0.2-0.8-0.5-1.1c-0.3-0.3-0.7-0.5-1.2-0.5c-0.5,0-0.9,0.2-1.2,0.5
					C234.1,4.7,234,5.1,234,5.5z"/>
				<path d="M240.8,10.4l1.3-0.1c0.1,0.6,0.3,1.1,0.7,1.4c0.3,0.3,0.8,0.5,1.3,0.5c0.6,0,1.1-0.2,1.5-0.7s0.6-1,0.6-1.8
					c0-0.7-0.2-1.3-0.6-1.7c-0.4-0.4-0.9-0.6-1.5-0.6c-0.4,0-0.8,0.1-1.1,0.3c-0.3,0.2-0.6,0.4-0.8,0.7L241,8.3l1-5.1h5v1.2h-4
					L242.4,7c0.6-0.4,1.2-0.6,1.9-0.6c0.9,0,1.6,0.3,2.2,0.9s0.9,1.4,0.9,2.3c0,0.9-0.3,1.7-0.8,2.4c-0.6,0.8-1.5,1.2-2.6,1.2
					c-0.9,0-1.7-0.3-2.2-0.8C241.2,11.9,240.9,11.2,240.8,10.4z"/>
				<path d="M250,13v-1.4h1.4V13c0,0.5-0.1,0.9-0.3,1.2c-0.2,0.3-0.5,0.6-0.9,0.7l-0.3-0.5c0.3-0.1,0.5-0.3,0.6-0.5
					c0.1-0.2,0.2-0.5,0.2-1H250z"/>
				<path d="M253.9,8.1c0-1.2,0.1-2.1,0.4-2.9c0.2-0.7,0.6-1.3,1.1-1.7c0.5-0.4,1.1-0.6,1.8-0.6c0.5,0,1,0.1,1.4,0.3
					c0.4,0.2,0.7,0.5,1,0.9c0.3,0.4,0.5,0.9,0.6,1.5c0.2,0.6,0.2,1.4,0.2,2.4c0,1.2-0.1,2.1-0.4,2.8c-0.2,0.7-0.6,1.3-1.1,1.7
					c-0.5,0.4-1.1,0.6-1.8,0.6c-1,0-1.7-0.3-2.3-1C254.2,11.3,253.9,9.9,253.9,8.1z M255.1,8.1c0,1.6,0.2,2.7,0.6,3.3
					c0.4,0.5,0.9,0.8,1.4,0.8c0.6,0,1-0.3,1.4-0.8c0.4-0.5,0.6-1.6,0.6-3.3c0-1.6-0.2-2.7-0.6-3.3c-0.4-0.5-0.9-0.8-1.4-0.8
					c-0.6,0-1,0.2-1.4,0.7C255.4,5.3,255.1,6.4,255.1,8.1z"/>
				<path d="M262.4,8.1c0-1.2,0.1-2.1,0.4-2.9c0.2-0.7,0.6-1.3,1.1-1.7c0.5-0.4,1.1-0.6,1.8-0.6c0.5,0,1,0.1,1.4,0.3
					c0.4,0.2,0.7,0.5,1,0.9c0.3,0.4,0.5,0.9,0.6,1.5c0.2,0.6,0.2,1.4,0.2,2.4c0,1.2-0.1,2.1-0.4,2.8c-0.2,0.7-0.6,1.3-1.1,1.7
					c-0.5,0.4-1.1,0.6-1.8,0.6c-1,0-1.7-0.3-2.3-1C262.7,11.3,262.4,9.9,262.4,8.1z M263.6,8.1c0,1.6,0.2,2.7,0.6,3.3
					c0.4,0.5,0.9,0.8,1.4,0.8c0.6,0,1-0.3,1.4-0.8c0.4-0.5,0.6-1.6,0.6-3.3c0-1.6-0.2-2.7-0.6-3.3c-0.4-0.5-0.9-0.8-1.4-0.8
					c-0.6,0-1,0.2-1.4,0.7C263.8,5.3,263.6,6.4,263.6,8.1z"/>
				<path d="M270.9,8.1c0-1.2,0.1-2.1,0.4-2.9c0.2-0.7,0.6-1.3,1.1-1.7c0.5-0.4,1.1-0.6,1.8-0.6c0.5,0,1,0.1,1.4,0.3
					c0.4,0.2,0.7,0.5,1,0.9c0.3,0.4,0.5,0.9,0.6,1.5c0.2,0.6,0.2,1.4,0.2,2.4c0,1.2-0.1,2.1-0.4,2.8c-0.2,0.7-0.6,1.3-1.1,1.7
					c-0.5,0.4-1.1,0.6-1.8,0.6c-1,0-1.7-0.3-2.3-1C271.2,11.3,270.9,9.9,270.9,8.1z M272.1,8.1c0,1.6,0.2,2.7,0.6,3.3
					c0.4,0.5,0.9,0.8,1.4,0.8c0.6,0,1-0.3,1.4-0.8c0.4-0.5,0.6-1.6,0.6-3.3c0-1.6-0.2-2.7-0.6-3.3c-0.4-0.5-0.9-0.8-1.4-0.8
					c-0.6,0-1,0.2-1.4,0.7C272.3,5.3,272.1,6.4,272.1,8.1z"/>
			</g>
			<g class="st4">
				<path d="M330.5,10.7l1.2-0.1c0.1,0.6,0.3,1,0.6,1.2c0.3,0.3,0.6,0.4,1.1,0.4c0.4,0,0.7-0.1,1-0.3c0.3-0.2,0.5-0.4,0.7-0.7
					c0.2-0.3,0.3-0.7,0.5-1.2s0.2-1,0.2-1.5c0-0.1,0-0.1,0-0.2c-0.2,0.4-0.6,0.7-1,1c-0.4,0.2-0.9,0.4-1.4,0.4
					c-0.8,0-1.5-0.3-2.1-0.9s-0.9-1.4-0.9-2.4c0-1,0.3-1.8,0.9-2.5c0.6-0.6,1.4-0.9,2.3-0.9c0.7,0,1.2,0.2,1.8,0.5s1,0.9,1.2,1.5
					c0.3,0.6,0.4,1.6,0.4,2.8c0,1.3-0.1,2.3-0.4,3.1c-0.3,0.8-0.7,1.3-1.2,1.7c-0.5,0.4-1.2,0.6-1.9,0.6c-0.8,0-1.4-0.2-1.9-0.7
					C330.9,12.1,330.6,11.5,330.5,10.7z M335.5,6.3c0-0.7-0.2-1.3-0.6-1.7S334.2,4,333.6,4c-0.5,0-1,0.2-1.4,0.7
					c-0.4,0.4-0.6,1-0.6,1.7c0,0.6,0.2,1.2,0.6,1.6c0.4,0.4,0.9,0.6,1.4,0.6c0.6,0,1-0.2,1.4-0.6C335.4,7.5,335.5,7,335.5,6.3z"/>
				<path d="M338.8,10.4l1.3-0.1c0.1,0.6,0.3,1.1,0.7,1.4c0.3,0.3,0.8,0.5,1.3,0.5c0.6,0,1.1-0.2,1.5-0.7s0.6-1,0.6-1.8
					c0-0.7-0.2-1.3-0.6-1.7c-0.4-0.4-0.9-0.6-1.5-0.6c-0.4,0-0.8,0.1-1.1,0.3c-0.3,0.2-0.6,0.4-0.8,0.7L339,8.3l1-5.1h5v1.2h-4
					L340.4,7c0.6-0.4,1.2-0.6,1.9-0.6c0.9,0,1.6,0.3,2.2,0.9s0.9,1.4,0.9,2.3c0,0.9-0.3,1.7-0.8,2.4c-0.6,0.8-1.5,1.2-2.6,1.2
					c-0.9,0-1.7-0.3-2.2-0.8C339.2,11.9,338.9,11.2,338.8,10.4z"/>
				<path d="M348,13v-1.4h1.4V13c0,0.5-0.1,0.9-0.3,1.2c-0.2,0.3-0.5,0.6-0.9,0.7l-0.3-0.5c0.3-0.1,0.5-0.3,0.6-0.5
					c0.1-0.2,0.2-0.5,0.2-1H348z"/>
				<path d="M351.9,8.1c0-1.2,0.1-2.1,0.4-2.9c0.2-0.7,0.6-1.3,1.1-1.7c0.5-0.4,1.1-0.6,1.8-0.6c0.5,0,1,0.1,1.4,0.3
					c0.4,0.2,0.7,0.5,1,0.9c0.3,0.4,0.5,0.9,0.6,1.5c0.2,0.6,0.2,1.4,0.2,2.4c0,1.2-0.1,2.1-0.4,2.8c-0.2,0.7-0.6,1.3-1.1,1.7
					c-0.5,0.4-1.1,0.6-1.8,0.6c-1,0-1.7-0.3-2.3-1C352.2,11.3,351.9,9.9,351.9,8.1z M353.1,8.1c0,1.6,0.2,2.7,0.6,3.3
					c0.4,0.5,0.9,0.8,1.4,0.8c0.6,0,1-0.3,1.4-0.8c0.4-0.5,0.6-1.6,0.6-3.3c0-1.6-0.2-2.7-0.6-3.3c-0.4-0.5-0.9-0.8-1.4-0.8
					c-0.6,0-1,0.2-1.4,0.7C353.4,5.3,353.1,6.4,353.1,8.1z"/>
				<path d="M360.4,8.1c0-1.2,0.1-2.1,0.4-2.9c0.2-0.7,0.6-1.3,1.1-1.7c0.5-0.4,1.1-0.6,1.8-0.6c0.5,0,1,0.1,1.4,0.3
					c0.4,0.2,0.7,0.5,1,0.9c0.3,0.4,0.5,0.9,0.6,1.5c0.2,0.6,0.2,1.4,0.2,2.4c0,1.2-0.1,2.1-0.4,2.8c-0.2,0.7-0.6,1.3-1.1,1.7
					c-0.5,0.4-1.1,0.6-1.8,0.6c-1,0-1.7-0.3-2.3-1C360.7,11.3,360.4,9.9,360.4,8.1z M361.6,8.1c0,1.6,0.2,2.7,0.6,3.3
					c0.4,0.5,0.9,0.8,1.4,0.8c0.6,0,1-0.3,1.4-0.8c0.4-0.5,0.6-1.6,0.6-3.3c0-1.6-0.2-2.7-0.6-3.3c-0.4-0.5-0.9-0.8-1.4-0.8
					c-0.6,0-1,0.2-1.4,0.7C361.8,5.3,361.6,6.4,361.6,8.1z"/>
				<path d="M368.9,8.1c0-1.2,0.1-2.1,0.4-2.9c0.2-0.7,0.6-1.3,1.1-1.7c0.5-0.4,1.1-0.6,1.8-0.6c0.5,0,1,0.1,1.4,0.3
					c0.4,0.2,0.7,0.5,1,0.9c0.3,0.4,0.5,0.9,0.6,1.5c0.2,0.6,0.2,1.4,0.2,2.4c0,1.2-0.1,2.1-0.4,2.8c-0.2,0.7-0.6,1.3-1.1,1.7
					c-0.5,0.4-1.1,0.6-1.8,0.6c-1,0-1.7-0.3-2.3-1C369.2,11.3,368.9,9.9,368.9,8.1z M370.1,8.1c0,1.6,0.2,2.7,0.6,3.3
					c0.4,0.5,0.9,0.8,1.4,0.8c0.6,0,1-0.3,1.4-0.8c0.4-0.5,0.6-1.6,0.6-3.3c0-1.6-0.2-2.7-0.6-3.3c-0.4-0.5-0.9-0.8-1.4-0.8
					c-0.6,0-1,0.2-1.4,0.7C370.3,5.3,370.1,6.4,370.1,8.1z"/>
			</g>
			<g class="st4">
				<path d="M428.9,13h-1.2V5.2c-0.3,0.3-0.7,0.6-1.2,0.8c-0.5,0.3-0.9,0.5-1.3,0.6V5.5c0.7-0.3,1.3-0.7,1.8-1.2
					c0.5-0.5,0.9-0.9,1.1-1.3h0.8V13z"/>
				<path d="M436.3,13h-1.2V5.2c-0.3,0.3-0.7,0.6-1.2,0.8c-0.5,0.3-0.9,0.5-1.3,0.6V5.5c0.7-0.3,1.3-0.7,1.8-1.2
					c0.5-0.5,0.9-0.9,1.1-1.3h0.8V13z"/>
				<path d="M440.2,8.1c0-1.2,0.1-2.1,0.4-2.9c0.2-0.7,0.6-1.3,1.1-1.7c0.5-0.4,1.1-0.6,1.8-0.6c0.5,0,1,0.1,1.4,0.3
					c0.4,0.2,0.7,0.5,1,0.9c0.3,0.4,0.5,0.9,0.6,1.5c0.2,0.6,0.2,1.4,0.2,2.4c0,1.2-0.1,2.1-0.4,2.8c-0.2,0.7-0.6,1.3-1.1,1.7
					c-0.5,0.4-1.1,0.6-1.8,0.6c-1,0-1.7-0.3-2.3-1C440.5,11.3,440.2,9.9,440.2,8.1z M441.4,8.1c0,1.6,0.2,2.7,0.6,3.3
					c0.4,0.5,0.9,0.8,1.4,0.8c0.6,0,1-0.3,1.4-0.8c0.4-0.5,0.6-1.6,0.6-3.3c0-1.6-0.2-2.7-0.6-3.3C444.5,4.2,444,4,443.4,4
					c-0.6,0-1,0.2-1.4,0.7C441.7,5.3,441.4,6.4,441.4,8.1z"/>
				<path d="M449.3,13v-1.4h1.4V13c0,0.5-0.1,0.9-0.3,1.2c-0.2,0.3-0.5,0.6-0.9,0.7l-0.3-0.5c0.3-0.1,0.5-0.3,0.6-0.5
					c0.1-0.2,0.2-0.5,0.2-1H449.3z"/>
				<path d="M453.3,8.1c0-1.2,0.1-2.1,0.4-2.9c0.2-0.7,0.6-1.3,1.1-1.7c0.5-0.4,1.1-0.6,1.8-0.6c0.5,0,1,0.1,1.4,0.3
					c0.4,0.2,0.7,0.5,1,0.9c0.3,0.4,0.5,0.9,0.6,1.5c0.2,0.6,0.2,1.4,0.2,2.4c0,1.2-0.1,2.1-0.4,2.8c-0.2,0.7-0.6,1.3-1.1,1.7
					c-0.5,0.4-1.1,0.6-1.8,0.6c-1,0-1.7-0.3-2.3-1C453.6,11.3,453.3,9.9,453.3,8.1z M454.5,8.1c0,1.6,0.2,2.7,0.6,3.3
					c0.4,0.5,0.9,0.8,1.4,0.8c0.6,0,1-0.3,1.4-0.8c0.4-0.5,0.6-1.6,0.6-3.3c0-1.6-0.2-2.7-0.6-3.3c-0.4-0.5-0.9-0.8-1.4-0.8
					c-0.6,0-1,0.2-1.4,0.7C454.7,5.3,454.5,6.4,454.5,8.1z"/>
				<path d="M461.7,8.1c0-1.2,0.1-2.1,0.4-2.9c0.2-0.7,0.6-1.3,1.1-1.7c0.5-0.4,1.1-0.6,1.8-0.6c0.5,0,1,0.1,1.4,0.3
					c0.4,0.2,0.7,0.5,1,0.9c0.3,0.4,0.5,0.9,0.6,1.5c0.2,0.6,0.2,1.4,0.2,2.4c0,1.2-0.1,2.1-0.4,2.8c-0.2,0.7-0.6,1.3-1.1,1.7
					c-0.5,0.4-1.1,0.6-1.8,0.6c-1,0-1.7-0.3-2.3-1C462.1,11.3,461.7,9.9,461.7,8.1z M463,8.1c0,1.6,0.2,2.7,0.6,3.3
					c0.4,0.5,0.9,0.8,1.4,0.8c0.6,0,1-0.3,1.4-0.8c0.4-0.5,0.6-1.6,0.6-3.3c0-1.6-0.2-2.7-0.6-3.3C466,4.2,465.6,4,465,4
					c-0.6,0-1,0.2-1.4,0.7C463.2,5.3,463,6.4,463,8.1z"/>
				<path d="M470.2,8.1c0-1.2,0.1-2.1,0.4-2.9c0.2-0.7,0.6-1.3,1.1-1.7c0.5-0.4,1.1-0.6,1.8-0.6c0.5,0,1,0.1,1.4,0.3
					c0.4,0.2,0.7,0.5,1,0.9c0.3,0.4,0.5,0.9,0.6,1.5c0.2,0.6,0.2,1.4,0.2,2.4c0,1.2-0.1,2.1-0.4,2.8c-0.2,0.7-0.6,1.3-1.1,1.7
					c-0.5,0.4-1.1,0.6-1.8,0.6c-1,0-1.7-0.3-2.3-1C470.6,11.3,470.2,9.9,470.2,8.1z M471.5,8.1c0,1.6,0.2,2.7,0.6,3.3
					c0.4,0.5,0.9,0.8,1.4,0.8c0.6,0,1-0.3,1.4-0.8c0.4-0.5,0.6-1.6,0.6-3.3c0-1.6-0.2-2.7-0.6-3.3c-0.4-0.5-0.9-0.8-1.4-0.8
					c-0.6,0-1,0.2-1.4,0.7C471.7,5.3,471.5,6.4,471.5,8.1z"/>
			</g>
			<g class="st4">
				<path d="M526.9,13h-1.2V5.2c-0.3,0.3-0.7,0.6-1.2,0.8c-0.5,0.3-0.9,0.5-1.3,0.6V5.5c0.7-0.3,1.3-0.7,1.8-1.2
					c0.5-0.5,0.9-0.9,1.1-1.3h0.8V13z"/>
				<path d="M537.2,11.8V13h-6.6c0-0.3,0-0.6,0.1-0.9c0.2-0.5,0.4-0.9,0.8-1.3c0.4-0.4,0.9-0.9,1.6-1.5c1.1-0.9,1.8-1.6,2.2-2.1
					c0.4-0.5,0.6-1,0.6-1.5c0-0.5-0.2-0.9-0.5-1.2C535,4.1,534.6,4,534,4c-0.6,0-1.1,0.2-1.4,0.5s-0.5,0.8-0.5,1.5l-1.3-0.1
					c0.1-0.9,0.4-1.7,1-2.2c0.6-0.5,1.3-0.7,2.3-0.7c1,0,1.7,0.3,2.3,0.8s0.8,1.2,0.8,2c0,0.4-0.1,0.8-0.2,1.2s-0.4,0.8-0.8,1.2
					c-0.4,0.4-1,1-1.9,1.8c-0.7,0.6-1.2,1-1.4,1.3c-0.2,0.2-0.4,0.4-0.5,0.7H537.2z"/>
				<path d="M539.2,8.1c0-1.2,0.1-2.1,0.4-2.9c0.2-0.7,0.6-1.3,1.1-1.7c0.5-0.4,1.1-0.6,1.8-0.6c0.5,0,1,0.1,1.4,0.3
					c0.4,0.2,0.7,0.5,1,0.9c0.3,0.4,0.5,0.9,0.6,1.5c0.2,0.6,0.2,1.4,0.2,2.4c0,1.2-0.1,2.1-0.4,2.8c-0.2,0.7-0.6,1.3-1.1,1.7
					c-0.5,0.4-1.1,0.6-1.8,0.6c-1,0-1.7-0.3-2.3-1C539.5,11.3,539.2,9.9,539.2,8.1z M540.5,8.1c0,1.6,0.2,2.7,0.6,3.3
					c0.4,0.5,0.9,0.8,1.4,0.8c0.6,0,1-0.3,1.4-0.8c0.4-0.5,0.6-1.6,0.6-3.3c0-1.6-0.2-2.7-0.6-3.3C543.5,4.2,543,4,542.5,4
					c-0.6,0-1,0.2-1.4,0.7C540.7,5.3,540.5,6.4,540.5,8.1z"/>
				<path d="M548.4,13v-1.4h1.4V13c0,0.5-0.1,0.9-0.3,1.2c-0.2,0.3-0.5,0.6-0.9,0.7l-0.3-0.5c0.3-0.1,0.5-0.3,0.6-0.5
					c0.1-0.2,0.2-0.5,0.2-1H548.4z"/>
				<path d="M552.3,8.1c0-1.2,0.1-2.1,0.4-2.9c0.2-0.7,0.6-1.3,1.1-1.7c0.5-0.4,1.1-0.6,1.8-0.6c0.5,0,1,0.1,1.4,0.3
					c0.4,0.2,0.7,0.5,1,0.9c0.3,0.4,0.5,0.9,0.6,1.5c0.2,0.6,0.2,1.4,0.2,2.4c0,1.2-0.1,2.1-0.4,2.8c-0.2,0.7-0.6,1.3-1.1,1.7
					c-0.5,0.4-1.1,0.6-1.8,0.6c-1,0-1.7-0.3-2.3-1C552.6,11.3,552.3,9.9,552.3,8.1z M553.6,8.1c0,1.6,0.2,2.7,0.6,3.3
					c0.4,0.5,0.9,0.8,1.4,0.8c0.6,0,1-0.3,1.4-0.8c0.4-0.5,0.6-1.6,0.6-3.3c0-1.6-0.2-2.7-0.6-3.3c-0.4-0.5-0.9-0.8-1.4-0.8
					c-0.6,0-1,0.2-1.4,0.7C553.8,5.3,553.6,6.4,553.6,8.1z"/>
				<path d="M560.8,8.1c0-1.2,0.1-2.1,0.4-2.9c0.2-0.7,0.6-1.3,1.1-1.7c0.5-0.4,1.1-0.6,1.8-0.6c0.5,0,1,0.1,1.4,0.3
					c0.4,0.2,0.7,0.5,1,0.9c0.3,0.4,0.5,0.9,0.6,1.5c0.2,0.6,0.2,1.4,0.2,2.4c0,1.2-0.1,2.1-0.4,2.8c-0.2,0.7-0.6,1.3-1.1,1.7
					c-0.5,0.4-1.1,0.6-1.8,0.6c-1,0-1.7-0.3-2.3-1C561.1,11.3,560.8,9.9,560.8,8.1z M562,8.1c0,1.6,0.2,2.7,0.6,3.3
					c0.4,0.5,0.9,0.8,1.4,0.8c0.6,0,1-0.3,1.4-0.8c0.4-0.5,0.6-1.6,0.6-3.3c0-1.6-0.2-2.7-0.6-3.3C565.1,4.2,564.6,4,564,4
					c-0.6,0-1,0.2-1.4,0.7C562.3,5.3,562,6.4,562,8.1z"/>
				<path d="M569.3,8.1c0-1.2,0.1-2.1,0.4-2.9c0.2-0.7,0.6-1.3,1.1-1.7c0.5-0.4,1.1-0.6,1.8-0.6c0.5,0,1,0.1,1.4,0.3
					c0.4,0.2,0.7,0.5,1,0.9c0.3,0.4,0.5,0.9,0.6,1.5c0.2,0.6,0.2,1.4,0.2,2.4c0,1.2-0.1,2.1-0.4,2.8c-0.2,0.7-0.6,1.3-1.1,1.7
					c-0.5,0.4-1.1,0.6-1.8,0.6c-1,0-1.7-0.3-2.3-1C569.6,11.3,569.3,9.9,569.3,8.1z M570.5,8.1c0,1.6,0.2,2.7,0.6,3.3
					c0.4,0.5,0.9,0.8,1.4,0.8c0.6,0,1-0.3,1.4-0.8c0.4-0.5,0.6-1.6,0.6-3.3c0-1.6-0.2-2.7-0.6-3.3c-0.4-0.5-0.9-0.8-1.4-0.8
					c-0.6,0-1,0.2-1.4,0.7C570.7,5.3,570.5,6.4,570.5,8.1z"/>
			</g>
			<g class="st4">
				<path d="M624.9,13h-1.2V5.2c-0.3,0.3-0.7,0.6-1.2,0.8c-0.5,0.3-0.9,0.5-1.3,0.6V5.5c0.7-0.3,1.3-0.7,1.8-1.2
					c0.5-0.5,0.9-0.9,1.1-1.3h0.8V13z"/>
				<path d="M628.7,10.4l1.2-0.2c0.1,0.7,0.4,1.2,0.7,1.5c0.3,0.3,0.8,0.5,1.2,0.5c0.6,0,1.1-0.2,1.5-0.6c0.4-0.4,0.6-0.9,0.6-1.5
					c0-0.6-0.2-1-0.6-1.4c-0.4-0.4-0.8-0.6-1.4-0.6c-0.2,0-0.5,0-0.9,0.1l0.1-1.1c0.1,0,0.1,0,0.2,0c0.5,0,1-0.1,1.4-0.4
					c0.4-0.3,0.6-0.7,0.6-1.3c0-0.5-0.2-0.8-0.5-1.1c-0.3-0.3-0.7-0.4-1.2-0.4c-0.5,0-0.9,0.2-1.2,0.5c-0.3,0.3-0.5,0.8-0.6,1.4
					l-1.2-0.2c0.2-0.8,0.5-1.5,1-1.9c0.5-0.5,1.2-0.7,2-0.7c0.5,0,1,0.1,1.5,0.4c0.5,0.2,0.8,0.6,1.1,1c0.2,0.4,0.4,0.8,0.4,1.3
					c0,0.4-0.1,0.8-0.3,1.2s-0.6,0.6-1,0.8c0.6,0.1,1.1,0.4,1.4,0.9c0.3,0.4,0.5,1,0.5,1.6c0,0.9-0.3,1.6-1,2.2
					c-0.6,0.6-1.4,0.9-2.4,0.9c-0.9,0-1.6-0.3-2.2-0.8S628.8,11.2,628.7,10.4z"/>
				<path d="M637.2,8.1c0-1.2,0.1-2.1,0.4-2.9c0.2-0.7,0.6-1.3,1.1-1.7c0.5-0.4,1.1-0.6,1.8-0.6c0.5,0,1,0.1,1.4,0.3
					c0.4,0.2,0.7,0.5,1,0.9c0.3,0.4,0.5,0.9,0.6,1.5c0.2,0.6,0.2,1.4,0.2,2.4c0,1.2-0.1,2.1-0.4,2.8c-0.2,0.7-0.6,1.3-1.1,1.7
					c-0.5,0.4-1.1,0.6-1.8,0.6c-1,0-1.7-0.3-2.3-1C637.5,11.3,637.2,9.9,637.2,8.1z M638.5,8.1c0,1.6,0.2,2.7,0.6,3.3
					c0.4,0.5,0.9,0.8,1.4,0.8c0.6,0,1-0.3,1.4-0.8c0.4-0.5,0.6-1.6,0.6-3.3c0-1.6-0.2-2.7-0.6-3.3C641.5,4.2,641,4,640.5,4
					c-0.6,0-1,0.2-1.4,0.7C638.7,5.3,638.5,6.4,638.5,8.1z"/>
				<path d="M646.4,13v-1.4h1.4V13c0,0.5-0.1,0.9-0.3,1.2c-0.2,0.3-0.5,0.6-0.9,0.7l-0.3-0.5c0.3-0.1,0.5-0.3,0.6-0.5
					c0.1-0.2,0.2-0.5,0.2-1H646.4z"/>
				<path d="M650.3,8.1c0-1.2,0.1-2.1,0.4-2.9c0.2-0.7,0.6-1.3,1.1-1.7c0.5-0.4,1.1-0.6,1.8-0.6c0.5,0,1,0.1,1.4,0.3
					c0.4,0.2,0.7,0.5,1,0.9c0.3,0.4,0.5,0.9,0.6,1.5c0.2,0.6,0.2,1.4,0.2,2.4c0,1.2-0.1,2.1-0.4,2.8c-0.2,0.7-0.6,1.3-1.1,1.7
					c-0.5,0.4-1.1,0.6-1.8,0.6c-1,0-1.7-0.3-2.3-1C650.6,11.3,650.3,9.9,650.3,8.1z M651.6,8.1c0,1.6,0.2,2.7,0.6,3.3
					c0.4,0.5,0.9,0.8,1.4,0.8c0.6,0,1-0.3,1.4-0.8c0.4-0.5,0.6-1.6,0.6-3.3c0-1.6-0.2-2.7-0.6-3.3c-0.4-0.5-0.9-0.8-1.4-0.8
					c-0.6,0-1,0.2-1.4,0.7C651.8,5.3,651.6,6.4,651.6,8.1z"/>
				<path d="M658.8,8.1c0-1.2,0.1-2.1,0.4-2.9c0.2-0.7,0.6-1.3,1.1-1.7c0.5-0.4,1.1-0.6,1.8-0.6c0.5,0,1,0.1,1.4,0.3
					c0.4,0.2,0.7,0.5,1,0.9c0.3,0.4,0.5,0.9,0.6,1.5c0.2,0.6,0.2,1.4,0.2,2.4c0,1.2-0.1,2.1-0.4,2.8c-0.2,0.7-0.6,1.3-1.1,1.7
					c-0.5,0.4-1.1,0.6-1.8,0.6c-1,0-1.7-0.3-2.3-1C659.1,11.3,658.8,9.9,658.8,8.1z M660,8.1c0,1.6,0.2,2.7,0.6,3.3
					c0.4,0.5,0.9,0.8,1.4,0.8c0.6,0,1-0.3,1.4-0.8c0.4-0.5,0.6-1.6,0.6-3.3c0-1.6-0.2-2.7-0.6-3.3C663.1,4.2,662.6,4,662,4
					c-0.6,0-1,0.2-1.4,0.7C660.3,5.3,660,6.4,660,8.1z"/>
				<path d="M667.3,8.1c0-1.2,0.1-2.1,0.4-2.9c0.2-0.7,0.6-1.3,1.1-1.7c0.5-0.4,1.1-0.6,1.8-0.6c0.5,0,1,0.1,1.4,0.3
					c0.4,0.2,0.7,0.5,1,0.9c0.3,0.4,0.5,0.9,0.6,1.5c0.2,0.6,0.2,1.4,0.2,2.4c0,1.2-0.1,2.1-0.4,2.8c-0.2,0.7-0.6,1.3-1.1,1.7
					c-0.5,0.4-1.1,0.6-1.8,0.6c-1,0-1.7-0.3-2.3-1C667.6,11.3,667.3,9.9,667.3,8.1z M668.5,8.1c0,1.6,0.2,2.7,0.6,3.3
					c0.4,0.5,0.9,0.8,1.4,0.8c0.6,0,1-0.3,1.4-0.8c0.4-0.5,0.6-1.6,0.6-3.3c0-1.6-0.2-2.7-0.6-3.3c-0.4-0.5-0.9-0.8-1.4-0.8
					c-0.6,0-1,0.2-1.4,0.7C668.7,5.3,668.5,6.4,668.5,8.1z"/>
			</g>
		</g>
		<g transform="translate(873 2354)">
			<g class="st4">
				<path d="M-0.1,13h-1.2V5.2C-1.6,5.4-2,5.7-2.5,6s-0.9,0.5-1.3,0.6V5.5C-3.1,5.1-2.5,4.7-2,4.3s0.9-0.9,1.1-1.3h0.8V13z"/>
				<path d="M16.6,7.1c-0.9,1.6-2.2,2.4-3.6,2.4C11.7,9.5,10.8,9,9.8,8C9.1,7.3,8.4,6.9,7.4,6.9c-1.1,0-2.1,0.8-2.7,1.9L3.8,8.3
					c0.9-1.6,2.2-2.4,3.6-2.4c1.3,0,2.1,0.5,3.1,1.5C11.3,8.1,12,8.5,13,8.5c1.1,0,2.1-0.8,2.7-1.9L16.6,7.1z"/>
				<path d="M23.1,13h-1.2V5.2c-0.3,0.3-0.7,0.6-1.2,0.8s-0.9,0.5-1.3,0.6V5.5c0.7-0.3,1.3-0.7,1.8-1.2s0.9-0.9,1.1-1.3h0.8V13z"/>
				<path d="M27,8.1c0-1.2,0.1-2.1,0.4-2.9c0.2-0.7,0.6-1.3,1.1-1.7s1.1-0.6,1.8-0.6c0.5,0,1,0.1,1.4,0.3c0.4,0.2,0.7,0.5,1,0.9
					c0.3,0.4,0.5,0.9,0.6,1.5c0.2,0.6,0.2,1.4,0.2,2.4c0,1.2-0.1,2.1-0.4,2.8c-0.2,0.7-0.6,1.3-1.1,1.7c-0.5,0.4-1.1,0.6-1.8,0.6
					c-1,0-1.7-0.3-2.3-1C27.3,11.3,27,9.9,27,8.1z M28.2,8.1c0,1.6,0.2,2.7,0.6,3.3c0.4,0.5,0.9,0.8,1.4,0.8s1-0.3,1.4-0.8
					s0.6-1.6,0.6-3.3c0-1.6-0.2-2.7-0.6-3.3S30.8,4,30.2,4c-0.6,0-1,0.2-1.4,0.7C28.4,5.3,28.2,6.4,28.2,8.1z"/>
				<path d="M35.4,8.1c0-1.2,0.1-2.1,0.4-2.9c0.2-0.7,0.6-1.3,1.1-1.7s1.1-0.6,1.8-0.6c0.5,0,1,0.1,1.4,0.3c0.4,0.2,0.7,0.5,1,0.9
					c0.3,0.4,0.5,0.9,0.6,1.5C41.9,6.3,42,7.1,42,8.1c0,1.2-0.1,2.1-0.4,2.8c-0.2,0.7-0.6,1.3-1.1,1.7c-0.5,0.4-1.1,0.6-1.8,0.6
					c-1,0-1.7-0.3-2.3-1C35.8,11.3,35.4,9.9,35.4,8.1z M36.7,8.1c0,1.6,0.2,2.7,0.6,3.3c0.4,0.5,0.9,0.8,1.4,0.8s1-0.3,1.4-0.8
					s0.6-1.6,0.6-3.3c0-1.6-0.2-2.7-0.6-3.3S39.3,4,38.7,4c-0.6,0-1,0.2-1.4,0.7C36.9,5.3,36.7,6.4,36.7,8.1z"/>
			</g>
			<g class="st4">
				<path d="M88.8,13h-1.2V5.2c-0.3,0.3-0.7,0.6-1.2,0.8s-0.9,0.5-1.3,0.6V5.5c0.7-0.3,1.3-0.7,1.8-1.2s0.9-0.9,1.1-1.3h0.8V13z"/>
				<path d="M92.6,8.1c0-1.2,0.1-2.1,0.4-2.9c0.2-0.7,0.6-1.3,1.1-1.7s1.1-0.6,1.8-0.6c0.5,0,1,0.1,1.4,0.3c0.4,0.2,0.7,0.5,1,0.9
					c0.3,0.4,0.5,0.9,0.6,1.5c0.2,0.6,0.2,1.4,0.2,2.4c0,1.2-0.1,2.1-0.4,2.8c-0.2,0.7-0.6,1.3-1.1,1.7c-0.5,0.4-1.1,0.6-1.8,0.6
					c-1,0-1.7-0.3-2.3-1C92.9,11.3,92.6,9.9,92.6,8.1z M93.9,8.1c0,1.6,0.2,2.7,0.6,3.3c0.4,0.5,0.9,0.8,1.4,0.8s1-0.3,1.4-0.8
					s0.6-1.6,0.6-3.3c0-1.6-0.2-2.7-0.6-3.3S96.4,4,95.9,4c-0.6,0-1,0.2-1.4,0.7C94.1,5.3,93.9,6.4,93.9,8.1z"/>
				<path d="M105.7,13h-1.2V5.2c-0.3,0.3-0.7,0.6-1.2,0.8s-0.9,0.5-1.3,0.6V5.5c0.7-0.3,1.3-0.7,1.8-1.2s0.9-0.9,1.1-1.3h0.8V13z"/>
				<path d="M122.4,7.1c-0.9,1.6-2.2,2.4-3.6,2.4c-1.3,0-2.1-0.5-3.1-1.5c-0.8-0.7-1.4-1.2-2.4-1.2c-1.1,0-2.1,0.8-2.7,1.9l-0.9-0.5
					c0.9-1.6,2.2-2.4,3.6-2.4c1.3,0,2.1,0.5,3.1,1.5c0.8,0.7,1.4,1.2,2.4,1.2c1.1,0,2.1-0.8,2.7-1.9L122.4,7.1z"/>
				<path d="M130.8,11.8V13h-6.6c0-0.3,0-0.6,0.1-0.9c0.2-0.5,0.4-0.9,0.8-1.3s0.9-0.9,1.6-1.5c1.1-0.9,1.8-1.6,2.2-2.1
					c0.4-0.5,0.6-1,0.6-1.5c0-0.5-0.2-0.9-0.5-1.2c-0.3-0.3-0.8-0.5-1.4-0.5c-0.6,0-1.1,0.2-1.4,0.5s-0.5,0.8-0.5,1.5l-1.3-0.1
					c0.1-0.9,0.4-1.7,1-2.2c0.6-0.5,1.3-0.7,2.3-0.7c1,0,1.7,0.3,2.3,0.8s0.8,1.2,0.8,2c0,0.4-0.1,0.8-0.2,1.2s-0.4,0.8-0.8,1.2
					s-1,1-1.9,1.8c-0.7,0.6-1.2,1-1.4,1.3c-0.2,0.2-0.4,0.4-0.5,0.7H130.8z"/>
				<path d="M132.8,8.1c0-1.2,0.1-2.1,0.4-2.9c0.2-0.7,0.6-1.3,1.1-1.7s1.1-0.6,1.8-0.6c0.5,0,1,0.1,1.4,0.3c0.4,0.2,0.7,0.5,1,0.9
					c0.3,0.4,0.5,0.9,0.6,1.5c0.2,0.6,0.2,1.4,0.2,2.4c0,1.2-0.1,2.1-0.4,2.8c-0.2,0.7-0.6,1.3-1.1,1.7c-0.5,0.4-1.1,0.6-1.8,0.6
					c-1,0-1.7-0.3-2.3-1C133.1,11.3,132.8,9.9,132.8,8.1z M134,8.1c0,1.6,0.2,2.7,0.6,3.3c0.4,0.5,0.9,0.8,1.4,0.8s1-0.3,1.4-0.8
					s0.6-1.6,0.6-3.3c0-1.6-0.2-2.7-0.6-3.3S136.6,4,136,4c-0.6,0-1,0.2-1.4,0.7C134.3,5.3,134,6.4,134,8.1z"/>
				<path d="M141.3,8.1c0-1.2,0.1-2.1,0.4-2.9c0.2-0.7,0.6-1.3,1.1-1.7s1.1-0.6,1.8-0.6c0.5,0,1,0.1,1.4,0.3c0.4,0.2,0.7,0.5,1,0.9
					c0.3,0.4,0.5,0.9,0.6,1.5c0.2,0.6,0.2,1.4,0.2,2.4c0,1.2-0.1,2.1-0.4,2.8c-0.2,0.7-0.6,1.3-1.1,1.7c-0.5,0.4-1.1,0.6-1.8,0.6
					c-1,0-1.7-0.3-2.3-1C141.6,11.3,141.3,9.9,141.3,8.1z M142.5,8.1c0,1.6,0.2,2.7,0.6,3.3c0.4,0.5,0.9,0.8,1.4,0.8s1-0.3,1.4-0.8
					s0.6-1.6,0.6-3.3c0-1.6-0.2-2.7-0.6-3.3S145.1,4,144.5,4c-0.6,0-1,0.2-1.4,0.7C142.7,5.3,142.5,6.4,142.5,8.1z"/>
			</g>
			<g class="st4">
				<path d="M187.6,11.8V13H181c0-0.3,0-0.6,0.1-0.9c0.2-0.5,0.4-0.9,0.8-1.3s0.9-0.9,1.6-1.5c1.1-0.9,1.8-1.6,2.2-2.1
					c0.4-0.5,0.6-1,0.6-1.5c0-0.5-0.2-0.9-0.5-1.2C185.4,4.1,185,4,184.4,4c-0.6,0-1.1,0.2-1.4,0.5s-0.5,0.8-0.5,1.5l-1.3-0.1
					c0.1-0.9,0.4-1.7,1-2.2c0.6-0.5,1.3-0.7,2.3-0.7c1,0,1.7,0.3,2.3,0.8s0.8,1.2,0.8,2c0,0.4-0.1,0.8-0.2,1.2s-0.4,0.8-0.8,1.2
					s-1,1-1.9,1.8c-0.7,0.6-1.2,1-1.4,1.3c-0.2,0.2-0.4,0.4-0.5,0.7H187.6z"/>
				<path d="M189.6,8.1c0-1.2,0.1-2.1,0.4-2.9c0.2-0.7,0.6-1.3,1.1-1.7s1.1-0.6,1.8-0.6c0.5,0,1,0.1,1.4,0.3c0.4,0.2,0.7,0.5,1,0.9
					c0.3,0.4,0.5,0.9,0.6,1.5c0.2,0.6,0.2,1.4,0.2,2.4c0,1.2-0.1,2.1-0.4,2.8c-0.2,0.7-0.6,1.3-1.1,1.7c-0.5,0.4-1.1,0.6-1.8,0.6
					c-1,0-1.7-0.3-2.3-1C189.9,11.3,189.6,9.9,189.6,8.1z M190.9,8.1c0,1.6,0.2,2.7,0.6,3.3c0.4,0.5,0.9,0.8,1.4,0.8s1-0.3,1.4-0.8
					s0.6-1.6,0.6-3.3c0-1.6-0.2-2.7-0.6-3.3S193.4,4,192.9,4c-0.6,0-1,0.2-1.4,0.7C191.1,5.3,190.9,6.4,190.9,8.1z"/>
				<path d="M202.7,13h-1.2V5.2c-0.3,0.3-0.7,0.6-1.2,0.8s-0.9,0.5-1.3,0.6V5.5c0.7-0.3,1.3-0.7,1.8-1.2s0.9-0.9,1.1-1.3h0.8V13z"/>
				<path d="M219.4,7.1c-0.9,1.6-2.2,2.4-3.6,2.4c-1.3,0-2.1-0.5-3.1-1.5c-0.8-0.7-1.4-1.2-2.4-1.2c-1.1,0-2.1,0.8-2.7,1.9l-0.9-0.5
					c0.9-1.6,2.2-2.4,3.6-2.4c1.3,0,2.1,0.5,3.1,1.5c0.8,0.7,1.4,1.2,2.4,1.2c1.1,0,2.1-0.8,2.7-1.9L219.4,7.1z"/>
				<path d="M221.3,10.4l1.2-0.2c0.1,0.7,0.4,1.2,0.7,1.5c0.3,0.3,0.8,0.5,1.2,0.5c0.6,0,1.1-0.2,1.5-0.6s0.6-0.9,0.6-1.5
					c0-0.6-0.2-1-0.6-1.4c-0.4-0.4-0.8-0.6-1.4-0.6c-0.2,0-0.5,0-0.9,0.1l0.1-1.1c0.1,0,0.1,0,0.2,0c0.5,0,1-0.1,1.4-0.4
					s0.6-0.7,0.6-1.3c0-0.5-0.2-0.8-0.5-1.1s-0.7-0.4-1.2-0.4c-0.5,0-0.9,0.2-1.2,0.5s-0.5,0.8-0.6,1.4l-1.2-0.2
					c0.2-0.8,0.5-1.5,1-1.9c0.5-0.5,1.2-0.7,2-0.7c0.5,0,1.1,0.1,1.5,0.4c0.5,0.2,0.8,0.6,1.1,1s0.4,0.8,0.4,1.3
					c0,0.4-0.1,0.8-0.3,1.2s-0.6,0.6-1,0.8c0.6,0.1,1.1,0.4,1.4,0.9c0.3,0.4,0.5,1,0.5,1.6c0,0.9-0.3,1.6-1,2.2
					c-0.6,0.6-1.4,0.9-2.4,0.9c-0.9,0-1.6-0.3-2.2-0.8S221.4,11.2,221.3,10.4z"/>
				<path d="M229.8,8.1c0-1.2,0.1-2.1,0.4-2.9c0.2-0.7,0.6-1.3,1.1-1.7s1.1-0.6,1.8-0.6c0.5,0,1,0.1,1.4,0.3c0.4,0.2,0.7,0.5,1,0.9
					c0.3,0.4,0.5,0.9,0.6,1.5c0.2,0.6,0.2,1.4,0.2,2.4c0,1.2-0.1,2.1-0.4,2.8c-0.2,0.7-0.6,1.3-1.1,1.7c-0.5,0.4-1.1,0.6-1.8,0.6
					c-1,0-1.7-0.3-2.3-1C230.1,11.3,229.8,9.9,229.8,8.1z M231,8.1c0,1.6,0.2,2.7,0.6,3.3c0.4,0.5,0.9,0.8,1.4,0.8s1-0.3,1.4-0.8
					s0.6-1.6,0.6-3.3c0-1.6-0.2-2.7-0.6-3.3S233.6,4,233,4c-0.6,0-1,0.2-1.4,0.7C231.3,5.3,231,6.4,231,8.1z"/>
				<path d="M238.3,8.1c0-1.2,0.1-2.1,0.4-2.9c0.2-0.7,0.6-1.3,1.1-1.7s1.1-0.6,1.8-0.6c0.5,0,1,0.1,1.4,0.3c0.4,0.2,0.7,0.5,1,0.9
					c0.3,0.4,0.5,0.9,0.6,1.5c0.2,0.6,0.2,1.4,0.2,2.4c0,1.2-0.1,2.1-0.4,2.8c-0.2,0.7-0.6,1.3-1.1,1.7c-0.5,0.4-1.1,0.6-1.8,0.6
					c-1,0-1.7-0.3-2.3-1C238.6,11.3,238.3,9.9,238.3,8.1z M239.5,8.1c0,1.6,0.2,2.7,0.6,3.3c0.4,0.5,0.9,0.8,1.4,0.8s1-0.3,1.4-0.8
					s0.6-1.6,0.6-3.3c0-1.6-0.2-2.7-0.6-3.3S242.1,4,241.5,4c-0.6,0-1,0.2-1.4,0.7C239.7,5.3,239.5,6.4,239.5,8.1z"/>
			</g>
			<g class="st4">
				<path d="M277.1,10.4l1.2-0.2c0.1,0.7,0.4,1.2,0.7,1.5c0.3,0.3,0.8,0.5,1.2,0.5c0.6,0,1.1-0.2,1.5-0.6s0.6-0.9,0.6-1.5
					c0-0.6-0.2-1-0.6-1.4c-0.4-0.4-0.8-0.6-1.4-0.6c-0.2,0-0.5,0-0.9,0.1l0.1-1.1c0.1,0,0.1,0,0.2,0c0.5,0,1-0.1,1.4-0.4
					s0.6-0.7,0.6-1.3c0-0.5-0.2-0.8-0.5-1.1s-0.7-0.4-1.2-0.4c-0.5,0-0.9,0.2-1.2,0.5s-0.5,0.8-0.6,1.4l-1.2-0.2
					c0.2-0.8,0.5-1.5,1-1.9c0.5-0.5,1.2-0.7,2-0.7c0.5,0,1.1,0.1,1.5,0.4c0.5,0.2,0.8,0.6,1.1,1s0.4,0.8,0.4,1.3
					c0,0.4-0.1,0.8-0.3,1.2s-0.6,0.6-1,0.8c0.6,0.1,1.1,0.4,1.4,0.9c0.3,0.4,0.5,1,0.5,1.6c0,0.9-0.3,1.6-1,2.2
					c-0.6,0.6-1.4,0.9-2.4,0.9c-0.9,0-1.6-0.3-2.2-0.8S277.2,11.2,277.1,10.4z"/>
				<path d="M285.6,8.1c0-1.2,0.1-2.1,0.4-2.9c0.2-0.7,0.6-1.3,1.1-1.7s1.1-0.6,1.8-0.6c0.5,0,1,0.1,1.4,0.3c0.4,0.2,0.7,0.5,1,0.9
					c0.3,0.4,0.5,0.9,0.6,1.5c0.2,0.6,0.2,1.4,0.2,2.4c0,1.2-0.1,2.1-0.4,2.8c-0.2,0.7-0.6,1.3-1.1,1.7c-0.5,0.4-1.1,0.6-1.8,0.6
					c-1,0-1.7-0.3-2.3-1C285.9,11.3,285.6,9.9,285.6,8.1z M286.9,8.1c0,1.6,0.2,2.7,0.6,3.3c0.4,0.5,0.9,0.8,1.4,0.8s1-0.3,1.4-0.8
					s0.6-1.6,0.6-3.3c0-1.6-0.2-2.7-0.6-3.3S289.4,4,288.9,4c-0.6,0-1,0.2-1.4,0.7C287.1,5.3,286.9,6.4,286.9,8.1z"/>
				<path d="M298.7,13h-1.2V5.2c-0.3,0.3-0.7,0.6-1.2,0.8s-0.9,0.5-1.3,0.6V5.5c0.7-0.3,1.3-0.7,1.8-1.2s0.9-0.9,1.1-1.3h0.8V13z"/>
				<path d="M315.4,7.1c-0.9,1.6-2.2,2.4-3.6,2.4c-1.3,0-2.1-0.5-3.1-1.5c-0.8-0.7-1.4-1.2-2.4-1.2c-1.1,0-2.1,0.8-2.7,1.9l-0.9-0.5
					c0.9-1.6,2.2-2.4,3.6-2.4c1.3,0,2.1,0.5,3.1,1.5c0.8,0.7,1.4,1.2,2.4,1.2c1.1,0,2.1-0.8,2.7-1.9L315.4,7.1z"/>
				<path d="M321.2,13v-2.4h-4.3V9.5l4.6-6.5h1v6.5h1.4v1.1h-1.4V13H321.2z M321.2,9.5V5l-3.1,4.5H321.2z"/>
				<path d="M325.8,8.1c0-1.2,0.1-2.1,0.4-2.9c0.2-0.7,0.6-1.3,1.1-1.7c0.5-0.4,1.1-0.6,1.8-0.6c0.5,0,1,0.1,1.4,0.3
					c0.4,0.2,0.7,0.5,1,0.9c0.3,0.4,0.5,0.9,0.6,1.5c0.2,0.6,0.2,1.4,0.2,2.4c0,1.2-0.1,2.1-0.4,2.8c-0.2,0.7-0.6,1.3-1.1,1.7
					c-0.5,0.4-1.1,0.6-1.8,0.6c-1,0-1.7-0.3-2.3-1C326.1,11.3,325.8,9.9,325.8,8.1z M327,8.1c0,1.6,0.2,2.7,0.6,3.3
					c0.4,0.5,0.9,0.8,1.4,0.8c0.6,0,1-0.3,1.4-0.8c0.4-0.5,0.6-1.6,0.6-3.3c0-1.6-0.2-2.7-0.6-3.3C330.1,4.2,329.6,4,329,4
					c-0.6,0-1,0.2-1.4,0.7C327.3,5.3,327,6.4,327,8.1z"/>
				<path d="M334.3,8.1c0-1.2,0.1-2.1,0.4-2.9c0.2-0.7,0.6-1.3,1.1-1.7c0.5-0.4,1.1-0.6,1.8-0.6c0.5,0,1,0.1,1.4,0.3
					c0.4,0.2,0.7,0.5,1,0.9c0.3,0.4,0.5,0.9,0.6,1.5c0.2,0.6,0.2,1.4,0.2,2.4c0,1.2-0.1,2.1-0.4,2.8c-0.2,0.7-0.6,1.3-1.1,1.7
					c-0.5,0.4-1.1,0.6-1.8,0.6c-1,0-1.7-0.3-2.3-1C334.6,11.3,334.3,9.9,334.3,8.1z M335.5,8.1c0,1.6,0.2,2.7,0.6,3.3
					c0.4,0.5,0.9,0.8,1.4,0.8c0.6,0,1-0.3,1.4-0.8c0.4-0.5,0.6-1.6,0.6-3.3c0-1.6-0.2-2.7-0.6-3.3c-0.4-0.5-0.9-0.8-1.4-0.8
					c-0.6,0-1,0.2-1.4,0.7C335.7,5.3,335.5,6.4,335.5,8.1z"/>
			</g>
			<g class="st4">
				<path d="M381.1,13v-2.4h-4.3V9.5l4.6-6.5h1v6.5h1.4v1.1h-1.4V13H381.1z M381.1,9.5V5l-3.1,4.5H381.1z"/>
				<path d="M385.6,8.1c0-1.2,0.1-2.1,0.4-2.9c0.2-0.7,0.6-1.3,1.1-1.7c0.5-0.4,1.1-0.6,1.8-0.6c0.5,0,1,0.1,1.4,0.3
					c0.4,0.2,0.7,0.5,1,0.9c0.3,0.4,0.5,0.9,0.6,1.5c0.2,0.6,0.2,1.4,0.2,2.4c0,1.2-0.1,2.1-0.4,2.8c-0.2,0.7-0.6,1.3-1.1,1.7
					c-0.5,0.4-1.1,0.6-1.8,0.6c-1,0-1.7-0.3-2.3-1C385.9,11.3,385.6,9.9,385.6,8.1z M386.9,8.1c0,1.6,0.2,2.7,0.6,3.3
					c0.4,0.5,0.9,0.8,1.4,0.8c0.6,0,1-0.3,1.4-0.8c0.4-0.5,0.6-1.6,0.6-3.3c0-1.6-0.2-2.7-0.6-3.3c-0.4-0.5-0.9-0.8-1.4-0.8
					c-0.6,0-1,0.2-1.4,0.7C387.1,5.3,386.9,6.4,386.9,8.1z"/>
				<path d="M398.7,13h-1.2V5.2c-0.3,0.3-0.7,0.6-1.2,0.8c-0.5,0.3-0.9,0.5-1.3,0.6V5.5c0.7-0.3,1.3-0.7,1.8-1.2
					c0.5-0.5,0.9-0.9,1.1-1.3h0.8V13z"/>
				<path d="M415.4,7.1c-0.9,1.6-2.2,2.4-3.6,2.4c-1.3,0-2.1-0.5-3.1-1.5c-0.8-0.7-1.4-1.2-2.4-1.2c-1.1,0-2.1,0.8-2.7,1.9l-0.9-0.5
					c0.9-1.6,2.2-2.4,3.6-2.4c1.3,0,2.1,0.5,3.1,1.5c0.8,0.7,1.4,1.2,2.4,1.2c1.1,0,2.1-0.8,2.7-1.9L415.4,7.1z"/>
				<path d="M417.3,10.4l1.3-0.1c0.1,0.6,0.3,1.1,0.7,1.4c0.3,0.3,0.8,0.5,1.3,0.5c0.6,0,1.1-0.2,1.5-0.7s0.6-1,0.6-1.8
					c0-0.7-0.2-1.3-0.6-1.7c-0.4-0.4-0.9-0.6-1.5-0.6c-0.4,0-0.8,0.1-1.1,0.3c-0.3,0.2-0.6,0.4-0.8,0.7l-1.2-0.2l1-5.1h5v1.2h-4
					L418.9,7c0.6-0.4,1.2-0.6,1.9-0.6c0.9,0,1.6,0.3,2.2,0.9s0.9,1.4,0.9,2.3c0,0.9-0.3,1.7-0.8,2.4c-0.6,0.8-1.5,1.2-2.6,1.2
					c-0.9,0-1.7-0.3-2.2-0.8C417.7,11.9,417.4,11.2,417.3,10.4z"/>
				<path d="M425.8,8.1c0-1.2,0.1-2.1,0.4-2.9c0.2-0.7,0.6-1.3,1.1-1.7c0.5-0.4,1.1-0.6,1.8-0.6c0.5,0,1,0.1,1.4,0.3
					c0.4,0.2,0.7,0.5,1,0.9c0.3,0.4,0.5,0.9,0.6,1.5c0.2,0.6,0.2,1.4,0.2,2.4c0,1.2-0.1,2.1-0.4,2.8c-0.2,0.7-0.6,1.3-1.1,1.7
					c-0.5,0.4-1.1,0.6-1.8,0.6c-1,0-1.7-0.3-2.3-1C426.1,11.3,425.8,9.9,425.8,8.1z M427,8.1c0,1.6,0.2,2.7,0.6,3.3
					c0.4,0.5,0.9,0.8,1.4,0.8c0.6,0,1-0.3,1.4-0.8c0.4-0.5,0.6-1.6,0.6-3.3c0-1.6-0.2-2.7-0.6-3.3C430.1,4.2,429.6,4,429,4
					c-0.6,0-1,0.2-1.4,0.7C427.3,5.3,427,6.4,427,8.1z"/>
				<path d="M434.3,8.1c0-1.2,0.1-2.1,0.4-2.9c0.2-0.7,0.6-1.3,1.1-1.7c0.5-0.4,1.1-0.6,1.8-0.6c0.5,0,1,0.1,1.4,0.3
					c0.4,0.2,0.7,0.5,1,0.9c0.3,0.4,0.5,0.9,0.6,1.5c0.2,0.6,0.2,1.4,0.2,2.4c0,1.2-0.1,2.1-0.4,2.8c-0.2,0.7-0.6,1.3-1.1,1.7
					c-0.5,0.4-1.1,0.6-1.8,0.6c-1,0-1.7-0.3-2.3-1C434.6,11.3,434.3,9.9,434.3,8.1z M435.5,8.1c0,1.6,0.2,2.7,0.6,3.3
					c0.4,0.5,0.9,0.8,1.4,0.8c0.6,0,1-0.3,1.4-0.8c0.4-0.5,0.6-1.6,0.6-3.3c0-1.6-0.2-2.7-0.6-3.3c-0.4-0.5-0.9-0.8-1.4-0.8
					c-0.6,0-1,0.2-1.4,0.7C435.7,5.3,435.5,6.4,435.5,8.1z"/>
			</g>
			<g class="st4">
				<path d="M475.1,10.4l1.3-0.1c0.1,0.6,0.3,1.1,0.7,1.4c0.3,0.3,0.8,0.5,1.3,0.5c0.6,0,1.1-0.2,1.5-0.7s0.6-1,0.6-1.8
					c0-0.7-0.2-1.3-0.6-1.7c-0.4-0.4-0.9-0.6-1.5-0.6c-0.4,0-0.8,0.1-1.1,0.3c-0.3,0.2-0.6,0.4-0.8,0.7l-1.2-0.2l1-5.1h5v1.2h-4
					L476.8,7c0.6-0.4,1.2-0.6,1.9-0.6c0.9,0,1.6,0.3,2.2,0.9s0.9,1.4,0.9,2.3c0,0.9-0.3,1.7-0.8,2.4c-0.6,0.8-1.5,1.2-2.6,1.2
					c-0.9,0-1.7-0.3-2.2-0.8C475.5,11.9,475.2,11.2,475.1,10.4z"/>
				<path d="M483.6,8.1c0-1.2,0.1-2.1,0.4-2.9c0.2-0.7,0.6-1.3,1.1-1.7c0.5-0.4,1.1-0.6,1.8-0.6c0.5,0,1,0.1,1.4,0.3
					c0.4,0.2,0.7,0.5,1,0.9c0.3,0.4,0.5,0.9,0.6,1.5c0.2,0.6,0.2,1.4,0.2,2.4c0,1.2-0.1,2.1-0.4,2.8c-0.2,0.7-0.6,1.3-1.1,1.7
					c-0.5,0.4-1.1,0.6-1.8,0.6c-1,0-1.7-0.3-2.3-1C483.9,11.3,483.6,9.9,483.6,8.1z M484.9,8.1c0,1.6,0.2,2.7,0.6,3.3
					c0.4,0.5,0.9,0.8,1.4,0.8c0.6,0,1-0.3,1.4-0.8c0.4-0.5,0.6-1.6,0.6-3.3c0-1.6-0.2-2.7-0.6-3.3c-0.4-0.5-0.9-0.8-1.4-0.8
					c-0.6,0-1,0.2-1.4,0.7C485.1,5.3,484.9,6.4,484.9,8.1z"/>
				<path d="M496.7,13h-1.2V5.2c-0.3,0.3-0.7,0.6-1.2,0.8c-0.5,0.3-0.9,0.5-1.3,0.6V5.5c0.7-0.3,1.3-0.7,1.8-1.2
					c0.5-0.5,0.9-0.9,1.1-1.3h0.8V13z"/>
				<path d="M513.4,7.1c-0.9,1.6-2.2,2.4-3.6,2.4c-1.3,0-2.1-0.5-3.1-1.5c-0.8-0.7-1.4-1.2-2.4-1.2c-1.1,0-2.1,0.8-2.7,1.9l-0.9-0.5
					c0.9-1.6,2.2-2.4,3.6-2.4c1.3,0,2.1,0.5,3.1,1.5c0.8,0.7,1.4,1.2,2.4,1.2c1.1,0,2.1-0.8,2.7-1.9L513.4,7.1z"/>
				<path d="M521.7,5.4l-1.2,0.1c-0.1-0.5-0.3-0.8-0.5-1.1c-0.3-0.4-0.7-0.5-1.2-0.5c-0.4,0-0.7,0.1-1,0.3c-0.4,0.3-0.7,0.7-0.9,1.2
					c-0.2,0.5-0.3,1.3-0.3,2.3c0.3-0.5,0.7-0.8,1.1-1c0.4-0.2,0.9-0.3,1.3-0.3c0.8,0,1.5,0.3,2.1,0.9c0.6,0.6,0.9,1.4,0.9,2.3
					c0,0.6-0.1,1.2-0.4,1.8c-0.3,0.5-0.6,1-1.1,1.2c-0.5,0.3-1,0.4-1.6,0.4c-1,0-1.9-0.4-2.5-1.1c-0.6-0.8-1-2-1-3.7
					c0-1.9,0.4-3.3,1.1-4.2c0.6-0.8,1.5-1.1,2.5-1.1c0.8,0,1.4,0.2,1.9,0.7C521.3,4,521.6,4.7,521.7,5.4z M516.6,9.8
					c0,0.4,0.1,0.8,0.3,1.2c0.2,0.4,0.4,0.7,0.8,0.9c0.3,0.2,0.7,0.3,1,0.3c0.5,0,1-0.2,1.3-0.6c0.4-0.4,0.6-1,0.6-1.7
					c0-0.7-0.2-1.2-0.6-1.6c-0.4-0.4-0.8-0.6-1.4-0.6c-0.6,0-1,0.2-1.4,0.6C516.8,8.6,516.6,9.1,516.6,9.8z"/>
				<path d="M523.8,8.1c0-1.2,0.1-2.1,0.4-2.9c0.2-0.7,0.6-1.3,1.1-1.7c0.5-0.4,1.1-0.6,1.8-0.6c0.5,0,1,0.1,1.4,0.3
					c0.4,0.2,0.7,0.5,1,0.9c0.3,0.4,0.5,0.9,0.6,1.5c0.2,0.6,0.2,1.4,0.2,2.4c0,1.2-0.1,2.1-0.4,2.8c-0.2,0.7-0.6,1.3-1.1,1.7
					c-0.5,0.4-1.1,0.6-1.8,0.6c-1,0-1.7-0.3-2.3-1C524.1,11.3,523.8,9.9,523.8,8.1z M525,8.1c0,1.6,0.2,2.7,0.6,3.3
					c0.4,0.5,0.9,0.8,1.4,0.8c0.6,0,1-0.3,1.4-0.8c0.4-0.5,0.6-1.6,0.6-3.3c0-1.6-0.2-2.7-0.6-3.3C528.1,4.2,527.6,4,527,4
					c-0.6,0-1,0.2-1.4,0.7C525.3,5.3,525,6.4,525,8.1z"/>
				<path d="M532.3,8.1c0-1.2,0.1-2.1,0.4-2.9c0.2-0.7,0.6-1.3,1.1-1.7c0.5-0.4,1.1-0.6,1.8-0.6c0.5,0,1,0.1,1.4,0.3
					c0.4,0.2,0.7,0.5,1,0.9c0.3,0.4,0.5,0.9,0.6,1.5c0.2,0.6,0.2,1.4,0.2,2.4c0,1.2-0.1,2.1-0.4,2.8c-0.2,0.7-0.6,1.3-1.1,1.7
					c-0.5,0.4-1.1,0.6-1.8,0.6c-1,0-1.7-0.3-2.3-1C532.6,11.3,532.3,9.9,532.3,8.1z M533.5,8.1c0,1.6,0.2,2.7,0.6,3.3
					c0.4,0.5,0.9,0.8,1.4,0.8c0.6,0,1-0.3,1.4-0.8c0.4-0.5,0.6-1.6,0.6-3.3c0-1.6-0.2-2.7-0.6-3.3c-0.4-0.5-0.9-0.8-1.4-0.8
					c-0.6,0-1,0.2-1.4,0.7C533.7,5.3,533.5,6.4,533.5,8.1z"/>
			</g>
			<g class="st4">
				<path d="M579.5,5.4l-1.2,0.1c-0.1-0.5-0.3-0.8-0.5-1.1c-0.3-0.4-0.7-0.5-1.2-0.5c-0.4,0-0.7,0.1-1,0.3c-0.4,0.3-0.7,0.7-0.9,1.2
					c-0.2,0.5-0.3,1.3-0.3,2.3c0.3-0.5,0.7-0.8,1.1-1c0.4-0.2,0.9-0.3,1.3-0.3c0.8,0,1.5,0.3,2.1,0.9c0.6,0.6,0.9,1.4,0.9,2.3
					c0,0.6-0.1,1.2-0.4,1.8c-0.3,0.5-0.6,1-1.1,1.2c-0.5,0.3-1,0.4-1.6,0.4c-1,0-1.9-0.4-2.5-1.1c-0.6-0.8-1-2-1-3.7
					c0-1.9,0.4-3.3,1.1-4.2c0.6-0.8,1.5-1.1,2.5-1.1c0.8,0,1.4,0.2,1.9,0.7C579.1,4,579.4,4.7,579.5,5.4z M574.5,9.8
					c0,0.4,0.1,0.8,0.3,1.2c0.2,0.4,0.4,0.7,0.8,0.9c0.3,0.2,0.7,0.3,1,0.3c0.5,0,1-0.2,1.3-0.6c0.4-0.4,0.6-1,0.6-1.7
					c0-0.7-0.2-1.2-0.6-1.6c-0.4-0.4-0.8-0.6-1.4-0.6c-0.6,0-1,0.2-1.4,0.6C574.7,8.6,574.5,9.1,574.5,9.8z"/>
				<path d="M581.6,8.1c0-1.2,0.1-2.1,0.4-2.9c0.2-0.7,0.6-1.3,1.1-1.7c0.5-0.4,1.1-0.6,1.8-0.6c0.5,0,1,0.1,1.4,0.3
					c0.4,0.2,0.7,0.5,1,0.9c0.3,0.4,0.5,0.9,0.6,1.5c0.2,0.6,0.2,1.4,0.2,2.4c0,1.2-0.1,2.1-0.4,2.8c-0.2,0.7-0.6,1.3-1.1,1.7
					c-0.5,0.4-1.1,0.6-1.8,0.6c-1,0-1.7-0.3-2.3-1C581.9,11.3,581.6,9.9,581.6,8.1z M582.9,8.1c0,1.6,0.2,2.7,0.6,3.3
					c0.4,0.5,0.9,0.8,1.4,0.8c0.6,0,1-0.3,1.4-0.8c0.4-0.5,0.6-1.6,0.6-3.3c0-1.6-0.2-2.7-0.6-3.3c-0.4-0.5-0.9-0.8-1.4-0.8
					c-0.6,0-1,0.2-1.4,0.7C583.1,5.3,582.9,6.4,582.9,8.1z"/>
				<path d="M594.7,13h-1.2V5.2c-0.3,0.3-0.7,0.6-1.2,0.8c-0.5,0.3-0.9,0.5-1.3,0.6V5.5c0.7-0.3,1.3-0.7,1.8-1.2
					c0.5-0.5,0.9-0.9,1.1-1.3h0.8V13z"/>
				<path d="M611.4,7.1c-0.9,1.6-2.2,2.4-3.6,2.4c-1.3,0-2.1-0.5-3.1-1.5c-0.8-0.7-1.4-1.2-2.4-1.2c-1.1,0-2.1,0.8-2.7,1.9l-0.9-0.5
					c0.9-1.6,2.2-2.4,3.6-2.4c1.3,0,2.1,0.5,3.1,1.5c0.8,0.7,1.4,1.2,2.4,1.2c1.1,0,2.1-0.8,2.7-1.9L611.4,7.1z"/>
				<path d="M613.4,4.3V3.1h6.5v1c-0.6,0.7-1.3,1.6-1.9,2.7c-0.6,1.1-1.1,2.3-1.5,3.5c-0.2,0.8-0.4,1.8-0.5,2.8h-1.3
					c0-0.8,0.2-1.7,0.5-2.9c0.3-1.1,0.7-2.2,1.3-3.2c0.6-1,1.1-1.9,1.8-2.6H613.4z"/>
				<path d="M621.8,8.1c0-1.2,0.1-2.1,0.4-2.9c0.2-0.7,0.6-1.3,1.1-1.7c0.5-0.4,1.1-0.6,1.8-0.6c0.5,0,1,0.1,1.4,0.3
					c0.4,0.2,0.7,0.5,1,0.9c0.3,0.4,0.5,0.9,0.6,1.5c0.2,0.6,0.2,1.4,0.2,2.4c0,1.2-0.1,2.1-0.4,2.8c-0.2,0.7-0.6,1.3-1.1,1.7
					c-0.5,0.4-1.1,0.6-1.8,0.6c-1,0-1.7-0.3-2.3-1C622.1,11.3,621.8,9.9,621.8,8.1z M623,8.1c0,1.6,0.2,2.7,0.6,3.3
					c0.4,0.5,0.9,0.8,1.4,0.8c0.6,0,1-0.3,1.4-0.8c0.4-0.5,0.6-1.6,0.6-3.3c0-1.6-0.2-2.7-0.6-3.3C626.1,4.2,625.6,4,625,4
					c-0.6,0-1,0.2-1.4,0.7C623.3,5.3,623,6.4,623,8.1z"/>
				<path d="M630.3,8.1c0-1.2,0.1-2.1,0.4-2.9c0.2-0.7,0.6-1.3,1.1-1.7c0.5-0.4,1.1-0.6,1.8-0.6c0.5,0,1,0.1,1.4,0.3
					c0.4,0.2,0.7,0.5,1,0.9c0.3,0.4,0.5,0.9,0.6,1.5c0.2,0.6,0.2,1.4,0.2,2.4c0,1.2-0.1,2.1-0.4,2.8c-0.2,0.7-0.6,1.3-1.1,1.7
					c-0.5,0.4-1.1,0.6-1.8,0.6c-1,0-1.7-0.3-2.3-1C630.6,11.3,630.3,9.9,630.3,8.1z M631.5,8.1c0,1.6,0.2,2.7,0.6,3.3
					c0.4,0.5,0.9,0.8,1.4,0.8c0.6,0,1-0.3,1.4-0.8c0.4-0.5,0.6-1.6,0.6-3.3c0-1.6-0.2-2.7-0.6-3.3c-0.4-0.5-0.9-0.8-1.4-0.8
					c-0.6,0-1,0.2-1.4,0.7C631.7,5.3,631.5,6.4,631.5,8.1z"/>
			</g>
			<g class="st4">
				<path d="M671.2,4.3V3.1h6.5v1c-0.6,0.7-1.3,1.6-1.9,2.7c-0.6,1.1-1.1,2.3-1.5,3.5c-0.2,0.8-0.4,1.8-0.5,2.8h-1.3
					c0-0.8,0.2-1.7,0.5-2.9c0.3-1.1,0.7-2.2,1.3-3.2c0.6-1,1.1-1.9,1.8-2.6H671.2z"/>
				<path d="M679.6,8.1c0-1.2,0.1-2.1,0.4-2.9c0.2-0.7,0.6-1.3,1.1-1.7c0.5-0.4,1.1-0.6,1.8-0.6c0.5,0,1,0.1,1.4,0.3
					c0.4,0.2,0.7,0.5,1,0.9c0.3,0.4,0.5,0.9,0.6,1.5c0.2,0.6,0.2,1.4,0.2,2.4c0,1.2-0.1,2.1-0.4,2.8c-0.2,0.7-0.6,1.3-1.1,1.7
					c-0.5,0.4-1.1,0.6-1.8,0.6c-1,0-1.7-0.3-2.3-1C679.9,11.3,679.6,9.9,679.6,8.1z M680.9,8.1c0,1.6,0.2,2.7,0.6,3.3
					c0.4,0.5,0.9,0.8,1.4,0.8c0.6,0,1-0.3,1.4-0.8c0.4-0.5,0.6-1.6,0.6-3.3c0-1.6-0.2-2.7-0.6-3.3c-0.4-0.5-0.9-0.8-1.4-0.8
					c-0.6,0-1,0.2-1.4,0.7C681.1,5.3,680.9,6.4,680.9,8.1z"/>
				<path d="M692.7,13h-1.2V5.2c-0.3,0.3-0.7,0.6-1.2,0.8c-0.5,0.3-0.9,0.5-1.3,0.6V5.5c0.7-0.3,1.3-0.7,1.8-1.2
					c0.5-0.5,0.9-0.9,1.1-1.3h0.8V13z"/>
				<path d="M709.4,7.1c-0.9,1.6-2.2,2.4-3.6,2.4c-1.3,0-2.1-0.5-3.1-1.5c-0.8-0.7-1.4-1.2-2.4-1.2c-1.1,0-2.1,0.8-2.7,1.9l-0.9-0.5
					c0.9-1.6,2.2-2.4,3.6-2.4c1.3,0,2.1,0.5,3.1,1.5c0.8,0.7,1.4,1.2,2.4,1.2c1.1,0,2.1-0.8,2.7-1.9L709.4,7.1z"/>
				<path d="M713.2,7.6c-0.5-0.2-0.9-0.5-1.1-0.8s-0.4-0.8-0.4-1.2c0-0.7,0.3-1.3,0.8-1.8c0.5-0.5,1.2-0.7,2.1-0.7
					c0.9,0,1.6,0.3,2.1,0.8c0.5,0.5,0.8,1.1,0.8,1.9c0,0.5-0.1,0.9-0.4,1.2c-0.2,0.3-0.6,0.6-1.1,0.8c0.6,0.2,1.1,0.5,1.4,1
					s0.5,1,0.5,1.6c0,0.9-0.3,1.6-0.9,2.2c-0.6,0.6-1.4,0.9-2.4,0.9c-1,0-1.8-0.3-2.4-0.9c-0.6-0.6-0.9-1.3-0.9-2.2
					c0-0.7,0.2-1.2,0.5-1.6C712.1,8,712.6,7.7,713.2,7.6z M712.5,10.1c0,0.4,0.1,0.7,0.2,1c0.2,0.3,0.4,0.6,0.7,0.8
					c0.3,0.2,0.7,0.3,1.1,0.3c0.6,0,1.1-0.2,1.5-0.6s0.6-0.9,0.6-1.4c0-0.6-0.2-1.1-0.6-1.5c-0.4-0.4-0.9-0.6-1.5-0.6
					c-0.6,0-1.1,0.2-1.4,0.6C712.7,9.1,712.5,9.5,712.5,10.1z M712.9,5.5c0,0.5,0.2,0.9,0.5,1.2c0.3,0.3,0.7,0.5,1.2,0.5
					c0.5,0,0.9-0.1,1.2-0.4c0.3-0.3,0.5-0.7,0.5-1.1c0-0.5-0.2-0.8-0.5-1.1c-0.3-0.3-0.7-0.5-1.2-0.5c-0.5,0-0.9,0.2-1.2,0.5
					C713.1,4.7,712.9,5.1,712.9,5.5z"/>
				<path d="M719.8,8.1c0-1.2,0.1-2.1,0.4-2.9c0.2-0.7,0.6-1.3,1.1-1.7c0.5-0.4,1.1-0.6,1.8-0.6c0.5,0,1,0.1,1.4,0.3
					c0.4,0.2,0.7,0.5,1,0.9c0.3,0.4,0.5,0.9,0.6,1.5c0.2,0.6,0.2,1.4,0.2,2.4c0,1.2-0.1,2.1-0.4,2.8c-0.2,0.7-0.6,1.3-1.1,1.7
					c-0.5,0.4-1.1,0.6-1.8,0.6c-1,0-1.7-0.3-2.3-1C720.1,11.3,719.8,9.9,719.8,8.1z M721,8.1c0,1.6,0.2,2.7,0.6,3.3
					c0.4,0.5,0.9,0.8,1.4,0.8c0.6,0,1-0.3,1.4-0.8c0.4-0.5,0.6-1.6,0.6-3.3c0-1.6-0.2-2.7-0.6-3.3C724.1,4.2,723.6,4,723,4
					c-0.6,0-1,0.2-1.4,0.7C721.3,5.3,721,6.4,721,8.1z"/>
				<path d="M728.3,8.1c0-1.2,0.1-2.1,0.4-2.9c0.2-0.7,0.6-1.3,1.1-1.7c0.5-0.4,1.1-0.6,1.8-0.6c0.5,0,1,0.1,1.4,0.3
					c0.4,0.2,0.7,0.5,1,0.9c0.3,0.4,0.5,0.9,0.6,1.5c0.2,0.6,0.2,1.4,0.2,2.4c0,1.2-0.1,2.1-0.4,2.8c-0.2,0.7-0.6,1.3-1.1,1.7
					c-0.5,0.4-1.1,0.6-1.8,0.6c-1,0-1.7-0.3-2.3-1C728.6,11.3,728.3,9.9,728.3,8.1z M729.5,8.1c0,1.6,0.2,2.7,0.6,3.3
					c0.4,0.5,0.9,0.8,1.4,0.8c0.6,0,1-0.3,1.4-0.8c0.4-0.5,0.6-1.6,0.6-3.3c0-1.6-0.2-2.7-0.6-3.3c-0.4-0.5-0.9-0.8-1.4-0.8
					c-0.6,0-1,0.2-1.4,0.7C729.7,5.3,729.5,6.4,729.5,8.1z"/>
			</g>
		</g>
		<rect x="738" y="2324" width="107" height="150"/>
		<g class="st4">
			<path class="st0" d="M758.4,2434.3c-0.5,0.9-1.1,1.8-1.7,2.6c-0.1-0.3-0.4-0.8-0.5-1c1.4-1.7,2.7-4.5,3.5-7.2l1.3,0.4
				c0,0.1-0.2,0.2-0.4,0.2c-0.4,1.1-0.8,2.1-1.2,3.2l0.4,0.1c0,0.1-0.1,0.2-0.3,0.2v10.7h-1V2434.3z M771.4,2430.9h-3.3v3.2h3v9h-1
				v-0.9h-8v1h-1v-9.1h2.9v-3.2h-3.2v-1h10.7V2430.9z M762.1,2435v6.2h2v-6.2H762.1z M767.1,2434v-3.2h-2v3.2H767.1z M767.1,2435h-2
				v6.2h2V2435z M770.1,2441.2v-6.2H768v6.2H770.1z"/>
			<path class="st0" d="M786,2430.2c0.3,0,0.3,0,0.5,0l0.7,0.4c0,0.1-0.1,0.1-0.2,0.1c-0.6,1.6-1.5,3.1-2.6,4.2
				c1.1,1,2.5,1.8,4.1,2.3c-0.2,0.2-0.5,0.6-0.7,0.9c-0.3-0.1-0.5-0.2-0.7-0.3v5.5H786v-0.7h-4.7v0.8h-1v-5.4
				c-0.4,0.2-0.9,0.4-1.3,0.6c-0.1-0.3-0.4-0.7-0.6-0.9l0.1,0c-0.3-0.5-0.9-1.4-1.4-2.2v7.9h-1v-8c-0.6,1.9-1.4,3.8-2.3,4.9
				c-0.1-0.3-0.4-0.7-0.6-0.9c1.1-1.4,2.2-4,2.7-6.3h-2.4v-1h2.5v-3.5l1.3,0.1c0,0.1-0.1,0.2-0.3,0.2v3.2h2.2v1h-2.2v1.2
				c0.5,0.5,1.8,2.2,2.1,2.7c-0.3,0.4-0.4,0.6-0.5,0.7c1.5-0.5,3-1.4,4.3-2.6c-0.8-0.8-1.4-1.7-1.8-2.6c-0.5,0.7-1.1,1.4-1.7,1.9
				c-0.2-0.2-0.5-0.5-0.8-0.7c1.4-1.1,2.7-3.1,3.4-5.1l1.3,0.4c0,0.1-0.2,0.2-0.4,0.1c-0.2,0.4-0.4,0.8-0.6,1.2H786z M786.1,2437.4
				c-0.9-0.5-1.8-1.1-2.5-1.8c-0.8,0.7-1.6,1.3-2.4,1.8H786.1z M781.3,2441.7h4.7v-3.3h-4.7V2441.7z M781.9,2431.2l-0.2,0.3
				c0.4,0.9,1.1,1.9,1.9,2.8c0.8-0.9,1.5-1.9,2-3H781.9z"/>
			<path class="st0" d="M794.4,2445.4h-1.5c-0.8-1.2-1.4-2.5-1.8-3.8c-0.4-1.3-0.6-2.6-0.6-3.8c0-1.5,0.3-2.9,0.8-4.3
				c0.4-1.2,1-2.2,1.7-3.2h1.5c-0.7,1.6-1.2,2.9-1.5,4c-0.3,1.1-0.4,2.3-0.4,3.5c0,0.9,0.1,1.7,0.2,2.6c0.2,0.9,0.4,1.7,0.7,2.6
				C793.6,2443.6,793.9,2444.4,794.4,2445.4z"/>
			<path class="st0" d="M810.3,2429.6v12.3c0,1.4-0.6,1.5-3.6,1.5c-0.1-0.3-0.3-0.8-0.4-1.1c0.6,0,1.1,0,1.6,0c1.3,0,1.4,0,1.4-0.4
				v-5.2H798v6.7H797v-13.8H810.3z M798,2430.7v4.9h5v-4.9H798z M804.1,2435.6h5.1v-4.9h-5.1V2435.6z"/>
			<path class="st0" d="M812.7,2445.4c0.4-0.9,0.7-1.6,0.9-2.1c0.2-0.5,0.3-1.1,0.5-1.7c0.2-0.6,0.3-1.3,0.3-1.8
				c0.1-0.6,0.1-1.2,0.1-1.8c0-1.2-0.1-2.4-0.4-3.5s-0.8-2.4-1.5-4h1.5c0.8,1.1,1.4,2.3,1.8,3.6c0.4,1.3,0.7,2.5,0.7,3.8
				c0,1.1-0.2,2.3-0.5,3.5c-0.4,1.4-1,2.8-1.9,4.1H812.7z"/>
		</g>
		<g class="st4">
			<path class="st0" d="M774.1,2372v-11.5h2.3v11.5H774.1z"/>
			<path class="st0" d="M779.4,2360.5h4.2c1,0,1.7,0.1,2.2,0.2c0.7,0.2,1.2,0.5,1.7,1.1c0.5,0.5,0.8,1.1,1.1,1.9s0.4,1.6,0.4,2.7
				c0,0.9-0.1,1.8-0.4,2.4c-0.3,0.8-0.7,1.5-1.2,2c-0.4,0.4-0.9,0.7-1.6,0.9c-0.5,0.2-1.2,0.2-2,0.2h-4.4V2360.5z M781.7,2362.5v7.6
				h1.7c0.6,0,1.1,0,1.4-0.1c0.4-0.1,0.7-0.3,0.9-0.5c0.2-0.2,0.4-0.6,0.6-1.1s0.2-1.2,0.2-2.1s-0.1-1.6-0.2-2s-0.4-0.8-0.7-1.1
				s-0.6-0.4-1.1-0.5c-0.3-0.1-1-0.1-1.9-0.1H781.7z"/>
			<path class="st0" d="M794.6,2365.6v-2.1c-0.8,1-1.9,1.9-2.9,2.5c-0.1-0.2-0.4-0.6-0.6-0.8c1.2-0.5,2.5-1.6,3.2-2.7h-3.2v-0.9h3.4
				v-3.1l1.3,0.1c0,0.1-0.1,0.2-0.3,0.2v2.8h3.4v0.9h-3.4v0.4c0.7,0.4,2.4,1.5,2.8,1.8l-0.6,0.8c-0.4-0.4-1.4-1.2-2.2-1.7v1.9H794.6
				z M799.1,2368.1h-1.4c-0.2,1-0.6,1.8-1.1,2.5c0.7,0.4,1.4,0.8,1.9,1.1l-0.7,0.8c-0.5-0.4-1.1-0.8-1.8-1.2c-0.9,0.8-2.2,1.5-4,1.9
				c-0.1-0.3-0.3-0.7-0.5-0.9c1.5-0.3,2.7-0.8,3.5-1.5c-0.6-0.3-1.2-0.6-1.9-0.8l-0.3,0.6l-0.9-0.4c0.4-0.6,0.8-1.4,1.2-2.2h-1.8
				v-0.9h2.3c0.3-0.5,0.5-1.1,0.7-1.5l1.3,0.3c0,0.1-0.1,0.2-0.4,0.1c-0.2,0.3-0.3,0.7-0.5,1.1h4.5V2368.1z M792.7,2359
				c0.5,0.7,0.9,1.5,1.1,2.1l-0.8,0.4c-0.2-0.6-0.6-1.5-1.1-2.2L792.7,2359z M794.1,2368.1c-0.2,0.4-0.4,0.8-0.6,1.2
				c0.7,0.3,1.4,0.6,2.1,0.9c0.5-0.6,0.8-1.3,1-2.1H794.1z M796.3,2361.1c0.4-0.6,1-1.5,1.3-2.2l1.1,0.5c0,0.1-0.2,0.1-0.3,0.1
				c-0.3,0.6-0.9,1.4-1.4,1.9L796.3,2361.1z M806,2362.5H805c-0.4,2.6-1,4.8-2,6.6c0.8,1.5,1.9,2.6,3.2,3.3
				c-0.3,0.2-0.6,0.6-0.8,0.9c-1.3-0.8-2.3-1.9-3.1-3.2c-1,1.3-2.2,2.4-3.9,3.2c-0.1-0.3-0.4-0.7-0.6-0.9c1.7-0.8,3-1.9,3.9-3.4
				c-0.7-1.4-1.2-2.9-1.5-4.6c-0.3,0.7-0.7,1.4-1,1.9c-0.2-0.2-0.6-0.5-0.8-0.7c1.1-1.6,2-4.4,2.4-7.2l1.4,0.3
				c0,0.1-0.1,0.2-0.4,0.2c-0.2,0.8-0.4,1.7-0.6,2.5h4.8V2362.5z M800.9,2362.5l0,0.2c0.3,1.9,0.8,3.7,1.5,5.3
				c0.7-1.5,1.2-3.3,1.5-5.4H800.9z"/>
		</g>
	</g>
</g>
</svg>
