<?xml version="1.0" encoding="utf-8"?>
<!-- Generator: Adobe Illustrator 24.2.0, SVG Export Plug-In . SVG Version: 6.00 Build 0)  -->
<svg version="1.1" id="レイヤー_1" xmlns="http://www.w3.org/2000/svg" xmlns:xlink="http://www.w3.org/1999/xlink" x="0px"
	 y="0px" viewBox="0 0 512 129.4" style="enable-background:new 0 0 512 129.4;" xml:space="preserve">
<style type="text/css">
	.st0{enable-background:new    ;}
</style>
<g id="グループ_34" transform="translate(-282.159 -393)">
	<g class="st0">
		<path d="M297.5,475.6c-1.6,0-1.6,0-1.9,0c-5.6,0-6.8-0.3-8-2c-0.9,0.7-1.1,0.9-2.9,2c-0.1,0.1-0.2,0.1-0.5,0.3l-0.7-1.3
			c0.2-0.1,0.2-0.1,0.4-0.2c0,0,0.1,0,0.2-0.1c1-0.5,1.8-1,2.8-1.7v-3.4h-1.6c-0.9,0-1.2,0-1.6,0.1V468c0.5,0.1,0.9,0.1,1.7,0.1h1.2
			c0.7,0,1.2,0,1.7-0.1c-0.1,0.5-0.1,0.9-0.1,2v2.5c0.5,0.9,1,1.3,1.8,1.6c0.7,0.3,1.9,0.4,4.4,0.4c4.6,0,7.2-0.1,9-0.3
			c-0.3,0.5-0.4,0.7-0.5,1.3c-0.8,0-2.6,0.1-4.1,0.1v1.3h1.6c1,0,1.7,0,2.3-0.1v1.4c-0.6-0.1-1.3-0.1-2.3-0.1h-1.6v2.5
			c0,1.3-0.4,1.5-2.5,1.5c-0.7,0-1.2,0-1.9,0c-0.1-0.6-0.2-0.9-0.4-1.3c1.1,0.1,1.8,0.2,2.5,0.2c0.8,0,1-0.1,1-0.6V478H286
			c-1,0-1.6,0-2.3,0.1v-1.4c0.6,0.1,1.3,0.1,2.3,0.1h11.5V475.6z M285,462.3c1.4,1.1,2,1.6,3.2,2.9l-1,1c-1-1.3-1.7-2-3.1-3.1
			L285,462.3z M291.2,481.6c-1-1.2-1.7-1.9-3-2.8l1-0.8c1.3,0.8,2,1.5,3.1,2.6L291.2,481.6z M292.8,464c-0.4-0.6-0.7-1.2-1.3-1.8
			l1.3-0.3c0.5,0.6,0.9,1.3,1.3,2.1h2.6c0.6-0.7,1-1.3,1.5-2.1l1.3,0.4c-0.5,0.7-0.9,1.2-1.4,1.7h2.2c1.1,0,1.7,0,2.2-0.1v1.3
			c-0.6-0.1-1.2-0.1-2.2-0.1h-4.2c-0.2,0.5-0.4,0.9-0.6,1.3h3.3c1.1,0,1.7,0,2.1-0.1c-0.1,0.6-0.1,1.1-0.1,1.9v3.3
			c0,0.9,0,1.5,0.1,2c-0.5,0-1-0.1-1.8-0.1h-6.6c-0.8,0-1.5,0-2.2,0.1c0-0.4,0.1-0.9,0.1-1.8v-3.5c0-0.9,0-1.4-0.1-1.9
			c0.5,0.1,1.2,0.1,2.3,0.1h1.5c0.3-0.4,0.4-0.7,0.7-1.3h-3.6c-1,0-1.6,0-2.3,0.1v-1.3c0.6,0.1,1.1,0.1,2.2,0.1H292.8z M291.7,468.4
			h7.9v-1.1h-7.9V468.4z M291.7,470.3h7.9v-1.1h-7.9V470.3z M291.7,472.4h7.9v-1.1h-7.9V472.4z"/>
		<path d="M312.5,464.9c-0.4,0-0.9,0-1.7,0.1v-1.6c0.4,0.1,0.9,0.1,1.7,0.1h2.9c1.1,0,1.6,0,2-0.1c-0.1,0.5-0.1,1-0.1,1.5
			c0,2.8,0.6,5.2,1.9,7.7c0.9,1.7,1.9,3.1,3.3,4.6c1.3,1.3,2.1,2,4.1,3.2c-0.6,0.5-0.7,0.7-1.2,1.4c-1.9-1.3-2.9-2.2-4.3-3.8
			c-1.3-1.5-2.4-3.1-3.1-4.8c-0.7-1.4-1-2.4-1.4-4.1c-0.7,2.9-1.6,5-3.1,7.1c-0.8,1.2-1.8,2.3-3,3.3c-0.8,0.7-1.4,1.2-2.8,2.2
			c-0.4-0.6-0.6-0.9-1.2-1.3c2.4-1.5,3.7-2.6,5.1-4.3c1.6-1.9,2.7-4,3.4-6.4c0.4-1.5,0.6-2.6,0.7-4.8H312.5z"/>
		<path d="M333.3,478.9c-1.8,0-1.8,0-2.4,0.1v-1.7c0.7,0.1,1,0.2,2.4,0.2h10.5v-10.6h-10c-1.3,0-1.8,0-2.5,0.1v-1.8
			c0.8,0.1,1.1,0.2,2.5,0.2h10.6c0.3,0,0.6,0,1.1,0c0,0.5,0,0.9,0,1.7v11.3c0,0.8,0,1.6,0.1,2h-1.8v-1.3H333.3z"/>
		<path d="M367.2,480.6c-1.7-2.2-4.2-4.6-7-6.8c-1.5,1.8-2.6,2.8-4.2,3.9c-1.5,1.1-2.7,1.8-4.3,2.6c-0.4-0.7-0.5-0.9-1.1-1.5
			c1.7-0.7,2.8-1.3,4.5-2.5c3.5-2.6,6.2-6.1,7.9-9.9c0-0.1,0.1-0.2,0.1-0.3c0-0.1,0-0.1,0.1-0.2c-0.2,0-0.3,0-0.5,0l-7.3,0.1
			c-1,0-1.6,0.1-2.3,0.2l0-1.8c0.6,0.1,1,0.1,1.7,0.1c0.1,0,0.3,0,0.6,0l7.9-0.1c0.8,0,1,0,1.4-0.2l0.9,0.9
			c-0.2,0.3-0.4,0.5-0.6,1.1c-1.2,2.7-2.3,4.5-3.6,6.2c2.9,2.2,4.8,3.9,7.3,6.6L367.2,480.6z"/>
		<path d="M375,481.1c0.1-0.6,0.1-1.1,0.1-2.3v-13.7c0-1.2,0-1.7-0.1-2.2h1.9c-0.1,0.6-0.1,1-0.1,2.3v4.1c3.4,1.2,5.9,2.4,9.8,4.6
			l-0.9,1.6c-2.1-1.5-5.1-3.1-8.2-4.4c-0.3-0.1-0.5-0.2-0.7-0.4l0,0c0.1,0.4,0.1,0.7,0.1,1.3v6.6c0,1.2,0,1.7,0.1,2.3H375z"/>
		<path d="M396.9,465.6c0.7-1.5,1-2.3,1.1-3l1.8,0.3c-0.2,0.3-0.2,0.3-0.6,1.2c-0.3,0.7-0.6,1.3-0.7,1.5c0.3,0,0.3,0,0.5,0
			c3.5-0.2,5.7-0.4,6.9-0.8l0.1,1.5c-0.4,0-0.5,0-0.9,0.1c-2.3,0.3-4.6,0.5-7.3,0.6c-0.7,1.3-1.2,2.2-2,3.1
			c-0.2,0.3-0.7,0.8-0.7,0.8c-0.2,0.1-0.3,0.2-0.3,0.2c0,0,0,0,0,0c0,0,0,0,0,0c0,0,0,0,0,0.1c0.8-0.6,0.8-0.6,1-0.8
			c1-0.7,2.2-1.1,3.3-1.1c1.6,0,2.6,0.8,2.9,2.4c1.6-0.6,2.9-1.1,3.8-1.5c1.1-0.4,1.1-0.4,1.5-0.6l0.7,1.5c-1.1,0.2-3.1,0.9-5.9,1.9
			c0,0.6,0,0.8,0,1.3c0,0.3,0,0.8,0,1.2c0,0.5,0,0.8,0,1c0,0.3,0,0.5,0,0.8l-1.5,0c0.1-0.5,0.1-1.8,0.1-3.2c0-0.4,0-0.4,0-0.7
			c-3,1.4-4.1,2.4-4.1,3.8c0,1.5,1.4,2.1,4.5,2.1c2.2,0,4.6-0.4,5.9-0.9l0.2,1.7c-0.3,0-0.4,0-0.9,0.1c-1.7,0.3-3.7,0.4-5.3,0.4
			c-3.9,0-5.9-1.1-5.9-3.4c0-1.2,0.7-2.4,2.2-3.5c0.7-0.5,1.8-1.1,3.3-1.8c-0.2-1.2-0.7-1.7-1.7-1.7c-1.4,0-3.1,0.8-4.9,2.3
			c-0.9,0.7-1.3,1.2-1.7,1.8l-1.2-1.2c1.5-1.2,3.3-3.5,4.9-6.3c0.1-0.1,0.1-0.1,0.2-0.3c-0.1,0-0.3,0-0.4,0c-0.4,0-2.4,0-3.2-0.1
			c-0.1,0-0.3,0-0.4,0c-0.2,0-0.2,0-0.5,0l0-1.5c0.8,0.2,2.5,0.2,4.7,0.2H396.9z"/>
		<path d="M414.1,471.7c-0.8,0-1.3,0-2,0.1v-1.4c0.5,0.1,1,0.1,2,0.1h15.8c1,0,1.5,0,2-0.1v1.4c-0.7-0.1-1.2-0.1-2-0.1h-8.4v8.3
			c0,1,0,1.5,0.1,2h-1.5c0.1-0.5,0.1-1.1,0.1-2v-0.6c-2.8,0.5-2.8,0.5-6.2,1c-0.6,0.1-1,0.2-1.6,0.3l-0.4-1.5c0.3,0,0.3,0,0.4,0
			c0.4,0,1.1,0,2-0.1v-7.5H414.1z M429.4,467.6c0,0.8,0,1.2,0.1,1.7c-0.7-0.1-1.4-0.1-2.3-0.1h-10.1c-1,0-1.6,0-2.4,0.1
			c0.1-0.5,0.1-1,0.1-1.7v-3c0-0.7,0-1.3-0.1-1.8c0.7,0.1,1.4,0.1,2.4,0.1h9.9c1,0,1.6,0,2.4-0.1c-0.1,0.5-0.1,1-0.1,1.8V467.6z
			 M415.8,473.3h4.4v-1.6h-4.4V473.3z M415.8,476h4.4v-1.6h-4.4V476z M415.8,479.1c1.9-0.2,2.5-0.3,4.4-0.7V477h-4.4V479.1z
			 M416.1,465.6h11.9v-1.5h-11.9V465.6z M416.1,468.2h11.9v-1.5h-11.9V468.2z M430.7,474c-0.2,0.2-0.2,0.3-0.4,0.6
			c-1.1,1.9-1.7,2.8-2.7,3.8c1.2,1,2.5,1.6,4.2,2.2c-0.3,0.3-0.6,0.8-0.8,1.2c-1.9-0.8-3.1-1.6-4.3-2.6c-1.3,1.1-2.1,1.6-3.8,2.4
			c-0.3-0.5-0.4-0.7-0.9-1.1c1.8-0.7,2.7-1.2,3.8-2.2c-1.1-1.2-1.7-2.2-2.4-4c-0.4,0-0.6,0-1.1,0.1v-1.3c0.5,0.1,1,0.1,1.9,0.1h4.1
			c0.8,0,1.3,0,1.7-0.1L430.7,474z M424.6,474.4c0.7,1.5,1.1,2.2,2.1,3.2c0.9-0.9,1.5-1.7,2.3-3.2H424.6z"/>
		<path d="M435.4,470.8c0.5,0.1,0.9,0.1,1.7,0.1h1.1c0.6,0,1.2,0,1.7-0.1c-0.1,0.7-0.1,1.2-0.1,2.3v4.3c0.3,0.7,0.6,1,1.1,1.4
			c1.1,0.9,2.5,1.2,5.1,1.2c4.4,0,7.5-0.1,9.7-0.4c-0.3,0.7-0.4,0.9-0.5,1.6c-2.4,0.1-4.6,0.2-7.5,0.2c-3.7,0-5-0.2-6.2-0.7
			c-0.9-0.4-1.6-1.1-2.3-2.1c-1.1,1.1-1.4,1.4-2.7,2.4c0,0-0.2,0.2-0.5,0.4c0,0-0.1,0.1-0.2,0.1l-0.7-1.5c1-0.5,2.2-1.4,3.5-2.6
			v-5.3H437c-0.7,0-1.1,0-1.6,0.1V470.8z M436.7,462.6c1.5,1.4,2.3,2.3,3.5,3.9l-1.1,1c-1.2-1.7-2-2.7-3.4-4L436.7,462.6z
			 M452.7,463.9c1,0,1.7,0,2.3-0.1v1.4c-0.7-0.1-1.2-0.1-2.2-0.1h-1c-0.3,0.7-0.6,1.3-1,2.1h1.2c1.1,0,1.7,0,2.3-0.1
			c-0.1,0.7-0.1,1.3-0.1,2.4v7.8c0,1.4-0.4,1.6-2.3,1.6c-0.4,0-0.9,0-1.6,0c-0.1-0.6-0.1-0.8-0.3-1.3c0.7,0.1,1.5,0.2,2.1,0.2
			c0.6,0,0.8-0.1,0.8-0.5v-8.9h-9.7v8.1c0,1.1,0,2,0.1,2.5h-1.5c0.1-0.6,0.1-1.5,0.1-2.5v-6.9c0-1.2,0-1.6-0.1-2.3
			c0.7,0,1.1,0.1,2.5,0.1h0.9c-0.3-0.8-0.6-1.5-0.9-2.1h-1c-1.1,0-1.7,0-2.3,0.1v-1.4c0.6,0.1,1.3,0.1,2.3,0.1h3.9
			c0-1,0-1.3-0.1-1.8h1.6c-0.1,0.6-0.1,0.8-0.1,1.8H452.7z M445.8,471.2c-0.7,0-1.3,0-1.9,0.1V470c0.6,0.1,1.1,0.1,1.9,0.1h1.6
			c0-0.7,0-1-0.1-1.5h1.3c-0.1,0.5-0.1,0.7-0.1,1.5h1.7c0.9,0,1.3,0,1.9-0.1v1.2c-0.6-0.1-1.2-0.1-1.9-0.1h-1.7v1.7h0.8
			c0.8,0,1.3,0,1.8-0.1c-0.1,0.5-0.1,0.9-0.1,1.6v1.2c0,0.9,0,1.1,0,1.5c-0.4,0-1-0.1-1.6-0.1H446v1.1h-1.3c0-0.5,0.1-1,0.1-1.6
			v-2.1c0-0.6,0-1-0.1-1.6c0.5,0.1,0.8,0.1,1.7,0.1h0.9v-1.7H445.8z M449.4,467.1c0.3-0.6,0.6-1.3,0.9-2.1h-4.7
			c0.4,0.7,0.7,1.5,0.9,2.1H449.4z M446,475.9h3.8v-2.1H446V475.9z"/>
		<path d="M462.3,472.4c0-1.2,0-1.5,0-2.7c-0.7,1.2-1.5,2.3-2.8,3.7c-0.2-0.4-0.6-0.9-0.9-1.3c2.3-2.3,3.9-4.6,5-7.4
			c0.5-1.2,0.6-1.8,0.7-2.6l1.6,0.5c-0.1,0.2-0.1,0.2-0.5,1.2c-0.2,0.5-0.9,2.3-1.8,4.1v11.5c0,0.9,0,1.8,0.1,2.7h-1.7
			c0.1-0.9,0.2-1.7,0.2-2.7V472.4z M469.7,479.1c0,0.8,0.3,0.9,2.9,0.9c2.5,0,3.3-0.1,3.7-0.5c0.4-0.5,0.6-1.7,0.7-4
			c0.5,0.4,1,0.5,1.5,0.7c-0.3,2.4-0.6,3.7-1,4.3c-0.5,0.7-1.6,0.9-4.9,0.9c-3.7,0-4.2-0.3-4.2-2v-14.6c0-1-0.1-1.8-0.1-2.4h1.7
			c-0.1,0.6-0.1,1.4-0.1,2.4v6.2c1.5-0.8,2.6-1.6,3.9-2.5c1.5-1.2,2.4-2,3.1-3.1l1.3,1.2c-0.3,0.3-0.3,0.3-1.3,1.2
			c-1.9,1.7-4,3.2-6.9,4.8V479.1z"/>
		<path d="M486.3,463.3c-0.1,0.7-0.2,1.9-0.3,4.6c-0.1,2.6-0.2,5.6-0.2,6.6c0,0.3,0,0.8,0,1.3c0.1,1.3,0.4,2,1,2.6
			c0.6,0.6,1.6,0.9,2.8,0.9c2.6,0,4.6-1.3,5.9-3.8c0.5-1.1,0.8-1.9,1.1-3.5c0.6,0.5,0.9,0.7,1.6,1.1c-0.8,2.6-1.5,3.9-2.4,5
			c-1.6,1.8-3.6,2.8-6.2,2.8c-1.9,0-3.3-0.5-4.1-1.5c-0.9-1-1.2-2.2-1.2-4.5c0-1.5,0-2,0.2-9c0-0.7,0-1.1,0-1.4c0-0.5,0-0.7-0.1-1.2
			H486.3z"/>
		<path d="M501.5,467.8c0.7,0,0.7,0,4.6-0.9c2.4-0.6,4.6-0.8,6.4-0.8c4,0,6.6,2.1,6.6,5.5c0,2.8-1.6,5.1-4.6,6.5
			c-2,1-3.9,1.4-7.3,1.7c-0.2-0.8-0.3-1-0.7-1.6c2.5-0.1,4.4-0.4,6.1-1c3-1.1,4.7-3.1,4.7-5.5s-1.8-4-4.8-4c-2.3,0-5.2,0.5-9,1.6
			c-0.9,0.3-1.2,0.4-1.6,0.5L501.5,467.8z"/>
		<path d="M523.2,467.8c0.7,0,0.7,0,4.6-0.9c2.4-0.6,4.6-0.8,6.4-0.8c4,0,6.6,2.1,6.6,5.5c0,2.8-1.6,5.1-4.6,6.5
			c-2,1-3.9,1.4-7.3,1.7c-0.2-0.8-0.3-1-0.7-1.6c2.5-0.1,4.4-0.4,6.1-1c3-1.1,4.7-3.1,4.7-5.5s-1.8-4-4.8-4c-2.3,0-5.2,0.5-9,1.6
			c-0.9,0.3-1.2,0.4-1.6,0.5L523.2,467.8z"/>
		<path d="M548.6,469.5c-0.7,3.6-1.2,5.3-2.6,8.2l-1.3-0.8c0.7-1.4,1-2,1.5-3.4c0.5-1.6,0.7-2.5,1-4.4L548.6,469.5z M551.9,479.4
			c0,0.7,0.6,0.9,3.4,0.9c1.4,0,2.4-0.1,2.9-0.2c0.6-0.2,0.8-0.5,1-1.7c0.2-0.9,0.2-1.5,0.2-3c0.6,0.3,0.9,0.4,1.5,0.6
			c-0.3,3.5-0.6,4.7-1.5,5.2c-0.6,0.4-1.8,0.5-4.2,0.5c-3.7,0-4.6-0.4-4.6-1.9v-1.3c-1.7,1.3-2.6,1.8-4.6,2.9
			c-0.3-0.6-0.5-0.8-1.1-1.2c2.3-1.1,3.7-1.8,5.7-3.4v-7.8c0-0.7,0-1.2-0.2-2.1h1.7c-0.1,0.6-0.2,1.3-0.2,2.1v6.7
			c1.8-1.6,2.9-2.8,4.4-4.9c2-2.7,3.3-5.1,3.8-7.1l1.6,0.7c-0.2,0.4-0.3,0.6-0.7,1.5c-1.6,3.3-3.3,5.9-6,8.8c-1,1.1-1.5,1.5-3.1,2.9
			V479.4z M551.3,462c2.9,1.1,4.3,1.9,6.6,3.4l-0.9,1.3c-2-1.5-3.6-2.4-6.5-3.6L551.3,462z M561.5,469.2c1.5,2.4,2.5,4.6,3.7,7.9
			l-1.4,0.8c-0.6-2.1-1-3.1-1.7-4.8c-0.6-1.3-0.9-1.9-1.8-3.3L561.5,469.2z"/>
		<path d="M575.1,473.7c0.6-0.9,0.8-1.1,1.2-2h-3.7c-1.2,0-2,0-2.5,0.1c0.1-0.6,0.1-1,0.1-1.9v-1.6c0-0.9,0-1.4-0.1-2
			c0.6,0.1,1.4,0.1,2.4,0.1h2.5v-2.1h-3.9c-1.1,0-1.8,0-2.4,0.1V463c0.6,0.1,1.3,0.1,2.5,0.1h13.9c1.2,0,1.9,0,2.5-0.1v1.5
			c-0.6-0.1-1.3-0.1-2.4-0.1h-4.1v2.1h2.6c1.1,0,1.8,0,2.4-0.1c-0.1,0.6-0.1,1.1-0.1,2v1.6c0,1,0,1.4,0.1,1.9
			c-0.5-0.1-1.3-0.1-2.5-0.1h-5.7c-0.6,1.1-0.7,1.3-1.2,2h8.5c1.2,0,1.9,0,2.5-0.1v1.5c-0.7-0.1-1.4-0.1-2.5-0.1h-2.4
			c-0.7,1.5-1.4,2.4-2.6,3.5c2.7,0.9,4.6,1.6,7,2.6l-1,1.2c-2.5-1.2-4.2-1.9-7.3-2.9c-2.5,1.5-5.2,2.3-9.7,2.7
			c-0.2-0.5-0.3-0.8-0.6-1.4c3.7-0.1,6.2-0.6,8.6-1.8c-1.7-0.5-3.3-0.9-5.5-1.3c1-0.9,1.5-1.4,2.4-2.5h-3c-1.1,0-1.8,0-2.4,0.1v-1.5
			c0.6,0.1,1.3,0.1,2.4,0.1H575.1z M571.6,467.6v3.1h3.5v-3.1H571.6z M575.8,475c-0.6,0.7-0.9,1.1-1.7,1.9c2,0.5,2.8,0.7,4.5,1.2
			c1.3-1,2.1-1.8,2.6-3H575.8z M576.3,466.5h3.5v-2.1h-3.5V466.5z M576.3,470.6h3.5v-3.1h-3.5V470.6z M581.1,470.6h3.6v-3.1h-3.6
			V470.6z"/>
		<path d="M598.9,462.8c-0.2,0.4-0.2,0.5-0.4,1.4c-0.2,0.7-0.3,1.3-0.6,2.4c1.5-0.1,2.9-0.4,3.9-0.7l0.1,1.5c-0.2,0-0.2,0-0.8,0.1
			c-0.9,0.2-2.3,0.4-3.6,0.5c-0.7,2.4-1.5,4.4-2.4,6.4c-0.5,1.1-0.7,1.4-1.6,2.9c-0.2,0.3-0.3,0.6-0.4,0.7l-1.5-0.9
			c0.7-0.9,1.3-1.8,2.1-3.4c1-2,1.7-3.6,2.3-5.7c-0.5,0-1.3,0-1.6,0c-0.4,0-1.1,0-1.5,0c-0.2,0-0.4,0-0.5,0c0,0-0.2,0-0.3,0l0-1.5
			c0.7,0.1,1.4,0.2,2.6,0.2c0.4,0,1.2,0,1.6,0c0.4-1.3,0.7-3.1,0.7-4.1L598.9,462.8z M609.3,479.9c-0.9-1.1-2.2-2.2-3.9-3
			c0,0.4,0,0.5,0,0.7c0,2.3-1.5,3.5-4.2,3.5c-2.6,0-4.3-1.2-4.3-3.2c0-1.2,0.8-2.3,2-2.8c0.8-0.3,1.6-0.5,2.6-0.5
			c0.8,0,1.4,0.1,2.2,0.3c-0.1-1.4-0.2-2.5-0.2-3c0-0.8,0-1.3,0.2-2.1l1.5,0.2c-0.2,0.8-0.3,1.3-0.3,2c0,1,0.1,2.5,0.2,3.3
			c1.8,0.8,3.1,1.6,4.3,2.7c0.2,0.2,0.2,0.2,0.4,0.4L609.3,479.9z M601.6,476c-1.9,0-3.1,0.8-3.1,2c0,1.1,1.1,1.8,2.8,1.8
			c1.9,0,2.8-0.8,2.8-2.4c0-0.3,0-0.9,0-0.9C603.1,476.1,602.5,476,601.6,476z M609.3,470c-1.8-1.3-3.5-2.2-5.8-3l0.8-1.2
			c2.6,1,4,1.8,5.8,2.9L609.3,470z"/>
		<path d="M615.9,469.3c-0.8,0-1.5,0-1.9,0.1V468c0.5,0.1,1.1,0.1,1.9,0.1h2.4v-2.5h-1.7c-0.9,0-1.3,0-1.8,0.1v-1.3
			c0.4,0.1,0.9,0.1,1.8,0.1h1.7v-0.8c0-0.7,0-1.1-0.1-1.6h1.5c-0.1,0.4-0.1,0.8-0.1,1.6v0.8h1.2c0.7,0,1.1,0,1.4-0.1v1.3
			c-0.4,0-0.8-0.1-1.4-0.1h-1.2v2.5h0.7c1.7-1.7,3.1-3.7,3.6-5.1l1.3,0.6c-1.8,2.7-2.1,3.1-3.4,4.4h0.9c0.7,0,1.1,0,1.5-0.1v1.3
			c-0.4-0.1-0.8-0.1-1.5-0.1h-1.9c-0.8,0.8-1.6,1.5-2.6,2.2h2.4c1,0,1.2,0,1.6-0.1l0.7,0.8l-0.1,0.1c-0.1,0.1-0.1,0.1-0.4,0.4
			c-0.7,0.8-1.3,1.4-2.4,2.1v0.8c1.6-0.2,2.2-0.3,4-0.6v1.2c-1.8,0.3-2.5,0.4-4,0.6v3.3c0,1.2-0.4,1.5-2.1,1.5c-0.5,0-1.2,0-1.8-0.1
			c0-0.6-0.1-0.8-0.2-1.4c0.9,0.1,1.6,0.2,2.3,0.2c0.4,0,0.5-0.1,0.5-0.5V477c-1.2,0.1-1.5,0.2-3.7,0.3c-0.5,0-0.7,0.1-1.1,0.1
			l-0.2-1.4c0.2,0,0.5,0,0.7,0c0.8,0,2.8-0.1,4.3-0.3v-0.1c0-0.8,0-1.2-0.1-1.5h0.5c0.8-0.6,1.2-0.9,1.8-1.6h-4.3
			c-0.9,0.6-1.3,0.8-2.4,1.4c-0.3-0.5-0.5-0.7-0.9-1c2.2-1.1,4-2.2,5.7-3.7H615.9z M633.4,467.4c-0.5-0.1-0.7-0.1-1.5-0.1
			c-0.2,2-0.4,3.1-0.8,4.5c-0.5,1.6-1,3-1.8,4.3c1.2,1.9,2.6,3.4,4.6,4.7c-0.5,0.4-0.7,0.7-1.1,1.3c-1.9-1.5-3.1-2.8-4.4-4.8
			c-1.3,1.8-2.8,3.1-5.4,4.7c-0.3-0.6-0.6-0.9-1-1.2c2.7-1.5,4.3-2.8,5.7-4.8c-0.9-1.7-1.6-3.9-2-5.7c-0.5,0.9-0.9,1.6-1.6,2.5
			c-0.3-0.4-0.5-0.6-1-0.9c1.5-1.8,2.5-4,3.3-7.1c0.3-1.3,0.5-2.1,0.5-2.8l1.5,0.3c-0.1,0.3-0.1,0.3-0.3,0.9
			c-0.2,0.8-0.5,2.2-0.7,2.8h3.9c1,0,1.5,0,2.1-0.1V467.4z M627.1,467.2c-0.2,0.6-0.2,0.7-0.4,1.2c0.4,2.5,1,4.3,1.9,6.2
			c1.2-2.2,1.8-4.4,2-7.4H627.1z"/>
		<path d="M642.6,467.7c0.7,1.8,1.7,3.2,3.2,4.6c-0.4,0.4-0.6,0.7-0.8,1.2c-1.2-1.3-1.9-2.2-2.6-4c0.1,1.4,0.2,2.7,0.2,4.3v6.1
			c0,1,0,1.7,0.1,2.3H641c0.1-0.6,0.1-1.3,0.1-2.3V474c0-1.2,0-3,0.1-4.1c-0.9,3-1.9,5.2-3.6,7.3c-0.3-0.6-0.5-0.9-0.9-1.3
			c1.9-2.2,3.1-4.6,4.1-8.2h-1.6c-0.7,0-1.3,0-1.9,0.1v-1.5c0.6,0.1,1,0.1,1.9,0.1h1.8v-2.3c0-0.9,0-1.4-0.1-2.1h1.7
			c-0.1,0.6-0.1,1-0.1,2v2.3h1.4c0.6,0,1.1,0,1.7-0.1v1.5c-0.5-0.1-1.1-0.1-1.7-0.1H642.6z M648.6,467.7c-1,0-1.7,0-2.3,0.1v-1.5
			c0.6,0.1,1.2,0.1,2.2,0.1h3.9v-1.9c0-1,0-1.7-0.1-2.4h1.7c-0.1,0.8-0.1,1.4-0.1,2.4v1.9h1.1c0.9,0,1.4,0,2-0.1v1.5
			c-0.6-0.1-1.2-0.1-2-0.1h-1.1l0.1,12.2c0,1.4-0.4,1.7-2.4,1.7c-0.8,0-1.6,0-2.5-0.1c-0.1-0.6-0.2-0.9-0.4-1.5
			c1.1,0.2,1.8,0.2,2.7,0.2c1,0,1.2-0.1,1.2-0.5l0-10.5c-0.7,1.6-1.6,3-2.7,4.3c-1.3,1.7-2.5,2.8-4.7,4.4c-0.3-0.5-0.6-0.8-1-1.1
			c1.9-1.2,4-3.1,5.4-5.1c0.8-1.2,1.7-2.6,2.3-4.1H648.6z"/>
		<path d="M664.5,463.5c-0.9,2.2-1.7,6.7-1.7,10.3c0,0.8,0,2.1,0.1,3.1c0,0.2,0,0.2,0,0.6c0,0.2,0,0.2,0,0.4l0.1,0
			c0.4-1.7,0.6-2.1,1.3-3.9c0.1-0.2,0.1-0.3,0.2-0.4l1.1,0.5c-1,2.2-1.9,5-1.9,6.2c0,0.1,0,0.1,0,0.4l-1.6,0.2c0-0.2,0-0.3-0.1-0.8
			c-0.4-2-0.6-4.3-0.6-6.5c0-2.9,0.3-5.2,1.1-9c0.2-1,0.2-1.1,0.2-1.4L664.5,463.5z M666.7,467.5c1.1,0.3,2,0.4,4,0.4
			c0.9,0,1.5,0,2.4-0.1c0-2.1,0-2.1,0-3.7c0-0.4,0-0.7-0.1-0.9h1.7c-0.1,0.6-0.2,1.6-0.2,3.5c0,0.2,0,0.6,0,1.1
			c1.7-0.2,3-0.5,3.8-0.8l0.1,1.5c0,0,0,0-1.5,0.3c-0.6,0.1-1.2,0.2-2.3,0.4c0,2.2,0.1,3.3,0.2,6.2c1.6,0.7,2.2,1.1,3.7,2.2
			c0.3,0.2,0.3,0.2,0.5,0.4l-0.7,1.5c-0.7-0.8-1.6-1.4-3.1-2.3c-0.1,0-0.1,0-0.2-0.1c-0.1-0.1-0.1-0.1-0.2-0.1c0,0.3,0,0.4,0,0.6
			c0,0.6-0.1,1.1-0.3,1.5c-0.5,1.2-1.9,1.8-3.7,1.8c-2.6,0-4.2-1.2-4.2-3.1c0-1.8,1.7-3.1,4.2-3.1c0.9,0,1.9,0.2,2.4,0.4
			c-0.1-0.5-0.2-2.5-0.2-5.7c-1,0-1.7,0.1-2.5,0.1c-0.9,0-1.7,0-2.5-0.1c-0.4,0-0.6,0-0.7,0c-0.2,0-0.3,0-0.4,0c-0.1,0-0.2,0-0.2,0
			c0,0,0,0-0.1,0L666.7,467.5z M670.9,475.8c-1.7,0-2.8,0.7-2.8,1.8c0,1.1,1,1.8,2.6,1.8c1,0,1.8-0.3,2.2-0.8
			c0.3-0.3,0.4-0.9,0.4-1.7c0-0.2,0-0.7,0-0.7C672.4,475.9,671.8,475.8,670.9,475.8z"/>
		<path d="M692.9,462.4c1.2,1.8,2.4,3.1,4.3,4.5c1.8,1.3,3.6,2.4,5.4,3.1c-0.4,0.5-0.7,0.9-0.9,1.5c-2-1-3.9-2.2-5.6-3.5
			c-1.7-1.4-2.8-2.5-4-4.2c-1.1,1.6-2,2.6-3.5,4c-1.7,1.5-3.5,2.7-5.7,3.7c-0.3-0.5-0.5-0.8-1-1.3c1.9-0.8,4-2.1,5.5-3.4
			c1.6-1.3,2.8-2.7,3.7-4.2H692.9z M688,471.3c-0.9,0-1.5,0-2,0.1v-1.5c0.6,0.1,1.1,0.1,2,0.1h8.4c0.9,0,1.4,0,2-0.1v1.5
			c-0.6-0.1-1.1-0.1-2-0.1h-3.6v3.3h4.1c0.9,0,1.5,0,2-0.1v1.5c-0.6-0.1-1.1-0.1-2-0.1h-4.1v3.9h6.6c1,0,1.8,0,2.4-0.1v1.6
			c-0.7-0.1-1.5-0.2-2.4-0.2H685c-0.9,0-1.7,0-2.4,0.2v-1.6c0.6,0.1,1.4,0.1,2.5,0.1h6.2v-3.9h-3.7c-0.9,0-1.5,0-2,0.1v-1.5
			c0.5,0.1,1.1,0.1,2,0.1h3.7v-3.3H688z"/>
		<path d="M705.6,465.9c0.4,0,0.6,0,0.8,0c0.3,0,0.6,0,1.3-0.1c2.6-0.2,9.7-0.6,12.5-0.7c1.2,0,2.3-0.1,2.6-0.2l0.1,1.7
			c-0.9,0-1.6,0.1-2.5,0.3c-1.5,0.4-3,1.2-4.2,2.2c-1.8,1.5-2.7,3.3-2.7,5.1c0,1.8,1.1,3.3,3.1,4.1c1.1,0.4,2.5,0.7,3.3,0.7
			c0,0,0.1,0,0.2,0l-0.3,1.8c-0.2,0-0.3-0.1-0.7-0.1c-2.2-0.4-3.5-0.8-4.8-1.7c-1.6-1.1-2.4-2.7-2.4-4.5c0-2.6,1.5-5,4.1-6.8
			c0.7-0.5,1.3-0.8,2.1-1.2c-1.3,0.2-2.4,0.3-4.8,0.5c-4.6,0.3-6.5,0.5-7.6,0.7L705.6,465.9z"/>
		<path d="M726.4,471.7c0.3,0,0.5,0,0.8,0c0.2,0,0.5,0,0.9,0c0.7-1,0.7-1,1.4-2c-0.9-1.3-1.6-2.2-3-3.7l0.8-1c0.5,0.5,0.5,0.5,0.9,1
			c1-1.4,1.9-3.2,2-4l1.3,0.7c-0.2,0.2-0.3,0.5-0.8,1.4c-0.4,0.9-1,1.8-1.8,2.9c0.7,0.8,0.8,1,1.3,1.7c1.2-1.9,2-3.3,2.2-4.1
			l1.3,0.7c-0.2,0.2-0.3,0.4-0.5,0.8c-1,1.9-2.5,4-3.7,5.7c1.7-0.1,2-0.2,3.1-0.3c-0.3-0.9-0.4-1.1-0.8-1.9l0.9-0.4
			c0.7,1.3,1.2,2.5,1.7,4.1l-1.1,0.5c-0.1-0.6-0.2-0.8-0.3-1.3c-0.7,0.1-0.9,0.1-1.8,0.2v7.3c0,0.9,0,1.6,0.1,2.2h-1.5
			c0.1-0.7,0.1-1.4,0.1-2.2v-7.1c-1.3,0.1-1.3,0.1-2.5,0.2c-0.4,0-0.6,0-0.8,0.1L726.4,471.7z M728.7,474.2
			c-0.2,3.1-0.4,4.5-1.1,6.5l-1.2-0.5c0.7-1.9,1-3.3,1.1-6.1L728.7,474.2z M733,474c0.4,1.6,0.7,2.9,0.9,4.8l-1.2,0.3
			c-0.2-2-0.4-3.2-0.8-4.8L733,474z M734.6,465.2c0-1.3,0-1.8-0.1-2.4c0.5,0.1,1.1,0.1,2.2,0.1h6.8c1.2,0,1.8,0,2.4-0.1
			c-0.1,0.6-0.1,1.4-0.1,2.6v14.7c0,1.4-0.4,1.7-2,1.7c-0.6,0-1.6,0-2.4-0.1c0-0.5-0.1-0.9-0.3-1.4c1.2,0.2,1.8,0.3,2.6,0.3
			c0.6,0,0.7-0.1,0.7-0.6v-16h-8.7v15.5c0,1.4,0,2,0.1,2.6h-1.5c0.1-0.6,0.1-1.3,0.1-2.6V465.2z M740.5,468.6c0.7-1.6,1.1-2.5,1.4-4
			l1.2,0.5c-0.5,1.4-0.9,2.4-1.5,3.5h0.5c0.7,0,1.3,0,1.8-0.1v1.3c-0.6-0.1-1.1-0.1-1.8-0.1h-1.4v2.3h1.4c0.7,0,1.3,0,1.8-0.1v1.3
			c-0.6-0.1-1.2-0.1-1.8-0.1h-2.9v3.3c0,0.6,0.2,0.7,1.8,0.7c0.9,0,1.7-0.1,2.2-0.2l0.1,1.3c-0.8,0.1-1.5,0.1-2.4,0.1
			c-2.3,0-2.9-0.3-2.9-1.5v-3.7c-0.8,0-1.1,0-1.6,0.1v-1.3c0.4,0.1,1,0.1,1.8,0.1h1.3v-2.3h-1.3c-0.8,0-1.3,0-1.8,0.1v-1.3
			c0.5,0.1,1,0.1,1.8,0.1H740.5z M738.1,464.7c0.6,1.1,0.9,1.8,1.4,3.1l-1.1,0.4c-0.4-1.3-0.7-2-1.3-3L738.1,464.7z"/>
		<path d="M750.1,474.3c0.4,0.1,0.6,0.1,1.1,0.1c0.4,0,0.5,0,0.7,0c0.7-0.6,0.9-0.9,1.5-1.5c-1.1-1.4-1.9-2.2-2.9-2.9l0.8-0.9
			c0.5,0.5,0.7,0.6,1.1,1c0.8-0.9,1.4-1.8,1.7-2.6l1.2,0.7c-0.2,0.3-0.3,0.4-0.8,1.1c-0.4,0.6-0.8,1.1-1.3,1.6
			c0.4,0.4,0.5,0.5,1,1.2c1.3-1.5,2-2.4,2.4-3.2l1.2,0.8c-0.4,0.4-0.5,0.5-1.1,1.3c-1.1,1.3-1.7,2-3.1,3.3c1.5-0.1,2.2-0.2,3.4-0.3
			c-0.2-0.5-0.4-0.7-0.8-1.4l1-0.4c0.7,1.1,1,1.7,1.6,3.3l-1,0.5c-0.2-0.5-0.2-0.6-0.4-1c-1.4,0.2-1.4,0.2-2.1,0.3v4.5
			c0,1.1,0,1.6,0.1,2.2h-1.5c0.1-0.7,0.1-1.1,0.1-2.2v-4.4c-1,0.1-1,0.1-2.6,0.2c-0.5,0-0.7,0.1-1,0.1L750.1,474.3z M752.7,476.8
			c-0.4,2-0.7,3-1.5,4.5l-1.2-0.6c0.9-1.4,1.2-2.4,1.5-4.2L752.7,476.8z M768.5,465.9c0,0.7,0,1.1,0.1,1.5c-0.6,0-1-0.1-2.4-0.1
			h-12.9c-1.3,0-1.8,0-2.4,0.1c0.1-0.5,0.1-0.9,0.1-1.5v-1.5c0-0.6,0-1.1-0.1-1.6c0.5,0.1,1.2,0.1,2.5,0.1h12.7c1.2,0,1.9,0,2.5-0.1
			c-0.1,0.5-0.1,0.9-0.1,1.6V465.9z M756.3,464h-4v2.2h4V464z M757.1,476.3c0.6,1.2,1,2.2,1.5,3.8l-1.1,0.6
			c-0.4-1.7-0.8-2.7-1.5-3.9L757.1,476.3z M761.7,464h-4.1v2.2h4.1V464z M765.3,479.9h2.5c0.8,0,1.3,0,1.7-0.1v1.3
			c-0.4-0.1-1-0.1-1.7-0.1h-6.9v1.1h-1.4c0.1-0.7,0.2-1.5,0.2-2.2v-5.7c0-0.4,0-1.1,0.1-2c-0.5,0.8-0.7,0.9-1.2,1.5
			c-0.2-0.4-0.4-0.6-0.8-0.9c1.5-1.3,2.8-3.3,3.4-5l1.3,0.4c-0.1,0.1-0.1,0.1-0.2,0.4c0,0-0.1,0.1-0.2,0.3c-0.3,0.6-0.6,1.1-0.9,1.5
			h3c0.6-0.9,1-1.6,1.4-2.5l1.2,0.4c-0.1,0.1-0.1,0.1-0.3,0.6c-0.2,0.4-0.6,1-1,1.5h2.2c0.9,0,1.3,0,1.7-0.1v1.3
			c-0.4-0.1-0.8-0.1-1.7-0.1h-2.2v2h1.7c0.8,0,1.3,0,1.7-0.1v1.3c-0.4-0.1-0.9-0.1-1.7-0.1h-1.7v2.1h1.7c0.8,0,1.4,0,1.7-0.1v1.3
			c-0.4-0.1-0.9-0.1-1.7-0.1h-1.7V479.9z M764.1,473.4v-2h-3.3v2H764.1z M760.8,476.6h3.3v-2.1h-3.3V476.6z M760.8,479.9h3.3v-2.2
			h-3.3V479.9z M767.2,466.3V464h-4.2v2.2H767.2z"/>
	</g>
	<g class="st0">
		<path d="M288.2,519c0,0.9,0,1.6,0.1,2.2h-1.6c0.1-0.6,0.1-1.3,0.1-2.2v-6.8c-1.1,1.1-1.7,1.6-3,2.6c-0.2-0.5-0.4-0.8-0.8-1.2
			c1.5-1,2.8-2,4-3.3c1.1-1.2,1.9-2.3,2.7-4.1h-4.1c-0.7,0-1.1,0-1.8,0.1v-1.5c0.6,0.1,1.1,0.1,1.7,0.1h1.3v-2c0-0.6,0-1.2-0.1-1.7
			h1.7c-0.1,0.5-0.1,1-0.1,1.7v2h1.3c0.7,0,1,0,1.3-0.1l0.7,0.8c-0.2,0.2-0.3,0.5-0.5,0.9c-0.7,1.3-1.4,2.5-2.4,3.7
			c1.1,1.3,2,2.1,3.5,3c-0.3,0.4-0.5,0.7-0.7,1.2c-1.4-1-2.2-1.7-3.1-2.8V519z M295.8,503.2c0-0.7,0-1.2-0.2-2h1.7
			c-0.1,0.8-0.2,1.3-0.2,2v4.8h2.9c0.9,0,1.5,0,2.2-0.1v1.5c-0.7-0.1-1.4-0.1-2.2-0.1h-2.9v9.4h3.5c1.1,0,1.8,0,2.4-0.1v1.7
			c-0.7-0.1-1.4-0.2-2.4-0.2h-7.9c-1,0-1.6,0-2.4,0.2v-1.7c0.6,0.1,1.2,0.1,2.4,0.1h3v-9.4h-2.2c-0.7,0-1.5,0-2.2,0.1v-1.5
			c0.6,0.1,1.2,0.1,2.2,0.1h2.2V503.2z"/>
		<path d="M313.4,518.3c-1.1,0.8-1.9,1.3-3.2,1.8c-0.8,0.4-1.4,0.5-3.4,1.1c-0.3-0.6-0.5-0.8-1-1.3c2.7-0.5,4.9-1.3,6.4-2.5
			L313.4,518.3z M308.1,510c0-1.1,0-1.8-0.1-2.4c0.7,0.1,1.4,0.1,2.5,0.1h11c1.1,0,1.8,0,2.5-0.1c-0.1,0.6-0.1,1.2-0.1,2.4v5.1
			l0,1.2v0.4c0,0.2,0,0.3,0.1,0.7c-0.7-0.1-1.3-0.1-2.5-0.1h-11c-1.2,0-1.8,0-2.5,0.1c0.1-0.5,0.1-0.5,0.1-2.3V510z M323.1,504.8
			c0,0.6,0,1.1,0.1,1.5c-0.7,0-1.5-0.1-2.5-0.1h-9.4c-1,0-1.8,0-2.5,0.1c0.1-0.5,0.1-0.9,0.1-1.5v-1.4c0-0.6,0-1-0.1-1.6
			c0.7,0.1,1.3,0.1,2.5,0.1h9.3c1.3,0,1.8,0,2.5-0.1c-0.1,0.5-0.1,0.9-0.1,1.6V504.8z M309.5,510.5h13.1v-1.7h-13.1V510.5z
			 M309.5,513.4h13.1v-1.7h-13.1V513.4z M309.5,516.2h13.1v-1.8h-13.1V516.2z M310.3,503.1v2h11.4v-2H310.3z M319.5,517.4
			c1.8,1.3,3.9,2.1,6.6,2.6c-0.4,0.4-0.7,0.8-0.9,1.2c-3.4-1-4.6-1.5-6.7-3L319.5,517.4z"/>
		<path d="M337.2,513.6c-1.3,2.9-2.6,4.2-4.2,4.2c-2.1,0-3.7-2.3-3.7-5.4c0-2.2,0.8-4.4,2.3-6.1c1.8-1.9,4.2-2.9,7.1-2.9
			c2.5,0,4.6,0.8,6.1,2.2c1.4,1.3,2.1,3.3,2.1,5.4c0,3.4-1.8,6.2-5,7.6c-1,0.4-1.8,0.7-3.3,1c-0.2-0.7-0.4-0.9-0.8-1.5
			c1.6-0.3,2.6-0.6,3.7-1c2.4-1.1,3.9-3.5,3.9-6.2c0-2.5-1.3-4.5-3.5-5.5c-0.8-0.4-1.5-0.5-2.6-0.5
			C339,507.9,338.2,511.3,337.2,513.6z M334.5,505.9c-2.2,1.3-3.6,3.8-3.6,6.6c0,2.1,0.9,3.7,2.1,3.7c0.9,0,1.8-1,2.8-3.2
			c0.9-2.1,1.7-5.3,2-8.1C336.4,505,335.5,505.3,334.5,505.9z"/>
		<path d="M359.7,502.5c0-0.7,0-1.1-0.1-1.6h1.7c-0.1,0.5-0.1,1-0.1,1.6v0.5h7.1c1,0,1.6,0,2.3-0.1v1.5c-0.7-0.1-1.4-0.1-2.2-0.1
			h-9.3c-0.6,1-1.3,2-1.9,2.8c3-0.1,5.1-0.2,8.3-0.4c-0.8-0.6-1.2-0.8-2.4-1.4l1.1-0.7c2.3,1.3,3.7,2.2,5.7,3.9l-1,1
			c-0.9-0.9-1.3-1.2-2.1-1.7c-4.1,0.4-8.7,0.7-13.8,0.7c-0.3,0-0.7,0-1,0.1l-0.3-1.5c0.8,0.1,1.2,0.1,2.5,0.1c0.4,0,0.7,0,1.4,0
			c0.7-0.8,1.4-1.8,1.9-2.8h-4.3c-0.9,0-1.5,0-2.2,0.1v-1.5c0.6,0.1,1.3,0.1,2.3,0.1h6.4V502.5z M355.4,516.8v1.8
			c0,1.1,0,1.8,0.1,2.4h-1.6c0.1-0.8,0.1-1.5,0.1-2.5v-6.9c0-0.9,0-1.5-0.1-2.1c0.5,0.1,1.3,0.1,2.6,0.1h8.6c1.3,0,1.8,0,2.4-0.1
			c-0.1,0.6-0.1,1.2-0.1,2.3v7.2c0,1.3-0.5,1.7-2.2,1.7c-0.2,0-1,0-2.6-0.1c0-0.5-0.1-0.8-0.3-1.3c1.1,0.1,2,0.2,2.8,0.2
			c0.8,0,1-0.1,1-0.6v-2H355.4z M366,510.8h-10.6v1.8H366V510.8z M355.4,513.8v1.9H366v-1.9H355.4z"/>
		<path d="M392.3,508.4c-0.1,0.1-0.3,0.6-0.7,1.5c-1.3,2.9-1.7,3.7-2.9,5.4c0.7,1.4,1.2,2.1,2.2,2.9c0.4,0.3,0.7,0.5,0.9,0.5
			c0.4,0,0.7-1.1,1-3.2c0.5,0.5,0.8,0.7,1.2,1c-0.3,1.5-0.5,2-0.8,2.7c-0.4,0.7-0.8,1.1-1.4,1.1c-0.6,0-1.5-0.5-2.3-1.4
			c-0.7-0.6-1.3-1.5-1.8-2.5c-1.8,1.9-3.6,3.2-6.1,4.4c-0.4-0.5-0.6-0.7-1.1-1.1c2.8-1.1,4.8-2.5,6.5-4.6c-1-2.4-1.7-5.5-1.9-9.2
			h-7.7c0,1.9,0,2.7,0,3.6h4.2c0.8,0,1.2,0,1.7-0.1c-0.1,0.5-0.1,0.5-0.2,2.5c-0.1,2.5-0.4,4.1-0.7,4.7c-0.3,0.7-0.8,0.9-2,0.9
			c-0.8,0-1.3,0-2.3-0.2c0-0.6-0.1-0.9-0.3-1.4c1.2,0.3,1.9,0.4,2.6,0.4s0.9-0.2,1.1-1.2c0.2-0.9,0.3-2.6,0.3-4.3h-4.4
			c-0.1,2.8-0.3,4.4-0.7,6.1c-0.4,1.6-0.8,2.5-1.7,3.9c-0.4-0.5-0.7-0.7-1.2-1c0.8-1.1,1.2-2.1,1.5-3.3c0.5-2,0.7-5,0.7-9.2
			c0-1.5,0-1.8-0.1-2.6c0.8,0.1,1.6,0.1,2.7,0.1h6.5c-0.1-2.7-0.1-3.1-0.2-3.6h1.7c-0.1,0.4-0.1,1-0.1,1.8c0,0.4,0,0.7,0,1.8h4.8
			c1.2,0,1.8,0,2.4-0.1v1.5c-0.7-0.1-1.3-0.1-2.5-0.1h-4.6c0.2,3.1,0.6,5.8,1.5,7.9c1.3-1.9,2.5-4.4,2.7-6.1L392.3,508.4z
			 M391,504.3c-1.2-1.1-1.7-1.5-3.2-2.3l0.9-0.8c1.5,0.8,1.7,1,3.1,2.2L391,504.3z"/>
		<path d="M401.6,502.5c-0.1,0.5-0.1,1-0.1,2l-0.1,13.3c2.5-0.4,4.5-1.1,6.3-2.2c2.2-1.4,3.7-2.9,5-5.3c0.6,0.8,0.7,0.9,1.2,1.4
			c-3,4.5-6.2,6.5-12.1,7.7c-0.9,0.2-1,0.2-1.3,0.3l-0.9-1.1c0.1-0.4,0.2-0.6,0.2-1.4l0-12.6v-0.8c0-0.4,0-0.7-0.1-1.2H401.6z"/>
		<path d="M417.3,512.5c0.6-0.2,2-1.8,4.5-5.1c1.2-1.7,1.8-2.1,2.8-2.1c0.9,0,1.3,0.3,2.8,2c3.1,3.4,7.7,7.6,9.4,8.5l-0.8,1.8
			c-0.2-0.2-0.4-0.3-0.4-0.4c-0.1-0.1-0.7-0.6-1.5-1.3c-2-1.7-4.5-4.1-7.5-7.3c-1.5-1.6-1.5-1.6-2-1.6s-0.6,0.1-1.5,1.4
			c-1,1.3-2.9,3.7-4,4.9c-0.2,0.2-0.4,0.4-0.6,0.8L417.3,512.5z M431.4,503.9c1,1.2,1.6,2.1,2.3,3.4l-1.1,0.7
			c-0.5-1.2-1.6-2.8-2.2-3.5L431.4,503.9z M433.9,502.7c1,1.2,1.6,2,2.3,3.4l-1.1,0.6c-0.5-1-1.4-2.5-2.2-3.5L433.9,502.7z"/>
		<path d="M446,502.8c-0.1,0.5-0.1,0.5-0.1,1.9c-0.2,6-0.4,7.6-1.2,9.8c-0.7,2-1.8,3.5-3.8,5.4c-0.4-0.6-0.7-0.8-1.3-1.2
			c1.8-1.4,3-3,3.7-5.1c0.7-1.9,1-4.8,1-9.4c0-0.8,0-1.1-0.1-1.6L446,502.8z M451.5,502.5c-0.1,0.5-0.1,0.9-0.1,1.9l-0.1,13.3
			c1.8-0.7,2.9-1.4,4.1-2.6c1.2-1.3,2.1-2.7,2.6-4.4c0.5,0.6,0.6,0.8,1.2,1.3c-1.1,2.5-2.5,4.4-4.4,5.7c-1,0.7-1.8,1.1-3.1,1.6
			c-0.4,0.2-0.4,0.2-0.7,0.3c-0.3,0.1-0.3,0.1-0.5,0.2l-0.9-1c0.1-0.4,0.2-0.6,0.2-1.5l0.1-12.9c0-1.4,0-1.4-0.1-2L451.5,502.5z"/>
		<path d="M468.2,504.6c0.7-1.5,1-2.3,1.1-3l1.8,0.3c-0.2,0.3-0.2,0.3-0.6,1.2c-0.3,0.7-0.6,1.3-0.7,1.5c0.3,0,0.3,0,0.5,0
			c3.5-0.2,5.7-0.4,6.9-0.8l0.1,1.5c-0.4,0-0.5,0-0.9,0.1c-2.3,0.3-4.6,0.5-7.3,0.6c-0.7,1.3-1.2,2.2-2,3.1
			c-0.2,0.3-0.7,0.8-0.7,0.8c-0.2,0.1-0.3,0.2-0.3,0.2c0,0,0,0,0,0c0,0,0,0,0,0c0,0,0,0,0,0.1c0.8-0.6,0.8-0.6,1-0.8
			c1-0.7,2.2-1.1,3.3-1.1c1.6,0,2.6,0.8,2.9,2.4c1.6-0.6,2.9-1.1,3.8-1.5c1.1-0.4,1.1-0.4,1.5-0.6l0.7,1.5c-1.1,0.2-3.1,0.9-5.9,1.9
			c0,0.6,0,0.8,0,1.3c0,0.3,0,0.8,0,1.2c0,0.5,0,0.8,0,1c0,0.3,0,0.5,0,0.8l-1.5,0c0.1-0.5,0.1-1.8,0.1-3.2c0-0.4,0-0.4,0-0.7
			c-3,1.4-4.1,2.4-4.1,3.8c0,1.5,1.4,2.1,4.5,2.1c2.2,0,4.6-0.4,5.9-0.9l0.2,1.7c-0.3,0-0.4,0-0.9,0.1c-1.7,0.3-3.7,0.4-5.3,0.4
			c-3.9,0-5.9-1.1-5.9-3.4c0-1.2,0.7-2.4,2.2-3.5c0.7-0.5,1.8-1.1,3.3-1.8c-0.2-1.2-0.7-1.7-1.7-1.7c-1.4,0-3.1,0.8-4.9,2.3
			c-0.9,0.7-1.3,1.2-1.7,1.8l-1.2-1.2c1.5-1.2,3.3-3.5,4.9-6.3c0.1-0.1,0.1-0.1,0.2-0.3c-0.1,0-0.3,0-0.4,0c-0.4,0-2.4,0-3.2-0.1
			c-0.1,0-0.3,0-0.4,0c-0.2,0-0.2,0-0.5,0l0-1.5c0.8,0.2,2.5,0.2,4.7,0.2H468.2z"/>
		<path d="M486,505.5c-0.6,1.3-0.9,2-1.7,3.1c-0.4-0.4-0.7-0.6-1.2-0.8c1.2-1.5,1.8-2.8,2.3-4.8c0.1-0.5,0.3-1.1,0.3-1.4
			c0-0.3,0-0.3,0-0.5l1.4,0.3c-0.1,0.3-0.1,0.4-0.3,1c-0.1,0.5-0.3,1.2-0.5,1.8h3.1c0.9,0,1.4,0,1.8-0.1v1.4
			c-0.5-0.1-1.1-0.1-1.8-0.1h-0.8c0,2.2,0,2.4-0.2,4.2h1.4c0.7,0,1.2,0,1.7-0.1v1.5c-0.5-0.1-1-0.1-1.7-0.1h-1.5
			c-0.1,0.5-0.1,0.6-0.2,1.1c1.1,1.9,2,3,3.7,4.1c-0.4,0.5-0.6,0.6-0.9,1.2c-1.5-1.3-2.2-2.2-3.1-3.7c-0.7,2.5-1.9,4.4-3.8,6.2
			c-0.3-0.5-0.5-0.8-1-1.1c2.4-2,3.6-4.4,4.1-7.9h-1.9c-0.7,0-1.3,0-1.9,0.1v-1.6c0.6,0.1,1.1,0.1,1.9,0.1h2
			c0.1-1.7,0.1-1.9,0.1-4.2H486z M497.6,518.7c1-1.9,1.5-3.2,2.2-5.4l1.4,0.5c-0.8,2.2-1.4,3.5-2.2,4.9h2.5c0.9,0,1.3,0,2-0.1v1.5
			c-0.7-0.1-1.1-0.1-2-0.1h-8.5c-0.9,0-1.3,0-2,0.1v-1.5c0.6,0.1,1.1,0.1,2,0.1H497.6z M491.8,502.3c0.5,0.1,1.1,0.1,2,0.1h7.3
			c0.9,0,1.4,0,2-0.1v1.5c-0.6-0.1-1.1-0.1-2-0.1h-7.3c-0.9,0-1.4,0-2,0.1V502.3z M501.8,511.1c0,0.7,0,1.1,0.1,1.6
			c-0.6-0.1-1.1-0.1-1.9-0.1h-5.5c-0.8,0-1.3,0-1.9,0.1c0.1-0.6,0.1-1,0.1-1.6v-3.4c0-0.6,0-1.1-0.1-1.7c0.6,0.1,1.1,0.1,1.9,0.1
			h5.5c0.8,0,1.4,0,1.9-0.1c-0.1,0.6-0.1,0.9-0.1,1.7V511.1z M495,517.9c-0.4-1.6-0.9-2.6-1.8-4.1l1.2-0.5c0.9,1.5,1.3,2.4,1.9,4.1
			L495,517.9z M494,511.4h6.4v-4H494V511.4z"/>
		<path d="M509,503.5c0-0.9,0-1.5-0.1-2.1h1.5c-0.1,0.6-0.1,1.2-0.1,2.1v0.4h4v-0.4c0-1,0-1.6-0.1-2.1h1.5c-0.1,0.6-0.1,1.2-0.1,2.1
			v0.4c0.8,0,1.4,0,1.8-0.1v1.4c-0.5-0.1-0.9-0.1-1.8-0.1v9.4c0.8,0,1.3,0,1.7-0.1v1.4c-0.5,0-1.1-0.1-2-0.1h-7
			c-0.9,0-1.3,0-1.8,0.1v-1.4c0.4,0.1,0.9,0.1,1.8,0.1h0.6v-9.4h-0.1c-0.9,0-1.5,0-1.9,0.1v-1.4c0.4,0.1,1,0.1,1.9,0.1h0.1V503.5z
			 M511.2,517.1c-1.1,1.7-1.7,2.5-3.4,3.8c-0.3-0.5-0.5-0.7-1-1.1c1.7-1.1,2.5-2,3.3-3.4L511.2,517.1z M514.3,507.4v-2.3h-4v2.3
			H514.3z M514.3,510.8v-2.3h-4v2.3H514.3z M514.3,514.5v-2.6h-4v2.6H514.3z M514,516.4c0.7,1,1.1,1.5,2.2,2.3
			c-0.4,0.3-0.6,0.5-1,0.9c-0.9-0.9-1.5-1.5-2.1-2.5L514,516.4z M519.6,513.9c-0.3,3.2-0.9,5-2.6,7.1c-0.5-0.6-0.5-0.7-1.1-1
			c1.3-1.5,1.8-2.8,2.2-5c0.2-1.6,0.4-5.5,0.4-10.2c0-1.5,0-2-0.1-2.6c0.6,0.1,1.1,0.1,2.1,0.1h3c1,0,1.5,0,2.1-0.1
			c-0.1,0.5-0.1,1.2-0.1,2.1v14.8c0,0.7-0.2,1.2-0.6,1.4c-0.3,0.2-0.9,0.2-1.8,0.2c-0.3,0-0.6,0-1.7-0.1c-0.1-0.6-0.1-0.9-0.4-1.6
			c1.2,0.2,1.7,0.3,2.4,0.3c0.5,0,0.7-0.1,0.7-0.5v-5.1H519.6z M519.8,508.7c0,2.2,0,2.6-0.1,4h4.6v-4H519.8z M524.2,503.6h-4.4v3
			c0,0.4,0,0.5,0,0.9h4.4V503.6z"/>
		<path d="M532.4,518.5c0,1.2,0,1.9,0.1,2.5h-1.6c0.1-0.6,0.1-1.3,0.1-2.5v-14.2c0-1.1,0-1.7-0.1-2.4c0.6,0.1,1.2,0.1,2.3,0.1h3.1
			c1.1,0,1.6,0,2.2-0.1c0,0.6-0.1,1.3-0.1,2.1v2.7c0,0.9,0,1.5,0.1,2c-0.6,0-1.3-0.1-2.2-0.1h-4V518.5z M532.4,504.8h4.9v-1.8h-4.9
			V504.8z M532.4,507.6h4.9v-1.8h-4.9V507.6z M543.9,516c0,0.8,0,1.4,0.1,2c-0.6,0-1.3-0.1-2.2-0.1h-4.8v1.5h-1.4
			c0.1-0.6,0.1-1.2,0.1-2.1v-4.9c0-0.8,0-1.4-0.1-2.1c0.7,0.1,1.2,0.1,2.2,0.1h4c1,0,1.5,0,2.2-0.1c0,0.6-0.1,1.2-0.1,2.1V516z
			 M536.9,513.6h5.7v-2h-5.7V513.6z M536.9,516.8h5.7v-2.1h-5.7V516.8z M548.7,518.9c0,1.5-0.5,1.8-2.2,1.8c-0.5,0-1.7,0-2.2-0.1
			c-0.1-0.6-0.2-0.9-0.4-1.4c1,0.1,2,0.2,2.4,0.2c0.9,0,1.1-0.1,1.1-0.6v-10.1h-4.5c-0.9,0-1.6,0-2.2,0.1c0-0.6,0.1-1.2,0.1-2V504
			c0-0.8,0-1.4-0.1-2.1c0.6,0.1,1.1,0.1,2.2,0.1h3.6c1.1,0,1.7,0,2.3-0.1c-0.1,0.9-0.1,1.4-0.1,2.4V518.9z M542,504.8h5.4v-1.8H542
			V504.8z M542,507.6h5.4v-1.8H542V507.6z"/>
		<path d="M553.2,504.9c0.4,0,0.6,0,0.8,0c0.3,0,0.6,0,1.3-0.1c1.2-0.1,1.4-0.1,4.1-0.3l3.5-0.2c2.7-0.2,3-0.2,3.7-0.2l1.3,0
			c1.9-0.1,2.3-0.2,2.6-0.2l0.1,1.6c-0.9,0-1.6,0.1-2.5,0.3c-1.5,0.4-3,1.2-4.2,2.2c-1.8,1.5-2.7,3.3-2.7,5.1c0,1.8,1.1,3.3,3.1,4.1
			c1.1,0.4,2.5,0.7,3.3,0.7c0,0,0.1,0,0.2,0l-0.3,1.8c-0.2,0-0.3-0.1-0.7-0.1c-2.2-0.4-3.5-0.8-4.8-1.7c-1.6-1.1-2.4-2.7-2.4-4.5
			c0-2.6,1.5-5,4.1-6.8c0.7-0.5,1.3-0.8,2.1-1.2c-1.3,0.2-2.5,0.3-4.8,0.5c-4.4,0.3-6.8,0.5-7.6,0.7L553.2,504.9z M567.9,508.1
			c1,1.2,1.6,2.1,2.3,3.4l-1.1,0.7c-0.5-1.2-1.6-2.8-2.2-3.5L567.9,508.1z M570.4,506.9c1,1.2,1.5,2,2.3,3.4l-1.1,0.6
			c-0.5-1-1.4-2.4-2.2-3.5L570.4,506.9z"/>
		<path d="M584,507c-0.1,0.4-0.1,0.4-0.1,1.5c-0.1,3.7-0.7,5.9-2.2,7.7c-1.3,1.7-3,2.8-5.6,3.8c-0.3-0.7-0.5-0.9-1-1.5
			c1.8-0.5,2.9-1.1,4-2c2.3-1.9,3.2-4.1,3.2-8.4c0-0.6,0-0.8-0.1-1.2H584z M592.7,504.3c-0.2,0.3-0.3,0.4-0.5,0.9
			c-1.5,2.9-3.6,5-6.4,6.3c-0.3-0.6-0.5-0.7-1.1-1.3c1.5-0.6,2.4-1.1,3.5-2.1c1-0.9,1.8-2,2.5-3.3h-12.5c-1.2,0-1.8,0-2.6,0.1v-1.7
			c0.7,0.1,1.4,0.2,2.6,0.2h11.8c1.5,0,1.5,0,1.9-0.2L592.7,504.3z"/>
		<path d="M598.4,507.4c0.9,1.5,1.4,2.6,2.2,4.9l-1.5,0.5c-0.5-1.9-1.1-3.4-2.1-4.9L598.4,507.4z M610.8,507.2
			c-0.1,0.4-0.1,0.4-0.5,1.8c-0.4,1.5-1.1,3.6-1.9,4.9c-1.6,2.7-3.9,4.7-7.3,6.4c-0.3-0.6-0.5-0.8-1-1.2c3.4-1.5,5.5-3.2,7-5.7
			c0.8-1.4,1.5-3,1.9-4.7c0.2-0.7,0.2-1.2,0.2-1.5V507c0-0.1,0-0.1,0-0.1L610.8,507.2z M602.9,506.5c1.2,2.1,1.6,3,2.1,4.7l-1.5,0.5
			c-0.4-1.6-1.1-3.2-2-4.8L602.9,506.5z"/>
		<path d="M628.2,504.1c-0.1-0.2-0.1-0.4-0.1-0.6c0-1.4,1.1-2.5,2.5-2.5c1.4,0,2.5,1.1,2.5,2.5c0,1.4-1.1,2.5-2.5,2.5
			c-0.2,0-0.5,0-0.8-0.1c0,0.1,0,0.1,0,0.1c-1.1,3.9-2.5,6.7-4.5,8.8c-2.3,2.4-4.8,4-8,5.2c-0.3-0.7-0.5-1-1.1-1.5
			c2.9-0.8,6.1-2.8,8.1-5c1.8-2,3.1-4.6,3.9-7.8h-11.2c-1.3,0-1.8,0-2.5,0.1v-1.8c0.8,0.1,1.3,0.1,2.5,0.1h10.8H628.2z M629,503.4
			c0,0.9,0.7,1.6,1.6,1.6c0.9,0,1.6-0.7,1.6-1.6c0-0.9-0.7-1.6-1.6-1.6C629.7,501.8,629,502.5,629,503.4z"/>
	</g>
	<g class="st0">
		<path d="M289.4,411.2c0-1,0-1.6,0.1-3.7c-0.7,1.3-1.3,2.1-2.3,3.5c-0.5-1.6-0.8-2.5-1.5-3.9c3-3.3,5.6-8.7,6.2-13.1l3.8,0.9
			c-1.3,4.1-1.5,4.7-2.7,7.3v18.8c0,1.4,0,2.5,0.2,3.8h-3.9c0.1-1.3,0.2-2.2,0.2-3.9V411.2z M306.5,412.9c-0.4,2.1-0.9,3.5-1.8,5
			c3.5,1.9,6.9,2.7,12.4,2.9c-0.6,1.2-1.1,2.4-1.4,3.7c-5.6-0.6-9.4-1.8-13-4.1c-1.9,1.8-4,3-7.4,4.2c-0.6-1.2-1.3-2.2-2-3.1
			c3-0.8,5-1.7,6.7-3.2c-0.9-0.8-1.3-1.3-2-2.3c-0.4-0.6-0.7-0.9-1-1.2l2.9-1.5c0.4,0.8,1.1,1.6,2.2,2.6c0.6-1.1,0.9-1.9,1.2-3.1
			h-4.9c-1.1,0-1.8,0-2.7,0.1c0.1-1,0.1-1.6,0.1-2.8v-4.6c0-1.4,0-2-0.1-2.8c1,0.1,1.5,0.1,3.1,0.1h5.1l0-2.4h-5.4
			c-1.3,0-2.2,0-3.2,0.2v-3.6c1,0.1,2.2,0.2,3.6,0.2h5c0-1.7-0.1-2.3-0.2-3.3h3.8c-0.1,0.9-0.1,0.9-0.1,3.3h5.7
			c1.5,0,2.6-0.1,3.7-0.2v3.6c-1-0.1-2-0.2-3.3-0.2h-6.2c0,0.5,0,0.8,0,1v1.4h4.9c1.5,0,2.2,0,3.1-0.1c-0.1,0.8-0.1,1.6-0.1,2.9v4.3
			c0,1.6,0,2.2,0.1,3c-1-0.1-1.7-0.1-3.2-0.1H306.5z M299.1,406.2v3.6h4.4c0.1-1.5,0.1-1.7,0.2-3.6H299.1z M307.1,406.2
			c-0.1,1.7-0.1,2.3-0.2,3.6h4.7v-3.6H307.1z"/>
		<path d="M322.7,407c0.9-0.1,0.9-0.1,3.4-0.6c4.5-1,7.5-1.4,10.2-1.4c3.8,0,6.3,1.1,7.8,3.4c0.8,1.3,1.2,2.6,1.2,4.3
			c0,4.4-3.1,8-8.4,9.6c-2,0.6-2.9,0.8-7.2,1.3c-0.3-1.7-0.6-2.3-1.4-3.8c0.2,0,0.4,0,0.5,0c1.2,0,3.1-0.2,4.7-0.5
			c2.6-0.5,4-1.1,5.5-2.2c1.6-1.2,2.3-2.6,2.3-4.5c0-2.6-1.9-4-5.4-4c-2.3,0-4.8,0.4-8.7,1.3c-2.1,0.5-2.7,0.7-3.8,1.1L322.7,407z"
			/>
		<path d="M353.3,400.1c1.2,0.2,2.5,0.3,4.4,0.3c0.4,0,0.8,0,1.5,0c0.3-1.6,0.6-4.1,0.6-5c0-0.1,0-0.3,0-0.6l4.4,0.4
			c-0.2,0.8-0.2,0.8-0.6,3.2c-0.2,0.9-0.2,1.1-0.3,1.9c2.4-0.2,4-0.5,5.6-1l0.2,3.8c-0.3,0-0.3,0-1.1,0.2c-1.7,0.3-4.3,0.7-5.4,0.7
			c-0.4,2-1.2,5.5-2,8.5c-1,3.4-1.5,5.1-3.7,10.9l-4.2-1.6c2.3-4.2,4.8-11.9,5.9-17.8c-0.2,0-0.4,0-0.4,0h-1.9c-0.2,0-0.5,0-1.1,0
			c-0.6,0-1.1,0-1.3,0c-0.2,0-0.3,0-0.6,0L353.3,400.1z M369.6,412.9c-1.3,1.7-1.7,2.5-1.7,3.6c0,1.7,1.7,2.5,5,2.5
			c2.4,0,5.6-0.5,7.5-1.2l0.3,4.1c-0.6,0.1-0.9,0.1-1.6,0.2c-2.7,0.4-4.2,0.5-6.1,0.5c-2.9,0-5-0.4-6.6-1.3
			c-1.4-0.8-2.3-2.4-2.3-4.1c0-1.7,0.6-3.2,2.4-5.7L369.6,412.9z M379.5,408.6c-1.6-0.2-2.5-0.2-4.2-0.2c-3.3,0-5.4,0.2-8.7,1
			l-0.3-3.6c4.7-0.9,6.3-1.1,9.8-1.1c0.9,0,1.2,0,3.3,0L379.5,408.6z"/>
		<path d="M394.4,408.9c-1.1,0-1.9,0.1-2.8,0.2v-2.3c-1.6,1.6-2.4,2.3-4.1,3.7c-0.6-1.1-1.4-2.1-2.5-3.2c4.1-2.8,6.6-5.5,8.7-9.5
			c0.8-1.5,1.2-2.3,1.3-3.3l4,1.4c-0.3,0.5-0.5,0.8-0.9,1.7c-1.2,2.6-3.2,5.5-5.3,8c0.9,0.1,1.1,0.1,1.7,0.1h12.1c0.8,0,1.3,0,2,0
			c-2.3-2.6-4-5.2-5.4-8.3c-0.1-0.3-0.5-1-0.7-1.4l3.7-1.4c0.2,0.9,0.6,1.6,1.3,2.9c2.2,4,5,6.9,9.1,9.6c-1.4,1.6-1.7,2-2.5,3.6
			c-1.8-1.4-2.6-2-4.1-3.5c0,0.5,0,0.6,0,1.1c0,6.8-0.6,12-1.4,13.8c-0.7,1.5-1.9,1.9-4.9,1.9c-0.7,0-1.2,0-3.4-0.1
			c-0.2-1.5-0.4-2.2-1-3.9c1.6,0.3,3,0.4,4,0.4c1.2,0,1.6-0.1,1.9-0.6c0.5-1,1-5.3,1-8.8v-0.7c0-0.1,0-0.3,0-0.5s0-0.4,0-0.7h-6.3
			c-0.3,3.4-1,5.8-2.6,8.4c-1.8,3-4.5,5.3-8.4,7.3c-0.6-1.2-1.2-1.9-2.4-3.2c2-0.8,3.4-1.6,5.1-3c2.3-2,3.8-4.5,4.3-7.5
			c0.1-0.6,0.1-1,0.2-1.9H394.4z"/>
		<path d="M421.2,400.4c1.2,0.2,2.5,0.3,4.4,0.3c0.4,0,0.8,0,1.5,0c0.3-1.6,0.6-4.1,0.6-5c0-0.1,0-0.3,0-0.6l4.4,0.4
			c-0.2,0.7-0.2,0.9-0.5,2.6c-0.1,0.4-0.1,0.9-0.2,1.5c0,0.2-0.1,0.4-0.2,1c2.1-0.2,4.1-0.5,5.6-1l0.2,3.8c-0.2,0-0.3,0-0.3,0
			l-0.8,0.1c-2.2,0.4-4.6,0.7-5.4,0.7c-1.2,6.4-2.9,11.9-5.7,19.4l-4.2-1.6c2.1-3.8,4.8-11.8,5.9-17.7c-0.2,0-0.3,0-0.3,0l-0.7,0
			h-1.6c0,0-0.3,0-0.8,0c-0.5,0-1.1,0-1.3,0c-0.2,0-0.3,0-0.6,0L421.2,400.4z M437.6,413.2c-1.3,1.7-1.7,2.5-1.7,3.7
			c0,1.7,1.7,2.5,5,2.5c2.4,0,5.6-0.5,7.5-1.2l0.3,4c-0.6,0.1-0.8,0.1-1.6,0.2c-2.7,0.4-4.2,0.6-6.1,0.6c-2.9,0-5-0.4-6.6-1.3
			c-1.4-0.8-2.3-2.4-2.3-4.1c0-1.7,0.6-3.2,2.4-5.7L437.6,413.2z M447.4,408.8c-1.6-0.2-2.5-0.2-4.2-0.2c-3.3,0-5.4,0.2-8.7,1
			l-0.3-3.7c4.7-0.9,6.3-1.1,9.8-1.1c1,0,1.7,0,3.3,0L447.4,408.8z M442,395.9c1.5,1.6,2.3,2.8,3.5,4.9l-2.3,1.2
			c-1.1-2-2-3.3-3.5-4.9L442,395.9z M447.1,399.9c-1-1.8-2.1-3.4-3.4-4.8l2.2-1.2c1.5,1.5,2.4,2.8,3.4,4.7L447.1,399.9z"/>
		<path d="M464.7,411.8c-2.2,4-3.7,8.2-3.8,10.6l-3.8,0.2c0-0.5-0.1-0.6-0.2-1.3c-0.8-3.7-1.2-7-1.2-10.7s0.2-5.7,1.2-12.5
			c0.2-1.4,0.2-1.7,0.2-2.4l4.4,0.4c-0.4,1.3-0.6,2.1-1,4c-0.5,2.8-0.7,3.7-0.9,6.5c-0.2,2.2-0.2,3.1-0.2,3.8c0,0.1,0,0.5,0,1
			c0,0.4,0,0.9,0,2.5c0,0.3,0,0.5,0,0.6c0,0.5,0.1,0.7,0.1,1.3c0.6-1.8,1.4-4,2.2-5.4L464.7,411.8z M463.8,402.3
			c1.5,0.3,3.2,0.4,5.9,0.4c1.3,0,1.8,0,3.5-0.1c-0.2-5.8-0.2-6.1-0.4-7.3l4.2-0.1c-0.1,0.5-0.1,0.7-0.1,1.1c0,0.3,0,0.6,0.1,2.1
			c0,0.4,0.1,1.6,0.1,3.7c2.3-0.4,3.8-0.7,4.9-1.3l0.2,3.9c-0.6,0.1-0.8,0.1-1.8,0.3c-1.5,0.3-1.8,0.4-3.2,0.6c0,0.7,0,1,0,1.6
			c0,3.5-0.2,6.2-0.7,7.9c-0.7,2.7-1.9,4.8-3.8,6.4c-1,0.9-1.9,1.5-3.6,2.5c-1.2-1.5-1.7-2-3.2-3.1c2.2-1,3.8-2.1,5-3.6
			c1.7-2.1,2.3-4.4,2.3-9.3c0-0.7,0-1,0-2.1c-1.1,0.1-2.8,0.1-4.5,0.1c-0.9,0-2.1,0-3-0.1c-1-0.1-1.1-0.1-1.5-0.1
			c-0.1,0-0.3,0-0.5,0V402.3z"/>
		<path d="M498.4,418.4c0,1.4-0.1,2.1-0.3,2.8c-0.3,1.2-1.5,1.9-3,1.9c-2.1,0-4.6-0.9-6.2-2.3c-1.2-1-1.8-2.3-1.8-3.7
			c0-1.6,1-3.3,2.8-4.9c1.2-1,2.6-1.9,4.8-2.8l0-5.1c-0.3,0-0.3,0-1.4,0.1c-0.5,0-1,0-1.8,0c-0.5,0-1.4,0-1.8,0c-0.4,0-0.7,0-0.8,0
			c-0.1,0-0.4,0-0.7,0l0-3.7c0.9,0.2,2.2,0.3,4,0.3c0.3,0,0.7,0,1.2,0c0.8,0,1,0,1.3,0v-2.2c0-1.9,0-2.7-0.2-3.8h4.1
			c-0.2,1.1-0.2,1.7-0.2,3.6v2.1c2.5-0.3,4.7-0.7,6.4-1.3l0.1,3.7c-0.6,0.1-1.2,0.2-3.5,0.6c-1.1,0.2-1.7,0.3-3,0.4v4.3
			c2.2-0.7,4.3-0.9,6.7-0.9c5.5,0,9.4,3.4,9.4,8.1c0,4.3-3.2,7.5-7.5,7.5c-2.7,0-4.6-1.3-5.4-3.7c-0.4-1.1-0.6-2.2-0.6-4.2
			c1.7-0.5,2.2-0.7,3.7-1.5c-0.1,0.6-0.1,0.9-0.1,1.5c0,1.4,0.1,2.3,0.5,2.9c0.4,0.7,1.2,1.1,2.1,1.1c1.9,0,3.3-1.6,3.3-3.7
			c0-2.8-2.3-4.7-5.8-4.7c-2,0-4,0.4-6.3,1.1L498.4,418.4z M494.7,413.1c-2.5,1.3-3.9,2.8-3.9,4c0,0.6,0.3,1.1,1.1,1.5
			c0.7,0.5,1.5,0.7,2.1,0.7c0.6,0,0.7-0.3,0.7-1.4V413.1z M513,406.4c-1.7-2.6-4.1-5.2-6.6-7.1l3.1-2.1c2.9,2.2,4.8,4.2,6.5,6.8
			L513,406.4z"/>
		<path d="M533.5,397.2c0-1.4-0.1-2.1-0.2-2.9h4.2c-0.1,0.8-0.2,1.5-0.2,2.9v1.3h8.8c1.7,0,3-0.1,4-0.2v3.8c-1-0.1-2.3-0.2-4-0.2
			h-8.9v4.2h4.4c1.4,0,2.2,0,2.8-0.2l2.2,2.2c-0.4,0.4-0.9,1.2-1.6,2.1c-1.6,2.4-3.7,4.7-6.1,6.7c3.4,1.9,7.1,3.1,11.8,3.8
			c-0.8,1.2-1.2,2.1-1.8,3.8c-5.8-1.3-9.3-2.7-13.3-5.3c-4.2,2.6-8.1,4.2-13.4,5.2c-0.5-1.3-0.9-2.1-1.8-3.5
			c4.8-0.7,8.6-1.9,12.2-3.9c-2.8-2.4-4.4-4.3-6.3-7.8c-1.6,0-2.1,0.1-3.1,0.2v-3.6c0.9,0.1,2.3,0.2,4,0.2h6v-4.2h-8.4
			c-1.7,0-3,0.1-4,0.2v-3.8c1.1,0.1,2.3,0.2,4,0.2h8.4V397.2z M530.6,409.3c1.5,2.4,2.9,3.9,5.4,5.8c2.4-1.8,3.9-3.4,5.4-5.8H530.6z
			"/>
		<path d="M565.7,400.5c1,0,1.5,0,2.4-0.1v3.4c-0.9-0.1-1.6-0.1-2.4-0.1h-1.6v5.1c1.2-0.4,1.8-0.6,3.8-1.3l0.1,3.2
			c-0.8,0.3-2.1,0.8-3.9,1.4v9.3c0,2.4-1.1,3.1-4.6,3.1c-0.7,0-1.5,0-2.6-0.1c-0.1-1.4-0.3-2.1-0.8-3.6c1.4,0.2,2.4,0.3,3.4,0.3
			c0.8,0,1-0.2,1-1v-6.9c-0.6,0.2-1,0.3-2.3,0.7c-1.1,0.3-1.4,0.4-1.8,0.6l-0.7-3.7c1.2-0.1,2.1-0.3,4.8-1v-6.1h-1.9
			c-0.9,0-1.7,0.1-2.5,0.2v-3.5c0.9,0.1,1.6,0.2,2.6,0.2h1.8v-2.7c0-1.5,0-2.3-0.2-3.4h3.9c-0.1,1-0.2,1.8-0.2,3.3v2.7H565.7z
			 M582.4,424.4c-0.4-1.5-0.5-1.8-0.8-3.1c-4.5,0.9-7.3,1.4-12,2c-1.8,0.3-2.8,0.4-3.6,0.6l-0.7-4.1c0.2,0,0.4,0,0.5,0
			c0.1,0,0.8,0,1.9-0.1c2.8-8.6,5.3-19.9,5.4-25l4.2,0.7c-0.2,0.8-0.3,1.6-1.8,8.6c-1,4.7-2.8,11.8-4,15.4c4.4-0.5,5.5-0.7,8.9-1.3
			c-1.2-3.5-2.3-6.3-3.8-9.1l3.2-1.3c2.4,4.8,4.1,9.1,6,15.1L582.4,424.4z"/>
		<path d="M596.2,397.7c-0.2,1.2-0.3,2.8-0.3,5c0,2.9,0.3,6.8,0.6,8.8c0.6,3.4,1.6,5.5,2.7,5.5c0.5,0,1-0.5,1.4-1.4
			c0.8-1.8,1.4-3.8,1.8-6c1.2,1.3,1.7,1.8,3.3,3c-1.7,6.4-3.6,9.1-6.4,9.1c-2.2,0-4-1.6-5.3-4.8c-1.4-3.3-1.9-8.1-2.1-17.2
			c0-1.2,0-1.4-0.1-2.1H596.2z M611.8,399.2c4.2,5,6.5,10.5,7.4,17.8l-4.1,1.6c-0.2-3.1-1-6.5-2.1-9.5c-1.1-3-2.7-5.7-4.7-8.1
			L611.8,399.2z"/>
	</g>
</g>
</svg>
