<?xml version="1.0" encoding="utf-8"?>
<!-- Generator: Adobe Illustrator 24.2.0, SVG Export Plug-In . SVG Version: 6.00 Build 0)  -->
<svg version="1.1" id="レイヤー_1" xmlns="http://www.w3.org/2000/svg" xmlns:xlink="http://www.w3.org/1999/xlink" x="0px"
	 y="0px" viewBox="0 0 406 82" style="enable-background:new 0 0 406 82;" xml:space="preserve">
<style type="text/css">
	.st0{fill:#304DEB;}
	.st1{fill:none;}
	.st2{fill:none;stroke:#FFFFFF;}
	.st3{fill:#FFFFFF;}
	.st4{enable-background:new    ;}
</style>
<g id="btn_document" transform="translate(-285 -718)">
	<rect id="長方形_5_のコピー" x="285" y="718" class="st0" width="406" height="82"/>
	<g id="楕円形_2" transform="translate(627 742)">
		<circle class="st1" cx="17" cy="17" r="17"/>
		<circle class="st2" cx="17" cy="17" r="16.5"/>
	</g>
	<path id="Arrow_18_-_www.Shapes4FREE.com1" class="st3" d="M642.5,765.5l6.4-6.5l-6.4-6.5l-1.5,1.5l4.9,5l-4.9,5L642.5,765.5z"/>
	<g class="st4">
		<path class="st3" d="M376.1,754.4c1.7-0.4,4.2-1.2,6.7-1.9l0.2,1.3c-2.1,0.7-4.4,1.4-5.8,1.8c0,0.2-0.1,0.3-0.3,0.4L376.1,754.4z
			 M385,766.6c-0.1,0.1-0.3,0.2-0.5,0.1c-1.9,0.9-4.7,1.9-7,2.5c-0.3-0.3-0.8-0.9-1.1-1.1c2.3-0.5,5.2-1.4,6.9-2.3L385,766.6z
			 M378.1,748.1c1.7,0.4,3.8,1.2,5,1.8l-0.7,1.2c-1.1-0.6-3.3-1.5-5-2L378.1,748.1z M379.3,765.5v-9.6h15.3v9.6H379.3z M380.8,757
			v1.7h12.3V757H380.8z M380.8,759.8v1.7h12.3v-1.7H380.8z M380.8,762.6v1.8h12.3v-1.8H380.8z M390.8,750.5c0.6,1.9,1.9,3.7,6.8,4.4
			c-0.3,0.3-0.7,0.9-0.8,1.3c-4.1-0.7-5.8-2.3-6.7-4.1c-0.8,1.8-2.5,3-6.1,3.7c-0.1-0.3-0.5-0.9-0.7-1.1c3.9-0.7,5.4-1.9,5.9-4.2
			h-2.7c-0.6,0.7-1.3,1.4-2.1,2.1c-0.3-0.3-0.8-0.6-1.2-0.8c1.8-1.2,3-2.9,3.6-4.3l1.8,0.3c0,0.2-0.2,0.3-0.4,0.3
			c-0.2,0.4-0.4,0.8-0.7,1.2h8.5l0.3,0l0.9,0.1c-0.3,0.9-1.6,2.8-2.5,3.5l-1.3-0.5c0.5-0.5,1.1-1.2,1.5-1.9H390.8z M395.7,769.3
			c-1.5-0.8-4.1-1.8-6.7-2.6l1.3-0.8c2.6,0.8,5.4,1.8,7.2,2.6L395.7,769.3z"/>
		<path class="st3" d="M406.8,757.2v1.1c0.8,0.7,3.3,3,3.9,3.6l-1,1.3c-0.5-0.7-1.9-2.2-2.9-3.3v9.3h-1.5v-9.6
			c-1.1,2.5-2.5,5-3.8,6.4c-0.2-0.4-0.6-1.1-0.8-1.5c1.6-1.6,3.3-4.6,4.3-7.3h-4v-1.5h4.3v-8.2l2,0.1c0,0.2-0.1,0.3-0.4,0.3v7.8h4.1
			v1.5H406.8z M402.4,749.2c0.8,1.6,1.4,3.7,1.7,5l-1.3,0.4c-0.2-1.4-0.8-3.5-1.6-5L402.4,749.2z M411.2,749.7
			c-0.1,0.1-0.2,0.2-0.5,0.2c-0.5,1.4-1.4,3.6-2.2,4.9c-0.3-0.1-0.9-0.4-1.1-0.4c0.7-1.4,1.5-3.7,2-5.3L411.2,749.7z M422.5,762.4
			l-3.2,0.6v6.3h-1.5v-6l-6.8,1.2l-0.3-1.5l7.1-1.2v-14.1l2,0.1c0,0.2-0.1,0.3-0.5,0.3v13.4l2.9-0.5L422.5,762.4z M412.7,755.4
			c1.5,1,3.2,2.4,4,3.4c-0.9,0.7-1,0.9-1.1,1c-0.8-1-2.5-2.5-3.9-3.5L412.7,755.4z M413.3,749.2c1.4,1,2.9,2.4,3.6,3.4l-1.2,0.9
			c-0.7-1-2.2-2.5-3.6-3.5L413.3,749.2z"/>
		<path class="st3" d="M434.2,751.5v1.3h-8.8v-1.3H434.2z M433.5,761v6.9h-5.6v1.1h-1.4v-8H433.5z M433.5,754.7v1.3h-6.9v-1.3H433.5
			z M426.6,759.1v-1.3h6.9v1.3H426.6z M433.4,748.4v1.3h-6.7v-1.3H433.4z M432.1,762.3h-4.2v4.2h4.2V762.3z M441.5,755.5h5.8v1.3
			H434v-1.3h5.9v-1.8h-4.4v-1.2h4.4v-1.7h-5v-1.3h5v-2l2,0.1c0,0.2-0.2,0.3-0.5,0.3v1.5h5.2v1.3h-5.2v1.7h4.8v1.2h-4.8V755.5z
			 M445.6,758.2v9.5c0,1.7-0.9,1.7-3.9,1.7c-0.1-0.4-0.3-0.9-0.5-1.3c0.7,0,1.3,0,1.8,0c1,0,1.1,0,1.1-0.4v-2.2h-6.6v3.8h-1.5v-11.1
			H445.6z M444.1,759.5h-6.6v1.8h6.6V759.5z M437.6,764.2h6.6v-1.8h-6.6V764.2z"/>
		<path class="st3" d="M450.2,765.5c2-1,5.1-2.8,8-4.4l0.5,1.4c-2.6,1.6-5.3,3.2-7.1,4.2c0,0.2-0.1,0.4-0.2,0.5L450.2,765.5z
			 M461.9,753.4c0.7,2,1.5,3.9,2.6,5.6c1.5-1.4,3.4-3.3,4.5-4.8l1.6,1.2c-0.1,0.1-0.3,0.2-0.5,0.1c-1.2,1.4-3.2,3.4-4.8,4.7
			c1.8,2.6,4.2,4.7,6.9,5.9c-0.4,0.3-0.9,0.9-1.1,1.4c-4-1.9-7.1-5.8-9.1-10.4v10c0,2.1-1,2.3-5.3,2.3c-0.1-0.5-0.3-1.2-0.6-1.7
			c0.7,0,1.4,0,2,0c2.3,0,2.3,0,2.3-0.6v-13.9h-9.4v-1.5h9.4v-4l2.1,0.1c0,0.2-0.1,0.3-0.4,0.3v3.5h9.6v1.5h-9.6V753.4z
			 M453.4,754.6c1.5,1.3,3.2,3.1,3.9,4.3l-1.3,0.9c-0.7-1.3-2.4-3.2-3.9-4.5L453.4,754.6z M465.2,747.7c1.5,0.8,3.4,1.9,4.4,2.7
			l-1,1.1c-0.9-0.8-2.8-2-4.3-2.9L465.2,747.7z"/>
		<path class="st3" d="M477.4,767.9c-0.7-1.7-1-5.2-1-8.2c0-3.1,0.5-7,1.3-10.9l2.3,0.4c0,0.2-0.3,0.4-0.6,0.4
			c-0.8,3.2-1.4,7.4-1.4,10.1c0,1.8,0,3.6,0.2,4.4c0.5-1.4,1.4-3.6,1.9-4.7l1.1,1c-0.8,1.6-2.4,5.1-2.4,6.2c0,0.3,0.1,0.7,0.2,1.1
			L477.4,767.9z M483.3,754.2c2,0,3.9,0,5.9-0.1c-0.1-2-0.2-3.7-0.2-5.5l2.4,0.1c0,0.2-0.2,0.4-0.6,0.5c0,1.5,0.1,3,0.1,4.8
			c1.8-0.2,3.3-0.5,4.6-0.9l0.2,1.6c-1.1,0.4-2.7,0.7-4.7,0.8c0.1,2.6,0.2,5.3,0.3,6.8c1.8,0.7,3.6,1.9,4.8,3l-0.9,1.5
			c-1-1-2.3-2-3.8-2.7c0,2-0.4,4.2-3.9,4.2c-2.7,0-4.6-1.3-4.6-3.4c0-2.4,2.4-3.4,4.6-3.4c0.7,0,1.5,0.1,2.2,0.3
			c-0.1-1.5-0.2-3.9-0.3-6.2c-0.7,0-1.7,0.1-2.4,0.1h-3.6L483.3,754.2z M489.7,763.3c-0.7-0.2-1.5-0.4-2.3-0.4c-1.4,0-3.1,0.5-3.1,2
			c0,1.3,1.4,2,3.1,2c1.7,0,2.4-0.8,2.4-2.7L489.7,763.3z"/>
		<path class="st3" d="M516.8,766.8c-2.1,0.4-4.8,0.5-7.1,0.5c-2,0-3.7-0.1-4.6-0.3c-2.8-0.6-4-2.4-4-4.5c0-1.8,1-3.6,2.4-5l1.4,0.7
			c-1.3,1.4-2.1,2.8-2.1,4.2c0,1.4,0.9,2.6,2.9,3c0.8,0.2,2.2,0.3,3.8,0.3c2.3,0,5-0.2,7.2-0.6L516.8,766.8z M506.3,755
			c1.2-0.9,2.9-2.1,4.1-2.7v0c-1.8,0.2-5.8,0.3-8.4,0.3c0-0.4,0-1.2,0-1.6c0.5,0,9.5,0.2,13.3-0.7l0.2,1.7c-2.8,0.3-6.4,2.8-7.8,3.9
			L506.3,755z"/>
		<path class="st3" d="M538.2,752.3c-3,0.8-7.3,1.3-10,1.4c-0.3,2.9-0.7,5.3-1.1,6.2c1.8-1.5,4.6-2.5,6.6-2.5c3.5,0,5.6,1.9,5.6,5
			c0,4.6-4.7,6.2-12.3,6.4c-0.1-0.4-0.3-1.1-0.5-1.5c6.7-0.1,11-1.3,11-4.8c0-2.1-1.4-3.6-4.1-3.6c-2.1,0-5.7,1.3-7.2,3.6l-1.6-0.8
			c0.7-0.8,1.5-4.2,1.9-8H521V752c1,0,3.9,0,5.6,0c0.1-1.3,0.1-2.8,0.1-4.2l2.5,0.2c0,0.4-0.3,0.5-0.7,0.5c0,1.2-0.1,2.4-0.2,3.5
			c2.5-0.1,6.8-0.6,9.6-1.4L538.2,752.3z"/>
		<path class="st3" d="M548.5,752.6c-0.1,0.2-0.3,0.4-0.6,0.4c-0.2,3.5-0.6,6.4-1,6.9h0c2.3-1.7,5.9-2.9,8.6-2.9
			c3.6,0,5.8,1.8,5.8,5.1c-0.1,4.3-3.6,6.2-12.7,6.6c-0.1-0.4-0.3-1.1-0.6-1.5c8.2-0.3,11.4-1.7,11.5-5c0-2.2-1.5-3.6-4.3-3.6
			c-4.3,0-8.2,2.6-8.9,3.7l-1.6-0.8c0.5-0.4,1.3-4.6,1.3-9.2L548.5,752.6z M548.9,748c3.2,0.4,6.8,1.1,9.1,2.1l-0.6,1.6
			c-2.4-1-5.9-1.7-9-2.1L548.9,748z"/>
	</g>
</g>
</svg>
