<?xml version="1.0" encoding="utf-8"?>
<!-- Generator: Adobe Illustrator 24.2.0, SVG Export Plug-In . SVG Version: 6.00 Build 0)  -->
<svg version="1.1" id="レイヤー_1" xmlns="http://www.w3.org/2000/svg" xmlns:xlink="http://www.w3.org/1999/xlink" x="0px"
	 y="0px" viewBox="0 0 406 82" style="enable-background:new 0 0 406 82;" xml:space="preserve">
<style type="text/css">
	.st0{fill:#07BE55;}
	.st1{fill:none;}
	.st2{fill:none;stroke:#FFFFFF;}
	.st3{fill:#FFFFFF;}
	.st4{enable-background:new    ;}
</style>
<g id="btn_mail" transform="translate(-285 -601)">
	<rect id="長方形_5" x="285" y="601" class="st0" width="406" height="82"/>
	<g id="楕円形_1" transform="translate(627 625)">
		<circle class="st1" cx="17" cy="17" r="17"/>
		<circle class="st2" cx="17" cy="17" r="16.5"/>
	</g>
	<path id="Arrow_18_-_www.Shapes4FREE.com1" class="st3" d="M642.5,648.5l6.4-6.5l-6.4-6.5l-1.5,1.5l4.9,5l-4.9,5L642.5,648.5z"/>
	<g class="st4">
		<path class="st3" d="M364.1,636.9c-1.2,0.4-2.8,0.7-4.5,0.9c0,1.5,0,3.1,0,4.5c1.8-0.6,3.8-1.1,5.3-1.1c4,0,6.4,2.1,6.4,5.4
			c0,3.1-1.9,5.5-5.5,5.5c-1.7,0-3.3-0.6-4.6-2.2c0.3-0.3,0.6-0.8,0.8-1.2c1.1,1.4,2.4,1.9,3.7,1.9c2.5,0,3.8-1.8,3.8-3.9
			c0-2.3-1.7-4-4.8-4c-1.5,0-3.4,0.4-5.3,1.1c0,1.7,0,4.5,0,5.2c0,2.1-1.4,3.7-3.7,3.7c-2.1,0-3.9-1.3-3.9-3.6
			c0-1.5,1.1-3.2,2.9-4.5c0.8-0.6,1.9-1.2,3.1-1.7V638c-1.9,0.2-3.7,0.2-5.6,0.2l0-1.6c2.1,0,3.9,0,5.6-0.1V632l2.4,0.1
			c0,0.3-0.3,0.4-0.7,0.5c0,0.9-0.1,2.3-0.1,3.6c1.6-0.2,3-0.5,4.2-1L364.1,636.9z M358,648.9c0-0.6,0-2.5,0-4.4
			c-0.9,0.4-1.7,0.9-2.4,1.4c-1.2,0.9-2.1,2.2-2.1,3.2c0,1.2,0.8,2.2,2.4,2.2C357.1,651.2,358,650.4,358,648.9L358,648.9z
			 M371.2,639.7c-1.2-1.2-3.4-2.5-5.3-3.4l0.8-1.4c2,0.9,4.3,2.2,5.5,3.4L371.2,639.7z"/>
		<path class="st3" d="M385.5,640.8h-6.9v12.5H377v-20.7h8.5V640.8z M384,633.8h-5.4v2.1h5.4V633.8z M378.5,639.5h5.4v-2.3h-5.4
			V639.5z M390.9,649.9h-7.4v1.4h-1.5V643h8.9V649.9z M389.4,644.4h-5.9v4.2h5.9V644.4z M396.3,632.6V651c0,1.1-0.3,1.6-1,1.9
			c-0.8,0.3-2.1,0.3-4.2,0.3c-0.1-0.4-0.4-1.2-0.6-1.6c0.8,0,1.6,0,2.2,0c1.8,0,2,0,2-0.6v-10.2h-7.1v-8.2H396.3z M394.8,633.8h-5.6
			v2.1h5.6V633.8z M389.2,639.5h5.6v-2.3h-5.6V639.5z"/>
		<path class="st3" d="M404.5,634.7c0,0.2-0.3,0.4-0.6,0.4c-0.3,1.8-0.4,3.9-0.4,5.8c0,0.9,0,1.7,0.1,2.5c0.3,4,1.9,6.4,3.7,6.4
			c0.9,0,2.1-2.4,3-5c0.3,0.3,1,0.8,1.4,1c-1.1,3.2-2.4,5.7-4.4,5.8c-3,0-5-3.6-5.3-8c-0.1-0.9-0.1-1.9-0.1-2.9
			c0-2.1,0.1-4.3,0.4-6.3L404.5,634.7z M420,645.6c-0.7-4.1-2.7-7-5.9-8.8l1-1.3c3.4,1.8,5.9,5.2,6.6,9.5L420,645.6z"/>
		<path class="st3" d="M437.6,631.7c-0.1,0.2-0.2,0.3-0.5,0.3c2.3,3.1,6.6,6.4,10.2,8.2c-0.4,0.4-0.8,0.9-1,1.4
			c-3.7-1.9-7.9-5.3-10.2-8.4c-1.9,2.9-5.9,6.3-10,8.5c-0.2-0.4-0.7-0.9-1-1.2c4.2-2.1,8.2-5.8,10.1-8.9L437.6,631.7z M429,653.3
			v-9.5h14.4v9.5h-1.6v-1h-11.3v1H429z M430.2,639.3h12v1.4h-12V639.3z M441.8,645.2h-11.3v5.6h11.3V645.2z"/>
		<path class="st3" d="M455.7,632.1l2.4,0.2c-0.1,0.3-0.3,0.4-0.7,0.4c-0.1,1.1-0.2,2.4-0.2,3.3c0.1,0.1,0.4,0.2,0.8,0.3
			c-0.3,0.6-0.7,1.8-1,2.8c0,0.5,0,0.6-0.1,1c2.5-1.8,5.2-2.8,7.6-2.8c4.1,0,6.2,2.8,6.2,6.7c0,4.9-3.9,7.1-10.2,7.7
			c-0.1-0.5-0.4-1.1-0.6-1.5c5.8-0.5,9.1-2.2,9.1-6.2c0-2.9-1.5-5.2-4.7-5.2c-2.5,0-4.9,1-7.5,3.1c0,3.4,0,7.4,0,10.5h-1.6
			c0-1.4,0-8.3,0-9.8c-0.8,1.4-2.6,3.8-4.4,5.4l-0.9-1.4c1.8-1.7,4.3-4.4,5.3-6.9l0.1-1.9c-0.9,0.2-2.8,0.4-4.6,0.4l0-1.6
			c1.6,0,3.6-0.1,4.7-0.3L455.7,632.1z"/>
		<path class="st3" d="M491.1,632.4c0,0.2-0.2,0.4-0.5,0.4c0.1,1.6,0.2,3.6,0.2,5.3c1.8-0.3,3.6-0.6,5-0.8l0.1,1.6
			c-1.4,0.1-3.2,0.4-5.1,0.7c0,2.1,0,4-0.3,5.2c-0.3,1.4-1.3,2.2-2.6,2.2c-1,0-2.3-0.3-3.6-1c0.1-0.4,0.2-0.9,0.3-1.4
			c1.3,0.7,2.5,0.9,3.1,0.9c1.4,0,1.6-1.4,1.5-5.6c-2.7,0.4-5.5,0.9-7.6,1.3c0,2.2,0.1,4.3,0.2,5.7c0.3,3.6,2,3.8,5.4,3.8
			c1.9,0,4.4-0.1,6.1-0.4l0,1.6c-1.7,0.2-4,0.3-6,0.3c-3.6,0-6.8-0.1-7.2-5.1c-0.1-1.3-0.2-3.3-0.2-5.5c-1.4,0.3-3.4,0.6-4.6,0.9
			l-0.3-1.6c1.2-0.2,3.2-0.5,4.8-0.8c0-2,0-4.2,0-6l2.3,0.2c0,0.3-0.2,0.4-0.6,0.4c0,1.4,0,3.3,0,5l7.6-1.3c-0.1-2-0.2-4.3-0.3-6.1
			L491.1,632.4z"/>
		<path class="st3" d="M501.7,651.9c-0.7-1.7-1-5.2-1-8.2c0-3.1,0.5-7,1.3-10.9l2.3,0.4c0,0.2-0.3,0.4-0.6,0.4
			c-0.8,3.2-1.4,7.4-1.4,10.1c0,1.8,0,3.6,0.2,4.4c0.5-1.4,1.4-3.6,1.9-4.7l1.1,1c-0.8,1.6-2.4,5.1-2.4,6.2c0,0.3,0.1,0.7,0.2,1.1
			L501.7,651.9z M507.6,638.2c2,0,3.9,0,5.9-0.1c-0.1-2-0.2-3.7-0.2-5.5l2.4,0.1c0,0.2-0.2,0.4-0.6,0.5c0,1.5,0.1,3,0.1,4.8
			c1.8-0.2,3.3-0.5,4.6-0.9l0.2,1.6c-1.1,0.4-2.7,0.7-4.7,0.8c0.1,2.6,0.2,5.3,0.3,6.8c1.8,0.7,3.6,1.9,4.8,3l-0.9,1.5
			c-1-1-2.3-2-3.8-2.7c0,2-0.4,4.2-3.9,4.2c-2.7,0-4.6-1.3-4.6-3.4c0-2.4,2.4-3.4,4.6-3.4c0.7,0,1.5,0.1,2.2,0.3
			c-0.1-1.5-0.2-3.9-0.3-6.2c-0.7,0-1.7,0.1-2.4,0.1h-3.6L507.6,638.2z M514,647.3c-0.7-0.2-1.5-0.4-2.3-0.4c-1.4,0-3.1,0.5-3.1,2
			c0,1.3,1.4,2,3.1,2c1.7,0,2.4-0.8,2.4-2.7L514,647.3z"/>
		<path class="st3" d="M541.1,650.8c-2.1,0.4-4.8,0.5-7.1,0.5c-2,0-3.7-0.1-4.6-0.3c-2.8-0.6-4-2.4-4-4.5c0-1.8,1-3.6,2.4-5l1.4,0.7
			c-1.3,1.4-2.1,2.8-2.1,4.2c0,1.4,0.9,2.6,2.9,3c0.8,0.2,2.2,0.3,3.8,0.3c2.3,0,5-0.2,7.2-0.6L541.1,650.8z M530.6,639
			c1.2-0.9,2.9-2.1,4.1-2.7v0c-1.8,0.2-5.8,0.3-8.4,0.3c0-0.4,0-1.2,0-1.6c0.5,0,9.5,0.2,13.3-0.7l0.2,1.7c-2.8,0.3-6.4,2.8-7.8,3.9
			L530.6,639z"/>
		<path class="st3" d="M562.5,636.3c-3,0.8-7.3,1.3-10,1.4c-0.3,2.9-0.7,5.3-1.1,6.2c1.8-1.5,4.6-2.5,6.6-2.5c3.5,0,5.6,1.9,5.6,5
			c0,4.6-4.7,6.2-12.3,6.4c-0.1-0.4-0.3-1.1-0.5-1.5c6.7-0.1,11-1.3,11-4.8c0-2.1-1.4-3.6-4.1-3.6c-2.1,0-5.7,1.3-7.2,3.6l-1.6-0.8
			c0.7-0.8,1.5-4.2,1.9-8h-5.5V636c1,0,3.9,0,5.6,0c0.1-1.3,0.1-2.8,0.1-4.2l2.5,0.2c0,0.4-0.3,0.5-0.7,0.5c0,1.2-0.1,2.4-0.2,3.5
			c2.5-0.1,6.8-0.6,9.6-1.4L562.5,636.3z"/>
		<path class="st3" d="M572.8,636.6c-0.1,0.2-0.3,0.4-0.6,0.4c-0.2,3.5-0.6,6.4-1,6.9h0c2.3-1.7,5.9-2.9,8.6-2.9
			c3.6,0,5.8,1.8,5.8,5.1c-0.1,4.3-3.6,6.2-12.7,6.6c-0.1-0.4-0.3-1.1-0.6-1.5c8.2-0.3,11.4-1.7,11.5-5c0-2.2-1.5-3.6-4.3-3.6
			c-4.3,0-8.2,2.6-8.9,3.7l-1.6-0.8c0.5-0.4,1.3-4.6,1.3-9.2L572.8,636.6z M573.2,632c3.2,0.4,6.8,1.1,9.1,2.1l-0.6,1.6
			c-2.4-1-5.9-1.7-9-2.1L573.2,632z"/>
	</g>
</g>
</svg>
