<?xml version="1.0" encoding="utf-8"?>
<!-- Generator: Adobe Illustrator 24.2.0, SVG Export Plug-In . SVG Version: 6.00 Build 0)  -->
<svg version="1.1" id="レイヤー_1" xmlns="http://www.w3.org/2000/svg" xmlns:xlink="http://www.w3.org/1999/xlink" x="0px"
	 y="0px" viewBox="0 0 584.7 179" style="enable-background:new 0 0 584.7 179;" xml:space="preserve">
<style type="text/css">
	.st0{fill:#E61E1E;}
	.st1{enable-background:new    ;}
	.st2{fill:#FFFFFF;}
</style>
<g id="logo" transform="translate(-278 -157.01)">
	<rect id="シェイプ_1" x="281" y="334" class="st0" width="119" height="2"/>
	<g id="logo-2" transform="translate(263 580)">
		<g id="レイヤー_14" transform="translate(15 -350)">
			<path id="パス_28" d="M37.4,36.2h-12l1.7-7.8h22.5l-5.9,27.8c-5.6,2.1-11.4,3.1-17.4,3.2C11.6,59.4,0,52,0,37.5
				C0,15.2,17.1,3.6,36.7,3.6c5.1-0.2,10.2,0.7,15,2.6L49,15c-3.8-2.1-8.1-3.2-12.4-3c-14.4,0-24.2,9.9-24.2,24.4
				c0,7.9,5,14.6,15.4,14.6c2.3,0,4.6-0.3,6.8-0.9L37.4,36.2z"/>
			<path id="パス_29" d="M87.2,56.2c-4.9,2.2-10.1,3.3-15.5,3.2c-8.8,0-17.2-3.4-17.2-14C54.4,29.1,66.7,17,81.1,17
				c6.6,0,14,2.4,14,9.8c0,12.8-18.8,14.5-28.9,14.5c-0.3,1-0.4,2.1-0.4,3.1c0,5.4,4.3,7.6,9.2,7.6c4.4,0,8.7-1.3,12.5-3.6
				L87.2,56.2z M85,27.5c0-3-2.2-4-4.9-4c-6.1,0-10.7,6.2-12.3,11.4c1.9,0,3.7-0.1,5.8-0.2C79.4,34.1,85,32.4,85,27.5z"/>
			<path id="パス_30" d="M104,26.9c0.7-3,1.2-6,1.5-9.1h10.5l-1.2,7.2c3.9-5.4,7.9-8,14.7-8c6.7,0,11.1,3.2,11.1,10
				c0,1.6-0.2,3.1-0.5,4.6l-5.6,26.9h-11.2l5.1-24.5c0.4-1.4,0.6-2.8,0.6-4.2c0-3.2-1.5-5.3-5.4-5.3c-6,0-9,5.4-10.1,10.7l-5,23.3
				H97.4L104,26.9z"/>
			<path id="パス_31" d="M179.2,56.2c-4.9,2.2-10.2,3.3-15.5,3.2c-8.8,0-17.2-3.4-17.2-14c0-16.2,12.2-28.4,26.7-28.4
				c6.6,0,14.1,2.4,14.1,9.8c0,12.8-18.8,14.5-28.9,14.5c-0.3,1-0.4,2.1-0.4,3.1c0,5.4,4.3,7.6,9.2,7.6c4.4,0,8.7-1.3,12.5-3.6
				L179.2,56.2z M177.1,27.5c0-3-2.2-4-4.9-4c-6.1,0-10.7,6.2-12.2,11.4c1.9,0,3.7-0.1,5.8-0.2C171.5,34.1,177.1,32.4,177.1,27.5
				L177.1,27.5z"/>
			<path id="パス_32" d="M189.5,58.5l6.7-31.7c0.7-3,1.2-6,1.6-9h10.5l-1.5,8.4c2.6-4.9,7.5-9.3,13.3-9.3c1.1,0,2.2,0.1,3.2,0.4
				l-2.6,10.3c-1.1-0.4-2.2-0.6-3.3-0.6c-7.4,0-11.6,7.1-12.9,13.7l-3.8,17.9L189.5,58.5z"/>
			<path id="パス_33" d="M249.8,58.5c0.1-3.5,0.6-6.9,1.3-10.3c-4.1,7.5-9.8,11.2-16.3,11.2c-7.5,0-12.3-5.1-12.3-13.6
				c0-16,12.3-28.9,29.5-28.9c5.3,0,10.6,0.6,15.7,1.8L263,40.7c-1.4,5.9-2.2,11.8-2.5,17.9L249.8,58.5z M255.1,25.1
				c-1.3-0.4-2.6-0.6-3.9-0.6c-8.9,0-17,10.3-17,20.6c0,3.9,1.9,6.7,5.1,6.7c6.4,0,11.8-8.3,13.5-16.3L255.1,25.1z"/>
			<path id="パス_34" d="M270.4,58.5L282.9,0h11.3l-12.4,58.5H270.4z"/>
			<path id="パス_35" d="M293.2,58.5l8.5-40.7h11.3l-8.5,40.7H293.2z M303.3,10.3l1.9-9h11.4l-1.9,9H303.3z"/>
			<path id="パス_36" d="M316.6,49.2c3.4,1.7,7.2,2.6,11,2.6c4.1,0,7.1-1.4,7.1-5c0-6.7-15-5.9-15-16.9
				c0-10.2,10.3-13.1,18.5-13.1c4,0,8,0.7,11.8,1.9l-2.6,7.7c-3-1.6-6.3-2.4-9.7-2.4c-4.2,0-7.1,1.3-7.1,4.6c0,5.8,15.4,6,15.4,16.7
				c0,11.5-10.6,14-19,14c-4.4,0-8.7-0.7-12.9-2L316.6,49.2z"/>
			<path id="パス_37" d="M361,25.2h-7.3l1.6-7.5h7.3l1.7-8.3l12-3.6l-2.5,12h8.9l-1.7,7.5h-8.7l-4.1,19c-0.3,1.3-0.5,2.5-0.6,3.8
				c0,2.7,1.6,3.6,3.9,3.6c1.6,0,3.2-0.3,4.6-1l-1,7.3c-2.7,1-5.6,1.5-8.4,1.5c-5.8,0-10.5-1.7-10.5-8.8c0.1-1.9,0.3-3.8,0.7-5.6
				L361,25.2z"/>
			<path id="パス_38" d="M394.8,15.2c0-8.2,6.7-14.9,14.9-14.9c8.2,0,14.9,6.7,14.9,14.9c0,8.2-6.7,14.9-14.9,14.9
				c-2,0-4-0.4-5.8-1.2C398.4,26.6,394.8,21.2,394.8,15.2z M409.7,28c7-0.1,12.5-5.8,12.5-12.8c0.3-6.9-5.1-12.7-12-12.9
				c-6.9-0.3-12.7,5.1-12.9,12c0,0.3,0,0.6,0,0.9c0,3.4,1.3,6.6,3.6,9C403.2,26.6,406.4,28,409.7,28L409.7,28z M404.1,23.6V6.2h5.3
				c3.1,0,5.8,1.3,5.8,4.5c-0.2,2.3-2.1,4-4.3,4.2c1.2,0.2,2.3,1,2.7,2.2l2.9,6.4h-2.4l-2.5-5.5c-0.4-1.6-2-2.6-3.6-2.3h-1.6v7.8
				L404.1,23.6z M406.4,13.8h2.1c2.2,0,4.5-0.6,4.5-2.9s-2.3-2.6-4.6-2.6h-2L406.4,13.8z"/>
			<path id="パス_39" d="M422.4,58.5l27-54.1h8.5L431,58.5H422.4z"/>
			<path id="パス_40" d="M461.9,58.5l11.5-54.1h12L475.9,49h23.8l-2,9.5L461.9,58.5z"/>
			<path id="パス_41" d="M509.4,58.5l-3-54.1h11.5l1.2,43l20.7-43h12.3l2.2,43l19.6-43h10.9l-25.8,54.1h-13.3l-2.3-43.1
				l-20.5,43.1L509.4,58.5z"/>
		</g>
	</g>
	<path id="長方形_2" class="st0" d="M310.5,157h418.7l-25.5,44H285L310.5,157z"/>
	<g class="st1">
		<path class="st2" d="M329.4,180.8c0.2,1.7,0.4,2.6,1.2,3.6c0.9,1.1,2.4,1.8,4,1.8c1.6,0,2.9-0.6,3.8-1.6c0.4-0.4,0.6-0.8,0.9-1.7
			l3.7,1.2c-0.7,1.5-1.1,2.1-1.9,2.9c-1.7,1.6-3.9,2.4-6.5,2.4c-5.6,0-9.2-3.7-9.2-9.7c0-5.9,3.5-9.7,9-9.7c3.7,0,6.6,1.8,7.9,5
			c0.6,1.5,0.8,2.7,0.9,4.8c0,0.1,0,0.2,0.1,0.9H329.4z M339.1,177.7c-0.2-1.4-0.6-2.3-1.4-3c-0.9-0.9-1.9-1.3-3.4-1.3
			c-2.5,0-4.3,1.7-4.8,4.3H339.1z"/>
	</g>
	<g class="st1">
		<path class="st2" d="M367.5,177.2c-0.3,0.5-0.4,0.8-0.7,1.6c-1.3,3.7-3.2,6.5-5.8,8.5c-1.8,1.4-3.4,2.2-6.6,3.4
			c-0.6-1.3-0.9-1.7-2-2.9c3.1-0.8,5.1-1.7,7-3.3c1.9-1.6,2.9-3.1,4-5.9h-12.2c-1.7,0-2.3,0-3.2,0.1v-3.1c1,0.2,1.5,0.2,3.3,0.2h12
			c1.6,0,2.1,0,2.8-0.2L367.5,177.2z M350.2,169.5c0.8,0.2,1.4,0.2,2.9,0.2h8.8c1.6,0,2.1,0,2.9-0.2v3.1c-0.8-0.1-1.3-0.1-2.9-0.1
			h-8.9c-1.6,0-2.1,0-2.9,0.1V169.5z"/>
		<path class="st2" d="M372.2,177.9c1.1,0.2,1.6,0.2,4.1,0.2h13.4c2.5,0,3,0,4.1-0.2v3.5c-1-0.1-1.3-0.1-4.1-0.1h-13.4
			c-2.8,0-3.1,0-4.1,0.1V177.9z"/>
		<path class="st2" d="M397.6,184.2c1,0.2,1.5,0.2,3.2,0.2h14.4c1.7,0,2.3,0,3.2-0.2v3.4c-0.9-0.1-1.5-0.1-3.2-0.1h-14.5
			c-1.6,0-2.3,0-3.2,0.1V184.2z M400.2,171.9c0.9,0.2,1.5,0.2,3,0.2h9.9c1.5,0,2.1,0,3-0.2v3.3c-0.8-0.1-1.4-0.1-2.9-0.1h-9.9
			c-1.5,0-2.1,0-2.9,0.1V171.9z"/>
		<path class="st2" d="M423.2,186.3c2.2-0.1,5.2-0.9,7.4-1.9c3.1-1.4,5.5-3.3,7.5-6.2c1.1-1.6,1.8-3,2.6-5c1,1.2,1.4,1.6,2.7,2.5
			c-2.1,4.6-4.5,7.6-8,9.9c-2.6,1.7-5.7,2.9-9.6,3.8c-1,0.2-1.1,0.2-1.7,0.4L423.2,186.3z M425.4,170.7c3,1.9,4.6,3,6.5,4.9
			l-2.2,2.7c-2-2.1-4.1-3.8-6.4-5.1L425.4,170.7z"/>
		<path class="st2" d="M466.5,173.7c-0.2,0.3-0.4,0.6-0.6,1.5c-1.5,4.5-2.7,6.7-5.1,9.5c-2.2,2.6-5.3,4.8-9,6.4
			c-0.7-1.2-1.1-1.7-2.1-2.6c6.6-2.5,10.8-7,12.9-13.6L455,175c-1.4,2.3-3.8,4.9-5.9,6.5c-0.8-1-1.1-1.4-2.4-2.2
			c2.7-1.8,4.7-4.1,6.5-7.3c0.8-1.4,1.2-2.5,1.3-3.3l3.4,0.7c-0.2,0.2-0.2,0.3-0.4,0.8c-0.2,0.5-0.4,1-0.7,1.5
			c-0.1,0.2-0.1,0.3-0.2,0.4l-0.2,0.4c0.3,0,0.7,0,1.2,0l5.5-0.1c0.7,0,1.1,0,1.3,0c-0.6-1.3-1-2.1-1.8-3.1l1.9-0.6
			c1,1.3,1.6,2.3,2.2,4l-1.1,0.4L466.5,173.7z M468.2,171.9c-0.6-1.5-1.3-2.8-2.2-3.9l1.8-0.6c1,1.3,1.6,2.3,2.2,3.8L468.2,171.9z"
			/>
		<path class="st2" d="M491.2,173.2c-0.3,0.4-0.4,0.6-0.6,1.5c-1.2,3.8-2.9,7.2-5.2,9.7c-2.3,2.6-5.1,4.6-9,6.4
			c-0.7-1.3-1-1.7-2.1-2.6c2.5-1,3.9-1.8,5.5-3c3.6-2.7,6-6.1,7.3-10.6l-7.6,0.1c-1.5,2.4-3.5,4.6-5.9,6.4c-0.8-1-1.1-1.4-2.4-2.2
			c2.9-2,4.7-4,6.5-7.3c0.8-1.4,1.2-2.4,1.3-3.3l3.4,0.7c-0.2,0.2-0.2,0.2-0.4,0.8c-0.1,0.1-0.1,0.1-0.3,0.7
			c-0.1,0.2-0.1,0.2-0.3,0.7c-0.2,0.4-0.2,0.4-0.4,0.8c0.3,0,0.7-0.1,1.2-0.1l5.5-0.1c1,0,1.3,0,1.8-0.3L491.2,173.2z"/>
		<path class="st2" d="M515.4,177.2c-0.3,0.5-0.4,0.8-0.7,1.6c-1.3,3.7-3.2,6.5-5.8,8.5c-1.8,1.4-3.4,2.2-6.6,3.4
			c-0.6-1.3-0.9-1.7-2-2.9c3.1-0.8,5.1-1.7,7-3.3c1.9-1.6,2.9-3.1,4-5.9h-12.2c-1.7,0-2.3,0-3.2,0.1v-3.1c1,0.2,1.5,0.2,3.3,0.2h12
			c1.6,0,2.1,0,2.8-0.2L515.4,177.2z M498,169.5c0.8,0.2,1.4,0.2,2.9,0.2h8.8c1.6,0,2.1,0,2.9-0.2v3.1c-0.8-0.1-1.3-0.1-2.9-0.1
			h-8.9c-1.6,0-2.1,0-2.9,0.1V169.5z"/>
		<path class="st2" d="M539.8,174c-0.2,0.5-0.3,0.6-0.4,1.4c-0.4,2.9-0.8,4.3-1.6,6.1c-1.2,2.9-3.2,5.1-6.2,6.9
			c-1.5,0.9-2.8,1.5-5,2.3c-0.6-1.3-0.9-1.7-2-3c2.4-0.6,3.8-1.1,5.4-2.1c3.6-2.3,5.6-5.5,6-10.1h-12.3v3.2c0,0.8,0,1.5,0.1,2h-3.4
			c0.1-0.6,0.1-1.4,0.1-2.1V175c0-1.1,0-1.7-0.1-2.4c0.9,0.1,1.3,0.1,2.7,0.1h4.9v-2.2c0-0.8,0-1.3-0.1-1.8h3.5
			c-0.1,0.4-0.1,1.1-0.1,1.8v2.2h4.5c1.9,0,1.9,0,2.5-0.2L539.8,174z"/>
		<path class="st2" d="M546.6,190.4c0.1-0.7,0.2-1.4,0.2-2.8v-16.1c0-1.5-0.1-2-0.2-2.6h3.4c-0.1,0.7-0.1,1.2-0.1,2.6v4.7
			c2.9,1,7.4,3.1,11.4,5.3l-1.8,3c-1.8-1.3-5.3-3.2-8.9-4.8c-0.6-0.3-0.7-0.3-0.9-0.4c0.1,0.7,0.1,1.1,0.1,1.7v6.6
			c0,1.4,0,2.1,0.1,2.8H546.6z M556.9,170.2c1.1,1.2,1.8,2.1,2.6,3.7l-1.8,0.9c-0.8-1.5-1.5-2.5-2.6-3.7L556.9,170.2z M560.8,173.3
			c-0.8-1.4-1.6-2.6-2.6-3.6l1.7-0.9c1.1,1.2,1.8,2.1,2.6,3.5L560.8,173.3z"/>
		<path class="st2" d="M580.5,173.8l0-1.1v-0.8c0-1.7,0-2.2-0.1-2.8h3.2c-0.1,0.6-0.1,0.7-0.1,1.7c0,1.5,0,1.5,0,3h1.6
			c1.8,0,2.3,0,3.3-0.2v3.1c-0.9-0.1-1.6-0.1-3.2-0.1h-1.7c0,3,0,3.2-0.2,4.1c-0.4,3.2-1.4,5.4-3.6,7.2c-1.4,1.2-2.6,1.8-4.9,2.6
			c-0.5-1.1-0.8-1.6-1.9-2.7c2.4-0.7,3.6-1.3,4.8-2.4c1.7-1.5,2.4-3.1,2.7-6c0.1-0.6,0.1-1.2,0.1-2.9h-6.5v3.8c0,1.1,0,1.5,0.1,2.1
			h-3.3c0.1-0.6,0.1-1.2,0.1-2.2v-3.7h-1.5c-1.7,0-2.3,0-3.2,0.1v-3.1c1,0.2,1.5,0.2,3.3,0.2h1.5v-2.5c0-1.1,0-1.6-0.1-2.2h3.3
			c-0.1,0.8-0.1,0.9-0.1,2.2v2.6H580.5z"/>
		<path class="st2" d="M592.3,177.9c1.1,0.2,1.6,0.2,4.1,0.2h13.4c2.5,0,3,0,4.1-0.2v3.5c-1-0.1-1.3-0.1-4.1-0.1h-13.4
			c-2.8,0-3.1,0-4.1,0.1V177.9z"/>
		<path class="st2" d="M623.4,177.3c3.8-0.7,9.4-2.9,11-4.5l2,2.8c-0.2,0.1-0.9,0.4-2.3,1.1c-3.4,1.6-6.9,2.8-10.7,3.5v3.3
			c0,0.1,0,0.3,0,0.3c0,1.5,0.1,2,0.5,2.4c0.4,0.5,1.9,0.7,4.3,0.7c1.7,0,4-0.2,5.8-0.4c1.2-0.2,1.8-0.3,2.9-0.6l0.2,3.3
			c-0.5,0-0.7,0-3.3,0.3c-1.5,0.2-4.7,0.3-6.2,0.3c-3.2,0-4.9-0.3-5.9-1.1c-0.7-0.5-1.1-1.3-1.2-2.6c-0.1-0.4-0.1-0.9-0.1-2.3
			l0-11.7c0-1.3,0-1.7-0.1-2.3h3.4c-0.1,0.6-0.1,1.1-0.1,2.3V177.3z M635.4,168.7c1,1.1,1.7,2.2,2.5,3.8l-1.8,0.8
			c-0.8-1.6-1.4-2.6-2.5-3.8L635.4,168.7z M639.1,171.8c-0.7-1.4-1.5-2.6-2.4-3.7l1.7-0.8c1.1,1.3,1.8,2.2,2.5,3.6L639.1,171.8z"/>
		<path class="st2" d="M662.6,190.1c-2.1-2.6-5-5.4-7.7-7.5c-2.8,3.2-5.7,5.4-9.6,7.3c-0.7-1.3-1-1.7-2-2.8c1.9-0.8,3.1-1.4,5-2.8
			c3.8-2.7,6.8-6.3,8.4-10.2l0.3-0.7c-0.4,0-0.4,0-8.3,0.2c-1.2,0-1.9,0.1-2.7,0.2l-0.1-3.2c0.7,0.1,1.2,0.2,2.2,0.2
			c0.1,0,0.3,0,0.6,0l8.9-0.1c1.4,0,1.6-0.1,2.2-0.3l1.7,1.7c-0.3,0.4-0.5,0.7-0.8,1.4c-1.2,2.7-2.4,4.9-3.9,6.9
			c1.6,1.1,2.9,2.1,4.7,3.6c0.6,0.6,0.6,0.6,3.7,3.5L662.6,190.1z"/>
	</g>
</g>
</svg>
