<svg xmlns="http://www.w3.org/2000/svg" xmlns:xlink="http://www.w3.org/1999/xlink" width="169" height="27" viewBox="0 0 169 27">
  <defs>
    <style>
      .cls-1 {
        fill: none;
      }

      .cls-2 {
        clip-path: url(#clip-path);
      }

      .cls-3, .cls-4 {
        fill: #e61e1e;
      }

      .cls-3 {
        fill-rule: evenodd;
      }
    </style>
    <clipPath id="clip-path">
      <rect id="crop" class="cls-1" width="169" height="27" transform="translate(24.853 24.732)"/>
    </clipPath>
  </defs>
  <g id="logo_toshiba" class="cls-2" transform="translate(-24.853 -24.732)">
    <g id="グループ_12" data-name="グループ 12">
      <rect id="長方形_7" data-name="長方形 7" class="cls-1" width="218.707" height="76.441" transform="translate(0 0)"/>
      <g id="グループ_11" data-name="グループ 11">
        <g id="グループ_10" data-name="グループ 10">
          <path id="パス_19" data-name="パス 19" class="cls-3" d="M178.632,40.58l2.486-8.8h.04l2.484,8.8Zm7.92,10.381h7.3l-7.531-25.48H175.954l-7.532,25.48h7.3l1.332-4.716h8.167Z"/>
          <path id="パス_20" data-name="パス 20" class="cls-3" d="M56.581,38.221c0-1.4.034-2.229.063-2.842.191-3.932,1.707-4.392,4.65-4.392s4.46.46,4.651,4.392c.029.614.063,1.441.063,2.842s-.034,2.229-.063,2.842c-.191,3.933-1.707,4.394-4.651,4.394s-4.46-.46-4.65-4.394C56.615,40.45,56.581,39.623,56.581,38.221Zm4.714,13.2c7.5,0,11.117-1.353,11.63-8.286.123-1.651.147-3.346.147-4.913s-.024-3.263-.147-4.913c-.513-6.933-4.135-8.285-11.63-8.285s-11.116,1.352-11.631,8.285c-.122,1.65-.146,3.346-.146,4.913s.024,3.262.146,4.913C50.179,50.068,53.8,51.421,61.295,51.421Z"/>
          <path id="パス_21" data-name="パス 21" class="cls-3" d="M24.853,25.481v6.352h7.429V50.961h7.433V31.833h7.429V25.481Z"/>
          <rect id="長方形_8" data-name="長方形 8" class="cls-4" width="7.053" height="25.48" transform="translate(131.848 25.481)"/>
          <path id="パス_22" data-name="パス 22" class="cls-3" d="M110.519,34.784v-9.3h-7.012v25.48h7.012V41.137h8.149v9.824h7.012V25.481h-7.012v9.3Z"/>
          <path id="パス_23" data-name="パス 23" class="cls-3" d="M152.164,31.307h4.861a1.844,1.844,0,0,1,2.058,2.1,1.9,1.9,0,0,1-2.058,2.06h-4.861Zm0,9.188h4.861c1.968,0,2.379.884,2.379,2.32a2.112,2.112,0,0,1-2.379,2.319h-4.861Zm9.938-2.848c3.122-.821,4.037-2.738,4.037-5.5,0-5.6-3.438-6.669-8.323-6.669H145.151v25.48h13.294c6.12,0,8.177-2.7,8.177-6.856C166.622,41.206,165.974,38.649,162.1,37.647Z"/>
          <path id="パス_24" data-name="パス 24" class="cls-3" d="M77.159,42.6h6.685c.007,1.236.161,2.065.745,2.518.667.515,1.263.683,3.237.683,1.9,0,3.983,0,3.983-2.4,0-1.894-1.163-2.326-3.311-2.443-5.326-.291-7.253-.445-9.239-1.955-1.35-1.028-2.053-3.035-2.053-5.75,0-4.612,1.57-6.231,3.834-7.357,2.337-1.166,11.509-1.166,13.977,0,3.1,1.465,3.194,4.64,3.194,7.581H91.541c-.013-1.5-.343-1.921-.613-2.2a4.42,4.42,0,0,0-3.1-.761c-1.722,0-3.718.081-3.718,2.225,0,1.636.69,2.32,2.506,2.439,2.488.166,7.4.328,9.143,1.386,2.456,1.489,3.087,3.5,3.087,6.784,0,4.744-1.655,6.139-3.958,7.18-2.657,1.2-11.541,1.2-14.429-.091C77.224,48.989,77.159,46.109,77.159,42.6Z"/>
        </g>
      </g>
    </g>
  </g>
</svg>
