<?xml version="1.0" encoding="utf-8"?>
<!-- Generator: Adobe Illustrator 24.2.0, SVG Export Plug-In . SVG Version: 6.00 Build 0)  -->
<svg version="1.1" id="レイヤー_1" xmlns="http://www.w3.org/2000/svg" xmlns:xlink="http://www.w3.org/1999/xlink" x="0px"
	 y="0px" viewBox="0 0 35 110" style="enable-background:new 0 0 35 110;" xml:space="preserve">
<style type="text/css">
	.st0{enable-background:new    ;}
</style>
<g class="st0">
	<path d="M17.7,1.5c2.5,0,4.1,0.1,5,0.2c0.8,0.2,1.5,0.4,2,0.7c1,0.5,1.9,1.3,2.6,2.5c0.8,1.1,1.2,2.5,1.2,4.2
		c0,1.7-0.4,3.1-1.2,4.2c-0.8,1.1-1.7,1.9-2.6,2.4c-0.5,0.4-1.2,0.6-2,0.7c-0.8,0.1-2.5,0.2-5,0.2c-2.4,0-4.1-0.1-5-0.2
		c-0.9-0.1-1.5-0.4-2.1-0.7c-1-0.5-1.9-1.3-2.6-2.4c-0.8-1.1-1.2-2.5-1.2-4.2c0-1.7,0.4-3.1,1.2-4.2c0.8-1.1,1.6-2,2.6-2.5
		C11,2.3,11.3,2.2,11.6,2c0.3-0.1,0.7-0.2,1.1-0.3C13.6,1.6,15.2,1.5,17.7,1.5z M17.7,4.8c-2.1,0-3.5,0.1-4.3,0.2
		c-0.7,0.1-1.3,0.4-1.8,0.8c-0.4,0.3-0.8,0.8-1.1,1.3c-0.3,0.5-0.5,1.2-0.5,2c0,0.8,0.2,1.4,0.5,2c0.3,0.5,0.6,1,1.1,1.3
		c0.5,0.4,1.1,0.7,1.8,0.9c0.7,0.1,2.2,0.2,4.3,0.2s3.5-0.1,4.3-0.2c0.7-0.2,1.3-0.4,1.8-0.9c0.4-0.3,0.8-0.8,1.1-1.3
		c0.3-0.6,0.4-1.2,0.5-2c0-0.8-0.2-1.4-0.5-2c-0.3-0.6-0.7-1-1.1-1.3c-0.5-0.4-1-0.7-1.8-0.8C21.2,4.9,19.8,4.8,17.7,4.8z"/>
	<path d="M22.2,21.8v3.1h-1.6v0.1c1.2,1,1.8,2.3,1.8,4c0,1.2-0.4,2.3-1.2,3.2l-2.7-2.2c0.5-0.6,0.8-1.3,0.8-2c0-0.8-0.3-1.5-0.8-2
		c-0.5-0.6-1.3-0.9-2.4-1H7v-3.1H22.2z"/>
	<path d="M22.2,35v3.1H7V35H22.2z M28.4,35v3.1h-3.1V35H28.4z"/>
	<path d="M8.6,52.2c-1.1-1-1.7-2.3-1.8-3.9c0-1,0.2-1.8,0.6-2.5c0.4-0.7,0.8-1.2,1.2-1.6c0.5-0.4,1.1-0.7,1.8-0.9
		c0.7-0.2,2.1-0.3,4.1-0.3c2,0,3.4,0.1,4.1,0.3c0.7,0.2,1.3,0.5,1.8,0.9c0.5,0.4,0.9,0.9,1.3,1.6c0.4,0.7,0.6,1.5,0.6,2.5
		c0,1.5-0.6,2.8-1.8,3.9h1.6v3.1H7.4c-2.3,0-4-0.7-5-2c-1.1-1.3-1.7-2.8-1.7-4.6c0-2.1,0.9-3.8,2.5-5.3l1.9,2.4
		c-0.4,0.4-0.7,0.8-0.9,1.3c-0.3,0.5-0.4,1.1-0.5,1.6c0,1,0.3,1.9,0.9,2.5c0.6,0.6,1.4,0.9,2.4,1H8.6z M14.6,46.2
		c-1.2,0-2,0-2.4,0.1c-0.5,0.1-0.8,0.2-1.1,0.5c-0.3,0.2-0.5,0.5-0.7,0.9c-0.3,0.4-0.4,0.9-0.4,1.5s0.1,1.1,0.4,1.5
		c0.2,0.4,0.5,0.7,0.7,0.9c0.3,0.3,0.7,0.4,1.1,0.5c0.4,0.1,1.2,0.1,2.4,0.1c1.2,0,2,0,2.5-0.1c0.5-0.1,0.8-0.3,1.1-0.5
		c0.3-0.2,0.5-0.5,0.8-0.9c0.2-0.4,0.3-0.9,0.4-1.5c0-0.6-0.1-1.1-0.4-1.5c-0.3-0.4-0.5-0.7-0.8-0.9c-0.3-0.3-0.7-0.4-1.1-0.5
		C16.6,46.2,15.8,46.2,14.6,46.2z"/>
	<path d="M22.2,60.8v3.1H7v-3.1H22.2z M28.4,60.8v3.1h-3.1v-3.1H28.4z"/>
	<path d="M22.2,69.4v3.1h-1.6v0.1c1.2,1,1.8,2.3,1.8,4c0,1.3-0.4,2.4-1.3,3.5c-0.9,1-2.2,1.6-4,1.6H7v-3.1h9.1
		c1.1,0,1.9-0.3,2.4-0.8c0.6-0.6,0.8-1.3,0.8-2.2s-0.3-1.6-0.8-2.2c-0.6-0.6-1.4-0.9-2.4-0.9H7v-3.1H22.2z"/>
	<path d="M8.3,95L8.3,95c-0.5-0.3-0.9-0.8-1.1-1.4C7,93,6.8,92.2,6.8,91.2c0-1.7,0.5-3,1.3-3.9c0.9-1,2-1.5,3.3-1.5
		c1.3,0,2.3,0.4,3.2,1.3c0.9,0.8,1.3,2.1,1.3,3.7V95h1.6c1.3,0,2-1,1.9-3.1c0-0.8-0.1-1.4-0.2-1.8c-0.2-0.5-0.5-0.8-0.9-1.1l1.8-2.4
		c1.5,1.2,2.3,2.9,2.2,5.1c0,1.9-0.3,3.4-1.1,4.6c-0.8,1.1-2.1,1.7-3.9,1.7H7V95H8.3z M13.4,95v-3.7c0-1.8-0.6-2.7-1.8-2.6
		c-0.5,0-1,0.2-1.3,0.7c-0.4,0.4-0.6,1.2-0.6,2.2c0,1.3,0.1,2.2,0.5,2.7c0.3,0.5,1.1,0.7,2.2,0.7H13.4z"/>
	<path d="M28.4,103.5v3.1H10.9c-0.7,0-1,0.4-1,1.1v1.1H7v-1.4c0-1.1,0.3-2,0.8-2.8c0.6-0.8,1.5-1.1,2.9-1.1H28.4z"/>
</g>
</svg>
