<?xml version="1.0" encoding="utf-8"?>
<!-- Generator: Adobe Illustrator 24.2.0, SVG Export Plug-In . SVG Version: 6.00 Build 0)  -->
<svg version="1.1" id="レイヤー_1" xmlns="http://www.w3.org/2000/svg" xmlns:xlink="http://www.w3.org/1999/xlink" x="0px"
	 y="0px" viewBox="0 0 35 62" style="enable-background:new 0 0 35 62;" xml:space="preserve">
<style type="text/css">
	.st0{enable-background:new    ;}
</style>
<g class="st0">
	<path d="M28.4,2.3V10c0,0.8-0.1,1.7-0.2,2.4c-0.2,0.8-0.6,1.6-1.3,2.4c-0.5,0.7-1.2,1.2-2.1,1.6c-0.9,0.4-1.9,0.7-3,0.7
		c-1.6,0-3-0.6-4.3-1.7c-1.4-1.1-2.1-2.8-2.1-5V5.5H7V2.3H28.4z M18.4,5.5v4.8c0,1.2,0.4,2.1,1.1,2.7c0.7,0.6,1.5,0.9,2.3,0.9
		c0.7,0,1.3-0.1,1.8-0.4c0.4-0.2,0.8-0.6,1-1c0.4-0.7,0.6-1.4,0.6-2.3V5.5H18.4z"/>
	<path d="M28.4,21.3v3.1H10.9c-0.7,0-1,0.4-1,1.1v1.1H7v-1.4c0-1.1,0.3-2,0.8-2.8c0.6-0.8,1.5-1.1,2.9-1.1H28.4z"/>
	<path d="M8.3,38.5L8.3,38.5c-0.5-0.3-0.9-0.8-1.1-1.4c-0.3-0.6-0.4-1.4-0.4-2.4c0-1.7,0.5-3,1.3-3.9c0.9-1,2-1.5,3.3-1.5
		c1.3,0,2.3,0.4,3.2,1.3c0.9,0.8,1.3,2.1,1.3,3.7v4.2h1.6c1.3,0,2-1,1.9-3.1c0-0.8-0.1-1.4-0.2-1.8c-0.2-0.5-0.5-0.8-0.9-1.1
		l1.8-2.4c1.5,1.2,2.3,2.9,2.2,5.1c0,1.9-0.3,3.4-1.1,4.6c-0.8,1.1-2.1,1.7-3.9,1.7H7v-3.1H8.3z M13.4,38.5v-3.7
		c0-1.8-0.6-2.7-1.8-2.6c-0.5,0-1,0.2-1.3,0.7c-0.4,0.4-0.6,1.2-0.6,2.2c0,1.3,0.1,2.2,0.5,2.7c0.3,0.5,1.1,0.7,2.2,0.7H13.4z"/>
	<path d="M22.2,47v3.1h-1.6v0.1c1.2,1,1.8,2.3,1.8,4c0,1.3-0.4,2.4-1.3,3.5c-0.9,1-2.2,1.6-4,1.6H7v-3.1h9.1c1.1,0,1.9-0.3,2.4-0.8
		c0.6-0.6,0.8-1.3,0.8-2.2s-0.3-1.6-0.8-2.2c-0.6-0.6-1.4-0.9-2.4-0.9H7V47H22.2z"/>
</g>
</svg>
