<?xml version="1.0" encoding="utf-8"?>
<!-- Generator: Adobe Illustrator 24.2.0, SVG Export Plug-In . SVG Version: 6.00 Build 0)  -->
<svg version="1.1" id="レイヤー_1" xmlns="http://www.w3.org/2000/svg" xmlns:xlink="http://www.w3.org/1999/xlink" x="0px"
	 y="0px" viewBox="0 0 452 312" style="enable-background:new 0 0 452 312;" xml:space="preserve">
<style type="text/css">
	.st0{fill:url(#長方形_13_1_);}
	.st1{fill:url(#長方形_37_1_);}
	.st2{fill:url(#長方形_38_1_);}
	.st3{fill:none;stroke:#707070;}
	.st4{fill:none;}
	.st5{enable-background:new    ;}
</style>
<linearGradient id="長方形_13_1_" gradientUnits="userSpaceOnUse" x1="74.5" y1="306.0229" x2="74.5" y2="305.0229" gradientTransform="matrix(38 0 0 -262 -2711 80198)">
	<stop  offset="0" style="stop-color:#F59E13"/>
	<stop  offset="0.448" style="stop-color:#EE4714"/>
	<stop  offset="1" style="stop-color:#E61E1E"/>
</linearGradient>
<rect id="長方形_13" x="101" y="20" class="st0" width="38" height="262"/>
<linearGradient id="長方形_37_1_" gradientUnits="userSpaceOnUse" x1="74.5" y1="306.0229" x2="74.5" y2="305.0229" gradientTransform="matrix(38 0 0 -262 -2503 80198)">
	<stop  offset="0" style="stop-color:#F59E13"/>
	<stop  offset="0.448" style="stop-color:#EE4714"/>
	<stop  offset="1" style="stop-color:#E61E1E"/>
</linearGradient>
<rect id="長方形_37" x="309" y="20" class="st1" width="38" height="262"/>
<linearGradient id="長方形_38_1_" gradientUnits="userSpaceOnUse" x1="74.5" y1="306.0229" x2="74.5" y2="305.0229" gradientTransform="matrix(38 0 0 -262 -2450 80198)">
	<stop  offset="0" style="stop-color:#F59E13"/>
	<stop  offset="0.448" style="stop-color:#EE4714"/>
	<stop  offset="1" style="stop-color:#E61E1E"/>
</linearGradient>
<rect id="長方形_38" x="362" y="20" class="st2" width="38" height="262"/>
<line id="線_4" class="st3" x1="79.5" y1="4.5" x2="79.5" y2="283.5"/>
<line id="線_5" class="st3" x1="79" y1="282.5" x2="451.5" y2="282.5"/>
<g>
	<rect x="105.2" y="291" class="st4" width="346" height="20"/>
	<g class="st5">
		<path d="M114.2,304.7h1.9v1.9h-1.9v3.5h-2.3v-3.5h-5.8v-1.8l5-10.1h3.2V304.7z M111.9,301.3c0-1.6,0.1-3.1,0.1-4.7h-0.3
			c-0.5,1.3-1.1,2.7-1.7,4l-1.9,4h3.7V301.3z"/>
	</g>
	<g class="st5">
		<path d="M129.8,305.8c0,1,0,2.2,0,3c0,0.6-0.1,1-0.5,1.4c-0.4,0.4-0.9,0.4-2.5,0.4c-0.5,0-0.5,0-0.6-0.5c-0.1-0.4-0.2-1-0.4-1.3
			c0.6,0.1,1.1,0.1,1.7,0.1c0.4,0,0.5-0.2,0.5-0.5v-2.6h-5.4c-0.3,2.1-0.9,3.3-2.2,4.7c-0.1,0.2-0.2,0.3-0.3,0.3s-0.2-0.1-0.3-0.2
			c-0.3-0.3-0.7-0.6-1.1-0.7c2-1.8,2.5-3.1,2.5-7.7v-2.2c0-1.3,0-2,0-2c0-0.2,0-0.2,0.2-0.2c0.1,0,0.6,0,2,0h4.2c1.4,0,1.9,0,2,0
			c0.1,0,0.2,0,0.2,0.2c0,0.1,0,0.8,0,2V305.8z M128.2,304.4v-1.9H123c0,0.7,0,1.3-0.1,1.9H128.2z M123,299.2v1.8h5.1v-1.8H123z"/>
	</g>
	<g class="st5">
		<path d="M167.2,296.8h-6l-0.1,3.1c0,0.5-0.1,1-0.1,1.4c0.5-0.8,1.5-1.3,2.6-1.3c2.5,0,4.3,2,4.3,5c0,3.2-2,5.3-4.9,5.3
			c-2.4,0-4.1-1.1-4.6-3.3l2.4-0.7c0.3,1.5,1.1,2.1,2.2,2.1c1.4,0,2.3-1.2,2.3-3.4c0-2-0.8-3.1-2.2-3.1c-1,0-1.8,0.6-2.2,1.7
			l-2.1-0.3l0.3-8.6h8.1V296.8z"/>
	</g>
	<g class="st5">
		<path d="M181.8,305.8c0,1,0,2.2,0,3c0,0.6-0.1,1-0.5,1.4c-0.4,0.4-0.9,0.4-2.5,0.4c-0.5,0-0.5,0-0.6-0.5c-0.1-0.4-0.2-1-0.4-1.3
			c0.6,0.1,1.1,0.1,1.7,0.1c0.4,0,0.5-0.2,0.5-0.5v-2.6h-5.4c-0.3,2.1-0.9,3.3-2.2,4.7c-0.1,0.2-0.2,0.3-0.3,0.3s-0.2-0.1-0.3-0.2
			c-0.3-0.3-0.7-0.6-1.1-0.7c2-1.8,2.5-3.1,2.5-7.7v-2.2c0-1.3,0-2,0-2c0-0.2,0-0.2,0.2-0.2c0.1,0,0.6,0,2,0h4.2c1.4,0,1.9,0,2,0
			c0.1,0,0.2,0,0.2,0.2c0,0.1,0,0.8,0,2V305.8z M180.2,304.4v-1.9H175c0,0.7,0,1.3-0.1,1.9H180.2z M175,299.2v1.8h5.1v-1.8H175z"/>
	</g>
	<g class="st5">
		<path d="M217.3,297.9c-0.2-1.1-0.9-1.5-1.6-1.5c-1.8,0-2.7,1.9-2.8,5.4c0.7-1.2,1.8-1.8,3.1-1.8c2.4,0,4,1.9,4,4.9
			c0,3.3-1.9,5.4-4.7,5.4c-2.9,0-4.9-2.2-4.9-7.3c0-6,2-8.5,5.3-8.5c2,0,3.3,0.9,4,2.5L217.3,297.9z M215.3,308.4
			c1.4,0,2.2-1.1,2.2-3.4c0-2-0.7-3.1-2.1-3.1c-1,0-1.9,0.7-2.5,1.9C212.9,307.1,213.9,308.4,215.3,308.4z"/>
	</g>
	<g class="st5">
		<path d="M233.8,305.8c0,1,0,2.2,0,3c0,0.6-0.1,1-0.5,1.4c-0.4,0.4-0.9,0.4-2.5,0.4c-0.5,0-0.5,0-0.6-0.5c-0.1-0.4-0.2-1-0.4-1.3
			c0.6,0.1,1.1,0.1,1.7,0.1c0.4,0,0.5-0.2,0.5-0.5v-2.6h-5.4c-0.3,2.1-0.9,3.3-2.2,4.7c-0.1,0.2-0.2,0.3-0.3,0.3s-0.2-0.1-0.3-0.2
			c-0.3-0.3-0.7-0.6-1.1-0.7c2-1.8,2.5-3.1,2.5-7.7v-2.2c0-1.3,0-2,0-2c0-0.2,0-0.2,0.2-0.2c0.1,0,0.6,0,2,0h4.2c1.4,0,1.9,0,2,0
			c0.2,0,0.2,0,0.2,0.2c0,0.1,0,0.8,0,2V305.8z M232.2,304.4v-1.9H227c0,0.7,0,1.3-0.1,1.9H232.2z M227,299.2v1.8h5.1v-1.8H227z"/>
	</g>
	<g class="st5">
		<path d="M271.7,296.6c-2.5,4.1-3.8,8.1-4.1,13.5h-2.8c0.4-5.3,2.1-9.3,4.5-13.2h-6.9v-2h9.3V296.6z"/>
	</g>
	<g class="st5">
		<path d="M285.8,305.8c0,1,0,2.2,0,3c0,0.6-0.1,1-0.5,1.4c-0.4,0.4-0.9,0.4-2.5,0.4c-0.5,0-0.5,0-0.6-0.5c-0.1-0.4-0.2-1-0.4-1.3
			c0.6,0.1,1.1,0.1,1.7,0.1c0.4,0,0.5-0.2,0.5-0.5v-2.6h-5.4c-0.3,2.1-0.9,3.3-2.2,4.7c-0.1,0.2-0.2,0.3-0.3,0.3s-0.2-0.1-0.3-0.2
			c-0.3-0.3-0.7-0.6-1.1-0.7c2-1.8,2.5-3.1,2.5-7.7v-2.2c0-1.3,0-2,0-2c0-0.2,0-0.2,0.2-0.2c0.1,0,0.6,0,2,0h4.2c1.4,0,1.9,0,2,0
			c0.2,0,0.2,0,0.2,0.2c0,0.1,0,0.8,0,2V305.8z M284.2,304.4v-1.9H279c0,0.7,0,1.3-0.1,1.9H284.2z M279,299.2v1.8h5.1v-1.8H279z"/>
	</g>
	<g class="st5">
		<path d="M324.1,306.1c0,2.5-1.9,4.2-4.9,4.2c-3,0-4.9-1.6-4.9-4.2c0-1.8,0.9-2.8,3-3.8c-1.9-1-2.6-2.2-2.6-3.9
			c0-2.2,1.8-3.9,4.6-3.9c2.7,0,4.6,1.6,4.6,3.9c0,1.6-0.9,2.7-2.7,3.5C323.3,302.9,324.1,304.1,324.1,306.1z M318.7,303.1
			c-1.4,0.8-2.1,1.6-2.1,2.9c0,1.5,1,2.5,2.5,2.5c1.6,0,2.6-0.9,2.6-2.3c0-1.2-0.6-1.9-2.4-2.8L318.7,303.1z M319.6,301.1
			c1.3-0.7,1.8-1.5,1.8-2.7c0-1.3-1-2.1-2.2-2.1c-1.3,0-2.2,0.8-2.2,2.1c0,1,0.5,1.7,2.1,2.4L319.6,301.1z"/>
	</g>
	<g class="st5">
		<path d="M337.8,305.8c0,1,0,2.2,0,3c0,0.6-0.1,1-0.5,1.4c-0.4,0.4-0.9,0.4-2.5,0.4c-0.5,0-0.5,0-0.6-0.5c-0.1-0.4-0.2-1-0.4-1.3
			c0.6,0.1,1.1,0.1,1.7,0.1c0.4,0,0.5-0.2,0.5-0.5v-2.6h-5.4c-0.3,2.1-0.9,3.3-2.2,4.7c-0.1,0.2-0.2,0.3-0.3,0.3s-0.2-0.1-0.3-0.2
			c-0.3-0.3-0.7-0.6-1.1-0.7c2-1.8,2.5-3.1,2.5-7.7v-2.2c0-1.3,0-2,0-2c0-0.2,0-0.2,0.2-0.2c0.1,0,0.6,0,2,0h4.2c1.4,0,1.9,0,2,0
			c0.2,0,0.2,0,0.2,0.2c0,0.1,0,0.8,0,2V305.8z M336.2,304.4v-1.9H331c0,0.7,0,1.3-0.1,1.9H336.2z M331,299.2v1.8h5.1v-1.8H331z"/>
	</g>
	<g class="st5">
		<path d="M369.1,306.9c0.3,1,0.8,1.5,1.6,1.5c1.7,0,2.7-1.4,2.8-5.4c-0.7,1.2-1.7,1.8-3.1,1.8c-2.3,0-4.1-1.9-4.1-4.9
			c0-3.3,1.8-5.3,4.6-5.3c3,0,5,2.2,5,7.3c0,6.1-1.9,8.5-5.2,8.5c-2.1,0-3.4-0.8-4-2.5L369.1,306.9z M371,296.4
			c-1.5,0-2.2,1.3-2.2,3.4c0,1.9,0.8,3.1,2.1,3.1c1.1,0,1.9-0.7,2.4-1.9C373.4,298,372.7,296.4,371,296.4z"/>
	</g>
	<path d="M389.8,305.8c0,1,0,2.2,0,3c0,0.6-0.1,1-0.5,1.4c-0.4,0.4-0.9,0.4-2.5,0.4c-0.5,0-0.5,0-0.6-0.5c-0.1-0.4-0.2-1-0.4-1.3
		c0.6,0.1,1.1,0.1,1.7,0.1c0.4,0,0.5-0.2,0.5-0.5v-2.6h-5.4c-0.3,2.1-0.9,3.3-2.2,4.7c-0.1,0.2-0.2,0.3-0.3,0.3s-0.2-0.1-0.3-0.2
		c-0.3-0.3-0.7-0.6-1.1-0.7c2-1.8,2.5-3.1,2.5-7.7v-2.2c0-1.3,0-2,0-2c0-0.2,0-0.2,0.2-0.2c0.1,0,0.6,0,2,0h4.2c1.4,0,1.9,0,2,0
		c0.2,0,0.2,0,0.2,0.2c0,0.1,0,0.8,0,2V305.8z M388.2,304.4v-1.9H383c0,0.7,0,1.3-0.1,1.9H388.2z M383,299.2v1.8h5.1v-1.8H383z"/>
	<g class="st5">
		<path d="M420.1,308.1h2.9v1.9h-8.2v-1.9h3v-10.9c-0.8,0.5-1.7,1-2.8,1.4l-0.4-2.1c1.3-0.4,2.5-1,3.6-1.8h2V308.1z"/>
		<path d="M434.3,302.4c0,5.7-1.7,8-4.8,8c-3.1,0-4.8-2.3-4.8-7.9s1.7-7.9,4.8-7.9C432.6,294.5,434.3,296.7,434.3,302.4z
			 M427.3,302.4c0,4.5,0.6,6,2.2,6c1.6,0,2.3-1.5,2.3-6c0-4.5-0.6-5.9-2.2-5.9C427.9,296.5,427.3,297.9,427.3,302.4z"/>
	</g>
	<path d="M446.3,305.8c0,1,0,2.2,0,3c0,0.6-0.1,1-0.5,1.4c-0.4,0.4-0.9,0.4-2.5,0.4c-0.5,0-0.5,0-0.6-0.5c-0.1-0.4-0.2-1-0.4-1.3
		c0.6,0.1,1.1,0.1,1.7,0.1c0.4,0,0.5-0.2,0.5-0.5v-2.6h-5.4c-0.3,2.1-0.9,3.3-2.2,4.7c-0.1,0.2-0.2,0.3-0.3,0.3s-0.2-0.1-0.3-0.2
		c-0.3-0.3-0.7-0.6-1.1-0.7c2-1.8,2.5-3.1,2.5-7.7v-2.2c0-1.3,0-2,0-2c0-0.2,0-0.2,0.2-0.2c0.1,0,0.6,0,2,0h4.2c1.4,0,1.9,0,2,0
		c0.2,0,0.2,0,0.2,0.2c0,0.1,0,0.8,0,2V305.8z M444.7,304.4v-1.9h-5.1c0,0.7,0,1.3-0.1,1.9H444.7z M439.5,299.2v1.8h5.1v-1.8H439.5z
		"/>
</g>
<g>
	<g class="st5">
		<path d="M8,9.8h1.5v1.5H8V14H6.2v-2.8H1.5V9.9l4-8.1H8V9.8z M6.2,7.1c0-1.3,0-2.5,0.1-3.7H6.1C5.7,4.4,5.2,5.5,4.7,6.5L3.2,9.8h3
			V7.1z"/>
		<path d="M19.5,7.9c0,4.5-1.4,6.4-3.9,6.4c-2.5,0-3.8-1.8-3.8-6.3c0-4.5,1.4-6.3,3.9-6.3C18.2,1.6,19.5,3.4,19.5,7.9z M13.9,7.9
			c0,3.6,0.5,4.8,1.8,4.8c1.3,0,1.8-1.2,1.8-4.8c0-3.6-0.5-4.7-1.8-4.7C14.4,3.2,13.9,4.3,13.9,7.9z"/>
		<path d="M24.6,14l-1.2,2.5h-1l1.1-2.5h-1.2v-2.2h2.3V14z"/>
		<path d="M35.1,7.9c0,4.5-1.4,6.4-3.9,6.4c-2.5,0-3.8-1.8-3.8-6.3c0-4.5,1.4-6.3,3.9-6.3C33.7,1.6,35.1,3.4,35.1,7.9z M29.4,7.9
			c0,3.6,0.5,4.8,1.8,4.8c1.3,0,1.8-1.2,1.8-4.8c0-3.6-0.5-4.7-1.8-4.7C30,3.2,29.4,4.3,29.4,7.9z"/>
		<path d="M45.2,7.9c0,4.5-1.4,6.4-3.9,6.4c-2.5,0-3.8-1.8-3.8-6.3c0-4.5,1.4-6.3,3.9-6.3C43.8,1.6,45.2,3.4,45.2,7.9z M39.6,7.9
			c0,3.6,0.5,4.8,1.8,4.8c1.3,0,1.8-1.2,1.8-4.8c0-3.6-0.5-4.7-1.8-4.7C40.1,3.2,39.6,4.3,39.6,7.9z"/>
		<path d="M55.3,7.9c0,4.5-1.4,6.4-3.9,6.4c-2.5,0-3.8-1.8-3.8-6.3c0-4.5,1.4-6.3,3.9-6.3C54,1.6,55.3,3.4,55.3,7.9z M49.7,7.9
			c0,3.6,0.5,4.8,1.8,4.8c1.3,0,1.8-1.2,1.8-4.8c0-3.6-0.5-4.7-1.8-4.7C50.2,3.2,49.7,4.3,49.7,7.9z"/>
	</g>
	<path d="M67.8,11.8c0,1,0,1.7,0,2.1c0,0.5-0.1,0.8-0.4,1c-0.3,0.2-0.7,0.3-2,0.3c-0.4,0-0.4,0-0.5-0.4c-0.1-0.4-0.2-0.7-0.3-0.9
		c0.5,0,1.1,0.1,1.4,0.1c0.4,0,0.5-0.1,0.5-0.4v-3h-7v2.6c0,1.3,0,2,0,2.1c0,0.1,0,0.1-0.1,0.1h-1c-0.1,0-0.1,0-0.1-0.1
		c0-0.1,0-0.8,0-2.4V7.7c0-1.5,0-2.3,0-2.4c0-0.1,0-0.1,0.1-0.1c0.1,0,0.5,0,1.6,0h6.1c1.1,0,1.5,0,1.6,0c0.1,0,0.1,0,0.1,0.1
		c0,0.1,0,0.9,0,2.4V11.8z M62.4,9.4v-3h-2.8v3H62.4z M63.6,6.4v3h2.9v-3H63.6z"/>
	<g class="st5">
		<path d="M1.8,140c0.3-2.2,1.8-3.4,3.8-3.4c2.2,0,3.6,1.2,3.6,3.3c0,1.4-0.6,2.4-2.5,4.1c-1.7,1.5-2.5,2.4-3,3.4h5.5v1.6H1.7v-1.4
			c0.7-1.5,1.7-2.8,3.5-4.5c1.6-1.5,2-2.2,2-3.2c0-1.1-0.6-1.7-1.6-1.7c-1,0-1.6,0.8-1.7,2.2L1.8,140z"/>
		<path d="M19.5,142.9c0,4.5-1.4,6.4-3.9,6.4c-2.5,0-3.8-1.8-3.8-6.3c0-4.5,1.4-6.3,3.9-6.3C18.2,136.6,19.5,138.4,19.5,142.9z
			 M13.9,142.9c0,3.6,0.5,4.8,1.8,4.8c1.3,0,1.8-1.2,1.8-4.8c0-3.6-0.5-4.7-1.8-4.7C14.4,138.2,13.9,139.3,13.9,142.9z"/>
		<path d="M24.6,149l-1.2,2.5h-1l1.1-2.5h-1.2v-2.2h2.3V149z"/>
		<path d="M35.1,142.9c0,4.5-1.4,6.4-3.9,6.4c-2.5,0-3.8-1.8-3.8-6.3c0-4.5,1.4-6.3,3.9-6.3C33.7,136.6,35.1,138.4,35.1,142.9z
			 M29.4,142.9c0,3.6,0.5,4.8,1.8,4.8c1.3,0,1.8-1.2,1.8-4.8c0-3.6-0.5-4.7-1.8-4.7C30,138.2,29.4,139.3,29.4,142.9z"/>
		<path d="M45.2,142.9c0,4.5-1.4,6.4-3.9,6.4c-2.5,0-3.8-1.8-3.8-6.3c0-4.5,1.4-6.3,3.9-6.3C43.8,136.6,45.2,138.4,45.2,142.9z
			 M39.6,142.9c0,3.6,0.5,4.8,1.8,4.8c1.3,0,1.8-1.2,1.8-4.8c0-3.6-0.5-4.7-1.8-4.7C40.1,138.2,39.6,139.3,39.6,142.9z"/>
		<path d="M55.3,142.9c0,4.5-1.4,6.4-3.9,6.4c-2.5,0-3.8-1.8-3.8-6.3c0-4.5,1.4-6.3,3.9-6.3C54,136.6,55.3,138.4,55.3,142.9z
			 M49.7,142.9c0,3.6,0.5,4.8,1.8,4.8c1.3,0,1.8-1.2,1.8-4.8c0-3.6-0.5-4.7-1.8-4.7C50.2,138.2,49.7,139.3,49.7,142.9z"/>
	</g>
	<g class="st5">
		<path d="M67.8,146.8c0,1,0,1.7,0,2.1c0,0.5-0.1,0.8-0.4,1c-0.3,0.2-0.7,0.3-2,0.3c-0.4,0-0.4,0-0.5-0.4c-0.1-0.4-0.2-0.7-0.3-0.9
			c0.5,0,1.1,0.1,1.4,0.1c0.4,0,0.5-0.1,0.5-0.4v-3h-7v2.6c0,1.3,0,2,0,2.1c0,0.1,0,0.1-0.1,0.1h-1c-0.1,0-0.1,0-0.1-0.1
			c0-0.1,0-0.8,0-2.4v-5.1c0-1.5,0-2.3,0-2.4c0-0.1,0-0.1,0.1-0.1c0.1,0,0.5,0,1.6,0h6.1c1.1,0,1.5,0,1.6,0c0.1,0,0.1,0,0.1,0.1
			c0,0.1,0,0.9,0,2.4V146.8z M62.4,144.4v-3h-2.8v3H62.4z M63.6,141.4v3h2.9v-3H63.6z"/>
	</g>
</g>
</svg>
