<?xml version="1.0" encoding="utf-8"?>
<!-- Generator: Adobe Illustrator 24.2.0, SVG Export Plug-In . SVG Version: 6.00 Build 0)  -->
<svg version="1.1" id="レイヤー_1" xmlns="http://www.w3.org/2000/svg" xmlns:xlink="http://www.w3.org/1999/xlink" x="0px"
	 y="0px" viewBox="0 0 417 250" style="enable-background:new 0 0 417 250;" xml:space="preserve">
<style type="text/css">
	.st0{fill:#FFFFFF;}
	.st1{fill:none;stroke:#E61E1E;stroke-width:3;}
	.st2{enable-background:new    ;}
	.st3{fill:#E61E1E;}
</style>
<g>
	<g transform="matrix(1, 0, 0, 1, 1046, 2916)">
		<g id="長方形_22-2" transform="translate(10 12)">
			<path class="st0" d="M-1038-2913.4h381c3.3,0,6,2.7,6,6v214c0,3.3-2.7,6-6,6h-381c-3.3,0-6-2.7-6-6v-214
				C-1044-2910.7-1041.3-2913.4-1038-2913.4z"/>
			<path class="st1" d="M-1038-2911.9h381c2.5,0,4.5,2,4.5,4.5v214c0,2.5-2,4.5-4.5,4.5h-381c-2.5,0-4.5-2-4.5-4.5v-214
				C-1042.5-2909.9-1040.5-2911.9-1038-2911.9z"/>
		</g>
	</g>
	<g>
		<g class="st2">
			<path d="M78,84.3c-2.3,0-3.1,0.1-3.2,0.1c-0.3,0-0.3,0-0.3-0.3V82c0-0.2,0-0.3,0.3-0.3c0.2,0,1,0.1,3.2,0.1h0.6v-3.6
				c0-1.5-0.1-2.2-0.1-2.3c0-0.3,0-0.3,0.3-0.3c0.2,0,1,0.1,3.6,0.1h3.3v-3.5h-5.3c-0.9,1.3-1.9,2.5-3,3.7c-0.3,0.3-0.4,0.4-0.5,0.4
				c-0.1,0-0.3-0.2-0.5-0.5c-0.5-0.7-1-1.1-1.5-1.4c2.2-1.9,3.7-4,4.8-6.3c0.3-0.7,0.5-1.3,0.7-1.9c0.9,0.2,1.8,0.4,2.5,0.6
				c0.3,0.1,0.5,0.2,0.5,0.4s-0.1,0.3-0.3,0.5c-0.2,0.2-0.4,0.4-0.6,0.9l-0.5,1.1h10.7c2.5,0,3.4-0.1,3.6-0.1c0.3,0,0.3,0,0.3,0.3
				v1.9c0,0.3,0,0.3-0.3,0.3c-0.2,0-1-0.1-3.6-0.1h-4v3.5h2.8c2.5,0,3.4-0.1,3.6-0.1c0.2,0,0.3,0,0.3,0.3v2c0,0.3,0,0.3-0.3,0.3
				c-0.2,0-1-0.1-3.6-0.1h-2.8v3.8h5.5c2.3,0,3.1-0.1,3.2-0.1c0.3,0,0.3,0,0.3,0.3V84c0,0.3,0,0.3-0.3,0.3c-0.2,0-1-0.1-3.2-0.1
				h-5.5v1.3c0,2.7,0.1,4.1,0.1,4.2c0,0.3,0,0.3-0.3,0.3h-2.3c-0.3,0-0.3,0-0.3-0.3c0-0.2,0.1-1.5,0.1-4.2v-1.3H78z M85.8,81.8V78
				h-4.4v3.8H85.8z"/>
		</g>
		<g class="st2">
			<path d="M107.5,69.1c0.4,0.2,0.6,0.4,0.6,0.6c0,0.2-0.1,0.3-0.4,0.8c-0.3,0.5-0.4,0.8-0.6,1.8c-0.7,3.2-1.1,6.4-1.1,8.4
				c0,1.3,0.1,2.1,0.2,3c0.5-1.2,1-2.1,1.8-3.9c0.2,0.6,0.5,1.1,0.9,1.6c0.1,0.1,0.2,0.3,0.2,0.4c0,0.2-0.1,0.3-0.1,0.4
				c-0.6,1.4-1.1,2.5-1.5,3.9c-0.1,0.2-0.1,0.4-0.1,0.8c0,0.3,0.1,0.5,0.1,0.7c0,0.2-0.1,0.3-0.3,0.3c-0.6,0.2-1.4,0.3-2.1,0.4
				c-0.2,0-0.3-0.1-0.3-0.3c-0.7-1.8-1.2-5.1-1.2-7.7c0-2.3,0.3-5.2,0.9-8.5c0.3-1.9,0.5-2.8,0.5-3.9
				C105.9,68.5,106.7,68.7,107.5,69.1z M113,81.4c0.2,0,0.3,0.1,0.3,0.4c0.2,1.8,1.4,2.4,4.2,2.4c2,0,3.2-0.1,5-0.3
				c0.3,0,0.3,0,0.4,0.3c0.1,0.5,0.2,1.6,0.2,2.2c0,0.3,0,0.3-0.4,0.4c-1.8,0.2-3,0.3-4.2,0.3c-3.8,0-5.6-0.6-6.8-2.2
				c-0.6-0.8-0.9-2.2-0.9-3.4L113,81.4z M111.6,71.7c0-0.3,0.1-0.4,0.4-0.4c1.5-0.3,4.4-0.5,5.6-0.5c1.6,0,2.8,0.1,3.8,0.2
				c0.5,0,0.6,0.1,0.6,0.3c0,0.8,0,1.5-0.1,2.2c0,0.2-0.1,0.3-0.3,0.3c-1.6-0.1-2.9-0.2-4.2-0.2c-1.7,0-3.4,0.2-5.9,0.6
				C111.5,72.8,111.5,72.1,111.6,71.7z"/>
		</g>
		<g class="st2">
			<path class="st3" d="M134,65.5c1.1-4,4.3-6.1,8.5-6.1c5.1,0,8.5,3,8.5,7.1c0,3.3-2,5.8-5.4,6.4v0.3c3.8,0.8,6,3.4,6,7.1
				c0,5-3.6,8.4-9,8.4c-4.7,0-7.7-1.9-9-6.3l4.6-1.3c0.6,2.8,2,4,4.4,4c2.7,0,4.3-1.8,4.3-4.8c0-3.2-1.5-5.1-5.5-5.1h-2.1v-3.8h2
				c3.7,0,5.2-1.6,5.2-4.4c0-2.6-1.5-4-3.9-4c-2,0-3.6,1.2-3.9,3.9L134,65.5z"/>
		</g>
		<g class="st2">
			<path d="M161,78.7c-0.9,1.4-2.1,2.7-2.8,3.5c-0.2,0.2-0.3,0.2-0.4,0.2s-0.3-0.1-0.5-0.2c-0.5-0.3-1.2-0.6-2-0.8
				c2.5-2.5,3.7-4.2,4.9-6.7c0.5-1.2,0.8-1.9,0.9-2.9c1,0.3,2.2,0.8,2.7,1c0.2,0.1,0.3,0.3,0.3,0.5c0,0.2-0.1,0.3-0.3,0.5
				c-0.3,0.2-0.4,0.4-0.6,0.8c-0.3,0.6-0.5,1.1-0.8,1.7h6.1c1.3,0,2.7-0.1,4-0.1c0.3,0,0.3,0.1,0.4,0.5c0,0.6,0,1.2,0,1.7
				c0,0.3-0.2,0.4-0.4,0.4c-1.2,0-2.6-0.1-3.7-0.1h-1.1c-0.2,2.7-0.6,4.4-1.6,6.1c-1,1.7-2.3,3.3-3.9,4.4c-0.2,0.1-0.3,0.2-0.5,0.2
				c-0.2,0-0.3-0.1-0.5-0.2c-0.7-0.4-1.4-0.8-2.3-1c2.2-1.3,3.7-2.8,4.6-4.4c0.9-1.6,1.2-2.9,1.4-5.1H161z"/>
		</g>
		<g class="st2">
			<path d="M197.3,81.4c0,1.8,0.1,3.8,0.1,5.2c0,1.1-0.2,1.8-0.8,2.4c-0.7,0.6-1.6,0.8-4.3,0.8c-0.8,0-0.9,0-1-0.8
				c-0.1-0.8-0.4-1.7-0.7-2.2c1.1,0.1,2,0.1,3,0.1c0.6,0,0.9-0.3,0.9-0.9v-4.5h-9.3c-0.5,3.6-1.6,5.6-3.7,8.1
				c-0.3,0.3-0.4,0.4-0.5,0.4s-0.3-0.1-0.6-0.4c-0.5-0.5-1.2-1-1.9-1.2c3.4-3.2,4.3-5.4,4.3-13.3v-3.8c0-2.2-0.1-3.4-0.1-3.5
				c0-0.3,0-0.3,0.3-0.3c0.2,0,1,0.1,3.5,0.1h7.2c2.4,0,3.3-0.1,3.4-0.1c0.3,0,0.3,0,0.3,0.3c0,0.2-0.1,1.3-0.1,3.5V81.4z M194.5,79
				v-3.3h-8.9c0,1.2-0.1,2.3-0.1,3.3H194.5z M185.6,70v3.1h8.9V70H185.6z"/>
		</g>
		<g class="st2">
			<path d="M218,72.1c-0.6,4.4-1.7,8.5-3.2,11.2c-1.1,2-2.5,3-4.4,3c-2.3,0-4.6-2.4-4.6-6.7c0-2.5,1.1-4.9,2.9-6.8
				c2.2-2.2,4.9-3.3,8.5-3.3c6.2,0,9.9,3.8,9.9,9c0,4.8-2.7,7.9-8,9.5c-0.5,0.2-0.8,0.1-1.1-0.5c-0.3-0.4-0.8-1-1.8-1.6
				c4.4-1,7.9-2.9,7.9-7.8c0-3.1-2.3-6-5.8-6H218z M210.5,74.6c-1.2,1.4-2,3.1-2,4.8c0,2.4,1,3.7,1.8,3.7c0.7,0,1.2-0.3,2-1.6
				c1.1-2.1,2.3-5.8,2.8-9.3C213.1,72.6,211.7,73.3,210.5,74.6z"/>
			<path d="M236.3,80.6c0.2,0.1,0.3,0.3,0.1,0.5c-0.4,0.6-0.7,1.5-0.7,2c0,1.6,1.7,2.4,6.2,2.4c2.5,0,4.9-0.3,7-0.8
				c0.4-0.1,0.5,0,0.5,0.2c0.1,0.5,0.4,1.9,0.4,2.5c0,0.2-0.1,0.3-0.4,0.4c-2.4,0.4-4.8,0.6-7.6,0.6c-6,0-8.9-1.9-8.9-5.3
				c0-1.1,0.4-2.2,1.4-3.7C235,79.9,235.7,80.3,236.3,80.6z M242.2,70.4c1.9,0,3.7-0.1,5.4-0.2c0.3,0,0.4,0.1,0.4,0.3
				c0.1,0.6,0.2,1.3,0.2,2.2c0,0.4-0.1,0.5-0.4,0.5c-2.5,0.4-4.3,1.2-6.4,2.6c-0.2,0.2-0.4,0.2-0.7,0.2c-0.2,0-0.4-0.1-0.5-0.2
				c-0.5-0.3-1.1-0.6-1.8-0.8c1.4-0.9,2.5-1.6,3.4-2.2c-0.6,0.1-1.4,0.1-1.9,0.1c-1.1,0-3.3-0.2-4.8-0.4c-0.2-0.1-0.3-0.2-0.3-0.5
				c0-0.6,0.1-1.4,0.1-2.3C236.9,70.2,239.4,70.4,242.2,70.4z M249.3,67.6c0.1-0.1,0.2-0.1,0.4,0.1c0.8,0.6,1.7,1.7,2.5,2.8
				c0.1,0.2,0.1,0.3-0.1,0.4l-1.1,0.8c-0.2,0.1-0.3,0.1-0.4-0.1c-0.8-1.2-1.6-2.2-2.6-3L249.3,67.6z M251.6,65.9
				c0.2-0.1,0.2-0.1,0.4,0.1c1,0.7,1.9,1.8,2.5,2.7c0.1,0.2,0.1,0.3-0.1,0.5l-1,0.8c-0.2,0.2-0.3,0.1-0.4-0.1
				c-0.7-1.1-1.5-2.1-2.6-3L251.6,65.9z"/>
			<path d="M261.5,76.1c-2.3,0-3,0.1-3.2,0.1c-0.3,0-0.3,0-0.3-0.3V74c0-0.3,0-0.3,0.3-0.3c0.2,0,0.9,0.1,3.2,0.1h1.7v-3.2
				c-1,0.2-2,0.5-3,0.7c-0.8,0.1-0.8,0.1-1.1-0.7c-0.2-0.5-0.5-1-0.9-1.4c3.2-0.4,6.3-1.3,8-2c0.6-0.3,0.9-0.4,1.3-0.7
				c0.8,0.5,1.3,1,1.7,1.6c0.2,0.2,0.3,0.3,0.3,0.5c0,0.2-0.2,0.3-0.5,0.3c-0.3,0-0.7,0.2-1.1,0.3c-0.7,0.2-1.4,0.5-2.2,0.7v3.9h0.7
				c2.2,0,3-0.1,3.1-0.1c0.3,0,0.3,0,0.3,0.3v1.9c0,0.3,0,0.3-0.3,0.3c-0.2,0-0.9-0.1-3.1-0.1h-0.2c1,1.8,2.5,3.6,3.9,4.8
				c-0.4,0.5-0.8,1.2-1,1.8c-0.1,0.3-0.2,0.5-0.4,0.5c-0.1,0-0.3-0.1-0.4-0.4c-1-1.2-1.9-2.5-2.6-4c0,6.3,0.2,10.5,0.2,11
				c0,0.2,0,0.3-0.3,0.3h-2.2c-0.3,0-0.3,0-0.3-0.3c0-0.5,0.1-4.7,0.2-10.6c-0.9,2.5-2.3,4.6-3.9,6.4c-0.2,0.2-0.3,0.4-0.5,0.4
				s-0.2-0.1-0.3-0.4c-0.3-0.7-0.7-1.6-1-2.1c1.9-1.8,3.8-4.2,5.1-7.4H261.5z M271.4,72.4c0-1.7,0-2.7-0.2-3.9c1,0,1.8,0.1,2.7,0.2
				c0.3,0,0.4,0.1,0.4,0.3c0,0.2-0.1,0.4-0.2,0.6c-0.1,0.4-0.1,0.9-0.1,2.8v7.2c0,2.2,0.1,3.3,0.1,3.4c0,0.3,0,0.3-0.3,0.3h-2.2
				c-0.3,0-0.3,0-0.3-0.3c0-0.2,0.1-1.2,0.1-3.4V72.4z M280.2,81.3c0,1.8,0.1,3.9,0.1,5.2c0,1.3-0.2,2-0.9,2.5
				c-0.7,0.5-1.6,0.7-4.1,0.7c-0.8,0-0.8,0-1-0.8c-0.2-0.8-0.5-1.5-0.8-2c1,0.1,2,0.2,3,0.2c0.8,0,1.1-0.2,1.1-1V70.4
				c0-1.7,0-2.5-0.2-3.7c1,0,1.9,0.1,2.8,0.2c0.3,0,0.4,0.2,0.4,0.3c0,0.2-0.1,0.4-0.2,0.5c-0.2,0.3-0.2,0.9-0.2,2.7V81.3z"/>
			<path d="M307.4,83.5c0,1.2,0.1,2.5,0.1,3.6c0,1-0.3,1.6-0.9,2.1c-0.5,0.4-1.3,0.7-3.4,0.7c-0.8,0-0.8,0-1-0.8
				c-0.2-0.8-0.4-1.4-0.7-2c1.1,0.1,1.6,0.1,2.4,0.1c0.6,0,0.8-0.3,0.8-0.9V82h-6.1v3.1c0,2.5,0.1,3.7,0.1,3.8c0,0.3,0,0.3-0.3,0.3
				h-2.2c-0.3,0-0.3,0-0.3-0.3c0-0.2,0.1-1.3,0.1-3.8V82h-5.9c-0.4,3.2-1.1,5.2-2.3,7.2c-0.2,0.4-0.3,0.5-0.5,0.5s-0.3-0.1-0.5-0.4
				c-0.6-0.6-1.2-1-1.8-1.3c1.9-2.4,2.7-5.5,2.7-11.8v-4.3c0-2.7-0.1-4.1-0.1-4.3c0-0.3,0-0.3,0.3-0.3c0.2,0,1.1,0.1,3.6,0.1h12.2
				c2.5,0,3.4-0.1,3.6-0.1c0.3,0,0.3,0,0.3,0.3c0,0.2-0.1,1.6-0.1,4.3V83.5z M295.9,79.6v-3.7h-5.7v0.3c0,1.2,0,2.4-0.1,3.4H295.9z
				 M295.9,73.5v-3.6h-5.7v3.6H295.9z M298.6,69.9v3.6h6.1v-3.6H298.6z M304.7,79.6v-3.7h-6.1v3.7H304.7z"/>
			<path d="M324.6,70.8c0.2-0.1,0.3-0.1,0.4,0.2c0.1,0.6,0.2,1.4,0.2,2.1c0,0.2-0.1,0.3-0.3,0.3c-1.4,0.3-2.7,0.5-4.3,0.7
				c-1.7,4.4-3.2,8-5.1,11.2c-0.1,0.2-0.2,0.3-0.3,0.3c-0.1,0-0.2-0.1-0.3-0.1c-0.6-0.4-1.4-0.9-1.8-1.3c-0.1-0.1-0.2-0.2-0.2-0.3
				c0-0.1,0-0.2,0.1-0.3c1.9-3.2,3.3-6,4.5-9.1c-1,0.1-1.8,0.1-2.6,0.1c-0.6,0-0.8,0-1.4,0c-0.3,0-0.3-0.1-0.4-0.4
				c-0.1-0.5-0.2-1.4-0.3-2.2c1.1,0.1,1.7,0.1,2.4,0.1c1,0,1.8,0,3-0.1c0.3-1.1,0.5-2,0.7-2.9c0.2-0.9,0.2-1.3,0.2-2.1
				c1.1,0.2,2.2,0.3,3,0.5c0.3,0.1,0.4,0.2,0.4,0.4c0,0.2-0.1,0.3-0.2,0.5c-0.2,0.2-0.3,0.4-0.4,1c-0.2,0.6-0.4,1.4-0.6,2.2
				C322.4,71.2,323.6,71,324.6,70.8z M325.3,77.7c0-0.7-0.1-1.1-0.2-1.8c1.3,0.1,2,0.2,2.8,0.5c0.2,0.1,0.4,0.2,0.4,0.4
				c0,0.1-0.1,0.2-0.2,0.5c-0.1,0.3-0.1,0.6-0.1,1.1c0,1.5,0.1,2.7,0.3,4.4c1.9,0.8,3.1,1.3,4.7,2.4c0.3,0.2,0.3,0.3,0.2,0.5
				c-0.4,0.8-0.8,1.5-1.2,2.1c-0.1,0.1-0.2,0.2-0.2,0.2s-0.2-0.1-0.3-0.2c-1.1-1-2.1-1.6-3.2-2.2c0,2.6-1.9,3.8-4.8,3.8
				c-2.9,0-4.8-1.5-4.8-3.7c0-2.3,1.9-3.8,4.8-3.8c0.5,0,1.2,0,2.1,0.2C325.4,80.5,325.3,79,325.3,77.7z M323.5,84.3
				c-1.3,0-2.3,0.5-2.3,1.5c0,0.8,0.7,1.2,2.2,1.2c1.4,0,2.3-0.8,2.3-1.8c0-0.2,0-0.4,0-0.5C325,84.5,324.3,84.3,323.5,84.3z
				 M328.3,71.8c0.2-0.3,0.3-0.3,0.5-0.2c1.5,0.4,3.6,1.5,5.1,2.4c0.2,0.1,0.2,0.2,0.2,0.3c0,0.1,0,0.2-0.1,0.3
				c-0.3,0.6-0.7,1.4-1.1,1.9c-0.1,0.1-0.2,0.2-0.2,0.2s-0.1,0-0.2-0.1c-1.5-1-3.4-2.2-5.4-2.8C327.6,73,328,72.2,328.3,71.8z"/>
			<path d="M342.9,73.4c0.3,0.1,0.4,0.3,0.4,0.5c0,0.1-0.1,0.3-0.1,0.4c-0.2,0.4-0.4,0.9-0.5,1.4c-0.3,1.3-0.5,3.2-0.6,4.7
				c2.4-2.4,5.5-4.1,8.7-4.1c3.8,0,6.1,2.2,6.1,5.6c0,2.8-1.7,4.7-3.9,5.8c-1.7,0.9-4.4,1.5-6.7,1.8c-0.6,0.1-0.8,0.1-1-0.3
				c-0.5-0.9-1-1.6-1.8-2.2c2.9-0.2,5.4-0.7,7.2-1.5c2.1-0.9,3.1-2.3,3.1-3.9c0-1.4-0.9-2.7-3.1-2.7c-2.3,0-5,1.5-7.5,4
				c-0.5,0.5-0.8,0.9-1.1,1.4c-0.2,0.3-0.3,0.3-0.6,0.2c-0.6-0.2-1.2-0.4-1.8-0.7c-0.3-0.1-0.4-0.2-0.4-0.5c0.2-3,0.5-6.1,0.8-8.4
				c0.1-0.8,0.2-1.5,0.2-2.3C341.2,72.8,342.3,73.1,342.9,73.4z M343.6,66.8c0.1-0.1,0.3-0.2,0.5-0.1c1.9,0.8,3.5,1.7,5.1,3.1
				c0.1,0.1,0.2,0.2,0.2,0.3c0,0.1-0.1,0.2-0.1,0.3c-0.3,0.5-0.9,1.3-1.3,1.8c-0.1,0.1-0.2,0.2-0.3,0.2c-0.1,0-0.2-0.1-0.3-0.2
				c-1.5-1.3-3.2-2.5-5.3-3.4C342.7,67.9,343.2,67.3,343.6,66.8z"/>
		</g>
		<g class="st2">
			<path d="M61,131.8c-2.3,0-3.1,0.1-3.2,0.1c-0.2,0-0.3,0-0.3-0.3v-1.9c0-0.3,0-0.3,0.3-0.3c0.2,0,0.9,0.1,3.2,0.1h0.9
				c0.2-1.2,0.4-2.4,0.5-3.5c0.1-0.6,0.1-1.1,0.1-1.8c0-0.3,0.1-0.3,0.3-0.3c0.2,0,1,0.1,3.5,0.1h7.3c2.5,0,3.4-0.1,3.5-0.1
				c0.3,0,0.3,0.1,0.3,0.3c-0.1,0.7-0.1,1.5-0.1,2.2l-0.2,3.1h0.3c2.3,0,3.1-0.1,3.2-0.1c0.2,0,0.3,0,0.3,0.3v1.9
				c0,0.3,0,0.3-0.3,0.3c-0.2,0-0.9-0.1-3.2-0.1H77c-0.1,1.2-0.2,2.3-0.3,3.5c2,0,2.8-0.1,3-0.1c0.3,0,0.3,0,0.3,0.3v1.8
				c0,0.3,0,0.3-0.3,0.3c-0.2,0-1-0.1-3.2-0.1v0.1c-0.3,2.4-1.4,3.4-3.8,3.4c-0.3,0-0.8,0-1.1,0c-0.5,0-0.5-0.1-0.7-0.9
				c-0.1-0.6-0.3-1.1-0.6-1.6c0.8,0.1,1.5,0.1,2.2,0.1c0.8,0,1.2-0.2,1.4-1.1H62.9l-0.3,1.3c-0.1,0.3-0.2,0.4-0.5,0.4l-2-0.2
				c-0.5-0.1-0.5-0.2-0.4-0.5c0.3-0.7,0.4-1.3,0.6-2.1c0.4-1.5,0.8-3,1.1-4.6H61z M63.4,122.4c-0.8,1.2-1.8,2.4-3.1,3.8
				c-0.3,0.3-0.4,0.4-0.5,0.4s-0.3-0.2-0.5-0.5c-0.4-0.6-1-1.1-1.5-1.4c2.3-1.8,3.8-3.8,4.9-6.3c0.1-0.3,0.3-0.8,0.4-1.4
				c0.9,0.2,1.9,0.4,2.5,0.5c0.3,0.1,0.4,0.2,0.4,0.4c0,0.2-0.1,0.4-0.3,0.5c-0.2,0.2-0.3,0.4-0.5,0.9l-0.4,0.8h11.3
				c2.5,0,3.4,0,3.6,0c0.3,0,0.3,0,0.3,0.3v1.9c0,0.3,0,0.3-0.3,0.3c-0.2,0-1-0.1-3.6-0.1H63.4z M67.3,135.2
				c0.2-1.2,0.4-2.3,0.6-3.5h-3.7c-0.2,1.1-0.4,2.3-0.7,3.5H67.3z M65,126.2c-0.1,1.1-0.3,2.2-0.4,3.2h3.6c0.1-1.1,0.2-2.2,0.3-3.2
				H65z M70.4,131.8c-0.2,1.2-0.3,2.3-0.5,3.5h4.2c0.1-1.1,0.2-2.2,0.3-3.5H70.4z M71,126.2c-0.1,1.1-0.2,2.2-0.3,3.2h3.9
				c0.1-1.1,0.1-2.2,0.2-3.2H71z"/>
			<path d="M104.1,132.4c0,1.8,0.1,3.8,0.1,5.2c0,1.1-0.2,1.8-0.8,2.4c-0.7,0.6-1.6,0.8-4.3,0.8c-0.8,0-0.9,0-1-0.8
				c-0.1-0.8-0.4-1.7-0.7-2.2c1.1,0.1,2,0.1,3,0.1c0.6,0,0.9-0.3,0.9-0.9v-4.5H92c-0.5,3.6-1.6,5.6-3.7,8.1
				c-0.3,0.3-0.4,0.4-0.5,0.4s-0.3-0.1-0.6-0.4c-0.5-0.5-1.2-1-1.9-1.2c3.4-3.2,4.3-5.4,4.3-13.3v-3.8c0-2.2-0.1-3.4-0.1-3.5
				c0-0.3,0-0.3,0.3-0.3c0.2,0,1,0.1,3.5,0.1h7.2c2.4,0,3.3-0.1,3.4-0.1c0.3,0,0.3,0,0.3,0.3c0,0.2-0.1,1.3-0.1,3.5V132.4z
				 M101.2,130v-3.3h-8.9c0,1.2-0.1,2.3-0.1,3.3H101.2z M92.3,121v3.1h8.9V121H92.3z"/>
			<path d="M118.3,126.4c-1.3,0.1-2.6,0.2-4.4,0.2c-0.4,0-0.6-0.2-0.6-0.5c-0.1-0.5-0.2-1.4-0.3-2.3c0.7,0.1,1.4,0.1,2,0.1
				c1.1,0,2.2-0.1,3.3-0.2c0-0.9,0-1.8,0-3c0-0.7,0-1.4-0.2-2.1c1.3,0.1,2.4,0.3,3.1,0.5c0.3,0.1,0.5,0.3,0.5,0.5
				c0,0.1-0.1,0.2-0.2,0.4c-0.2,0.3-0.3,0.7-0.4,1c-0.1,0.7-0.1,1.3-0.1,2.2c1.1-0.2,2.2-0.6,3.3-1c0.2-0.1,0.4,0,0.4,0.2
				c0.1,0.7,0.2,1.4,0.2,2c0,0.3-0.1,0.3-0.3,0.4c-1.7,0.5-2.2,0.7-3.7,1c0,1.2,0,2.5-0.1,3.8c2.4-1,4.7-1.5,6.4-1.4
				c3.2,0,5.5,2.1,5.5,5.2c0,3.3-2.1,5.3-5.6,5.3c-0.8,0-1.6-0.1-2.1-0.2c-0.4-0.1-0.6-0.4-0.6-0.8c-0.1-0.6-0.2-1.5-0.8-2.2
				c1.2,0.4,2.3,0.5,3.2,0.5c1.5,0,2.8-0.8,2.8-2.7c0-1.7-1-2.6-2.9-2.6c-1.5,0-3.3,0.4-6,1.8c0,1.1,0.1,2,0.1,3.1
				c0.1,1.1,0.2,2.8,0.2,3.4c0,0.4,0.1,0.8-0.4,0.9c-0.6,0.2-1.4,0.3-1.9,0.3c-0.3,0-0.4-0.2-0.6-0.5c-0.7-1-2.1-2.2-3.7-3.3
				c-0.3,0.2-0.6,0.4-0.8,0.6c-0.1,0.1-0.3,0.2-0.4,0.2c-0.2,0-0.4-0.2-0.6-0.4c-0.3-0.5-0.8-1.6-1.2-2.4c0.7-0.2,1.5-0.4,2.4-0.9
				c1.1-0.6,2.3-1.3,4.2-2.4V126.4z M115.9,135.3c0.7,0.4,1.6,0.8,2.4,1.2c0.2,0.1,0.3,0,0.3-0.2c-0.1-0.7-0.1-1.9-0.2-2.7
				C117.7,134.1,116.8,134.7,115.9,135.3z M128.3,121.7c0.2-0.3,0.3-0.4,0.4-0.3c2.4,0.7,4.2,1.8,5.5,3.2c0.1,0.1,0.2,0.2,0.2,0.3
				s-0.1,0.2-0.1,0.3c-0.3,0.5-1,1.3-1.4,1.8c-0.1,0.1-0.4,0.1-0.5,0c-1.4-1.5-3.2-2.5-5.3-3.2C127.5,123,127.9,122.3,128.3,121.7z"
				/>
			<path d="M141.3,133.6c0-0.8,0-1.9,0.1-2.9c-0.5,0.5-0.9,0.9-1.4,1.3c-0.3,0.2-0.5,0.3-0.6,0.3c-0.2,0-0.2-0.2-0.3-0.5
				c-0.2-0.7-0.6-1.5-0.9-1.9c2.1-1.6,3.7-3.6,5-5.6c0.3-0.4,0.5-0.9,0.7-1.4c0.7,0.4,1.3,0.8,1.9,1.2c0.2,0.2,0.3,0.3,0.3,0.5
				c0,0.2-0.1,0.3-0.3,0.4c-0.2,0.1-0.5,0.5-0.7,0.9c-0.3,0.5-0.7,1.1-1.1,1.7v9.8c0,2.1,0.1,3.1,0.1,3.2c0,0.3,0,0.3-0.3,0.3h-2.2
				c-0.3,0-0.3,0-0.3-0.3c0-0.2,0.1-1.1,0.1-3.2V133.6z M145.5,118.5c0.2,0.2,0.4,0.3,0.4,0.5c0,0.2-0.1,0.3-0.3,0.3
				c-0.3,0.1-0.5,0.3-0.8,0.7c-1.2,1.5-2.7,3-4.5,4.4c-0.3,0.2-0.4,0.3-0.6,0.3c-0.2,0-0.3-0.2-0.5-0.6c-0.3-0.6-0.8-1.2-1.2-1.5
				c1.7-1.1,3.4-2.6,4.6-4.1c0.4-0.4,0.6-0.9,0.8-1.2C144.2,117.7,144.9,118.1,145.5,118.5z M149,134c-2.5,0-3.4,0.1-3.6,0.1
				c-0.3,0-0.3,0-0.3-0.3V132c0-0.3,0-0.3,0.3-0.3c0.2,0,1,0.1,3.6,0.1h6.9v-1.6h-6.6c-2.5,0-3.4,0.1-3.5,0.1c-0.3,0-0.3,0-0.3-0.3
				v-1.7c0-0.3,0-0.3,0.3-0.3c0.2,0,1,0.1,3.5,0.1h8.7c2.5,0,3.4-0.1,3.6-0.1c0.2,0,0.3,0,0.3,0.3v1.7c0,0.3,0,0.3-0.3,0.3
				c-0.2,0-1,0-3-0.1v1.6c2.1,0,2.9-0.1,3-0.1c0.3,0,0.3,0,0.3,0.3v1.7c0,0.3,0,0.3-0.3,0.3c-0.1,0-0.9,0-3-0.1v1.2
				c0,1.3,0,2.1,0,3.1c0,1-0.3,1.6-0.9,2c-0.6,0.4-1.6,0.5-3.6,0.5c-0.8,0-0.8,0-1-0.8c-0.2-0.7-0.4-1.3-0.7-1.8
				c0.9,0.1,2.1,0.1,2.8,0.1c0.4,0,0.7-0.2,0.7-0.8V134H149z M156,118.2c2.3,0,3-0.1,3.2-0.1c0.3,0,0.3,0,0.3,0.3
				c0,0.2-0.1,0.8-0.1,2.3v3.4c0,1.5,0.1,2.2,0.1,2.3c0,0.3,0,0.3-0.3,0.3c-0.2,0-0.9-0.1-3.2-0.1h-5c-2.3,0-3,0.1-3.2,0.1
				c-0.3,0-0.3,0-0.3-0.3c0-0.2,0.1-0.8,0.1-2.3v-3.4c0-1.5-0.1-2.1-0.1-2.3c0-0.3,0-0.3,0.3-0.3c0.2,0,0.9,0.1,3.2,0.1H156z
				 M149.4,134.5c0.3-0.2,0.3-0.2,0.5,0c0.9,0.8,1.8,1.8,2.5,2.9c0.2,0.2,0.1,0.3-0.2,0.5l-1.6,1c-0.2,0.1-0.3,0.1-0.3,0.1
				c-0.1,0-0.1-0.1-0.2-0.2c-0.7-1.1-1.5-2.2-2.4-3c-0.2-0.2-0.2-0.3,0.1-0.4L149.4,134.5z M150,121.5h6.9v-1.3H150V121.5z
				 M157,123.4H150v1.3h6.9V123.4z"/>
			<path d="M177.8,121.8c0.2-0.1,0.3-0.1,0.4,0.2c0.1,0.6,0.2,1.4,0.2,2.1c0,0.2-0.1,0.3-0.3,0.3c-1.4,0.3-2.7,0.5-4.3,0.7
				c-1.7,4.4-3.2,8-5.1,11.2c-0.1,0.2-0.2,0.3-0.3,0.3c-0.1,0-0.2-0.1-0.3-0.1c-0.6-0.4-1.4-0.9-1.8-1.3c-0.1-0.1-0.2-0.2-0.2-0.3
				c0-0.1,0-0.2,0.1-0.3c1.9-3.2,3.3-6,4.5-9.1c-1,0.1-1.8,0.1-2.6,0.1c-0.6,0-0.8,0-1.4,0c-0.3,0-0.3-0.1-0.4-0.4
				c-0.1-0.5-0.2-1.4-0.3-2.2c1.1,0.1,1.7,0.1,2.4,0.1c1,0,1.8,0,3-0.1c0.3-1.1,0.5-2,0.7-2.9c0.2-0.9,0.2-1.3,0.2-2.1
				c1.1,0.2,2.2,0.3,3,0.5c0.3,0.1,0.4,0.2,0.4,0.4c0,0.2-0.1,0.3-0.2,0.5c-0.2,0.2-0.3,0.4-0.4,1c-0.2,0.6-0.4,1.4-0.6,2.2
				C175.6,122.2,176.8,122,177.8,121.8z M178.5,128.7c0-0.7-0.1-1.1-0.2-1.8c1.3,0.1,2,0.2,2.8,0.5c0.2,0.1,0.4,0.2,0.4,0.4
				c0,0.1-0.1,0.2-0.2,0.5c-0.1,0.3-0.1,0.6-0.1,1.1c0,1.5,0.1,2.7,0.3,4.4c1.9,0.8,3.1,1.3,4.7,2.4c0.3,0.2,0.3,0.3,0.2,0.5
				c-0.4,0.8-0.8,1.5-1.2,2.1c-0.1,0.1-0.2,0.2-0.2,0.2s-0.2-0.1-0.3-0.2c-1.1-1-2.1-1.6-3.2-2.2c0,2.6-1.9,3.8-4.8,3.8
				c-2.9,0-4.8-1.5-4.8-3.7c0-2.3,1.9-3.8,4.8-3.8c0.5,0,1.2,0,2.1,0.2C178.6,131.5,178.5,130,178.5,128.7z M176.7,135.3
				c-1.3,0-2.3,0.5-2.3,1.5c0,0.8,0.7,1.2,2.2,1.2c1.4,0,2.3-0.8,2.3-1.8c0-0.2,0-0.4,0-0.5C178.2,135.5,177.5,135.3,176.7,135.3z
				 M181.5,122.8c0.2-0.3,0.3-0.3,0.5-0.2c1.5,0.4,3.6,1.5,5.1,2.4c0.2,0.1,0.2,0.2,0.2,0.3c0,0.1,0,0.2-0.1,0.3
				c-0.3,0.6-0.7,1.4-1.1,1.9c-0.1,0.1-0.2,0.2-0.2,0.2s-0.1,0-0.2-0.1c-1.5-1-3.4-2.2-5.4-2.8C180.8,124,181.2,123.2,181.5,122.8z"
				/>
			<path d="M199.5,127.3c-2.5,0-3.4,0.1-3.5,0.1c-0.3,0-0.3,0-0.3-0.3v-1.9c0-0.3,0-0.3,0.3-0.3c0.2,0,1,0.1,3.5,0.1h7.3
				c2.5,0,3.4-0.1,3.5-0.1c0.3,0,0.3,0,0.3,0.3v1.9c0,0.3,0,0.3-0.3,0.3c-0.2,0-1-0.1-3.5-0.1h-2.2v3.5h3.2c2.1,0,2.8-0.1,3-0.1
				c0.3,0,0.3,0,0.3,0.3v1.9c0,0.2,0,0.3-0.3,0.3c-0.2,0-0.9-0.1-3-0.1h-3.2v4.4c1.3,0.2,3,0.2,5,0.2c1.5,0,3.3-0.1,5-0.2
				c-0.3,0.6-0.4,1.2-0.5,1.9c-0.1,0.8-0.1,0.8-0.9,0.9c-1,0.1-2,0.1-3.1,0.1c-9.3,0-11.1-1.4-13.2-4.5c-0.8,1.7-1.8,3.1-3.2,4.4
				c-0.3,0.3-0.4,0.4-0.6,0.4c-0.1,0-0.3-0.2-0.5-0.5c-0.4-0.6-1-1-1.5-1.4c2.5-1.9,4.2-4.7,4.7-8.2c0.1-0.6,0.2-1.1,0.2-1.7
				c0.9,0.1,1.7,0.3,2.5,0.5c0.4,0.1,0.5,0.2,0.5,0.4c0,0.2-0.1,0.4-0.2,0.5c-0.1,0.2-0.2,0.4-0.3,0.8c-0.1,0.7-0.3,1.4-0.5,2.1
				c0.9,1.8,1.9,3,3.9,3.7v-9.6H199.5z M210.3,119.9c2.4,0,3.3-0.1,3.4-0.1c0.3,0,0.3,0,0.3,0.3c0,0.2-0.1,0.6-0.1,1.4v1.1
				c0,2.3,0.1,2.7,0.1,2.9c0,0.3,0,0.3-0.3,0.3h-2.1c-0.3,0-0.3,0-0.3-0.3v-3.1h-16.5v3.1c0,0.3,0,0.3-0.3,0.3h-2.1
				c-0.3,0-0.3,0-0.3-0.3c0-0.2,0.1-0.5,0.1-2.9v-0.9c0-1-0.1-1.4-0.1-1.6c0-0.2,0-0.3,0.3-0.3c0.2,0,1,0.1,3.5,0.1h5.6v-0.2
				c0-1.1,0-1.8-0.2-2.5c1,0,1.9,0.1,2.8,0.1c0.2,0,0.4,0.1,0.4,0.3c0,0.2-0.1,0.3-0.2,0.5c-0.1,0.2-0.1,0.6-0.1,1.6v0.3H210.3z"/>
			<path d="M229.9,121.7c0,1.8,0.1,2.1,0.1,2.2c0,0.3,0,0.3-0.3,0.3h-1.3l0.3,0.2c0.4,0.4,0.5,0.7,0.5,0.9c0,0.2-0.1,0.2-0.2,0.4
				c-0.2,0.2-0.4,0.3-0.7,0.8c-0.6,1-1.2,1.9-1.9,2.7c1.3,0.8,2.8,1.3,4.5,1.6c-0.3,0.4-0.6,1.1-0.8,1.6c-0.3,0.8-0.3,0.8-1,0.6
				l-0.4-0.2c0,0.3-0.1,0.8-0.1,1.7v1.6c0,1.5,0,2.4,0,2.9c1.5-0.6,2.5-1.2,3.6-2.1c0.3-0.2,0.6-0.5,0.9-0.9
				c0.7,0.3,1.2,0.7,1.8,1.1c0.2,0.2,0.3,0.3,0.3,0.4c0,0.2-0.1,0.2-0.3,0.3c-0.2,0.1-0.4,0.3-0.7,0.5c-1.1,1-2.3,1.8-3.9,2.6
				c-0.3,0.1-0.5,0.2-0.6,0.2c-0.2,0-0.3-0.2-0.6-0.6l-0.5-0.7c0,0.1-0.1,0.1-0.3,0.1h-1.8c-0.3,0-0.3,0-0.3-0.3v-0.5h-3.4v1.1
				c0,0.3,0,0.3-0.3,0.3h-1.8c-0.3,0-0.3,0-0.3-0.3c0-0.2,0.1-0.7,0.1-3.7V135c0-1,0-1.5,0-1.9c-0.2,0.1-0.4,0.2-0.6,0.2
				c-0.3,0.1-0.4,0.2-0.6,0.2c-0.2,0-0.3-0.1-0.4-0.5c-0.2-0.6-0.5-1.2-0.8-1.5c2.1-0.5,3.7-1.3,5-2.1c-0.5-0.5-1-1.1-1.4-1.7
				c-0.4,0.4-0.8,0.8-1.3,1.2c-0.3,0.3-0.5,0.4-0.6,0.4s-0.2-0.2-0.4-0.4c-0.3-0.6-0.7-1-1-1.3c1.8-1.2,3-2.8,3.6-3.9
				c0.3-0.5,0.5-0.9,0.6-1.3c0.9,0.1,1.5,0.3,2,0.4c0.3,0.1,0.4,0.1,0.4,0.3s-0.1,0.2-0.2,0.3c-0.2,0.1-0.3,0.3-0.4,0.5l-0.1,0.2
				h2.6c0.3,0,0.4,0,0.5-0.1l0.2-0.1v-1.9h-6.2v2.1c0,0.3,0,0.3-0.3,0.3h-1.8c-0.3,0-0.3,0-0.3-0.3c0-0.2,0.1-0.5,0.1-2.2v-0.6
				c0-0.6-0.1-0.9-0.1-1.1c0-0.3,0-0.3,0.3-0.3c0.2,0,0.9,0.1,3,0.1h0.8v-0.1c0-0.9,0-1.6-0.2-2.5c1,0,1.7,0.1,2.6,0.2
				c0.3,0,0.4,0.2,0.4,0.3c0,0.2-0.1,0.4-0.2,0.5c-0.1,0.3-0.1,0.7-0.1,1.5v0.1h0.9c2.2,0,2.9-0.1,3-0.1c0.3,0,0.3,0,0.3,0.3
				c0,0.2-0.1,0.5-0.1,0.9V121.7z M225.8,132.5c0.9,0,1.5,0,1.8,0c-1.1-0.5-2.1-1-3-1.7c-0.8,0.6-1.8,1.2-2.9,1.7H225.8z
				 M222.8,134.5v2.8h3.4v-2.8H222.8z M223,126c0.5,0.7,1,1.4,1.7,2c0.6-0.7,1.1-1.4,1.6-2.1h-3.1L223,126z M233.9,120.6
				c-2.3,0-3.1,0.1-3.2,0.1c-0.3,0-0.3,0-0.3-0.3v-1.9c0-0.3,0-0.3,0.3-0.3c0.2,0,0.9,0.1,3.2,0.1h4.7c2.3,0,3.1-0.1,3.3-0.1
				c0.2,0,0.3,0,0.3,0.3v1.9c0,0.3,0,0.3-0.3,0.3c-0.2,0-0.9-0.1-3.3-0.1h-1.6c-0.3,0.7-0.5,1.4-0.8,1.9h1.4c2.1,0,2.8-0.1,3-0.1
				c0.3,0,0.3,0,0.3,0.3c0,0.1-0.1,1-0.1,3v6.9c0,2,0.1,2.9,0.1,3c0,0.3,0,0.3-0.3,0.3c-0.2,0-0.9-0.1-3-0.1h-3.3
				c-2.1,0-2.8,0.1-3,0.1c-0.3,0-0.3,0-0.3-0.3c0-0.1,0.1-1,0.1-3v-6.8c0-2.1-0.1-3-0.1-3.1c0-0.3,0-0.3,0.3-0.3
				c0.1,0,0.7,0.1,2.3,0.1c0.3-0.6,0.5-1.2,0.7-1.9H233.9z M233.5,124.7v1.6h4.9v-1.6H233.5z M238.4,130v-1.7h-4.9v1.7H238.4z
				 M238.4,132h-4.9v1.8h4.9V132z M237.6,136.2c0.1-0.1,0.3-0.2,0.5,0c1.4,1.2,2.9,2.1,4.4,2.7c-0.4,0.3-0.7,0.9-1.1,1.5
				c-0.2,0.4-0.4,0.6-0.5,0.6c-0.2,0-0.3-0.1-0.6-0.2c-1.6-0.8-2.9-1.9-4-3c-0.2-0.2-0.1-0.3,0.1-0.5L237.6,136.2z"/>
			<path d="M251.6,124.2c-1.7,0-3.2,0.1-4.3,0.1c-0.3,0-0.4-0.2-0.5-0.5c-0.1-0.5-0.2-1.9-0.2-2.6c1.2,0.1,2.5,0.2,5,0.2h9.3
				c0.8,0,1.1-0.1,1.4-0.3c0.2-0.1,0.3-0.2,0.4-0.2c0.2,0,0.3,0.1,0.4,0.2c0.7,0.5,1.3,1.2,1.8,1.8c0.1,0.2,0.2,0.3,0.2,0.5
				c0,0.2-0.1,0.3-0.3,0.5c-0.2,0.2-0.4,0.5-0.6,1c-1.3,3.1-2.9,5.9-5,8.5c-2.2,2.5-4.8,4.7-7.4,6.2c-0.2,0.2-0.5,0.2-0.7,0.2
				c-0.2,0-0.4-0.1-0.7-0.3c-0.6-0.6-1.5-1-2.4-1.4c3.8-1.9,6.1-3.7,8.5-6.5c2-2.3,3.4-4.5,4.4-7.4H251.6z M269.6,119.2
				c0,1.6-1.2,2.8-2.8,2.8s-2.8-1.2-2.8-2.8c0-1.6,1.2-2.8,2.8-2.8S269.6,117.7,269.6,119.2z M265.2,119.2c0,0.9,0.7,1.5,1.5,1.5
				s1.5-0.6,1.5-1.5c0-0.9-0.7-1.5-1.5-1.5S265.2,118.3,265.2,119.2z"/>
			<path d="M278.2,127.6c-1.3,0-2.6,0-3.9,0.1c-0.2,0-0.3-0.2-0.4-0.5c-0.2-0.6-0.2-1.6-0.3-2.6c1.5,0.2,3.1,0.2,4.8,0.2h8.9
				c0.4,0,1-0.1,1.4-0.3c0.1-0.1,0.2-0.2,0.3-0.2c0.1,0,0.3,0.1,0.4,0.2c0.6,0.5,1.3,1.1,1.7,1.6c0.2,0.2,0.3,0.4,0.3,0.5
				c0,0.2-0.1,0.3-0.3,0.5c-0.4,0.3-0.6,0.6-0.9,1.2c-2.6,5.5-5.6,8.8-10.6,11.5c-0.2,0.1-0.4,0.2-0.5,0.2c-0.2,0-0.4-0.1-0.6-0.3
				c-0.7-0.6-1.5-1-2.4-1.4c4.8-2.2,9-5.8,10.9-10.8L278.2,127.6z M280,122c-1.2,0-2.5,0-3.6,0.1c-0.3,0-0.3-0.2-0.4-0.6
				c-0.1-0.5-0.1-1.7-0.1-2.5c1.6,0.2,2.4,0.2,4.3,0.2h4.7c1.7,0,3.1-0.1,4.1-0.1c0.2,0,0.3,0.1,0.3,0.4c0.1,0.7,0.1,1.4,0,2
				c0,0.4-0.1,0.5-0.5,0.5c-0.9,0-2.1-0.1-3.7-0.1H280z"/>
			<path d="M298.8,120.8c0.1-0.1,0.2-0.2,0.4-0.2c0.1,0,0.2,0.1,0.3,0.1c1.3,0.7,3.5,2.3,5,3.7c0.2,0.2,0.2,0.3,0.2,0.4
				c0,0.1-0.1,0.2-0.2,0.3c-0.4,0.5-1.2,1.6-1.6,1.9c-0.1,0.1-0.2,0.2-0.3,0.2c-0.1,0-0.2-0.1-0.3-0.2c-1.6-1.6-3.4-3.1-5.3-4.2
				C297.5,122.1,298.3,121.3,298.8,120.8z M301,134.5c3.2-1.6,4.9-2.7,7.5-4.8c3.2-2.6,4.9-4.2,7.1-7.1c0.2,1.3,0.4,2.2,0.7,3
				c0.1,0.2,0.1,0.3,0.1,0.5c0,0.2-0.1,0.4-0.4,0.8c-1.4,1.6-3.6,3.7-6,5.5c-2.2,1.7-4.3,3.1-7.9,5.1c-1.2,0.7-1.5,1-1.7,1.2
				c-0.2,0.2-0.3,0.3-0.5,0.3c-0.1,0-0.3-0.1-0.4-0.3c-0.6-0.7-1.5-1.8-2.1-2.9C298.9,135.4,299.7,135.2,301,134.5z"/>
			<path d="M337.5,123.1c0.2-0.1,0.3,0,0.3,0.2c0.2,0.6,0.5,1.5,0.6,2.2c0.1,0.3-0.1,0.3-0.2,0.4c-2.2,0.6-4.4,1-6.6,1.2
				c0.1,2.1,0.2,3.5,0.4,6c2.7,0.8,5.1,1.9,7.5,3.4c0.2,0.1,0.2,0.2,0.1,0.4c-0.4,0.8-0.9,1.6-1.4,2.2c-0.2,0.2-0.2,0.2-0.4,0.1
				c-1.9-1.4-3.5-2.4-5.8-3.3c0,0.2,0,0.4,0,0.6c-0.1,2.2-1.8,3.9-5.3,3.9c-3.2,0-5.5-1.4-5.5-3.8c0-2.3,2.5-4,5.7-4
				c0.8,0,1.6,0,2.2,0.1c-0.3-3.4-0.4-5.9-0.4-8.3c0-0.9-0.1-2.3-0.1-3.6c0-0.9-0.1-1.6-0.4-2.4c1.1,0.1,2.2,0.2,3.3,0.5
				c0.3,0.1,0.4,0.2,0.4,0.4c0,0.1-0.1,0.3-0.1,0.4c-0.2,0.4-0.3,0.8-0.3,1.4c-0.1,0.8-0.1,1.9-0.1,3.3
				C333.7,124,335.7,123.7,337.5,123.1z M329.3,135.1c-0.9-0.2-1.7-0.3-2.4-0.3c-1.8,0-3,0.6-3,1.5c0,0.9,1,1.3,2.7,1.3
				c1.9,0,2.8-1.1,2.7-2.2L329.3,135.1z"/>
			<path d="M350.2,119c0.3,0.1,0.5,0.3,0.5,0.5c0,0.2-0.1,0.3-0.2,0.4c-0.2,0.2-0.3,0.6-0.5,1.2c-0.4,1.8-0.6,3.6-0.7,5
				c-0.1,0.9-0.1,1.9-0.1,2.9c0.6-1,1.1-2,1.8-3.3c0.2,0.8,0.5,1.2,0.8,1.7c0.1,0.2,0.2,0.3,0.2,0.4c0,0.2-0.1,0.4-0.3,0.7
				c-0.6,1.1-1.2,2.2-1.5,3.3c-0.1,0.2-0.1,0.5-0.1,0.8c0,0.3-0.1,0.4-0.3,0.4c-0.3,0.1-1.4,0.2-2.1,0.3c-0.2,0-0.3-0.2-0.4-0.3
				c-0.4-1.1-0.8-3.1-0.8-5.3c0-1.7,0.3-3.9,0.6-6.5c0.1-0.9,0.2-1.8,0.2-3C348.5,118.4,349.5,118.7,350.2,119z M358.6,118.6
				c0.5,0.1,0.6,0.3,0.5,0.7c-0.1,0.4-0.1,0.8-0.1,1.2c0.2,2.5,0.4,4.8,0.4,6.7c0,3.7-0.6,6.9-2,9c-1,1.6-2.7,3.1-4.3,4.2
				c-0.2,0.1-0.4,0.2-0.5,0.2c-0.2,0-0.3-0.1-0.5-0.3c-0.6-0.5-1.4-1-2.2-1.2c2.1-1.2,3.4-2.1,4.4-3.5c1.5-2.1,2.2-4.2,2.2-8.3
				c0-1.8-0.1-4.6-0.3-6.2c-0.1-1.3-0.3-1.9-0.5-2.8C356.8,118.3,357.9,118.4,358.6,118.6z"/>
		</g>
		<g class="st2">
			<path d="M68,186.3c-2.3,0-3.1,0.1-3.2,0.1c-0.3,0-0.3,0-0.3-0.3V184c0-0.2,0-0.3,0.3-0.3c0.2,0,1,0.1,3.2,0.1h0.6v-3.6
				c0-1.5-0.1-2.2-0.1-2.3c0-0.3,0-0.3,0.3-0.3c0.2,0,1,0.1,3.6,0.1h3.3v-3.5h-5.3c-0.9,1.3-1.9,2.5-3,3.7c-0.3,0.3-0.4,0.4-0.5,0.4
				c-0.1,0-0.3-0.2-0.5-0.5c-0.5-0.7-1-1.1-1.5-1.4c2.2-1.9,3.7-4,4.8-6.3c0.3-0.7,0.5-1.3,0.7-1.9c0.9,0.2,1.8,0.4,2.5,0.6
				c0.3,0.1,0.5,0.2,0.5,0.4s-0.1,0.3-0.3,0.5c-0.2,0.2-0.4,0.4-0.6,0.9l-0.5,1.1h10.7c2.5,0,3.4-0.1,3.6-0.1c0.3,0,0.3,0,0.3,0.3
				v1.9c0,0.3,0,0.3-0.3,0.3c-0.2,0-1-0.1-3.6-0.1h-4v3.5h2.8c2.5,0,3.4-0.1,3.6-0.1c0.2,0,0.3,0,0.3,0.3v2c0,0.3,0,0.3-0.3,0.3
				c-0.2,0-1-0.1-3.6-0.1h-2.8v3.8h5.5c2.3,0,3.1-0.1,3.2-0.1c0.3,0,0.3,0,0.3,0.3v2.1c0,0.3,0,0.3-0.3,0.3c-0.2,0-1-0.1-3.2-0.1
				h-5.5v1.3c0,2.7,0.1,4.1,0.1,4.2c0,0.3,0,0.3-0.3,0.3H76c-0.3,0-0.3,0-0.3-0.3c0-0.2,0.1-1.5,0.1-4.2v-1.3H68z M75.8,183.8V180
				h-4.4v3.8H75.8z"/>
			<path d="M99.5,169c1.7,0,2.5-0.1,2.6-0.1c0.2,0,0.3,0,0.3,0.3c0,0.2-0.1,0.9-0.1,2.5v3.2c0,1.6,0.1,2.3,0.1,2.5
				c0,0.3,0,0.3-0.3,0.3c-0.2,0-0.9-0.1-2.6-0.1h-4.2v8.4c0,3.6,0.1,5.4,0.1,5.5c0,0.3,0,0.3-0.3,0.3h-2.2c-0.3,0-0.3,0-0.3-0.3
				c0-0.2,0.1-2,0.1-5.5v-11.3c0-3.6-0.1-5.4-0.1-5.6c0-0.3,0-0.3,0.3-0.3c0.2,0,1.2,0.1,3.1,0.1H99.5z M95.3,171v1.5h4.5V171H95.3z
				 M99.8,174.3h-4.5v1.6h4.5V174.3z M98.8,190.2c-0.3,0-0.3,0-0.3-0.3c0-0.2,0.1-0.9,0.1-4.7v-2.3c0-2.3-0.1-3.1-0.1-3.2
				c0-0.3,0-0.3,0.3-0.3c0.2,0,0.8,0.1,2.8,0.1h3.5c2,0,2.6-0.1,2.8-0.1c0.3,0,0.3,0,0.3,0.3c0,0.2-0.1,0.9-0.1,2.8v2.6
				c0,3.8,0.1,4.5,0.1,4.6c0,0.3,0,0.3-0.3,0.3H106c-0.3,0-0.3,0-0.3-0.3v-0.8H101v1.1c0,0.3,0,0.3-0.3,0.3H98.8z M101,183.1h4.8
				v-1.7H101V183.1z M105.7,186.8V185H101v1.8H105.7z M114.3,183.4c0,1.8,0.1,3.9,0.1,5.2c0,1.2-0.2,1.9-0.8,2.4
				c-0.5,0.5-1.3,0.7-3.7,0.7c-0.8,0-0.8,0-0.9-0.8c-0.2-0.7-0.4-1.4-0.6-1.9c0.8,0.1,1.6,0.1,2.2,0.1c0.9,0,1.1-0.2,1.1-1v-10.4
				h-4.3c-2,0-2.7,0.1-2.9,0.1c-0.3,0-0.3,0-0.3-0.3c0-0.2,0.1-0.8,0.1-2.3v-3.6c0-1.5-0.1-2.1-0.1-2.3c0-0.3,0-0.3,0.3-0.3
				c0.2,0,0.8,0.1,2.9,0.1h3.8c2,0,2.7-0.1,2.9-0.1c0.3,0,0.3,0,0.3,0.3c0,0.2-0.1,1.2-0.1,3.4V183.4z M106.8,171v1.5h4.8V171H106.8
				z M111.6,175.9v-1.6h-4.8v1.6H111.6z"/>
		</g>
		<g class="st2">
			<path class="st3" d="M131,186.5h5.3v3.6h-15.2v-3.6h5.6v-20.1c-1.4,1-3.2,1.8-5.2,2.5l-0.7-3.9c2.4-0.7,4.6-1.9,6.6-3.3h3.8
				V186.5z"/>
			<path class="st3" d="M142.7,169.2c0.6-5.1,4.1-7.8,8.7-7.8c5.1,0,8.4,2.7,8.4,7.6c0,3.1-1.4,5.5-5.7,9.5
				c-3.9,3.5-5.7,5.6-6.9,7.8H160v3.7h-17.5v-3.3c1.7-3.5,4-6.6,8.1-10.5c3.7-3.6,4.5-5,4.5-7.4c0-2.5-1.4-3.9-3.7-3.9
				c-2.3,0-3.8,1.7-4,5.1L142.7,169.2z"/>
			<path class="st3" d="M183.3,175.9c0,10.5-3.2,14.7-9,14.7c-5.8,0-8.8-4.2-8.8-14.7s3.2-14.6,8.9-14.6
				C180.1,161.4,183.3,165.4,183.3,175.9z M170.3,175.9c0,8.3,1.1,11,4.1,11c3,0,4.2-2.7,4.2-11c0-8.3-1.1-10.9-4.1-10.9
				C171.6,165,170.3,167.5,170.3,175.9z"/>
			<path class="st3" d="M194.7,190.1l-2.8,5.8h-2.3l2.5-5.8h-2.7v-5h5.3V190.1z"/>
			<path class="st3" d="M218.6,175.9c0,10.5-3.2,14.7-9,14.7c-5.8,0-8.8-4.2-8.8-14.7s3.2-14.6,8.9-14.6
				C215.4,161.4,218.6,165.4,218.6,175.9z M205.5,175.9c0,8.3,1.1,11,4.1,11c3,0,4.2-2.7,4.2-11c0-8.3-1.1-10.9-4.1-10.9
				C206.8,165,205.5,167.5,205.5,175.9z"/>
			<path class="st3" d="M241.6,175.9c0,10.5-3.2,14.7-9,14.7c-5.8,0-8.8-4.2-8.8-14.7s3.2-14.6,8.9-14.6S241.6,165.4,241.6,175.9z
				 M228.6,175.9c0,8.3,1.1,11,4.1,11c3,0,4.2-2.7,4.2-11c0-8.3-1.1-10.9-4.1-10.9C229.8,165,228.6,167.5,228.6,175.9z"/>
			<path class="st3" d="M264.7,175.9c0,10.5-3.2,14.7-9,14.7c-5.8,0-8.8-4.2-8.8-14.7s3.2-14.6,8.9-14.6S264.7,165.4,264.7,175.9z
				 M251.6,175.9c0,8.3,1.1,11,4.1,11c3,0,4.2-2.7,4.2-11c0-8.3-1.1-10.9-4.1-10.9C252.9,165,251.6,167.5,251.6,175.9z"/>
		</g>
		<g class="st2">
			<path d="M291.6,184.2c0,2.3,0.1,3.6,0.1,4.5c0,1-0.2,1.7-0.8,2.2c-0.6,0.5-1.5,0.7-4.2,0.7c-0.8,0-0.9,0-1-0.8
				c-0.2-0.8-0.4-1.5-0.7-2c1.1,0.1,2.3,0.1,2.9,0.1c0.8,0,1-0.2,1-0.9v-6.5h-15.2v5.5c0,2.8,0.1,4.3,0.1,4.4c0,0.3,0,0.3-0.3,0.3
				h-2.3c-0.3,0-0.3,0-0.3-0.3c0-0.2,0.1-1.8,0.1-5.1v-11.1c0-3.3-0.1-5-0.1-5.1c0-0.3,0-0.3,0.3-0.3c0.2,0,1.1,0.1,3.5,0.1h13.2
				c2.5,0,3.4-0.1,3.5-0.1c0.3,0,0.3,0,0.3,0.3c0,0.2-0.1,1.9-0.1,5.2V184.2z M279.8,178.9v-6.6h-6.1v6.6H279.8z M282.5,172.4v6.6
				h6.4v-6.6H282.5z"/>
			<path d="M304.1,177.4c-1.3,0.1-2.6,0.2-4.4,0.2c-0.4,0-0.6-0.2-0.6-0.5c-0.1-0.5-0.2-1.4-0.3-2.3c0.7,0.1,1.4,0.1,2,0.1
				c1.1,0,2.2-0.1,3.3-0.2c0-0.9,0-1.8,0-3c0-0.7,0-1.4-0.2-2.1c1.3,0.1,2.4,0.3,3.1,0.5c0.3,0.1,0.5,0.3,0.5,0.5
				c0,0.1-0.1,0.2-0.2,0.4c-0.2,0.3-0.3,0.7-0.4,1c-0.1,0.7-0.1,1.3-0.1,2.2c1.1-0.2,2.2-0.6,3.3-1c0.2-0.1,0.4,0,0.4,0.2
				c0.1,0.7,0.2,1.4,0.2,2c0,0.3-0.1,0.3-0.3,0.4c-1.7,0.5-2.2,0.7-3.7,1c0,1.2,0,2.5-0.1,3.8c2.4-1,4.7-1.5,6.4-1.4
				c3.2,0,5.5,2.1,5.5,5.2c0,3.3-2.1,5.3-5.6,5.3c-0.8,0-1.6-0.1-2.1-0.2c-0.4-0.1-0.6-0.4-0.6-0.8c-0.1-0.6-0.2-1.5-0.8-2.2
				c1.2,0.4,2.3,0.5,3.2,0.5c1.5,0,2.8-0.8,2.8-2.7c0-1.7-1-2.6-2.9-2.6c-1.5,0-3.3,0.4-6,1.8c0,1.1,0.1,2,0.1,3.1
				c0.1,1.1,0.2,2.8,0.2,3.4c0,0.4,0.1,0.8-0.4,0.9c-0.6,0.2-1.4,0.3-1.9,0.3c-0.3,0-0.4-0.2-0.6-0.5c-0.7-1-2.1-2.2-3.7-3.3
				c-0.3,0.2-0.6,0.4-0.8,0.6c-0.1,0.1-0.3,0.2-0.4,0.2c-0.2,0-0.4-0.2-0.6-0.4c-0.3-0.5-0.8-1.6-1.2-2.4c0.7-0.2,1.5-0.4,2.4-0.9
				c1.1-0.6,2.3-1.3,4.2-2.4V177.4z M301.6,186.3c0.7,0.4,1.6,0.8,2.4,1.2c0.2,0.1,0.3,0,0.3-0.2c-0.1-0.7-0.1-1.9-0.2-2.7
				C303.5,185.1,302.6,185.7,301.6,186.3z M314.1,172.7c0.2-0.3,0.3-0.4,0.4-0.3c2.4,0.7,4.2,1.8,5.5,3.2c0.1,0.1,0.2,0.2,0.2,0.3
				s-0.1,0.2-0.1,0.3c-0.3,0.5-1,1.3-1.4,1.8c-0.1,0.1-0.4,0.1-0.5,0c-1.4-1.5-3.2-2.5-5.3-3.2C313.2,174,313.6,173.3,314.1,172.7z"
				/>
			<path d="M327,184.6c0-0.8,0-1.9,0.1-2.9c-0.5,0.5-0.9,0.9-1.4,1.3c-0.3,0.2-0.5,0.3-0.6,0.3c-0.2,0-0.2-0.2-0.3-0.5
				c-0.2-0.7-0.6-1.5-0.9-1.9c2.1-1.6,3.7-3.6,5-5.6c0.3-0.4,0.5-0.9,0.7-1.4c0.7,0.4,1.3,0.8,1.9,1.2c0.2,0.2,0.3,0.3,0.3,0.5
				c0,0.2-0.1,0.3-0.3,0.4c-0.2,0.1-0.5,0.5-0.7,0.9c-0.3,0.5-0.7,1.1-1.1,1.7v9.8c0,2.1,0.1,3.1,0.1,3.2c0,0.3,0,0.3-0.3,0.3h-2.2
				c-0.3,0-0.3,0-0.3-0.3c0-0.2,0.1-1.1,0.1-3.2V184.6z M331.3,169.5c0.2,0.2,0.4,0.3,0.4,0.5c0,0.2-0.1,0.3-0.3,0.3
				c-0.3,0.1-0.5,0.3-0.8,0.7c-1.2,1.5-2.7,3-4.5,4.4c-0.3,0.2-0.4,0.3-0.6,0.3c-0.2,0-0.3-0.2-0.5-0.6c-0.3-0.6-0.8-1.2-1.2-1.5
				c1.7-1.1,3.4-2.6,4.6-4.1c0.4-0.4,0.6-0.9,0.8-1.2C330,168.7,330.6,169.1,331.3,169.5z M334.7,185c-2.5,0-3.4,0.1-3.6,0.1
				c-0.3,0-0.3,0-0.3-0.3V183c0-0.3,0-0.3,0.3-0.3c0.2,0,1,0.1,3.6,0.1h6.9v-1.6H335c-2.5,0-3.4,0.1-3.5,0.1c-0.3,0-0.3,0-0.3-0.3
				v-1.7c0-0.3,0-0.3,0.3-0.3c0.2,0,1,0.1,3.5,0.1h8.7c2.5,0,3.4-0.1,3.6-0.1c0.2,0,0.3,0,0.3,0.3v1.7c0,0.3,0,0.3-0.3,0.3
				c-0.2,0-1,0-3-0.1v1.6c2.1,0,2.9-0.1,3-0.1c0.3,0,0.3,0,0.3,0.3v1.7c0,0.3,0,0.3-0.3,0.3c-0.1,0-0.9,0-3-0.1v1.2
				c0,1.3,0,2.1,0,3.1c0,1-0.3,1.6-0.9,2c-0.6,0.4-1.6,0.5-3.6,0.5c-0.8,0-0.8,0-1-0.8c-0.2-0.7-0.4-1.3-0.7-1.8
				c0.9,0.1,2.1,0.1,2.8,0.1c0.4,0,0.7-0.2,0.7-0.8V185H334.7z M341.8,169.2c2.3,0,3-0.1,3.2-0.1c0.3,0,0.3,0,0.3,0.3
				c0,0.2-0.1,0.8-0.1,2.3v3.4c0,1.5,0.1,2.2,0.1,2.3c0,0.3,0,0.3-0.3,0.3c-0.2,0-0.9-0.1-3.2-0.1h-5c-2.3,0-3,0.1-3.2,0.1
				c-0.3,0-0.3,0-0.3-0.3c0-0.2,0.1-0.8,0.1-2.3v-3.4c0-1.5-0.1-2.1-0.1-2.3c0-0.3,0-0.3,0.3-0.3c0.2,0,0.9,0.1,3.2,0.1H341.8z
				 M335.2,185.5c0.3-0.2,0.3-0.2,0.5,0c0.9,0.8,1.8,1.8,2.5,2.9c0.2,0.2,0.1,0.3-0.2,0.5l-1.6,1c-0.2,0.1-0.3,0.1-0.3,0.1
				c-0.1,0-0.1-0.1-0.2-0.2c-0.7-1.1-1.5-2.2-2.4-3c-0.2-0.2-0.2-0.3,0.1-0.4L335.2,185.5z M335.8,172.5h6.9v-1.3h-6.9V172.5z
				 M342.7,174.4h-6.9v1.3h6.9V174.4z"/>
			<path d="M358.1,184.9h-2.6l-0.7-15.5h4.1L358.1,184.9z M358.6,187.4v3.5h-3.7v-3.5H358.6z"/>
		</g>
	</g>
</g>
</svg>
