<?xml version="1.0" encoding="utf-8"?>
<!-- Generator: Adobe Illustrator 24.2.0, SVG Export Plug-In . SVG Version: 6.00 Build 0)  -->
<svg version="1.1" id="レイヤー_1" xmlns="http://www.w3.org/2000/svg" xmlns:xlink="http://www.w3.org/1999/xlink" x="0px"
	 y="0px" viewBox="0 0 417 250" style="enable-background:new 0 0 417 250;" xml:space="preserve">
<style type="text/css">
	.st0{fill:#FFFFFF;}
	.st1{fill:none;stroke:#304DEB;stroke-width:3;}
	.st2{enable-background:new    ;}
	.st3{fill:#304DEB;}
</style>
<g>
	<g transform="matrix(1, 0, 0, 1, 548, -27)">
		<g id="長方形_23-2" transform="translate(10 12)">
			<path class="st0" d="M-540,27h381c3.3,0,6,2.7,6,6v214c0,3.3-2.7,6-6,6h-381c-3.3,0-6-2.7-6-6V33C-546,29.7-543.3,27-540,27z"/>
			<path class="st1" d="M-540,28.5h381c2.5,0,4.5,2,4.5,4.5v214c0,2.5-2,4.5-4.5,4.5h-381c-2.5,0-4.5-2-4.5-4.5V33
				C-544.5,30.5-542.5,28.5-540,28.5z"/>
		</g>
	</g>
	<g>
		<g class="st2">
			<path class="st3" d="M87.8,79.1c-3,0-4,0.1-4.2,0.1c-0.3,0-0.3,0-0.3-0.4v-2.4c0-0.3,0-0.4,0.3-0.4c0.2,0,1.2,0.1,4.2,0.1h1.1
				c0.3-1.6,0.5-3.1,0.7-4.6c0.1-0.8,0.1-1.5,0.2-2.3c0-0.3,0.1-0.4,0.4-0.4c0.2,0,1.3,0.1,4.5,0.1h9.6c3.2,0,4.4-0.1,4.6-0.1
				c0.3,0,0.4,0.1,0.4,0.4c-0.1,1-0.1,2-0.1,2.9l-0.2,4h0.4c3,0,4-0.1,4.2-0.1c0.3,0,0.3,0,0.3,0.4v2.4c0,0.3,0,0.4-0.3,0.4
				c-0.2,0-1.2-0.1-4.2-0.1h-0.6c-0.1,1.5-0.2,3.1-0.4,4.5c2.7,0,3.7-0.1,3.9-0.1c0.3,0,0.4,0,0.4,0.3v2.4c0,0.3,0,0.4-0.4,0.4
				c-0.2,0-1.3-0.1-4.2-0.1v0.2c-0.4,3.1-1.9,4.4-5,4.4c-0.4,0-1,0-1.4,0c-0.7,0-0.7-0.1-0.9-1.1c-0.2-0.8-0.4-1.5-0.8-2.1
				c1.1,0.1,2,0.1,2.8,0.1c1,0,1.6-0.2,1.9-1.4H90.2l-0.4,1.7c-0.1,0.4-0.2,0.6-0.7,0.5l-2.5-0.3c-0.6-0.1-0.6-0.2-0.5-0.6
				c0.3-0.9,0.6-1.7,0.8-2.7c0.5-1.9,1-4,1.4-6.1H87.8z M90.9,66.8c-1,1.6-2.3,3.2-4,4.9c-0.3,0.4-0.5,0.6-0.7,0.6s-0.3-0.2-0.7-0.7
				c-0.5-0.7-1.3-1.4-1.9-1.8c3-2.4,5-5,6.4-8.3c0.2-0.4,0.4-1.1,0.5-1.8c1.2,0.2,2.5,0.5,3.2,0.7c0.3,0.1,0.6,0.3,0.6,0.5
				c0,0.3-0.2,0.5-0.4,0.6c-0.2,0.2-0.4,0.5-0.7,1.2l-0.5,1.1h14.8c3.3,0,4.5,0,4.7,0c0.3,0,0.4,0,0.4,0.4v2.5c0,0.3,0,0.4-0.4,0.4
				c-0.2,0-1.4-0.1-4.7-0.1H90.9z M96,83.6c0.3-1.5,0.5-3,0.7-4.5h-4.9c-0.3,1.5-0.5,3-0.9,4.5H96z M92.9,71.8
				c-0.2,1.4-0.4,2.8-0.6,4.2h4.8c0.2-1.4,0.3-2.8,0.4-4.2H92.9z M100,79.1c-0.2,1.5-0.4,3-0.7,4.5h5.5c0.1-1.4,0.3-2.9,0.4-4.5H100
				z M100.8,71.8c-0.1,1.5-0.2,2.9-0.4,4.2h5.1c0.1-1.5,0.2-2.9,0.2-4.2H100.8z"/>
			<path class="st3" d="M143,80c0,2.3,0.1,4.9,0.1,6.8c0,1.5-0.2,2.3-1.1,3.2c-0.9,0.8-2,1-5.6,1c-1.1,0-1.1,0-1.3-1.1
				c-0.1-1-0.5-2.2-0.9-2.9c1.5,0.1,2.5,0.2,3.9,0.2c0.8,0,1.2-0.4,1.2-1.2v-5.9h-12.1c-0.6,4.7-2.1,7.4-4.9,10.5
				c-0.3,0.4-0.5,0.6-0.7,0.6s-0.4-0.2-0.8-0.5c-0.7-0.7-1.6-1.3-2.4-1.6c4.5-4.2,5.6-7.1,5.6-17.4v-5c0-2.9-0.1-4.4-0.1-4.6
				c0-0.4,0-0.4,0.4-0.4c0.2,0,1.4,0.1,4.5,0.1h9.5c3.2,0,4.2-0.1,4.5-0.1c0.3,0,0.4,0,0.4,0.4c0,0.2-0.1,1.7-0.1,4.6V80z
				 M139.3,76.8v-4.3h-11.7c0,1.6-0.1,3-0.1,4.3H139.3z M127.7,65v4.1h11.7V65H127.7z"/>
		</g>
		<g class="st2">
			<path d="M156.6,83c0.2,0.1,0.2,0.2,0.1,0.4c-0.4,0.6-0.6,1.3-0.6,1.8c0,1.5,1.6,2.3,5.7,2.3c2.3,0,4.5-0.3,6.5-0.7
				c0.3-0.1,0.5,0,0.5,0.2c0.1,0.5,0.3,1.8,0.4,2.4c0,0.2-0.1,0.3-0.4,0.4c-2.2,0.4-4.4,0.6-7,0.6c-5.5,0-8.3-1.7-8.3-4.8
				c0-1,0.4-2,1.3-3.4C155.4,82.3,156,82.6,156.6,83z M162.1,73.6c1.8,0,3.5-0.1,5-0.2c0.2,0,0.3,0.1,0.4,0.3c0.1,0.6,0.2,1.2,0.2,2
				c0,0.3-0.1,0.5-0.4,0.5c-2.3,0.3-3.9,1.1-5.9,2.4c-0.2,0.1-0.4,0.2-0.6,0.2c-0.2,0-0.3,0-0.5-0.1c-0.5-0.3-1-0.6-1.7-0.8
				c1.2-0.8,2.3-1.5,3.1-2c-0.5,0.1-1.3,0.1-1.8,0.1c-1,0-3-0.1-4.4-0.4c-0.2,0-0.3-0.1-0.3-0.4c0-0.6,0-1.3,0.1-2.1
				C157.2,73.4,159.5,73.6,162.1,73.6z M168.6,70.9c0.1-0.1,0.2-0.1,0.4,0c0.7,0.6,1.6,1.5,2.3,2.6c0.1,0.1,0.1,0.3-0.1,0.4l-1,0.7
				c-0.2,0.1-0.3,0.1-0.4-0.1c-0.7-1.1-1.5-2-2.4-2.8L168.6,70.9z M170.7,69.3c0.1-0.1,0.2-0.1,0.4,0c0.9,0.7,1.8,1.6,2.3,2.5
				c0.1,0.1,0.1,0.3-0.1,0.4l-1,0.7c-0.2,0.1-0.3,0.1-0.4-0.1c-0.6-1-1.4-1.9-2.4-2.8L170.7,69.3z"/>
			<path d="M179.9,78.8c-2.1,0-2.8,0-2.9,0c-0.2,0-0.3,0-0.3-0.3v-1.7c0-0.2,0-0.3,0.3-0.3c0.1,0,0.8,0,2.9,0h1.6v-2.9
				c-0.9,0.2-1.8,0.4-2.8,0.6c-0.7,0.1-0.7,0.1-1-0.6c-0.2-0.5-0.5-1-0.8-1.3c2.9-0.4,5.9-1.2,7.4-1.8c0.6-0.2,0.8-0.4,1.2-0.6
				c0.7,0.5,1.2,1,1.6,1.4c0.2,0.2,0.2,0.3,0.2,0.5c0,0.2-0.2,0.3-0.5,0.3c-0.3,0-0.6,0.2-1.1,0.3c-0.6,0.2-1.3,0.5-2,0.7v3.6h0.6
				c2.1,0,2.8,0,2.9,0c0.2,0,0.3,0,0.3,0.3v1.7c0,0.2,0,0.3-0.3,0.3c-0.1,0-0.8,0-2.9,0h-0.2c0.9,1.7,2.3,3.3,3.6,4.4
				c-0.4,0.4-0.7,1.1-1,1.7c-0.1,0.3-0.2,0.4-0.3,0.4c-0.1,0-0.2-0.1-0.4-0.3c-0.9-1.1-1.8-2.3-2.4-3.7c0,5.8,0.1,9.7,0.1,10.2
				c0,0.2,0,0.2-0.3,0.2h-2c-0.2,0-0.3,0-0.3-0.2c0-0.4,0.1-4.3,0.1-9.8c-0.9,2.3-2.1,4.2-3.6,6c-0.2,0.2-0.3,0.3-0.4,0.3
				s-0.2-0.1-0.3-0.4c-0.2-0.7-0.6-1.5-1-1.9c1.8-1.6,3.5-3.9,4.7-6.8H179.9z M189,75.4c0-1.6,0-2.4-0.2-3.6c0.9,0,1.7,0.1,2.5,0.2
				c0.2,0,0.3,0.1,0.3,0.3c0,0.2-0.1,0.4-0.1,0.5c-0.1,0.3-0.1,0.8-0.1,2.6V82c0,2,0,3,0,3.2c0,0.2,0,0.3-0.3,0.3h-2
				c-0.2,0-0.3,0-0.3-0.3c0-0.1,0-1.1,0-3.2V75.4z M197.1,83.6c0,1.7,0,3.6,0,4.8c0,1.2-0.2,1.9-0.9,2.3c-0.7,0.5-1.4,0.6-3.8,0.6
				c-0.7,0-0.7,0-0.9-0.8c-0.2-0.7-0.4-1.4-0.8-1.8c1,0.1,1.9,0.2,2.7,0.2c0.8,0,1.1-0.2,1.1-0.9V73.5c0-1.6,0-2.3-0.2-3.4
				c0.9,0,1.8,0.1,2.6,0.2c0.2,0,0.4,0.1,0.4,0.3c0,0.2-0.1,0.3-0.1,0.5c-0.1,0.3-0.1,0.8-0.1,2.4V83.6z"/>
			<path d="M222.2,85.6c0,1.1,0,2.3,0,3.3c0,0.9-0.2,1.5-0.8,1.9c-0.5,0.4-1.2,0.6-3.2,0.6c-0.7,0-0.7,0-0.9-0.7
				c-0.2-0.8-0.4-1.3-0.7-1.8c1,0.1,1.4,0.1,2.2,0.1c0.6,0,0.8-0.2,0.8-0.8v-4h-5.6v2.9c0,2.3,0,3.4,0,3.6c0,0.2,0,0.3-0.3,0.3h-2.1
				c-0.2,0-0.3,0-0.3-0.3c0-0.2,0-1.2,0-3.6v-2.9h-5.5c-0.3,3-1,4.8-2.1,6.6c-0.2,0.3-0.3,0.5-0.4,0.5s-0.2-0.1-0.5-0.4
				c-0.6-0.6-1.1-0.9-1.7-1.2c1.8-2.3,2.5-5.1,2.5-10.9v-3.9c0-2.5,0-3.8,0-3.9c0-0.3,0-0.3,0.3-0.3c0.1,0,1,0,3.3,0h11.3
				c2.3,0,3.1,0,3.3,0c0.2,0,0.3,0,0.3,0.3c0,0.1,0,1.4,0,3.9V85.6z M211.6,82v-3.4h-5.2v0.3c0,1.2,0,2.2-0.1,3.1H211.6z
				 M211.6,76.4V73h-5.2v3.3H211.6z M214.1,73v3.3h5.6V73H214.1z M219.7,82v-3.4h-5.6V82H219.7z"/>
			<path d="M232.4,72.4c0.4,0.2,0.6,0.4,0.6,0.6c0,0.2,0,0.2-0.4,0.7c-0.2,0.4-0.4,0.8-0.6,1.7c-0.7,3-1,5.9-1,7.8
				c0,1.2,0,2,0.1,2.8c0.5-1.1,0.9-1.9,1.6-3.6c0.2,0.6,0.5,1,0.8,1.5c0.1,0.1,0.2,0.3,0.2,0.4c0,0.2,0,0.3-0.1,0.4
				c-0.6,1.2-1,2.3-1.4,3.6c0,0.1-0.1,0.4-0.1,0.7c0,0.3,0,0.5,0,0.7c0,0.2-0.1,0.3-0.3,0.3c-0.6,0.2-1.3,0.3-2,0.4
				c-0.2,0-0.3-0.1-0.3-0.3c-0.7-1.7-1.1-4.7-1.1-7.2c0-2.2,0.3-4.8,0.8-7.9c0.3-1.8,0.4-2.6,0.4-3.6
				C230.9,71.7,231.6,72,232.4,72.4z M237.5,83.7c0.2,0,0.2,0.1,0.2,0.4c0.1,1.7,1.3,2.3,3.9,2.3c1.8,0,3-0.1,4.6-0.3
				c0.2,0,0.3,0,0.3,0.3c0.1,0.5,0.1,1.4,0.1,2.1c0,0.3,0,0.3-0.4,0.4c-1.6,0.2-2.8,0.3-3.9,0.3c-3.6,0-5.2-0.6-6.2-2
				c-0.6-0.8-0.8-2-0.8-3.1L237.5,83.7z M236.2,74.7c0-0.3,0.1-0.4,0.3-0.4c1.4-0.3,4.1-0.4,5.2-0.4c1.4,0,2.5,0,3.6,0.1
				c0.5,0,0.6,0.1,0.6,0.3c0,0.7,0,1.4,0,2c0,0.2-0.1,0.3-0.3,0.3c-1.4-0.1-2.7-0.1-3.9-0.1c-1.6,0-3.2,0.1-5.4,0.6
				C236.1,75.7,236.1,75.1,236.2,74.7z"/>
			<path d="M261.7,73.8c0.2-0.1,0.3-0.1,0.4,0.2c0.1,0.6,0.2,1.3,0.2,1.9c0,0.2-0.1,0.3-0.3,0.3c-1.3,0.3-2.5,0.4-4,0.6
				c-1.5,4.1-3,7.4-4.7,10.3c-0.1,0.2-0.2,0.2-0.3,0.2c-0.1,0-0.2,0-0.3-0.1c-0.6-0.3-1.2-0.8-1.7-1.2c-0.1-0.1-0.2-0.2-0.2-0.3
				c0-0.1,0-0.2,0.1-0.3c1.8-3,3.1-5.5,4.2-8.4c-0.9,0-1.7,0-2.4,0c-0.5,0-0.7,0-1.3,0c-0.2,0-0.3-0.1-0.3-0.4
				c-0.1-0.5-0.2-1.2-0.2-2c1,0.1,1.5,0.1,2.2,0.1c0.9,0,1.7,0,2.8-0.1c0.3-1,0.5-1.8,0.6-2.7c0.1-0.8,0.1-1.2,0.1-1.9
				c1,0.1,2.1,0.3,2.8,0.5c0.2,0,0.4,0.2,0.4,0.4c0,0.2-0.1,0.3-0.2,0.5c-0.1,0.2-0.2,0.4-0.4,0.9c-0.2,0.6-0.4,1.3-0.6,2
				C259.7,74.3,260.8,74.1,261.7,73.8z M262.4,80.3c0-0.6,0-1-0.2-1.7c1.2,0.1,1.8,0.2,2.6,0.5c0.2,0,0.3,0.2,0.3,0.4
				c0,0,0,0.2-0.1,0.5c-0.1,0.3-0.1,0.6-0.1,1c0,1.4,0.1,2.4,0.3,4.1c1.7,0.7,2.9,1.2,4.3,2.2c0.2,0.2,0.3,0.3,0.1,0.5
				c-0.4,0.7-0.7,1.3-1.1,1.9c-0.1,0.1-0.1,0.2-0.2,0.2s-0.1,0-0.2-0.1c-1.1-0.9-1.9-1.4-2.9-2c0,2.4-1.7,3.5-4.5,3.5
				c-2.6,0-4.4-1.3-4.4-3.4c0-2.1,1.7-3.5,4.4-3.5c0.5,0,1.1,0,1.9,0.1C262.4,82.9,262.4,81.4,262.4,80.3z M260.7,86.3
				c-1.2,0-2.1,0.5-2.1,1.4c0,0.8,0.7,1.2,2,1.2c1.3,0,2.1-0.7,2.1-1.7c0-0.2,0-0.3,0-0.5C262.1,86.5,261.4,86.3,260.7,86.3z
				 M265.1,74.8c0.1-0.2,0.3-0.3,0.5-0.2c1.4,0.4,3.3,1.3,4.7,2.3c0.1,0.1,0.2,0.2,0.2,0.3c0,0.1,0,0.2-0.1,0.3
				c-0.2,0.5-0.7,1.3-1,1.8c-0.1,0.1-0.1,0.2-0.2,0.2c-0.1,0-0.1,0-0.2-0.1c-1.4-1-3.1-2-5-2.6C264.5,75.9,264.8,75.2,265.1,74.8z"
				/>
			<path d="M281.9,79.7c1.3-0.8,2.5-1.1,3.8-1.1c3.5,0,6,2.3,6,5.8c0,4-3.2,6.6-8.4,6.6c-3,0-4.8-1.3-4.8-3.5c0-1.6,1.5-2.9,3.4-2.9
				c2.3,0,3.9,1.2,4.5,3.5c1.7-0.8,2.4-1.8,2.4-3.6c0-2.2-1.5-3.6-3.8-3.6c-2,0-4.2,0.9-6.1,2.5c-0.7,0.6-1.4,1.3-2.1,2
				c-0.2,0.2-0.3,0.3-0.4,0.3c-0.1,0-0.2-0.1-0.4-0.2c-0.5-0.4-1-1.1-1.4-1.6c-0.1-0.2-0.1-0.4,0.1-0.6c1.9-1.5,3.5-3,5.7-5.3
				c1.5-1.5,2.6-2.7,3.7-4.1c-1.4,0.3-3.1,0.6-4.6,0.9c-0.3,0.1-0.6,0.1-1,0.3c-0.1,0-0.4,0.1-0.5,0.1c-0.2,0-0.4-0.1-0.5-0.4
				c-0.3-0.6-0.5-1.2-0.8-2.6c0.7,0.1,1.5,0.1,2.2,0c1.5-0.1,3.6-0.5,5.4-0.8c0.6-0.1,1.1-0.2,1.3-0.4c0.1-0.1,0.3-0.2,0.5-0.2
				c0.2,0,0.4,0.1,0.6,0.2c0.7,0.6,1.2,1,1.6,1.5c0.2,0.2,0.3,0.4,0.3,0.6c0,0.2-0.1,0.5-0.4,0.6c-0.4,0.2-0.6,0.4-1.1,0.8
				C285.3,76.2,283.7,77.9,281.9,79.7L281.9,79.7z M281.9,86.5c-0.7,0-1.2,0.4-1.2,0.9c0,0.7,0.6,1.2,2.1,1.2c0.4,0,0.7,0,1.1-0.1
				C283.6,87.3,282.9,86.5,281.9,86.5z"/>
			<path d="M307,73.8c0.2-0.1,0.3-0.1,0.4,0.2c0.1,0.6,0.2,1.3,0.2,1.9c0,0.2-0.1,0.3-0.3,0.3c-1.3,0.3-2.5,0.4-4,0.6
				c-1.5,4.1-3,7.4-4.7,10.3c-0.1,0.2-0.2,0.2-0.3,0.2c-0.1,0-0.2,0-0.3-0.1c-0.6-0.3-1.2-0.8-1.7-1.2c-0.1-0.1-0.2-0.2-0.2-0.3
				c0-0.1,0-0.2,0.1-0.3c1.8-3,3.1-5.5,4.2-8.4c-0.9,0-1.7,0-2.4,0c-0.5,0-0.7,0-1.3,0c-0.2,0-0.3-0.1-0.3-0.4
				c-0.1-0.5-0.2-1.2-0.2-2c1,0.1,1.5,0.1,2.2,0.1c0.9,0,1.7,0,2.8-0.1c0.3-1,0.5-1.8,0.6-2.7c0.1-0.8,0.1-1.2,0.1-1.9
				c1,0.1,2.1,0.3,2.8,0.5c0.2,0,0.4,0.2,0.4,0.4c0,0.2-0.1,0.3-0.2,0.5c-0.1,0.2-0.2,0.4-0.4,0.9c-0.2,0.6-0.4,1.3-0.6,2
				C304.9,74.3,306,74.1,307,73.8z M307.7,80.3c0-0.6,0-1-0.2-1.7c1.2,0.1,1.8,0.2,2.6,0.5c0.2,0,0.3,0.2,0.3,0.4c0,0,0,0.2-0.1,0.5
				s-0.1,0.6-0.1,1c0,1.4,0.1,2.4,0.3,4.1c1.7,0.7,2.9,1.2,4.3,2.2c0.2,0.2,0.3,0.3,0.1,0.5c-0.4,0.7-0.7,1.3-1.1,1.9
				c-0.1,0.1-0.1,0.2-0.2,0.2s-0.1,0-0.2-0.1c-1.1-0.9-1.9-1.4-2.9-2c0,2.4-1.7,3.5-4.5,3.5c-2.6,0-4.4-1.3-4.4-3.4
				c0-2.1,1.7-3.5,4.4-3.5c0.5,0,1.1,0,1.9,0.1C307.7,82.9,307.7,81.4,307.7,80.3z M306,86.3c-1.2,0-2.1,0.5-2.1,1.4
				c0,0.8,0.7,1.2,2,1.2c1.3,0,2.1-0.7,2.1-1.7c0-0.2,0-0.3,0-0.5C307.3,86.5,306.7,86.3,306,86.3z M310.4,74.8
				c0.1-0.2,0.3-0.3,0.5-0.2c1.4,0.4,3.3,1.3,4.7,2.3c0.1,0.1,0.2,0.2,0.2,0.3c0,0.1,0,0.2-0.1,0.3c-0.2,0.5-0.7,1.3-1,1.8
				c-0.1,0.1-0.1,0.2-0.2,0.2c-0.1,0-0.1,0-0.2-0.1c-1.4-1-3.1-2-5-2.6C309.7,75.9,310.1,75.2,310.4,74.8z"/>
			<path d="M323.9,76.3c0.3,0.1,0.4,0.3,0.4,0.5c0,0.1,0,0.2-0.1,0.4c-0.2,0.4-0.4,0.8-0.5,1.3c-0.2,1.2-0.5,3-0.6,4.4
				c2.2-2.2,5.1-3.8,8-3.8c3.5,0,5.6,2,5.6,5.1c0,2.6-1.6,4.3-3.6,5.4c-1.6,0.8-4.1,1.4-6.1,1.7c-0.5,0.1-0.7,0-1-0.3
				c-0.5-0.8-0.9-1.5-1.6-2c2.7-0.2,5-0.6,6.6-1.3c1.9-0.8,2.8-2.1,2.8-3.6c0-1.3-0.8-2.5-2.9-2.5c-2.1,0-4.7,1.4-6.9,3.6
				c-0.4,0.4-0.7,0.8-1,1.3c-0.1,0.2-0.2,0.2-0.6,0.2c-0.6-0.2-1.1-0.4-1.6-0.6c-0.2-0.1-0.3-0.1-0.3-0.5c0.1-2.8,0.5-5.6,0.7-7.8
				c0.1-0.7,0.2-1.3,0.2-2.2C322.4,75.7,323.4,76,323.9,76.3z M324.5,70.2c0.1-0.1,0.3-0.2,0.5-0.1c1.8,0.7,3.3,1.6,4.7,2.9
				c0.1,0.1,0.2,0.2,0.2,0.3c0,0.1,0,0.2-0.1,0.3c-0.3,0.5-0.8,1.2-1.2,1.7c-0.1,0.1-0.2,0.2-0.3,0.2c-0.1,0-0.2,0-0.3-0.2
				c-1.3-1.2-3-2.3-4.8-3.1C323.7,71.2,324.1,70.6,324.5,70.2z"/>
		</g>
		<g class="st2">
			<path d="M44.3,131.2c0-0.9,0-1.9,0-2.9c-0.4,0.6-0.9,1.2-1.4,1.8c-0.2,0.2-0.3,0.3-0.4,0.3c-0.1,0-0.2-0.1-0.3-0.4
				c-0.2-0.8-0.5-1.5-0.9-2c1.9-2.2,3.4-4.9,4.3-7.7c0.2-0.6,0.3-1.1,0.4-1.7c0.8,0.2,1.6,0.5,2.3,0.7c0.3,0.1,0.4,0.2,0.4,0.4
				s-0.1,0.3-0.3,0.4c-0.2,0.1-0.3,0.3-0.5,1c-0.4,1.1-0.8,2.2-1.3,3.2v12.5c0,2.4,0,3.5,0,3.6c0,0.2,0,0.3-0.3,0.3h-2
				c-0.2,0-0.3,0-0.3-0.3c0-0.1,0-1.3,0-3.6V131.2z M51.8,123.6c-2.4,0-3.2,0-3.3,0c-0.2,0-0.3,0-0.3-0.3v-1.8c0-0.2,0-0.3,0.3-0.3
				c0.1,0,0.9,0,3.3,0h2.6v-0.1c0-1.2,0-1.8-0.1-2.5c0.9,0,1.7,0,2.4,0.1c0.2,0,0.4,0.1,0.4,0.3c0,0.2-0.1,0.3-0.1,0.5
				c-0.1,0.2-0.2,0.6-0.2,1.7v0.1h3.4c2.4,0,3.2,0,3.3,0c0.3,0,0.3,0,0.3,0.3v1.8c0,0.2,0,0.3-0.3,0.3c-0.1,0-0.9,0-3.3,0h-3.4v1.8
				H59c2.3,0,3.1,0,3.2,0c0.2,0,0.3,0,0.3,0.3c0,0.1,0,0.6,0,1.9v2.4c0,1.2,0,1.8,0,1.9c0,0.2,0,0.3-0.3,0.3c-0.1,0-1,0-3.2,0h-2.4
				c-0.1,1-0.3,1.8-0.6,2.4c-0.2,0.5-0.4,1-0.7,1.5c2.3,1.2,5.2,1.6,8.9,1.8c-0.3,0.5-0.6,1.1-0.7,1.7c-0.1,0.7-0.1,0.7-0.9,0.7
				c-3.6-0.3-6.4-1-8.7-2.4c-1,0.9-2.5,1.7-4.8,2.4c-0.2,0.1-0.4,0.1-0.5,0.1c-0.2,0-0.3-0.2-0.5-0.6c-0.3-0.6-0.6-1.1-1-1.5
				c2.3-0.5,3.8-1.1,4.8-1.9c-0.9-0.7-1.6-1.6-2.3-2.6c-0.1-0.2-0.1-0.3,0.2-0.4l1.2-0.7c0.3-0.1,0.3-0.1,0.5,0
				c0.6,0.8,1.2,1.5,1.9,2c0.2-0.3,0.3-0.6,0.4-0.9c0.2-0.5,0.3-1.1,0.4-1.8h-1.8c-2.3,0-3.1,0-3.2,0c-0.2,0-0.3,0-0.3-0.3
				c0-0.1,0-0.7,0-1.9v-2.4c0-1.3,0-1.8,0-1.9c0-0.2,0-0.3,0.3-0.3c0.1,0,0.9,0,3.2,0h2v-1.8H51.8z M51.3,127.5v2.6h3.1
				c0-0.8,0-1.7,0-2.6H51.3z M60.1,130.2v-2.6h-3.3l-0.1,2.6H60.1z"/>
			<path d="M70.8,128.5c3-1,5.3-1.5,7-1.5c3.3,0,5.5,2.1,5.5,5.1c0,2.4-1.2,4.2-3.4,5.4c-1.2,0.7-2.9,1.4-5,1.6
				c-0.4,0.1-0.6,0-0.8-0.3c-0.3-0.5-0.7-1-1.5-1.6c2.8-0.4,4.1-0.8,5.8-1.7c1.4-0.7,2.2-1.8,2.2-3.6c0-1.7-1.1-2.6-3-2.6
				c-1.7,0-4.2,0.8-6.8,1.9c-0.6,0.3-1.1,0.6-1.3,0.7c-0.2,0.2-0.3,0.2-0.5,0.2c-0.2,0-0.4-0.1-0.6-0.4c-0.6-0.7-0.9-1.5-1.3-2.3
				C68.3,129.2,69.5,128.9,70.8,128.5z"/>
			<path d="M100.2,122.9c0.3-0.1,0.4,0,0.4,0.2c0.1,0.5,0.1,1.2,0.2,1.7c0,0.3,0,0.4-0.4,0.5c-1.5,0.4-2.7,0.7-4.2,0.9
				c-1.6,5.3-2.9,9-4.4,13c-0.1,0.3-0.3,0.3-0.5,0.2c-0.2-0.1-1.4-0.6-1.9-0.9c-0.2-0.1-0.3-0.3-0.2-0.5c1.8-4.2,3-7.4,4.2-11.4
				c-1.4,0.1-3.1,0.3-4.2,0.3c-0.4,0-0.5-0.1-0.5-0.4c-0.1-0.5-0.2-1.3-0.3-2.2c0.5,0.1,0.8,0.1,1.8,0.1c1.2,0,2.5-0.1,3.9-0.2
				c0.2-1,0.4-2,0.6-3c0.1-0.7,0.1-1.4,0.1-2.2c1.3,0.2,2.3,0.4,3,0.7c0.2,0.1,0.3,0.2,0.3,0.4c0,0.1,0,0.2-0.1,0.4
				c-0.2,0.3-0.4,0.6-0.5,1c-0.2,0.9-0.4,1.7-0.6,2.3C97.7,123.6,99,123.3,100.2,122.9z M99.2,134.4c0.2,0,0.3,0.1,0.4,0.3
				c0.2,1.8,1.4,2.3,3.7,2.3c1.3,0,3.1-0.2,4-0.3c0.2,0,0.3,0,0.3,0.2c0.1,0.6,0.2,1.4,0.2,2.1c0,0.3,0,0.4-0.4,0.4
				c-0.8,0.1-2.4,0.3-3.3,0.3c-3.1,0-4.8-0.4-5.9-1.6c-0.8-0.8-1-1.9-1.1-3.3C97.9,134.6,98.9,134.4,99.2,134.4z M99,128
				c0-0.3,0.1-0.4,0.4-0.5c1.5-0.3,3.3-0.6,4.7-0.6c0.9,0,2,0.1,2.8,0.2c0.3,0,0.4,0.1,0.4,0.4c0,0.6,0,1.3,0,1.9
				c0,0.4-0.1,0.5-0.5,0.4c-0.8-0.2-1.9-0.3-3-0.3c-1.4,0-3.3,0.2-4.8,0.6C99,129.4,99,128.5,99,128z"/>
			<path d="M126,119.1c0.3-0.1,0.4-0.1,0.5,0.1c1.6,3.7,4.5,7,7.8,8.9c-0.4,0.4-1,1.1-1.4,1.8c-0.2,0.4-0.3,0.5-0.5,0.5
				c-0.1,0-0.3-0.1-0.5-0.3c-0.8-0.6-1.6-1.2-2.3-1.9c0,0.7,0,1.5-0.1,2.4c-0.1,2.6-0.2,4.5-0.6,6.7c-0.3,1.9-1.2,3-3.6,3
				c-0.6,0-1.1,0-1.6,0c-0.7,0-0.7,0-0.9-0.8c-0.2-0.8-0.4-1.5-0.7-1.9c1.2,0.2,1.9,0.2,2.7,0.2c1,0,1.4-0.4,1.6-1.5
				c0.2-1.4,0.4-3.2,0.5-6h-4.3c-0.5,4.8-2.9,8.2-7.3,10.2c-0.3,0.1-0.4,0.2-0.6,0.2c-0.2,0-0.3-0.2-0.5-0.6
				c-0.3-0.6-0.8-1.1-1.2-1.4c4.4-1.6,6.5-4.1,6.9-8.4h-0.3c-2.3,0-3,0-3.2,0c-0.2,0-0.3,0-0.3-0.3v-1.8c-0.7,0.7-1.5,1.4-2.3,2
				c-0.3,0.2-0.4,0.3-0.5,0.3c-0.2,0-0.3-0.2-0.5-0.5c-0.4-0.6-0.9-1.2-1.3-1.5c3.2-2.1,5.6-4.9,6.9-7.9c0.2-0.5,0.4-0.9,0.5-1.5
				c0.9,0.2,1.8,0.6,2.5,0.8c0.3,0.1,0.3,0.2,0.3,0.4c0,0.1-0.1,0.2-0.2,0.4c-0.2,0.2-0.4,0.4-0.6,0.8c-1.2,2.6-2.7,4.6-4.4,6.4
				c0.3,0,1.2,0,3,0h6.5c2.1,0,2.9,0,3.1,0c-2.2-2.3-4-4.9-5.2-7.6c-0.1-0.3,0-0.3,0.2-0.4L126,119.1z"/>
			<path d="M149.5,122.9c0.3-0.1,0.4,0,0.4,0.2c0.1,0.5,0.1,1.2,0.2,1.7c0,0.3,0,0.4-0.4,0.5c-1.5,0.4-2.7,0.7-4.2,0.9
				c-1.6,5.3-2.9,9-4.4,13c-0.1,0.3-0.3,0.3-0.5,0.2c-0.2-0.1-1.4-0.6-1.9-0.9c-0.2-0.1-0.3-0.3-0.2-0.5c1.8-4.2,3-7.4,4.2-11.4
				c-1.4,0.1-3.1,0.3-4.2,0.3c-0.4,0-0.5-0.1-0.5-0.4c-0.1-0.5-0.2-1.3-0.3-2.2c0.5,0.1,0.8,0.1,1.8,0.1c1.2,0,2.5-0.1,3.9-0.2
				c0.2-1,0.4-2,0.6-3c0.1-0.7,0.1-1.4,0.1-2.2c1.3,0.2,2.3,0.4,3,0.7c0.2,0.1,0.3,0.2,0.3,0.4c0,0.1,0,0.2-0.1,0.4
				c-0.2,0.3-0.4,0.6-0.5,1c-0.2,0.9-0.4,1.7-0.6,2.3C147,123.6,148.3,123.3,149.5,122.9z M148.5,134.4c0.2,0,0.3,0.1,0.4,0.3
				c0.2,1.8,1.4,2.3,3.7,2.3c1.3,0,3.1-0.2,4-0.3c0.2,0,0.3,0,0.3,0.2c0.1,0.6,0.2,1.4,0.2,2.1c0,0.3,0,0.4-0.4,0.4
				c-0.8,0.1-2.3,0.3-3.3,0.3c-3.1,0-4.7-0.4-5.8-1.6c-0.8-0.8-1-1.9-1.1-3.3C147.2,134.6,148.2,134.4,148.5,134.4z M148.3,128
				c0-0.3,0.1-0.4,0.4-0.5c1.5-0.3,3.3-0.6,4.7-0.6c0.9,0,2,0.1,2.8,0.2c0.3,0,0.4,0.1,0.4,0.4c0,0.6,0,1.3,0,1.9
				c0,0.4-0.1,0.5-0.5,0.4c-0.8-0.2-1.9-0.3-3-0.3c-1.4,0-3.3,0.2-4.8,0.6C148.3,129.4,148.3,128.5,148.3,128z M153.8,121.2
				c0.1-0.1,0.2-0.1,0.4,0c0.7,0.6,1.6,1.5,2.3,2.6c0.1,0.1,0.1,0.3-0.1,0.4l-1,0.7c-0.2,0.1-0.3,0.1-0.4-0.1
				c-0.7-1.1-1.5-2-2.4-2.8L153.8,121.2z M156,119.6c0.1-0.1,0.2-0.1,0.4,0c0.9,0.7,1.8,1.6,2.3,2.5c0.1,0.1,0.1,0.3-0.1,0.4l-1,0.7
				c-0.2,0.1-0.3,0.1-0.4-0.1c-0.6-1-1.4-1.9-2.4-2.8L156,119.6z"/>
			<path d="M167.3,138.1c0,0.2-0.1,0.2-0.3,0.3c-0.7,0.3-1.2,0.4-1.7,0.5c-0.3,0-0.4,0-0.6-0.3c-0.8-1.5-1.4-4.9-1.4-7.4
				c0-1.9,0.2-4.2,0.7-7.7c0.1-1.1,0.3-2.2,0.3-3.6c1.1,0.3,1.9,0.5,2.5,0.8c0.4,0.2,0.5,0.4,0.5,0.5c0,0.1,0,0.2-0.1,0.5
				c-0.1,0.3-0.3,1-0.5,1.8c-0.5,2.6-0.9,5.1-0.9,7.2c0,1.5,0,2.9,0.2,3.8c0.6-1.3,1-2.1,1.6-3.4c0.3,0.9,0.6,1.2,0.8,1.6
				c0.1,0.2,0.2,0.3,0.2,0.5c0,0.2,0,0.3-0.3,0.8c-0.6,1.4-0.8,2.1-1.1,2.9c0,0.2-0.1,0.5-0.1,0.6V138.1z M175.6,127.2
				c-1.3,0.1-2.2,0.1-2.9,0.1c-0.5,0-1.1,0-2,0c-0.3,0-0.5-0.1-0.6-0.4c-0.1-0.5-0.1-1.1-0.3-2.2c0.9,0.1,2.1,0.1,3,0.1
				c0.7,0,1.8,0,2.7-0.1c0-1.2,0-2.3-0.1-3.2c-0.1-0.8-0.2-1.3-0.4-2c1.4,0,2.5,0.2,3.1,0.3c0.3,0.1,0.4,0.2,0.4,0.4
				c0,0.2-0.1,0.3-0.2,0.5c-0.1,0.1-0.1,0.5-0.1,1v2.7c1-0.1,2.1-0.3,3.1-0.5c0.3-0.1,0.4,0,0.4,0.2c0.1,0.6,0.1,1.2,0.2,1.8
				c0,0.3-0.1,0.4-0.3,0.4c-1.2,0.2-2.2,0.4-3.3,0.5l0,3.7c0,2.2-0.4,4.2-1.1,5.6c-0.7,1.6-1.9,2.9-3.4,3.7
				c-0.3,0.2-0.4,0.2-0.6,0.2c-0.2,0-0.3,0-0.5-0.2c-0.4-0.4-1.1-0.8-1.9-1.2c2.3-1.2,3.3-2.3,4.1-4c0.5-1.2,0.8-2.9,0.7-5.4
				L175.6,127.2z"/>
			<path d="M192.2,127.1c-1.2,0.1-2.4,0.2-4,0.2c-0.4,0-0.5-0.1-0.6-0.5c-0.1-0.5-0.2-1.2-0.3-2.1c0.6,0.1,1.2,0.1,1.9,0.1
				c1,0,2-0.1,3-0.2c0-0.8,0-1.7,0-2.7c0-0.6,0-1.3-0.2-1.9c1.2,0.1,2.2,0.2,2.9,0.4c0.3,0.1,0.5,0.2,0.5,0.5c0,0.1,0,0.2-0.1,0.4
				c-0.2,0.3-0.3,0.6-0.3,0.9c-0.1,0.6-0.1,1.2-0.1,2c1.1-0.2,2-0.5,3.1-0.9c0.2-0.1,0.4,0,0.4,0.2c0.1,0.6,0.1,1.2,0.1,1.9
				c0,0.2-0.1,0.3-0.3,0.4c-1.6,0.5-2,0.6-3.4,0.9c0,1.2,0,2.3,0,3.5c2.3-1,4.4-1.3,5.9-1.3c3,0,5.1,1.9,5.1,4.8
				c0,3.1-2,4.9-5.2,4.9c-0.7,0-1.5-0.1-2-0.2c-0.4-0.1-0.5-0.3-0.5-0.7c0-0.5-0.2-1.3-0.7-2c1.2,0.4,2.1,0.4,3,0.4
				c1.3,0,2.6-0.8,2.6-2.5c0-1.6-1-2.4-2.6-2.4c-1.4,0-3,0.4-5.5,1.6c0,1,0,1.8,0.1,2.9c0.1,1.1,0.2,2.6,0.2,3.1
				c0,0.3,0,0.7-0.4,0.8c-0.5,0.1-1.3,0.3-1.8,0.3c-0.3,0-0.4-0.2-0.6-0.5c-0.6-0.9-1.9-2-3.4-3.1c-0.3,0.1-0.6,0.3-0.8,0.5
				c-0.1,0.1-0.3,0.2-0.4,0.2c-0.2,0-0.4-0.1-0.5-0.4c-0.3-0.4-0.7-1.4-1.1-2.2c0.6-0.1,1.4-0.4,2.2-0.8c1-0.6,2.2-1.2,3.9-2.2
				V127.1z M190,135.4c0.7,0.4,1.5,0.8,2.3,1.1c0.2,0,0.3,0,0.2-0.2c0-0.6-0.1-1.7-0.1-2.5C191.6,134.2,190.8,134.7,190,135.4z
				 M201.4,122.8c0.2-0.3,0.2-0.3,0.4-0.3c2.2,0.6,3.8,1.7,5.1,2.9c0.1,0.1,0.1,0.2,0.1,0.2c0,0.1,0,0.1-0.1,0.2
				c-0.3,0.5-0.9,1.2-1.3,1.7c-0.1,0.1-0.4,0.1-0.5,0c-1.3-1.4-3-2.3-4.9-3C200.6,124,201,123.4,201.4,122.8z"/>
			<path d="M214.4,124.5c-2.2,0-2.9,0-3,0c-0.2,0-0.3,0-0.3-0.3v-1.9c0-0.3,0-0.3,0.3-0.3c0.1,0,0.9,0,3,0h5.8v-0.4
				c0-1.4,0-2-0.2-3.1c0.9,0,1.9,0.1,2.7,0.2c0.2,0,0.4,0.1,0.4,0.3c0,0.2-0.1,0.3-0.2,0.5c-0.1,0.2-0.1,0.6-0.1,1.9v0.6h6.1
				c2.2,0,2.9,0,3,0c0.2,0,0.3,0,0.3,0.3v1.9c0,0.2,0,0.3-0.3,0.3c-0.1,0-0.9,0-3,0h-6.1v3h3.5c0.4,0,0.6,0,0.7-0.1
				c0.1,0,0.2-0.1,0.3-0.1c0.2,0,0.4,0.1,1,0.7c0.6,0.5,0.7,0.8,0.7,1c0,0.2-0.1,0.3-0.3,0.4s-0.4,0.3-0.6,0.6
				c-1.3,2-2.7,3.7-4.4,5.1c2.4,1.3,5.3,2.2,8.9,2.7c-0.4,0.5-0.8,1.2-1,1.9c-0.2,0.5-0.2,0.6-0.5,0.6c-0.1,0-0.3,0-0.5-0.1
				c-3.7-0.8-6.7-1.9-9.1-3.6c-2.4,1.5-5.3,2.6-8.7,3.5c-0.2,0.1-0.4,0.1-0.5,0.1c-0.2,0-0.3-0.2-0.5-0.6c-0.3-0.7-0.6-1.3-1-1.7
				c3.5-0.7,6.4-1.6,8.7-2.9c-1.6-1.5-2.9-3.3-3.9-5.5c-1.6,0-2.3,0-2.4,0c-0.2,0-0.3,0-0.3-0.3v-1.8c0-0.2,0-0.3,0.3-0.3
				c0.1,0,0.9,0,3.3,0h3.7v-3H214.4z M218.3,129.8c0.9,1.7,2,3,3.3,4.1c1.4-1.1,2.6-2.4,3.6-4.1H218.3z"/>
			<path d="M242.1,132.9c0,1.7,0,3.6,0,4.8c0,1.2-0.1,1.8-0.8,2.3c-0.5,0.4-1.2,0.5-2.9,0.5c-0.8,0-0.8,0-0.9-0.7
				c-0.2-0.8-0.4-1.4-0.6-1.8c0.8,0,1.5,0.1,2,0.1c0.6,0,0.8-0.2,0.8-0.9v-4.7l-1.6,0.5c-0.4,0.1-0.6,0.3-0.8,0.4
				c-0.1,0.1-0.3,0.2-0.4,0.2c-0.1,0-0.3-0.1-0.3-0.3c-0.2-0.7-0.3-1.5-0.4-2.3c0.8-0.1,1.5-0.2,2.4-0.5l1.2-0.3v-4.4h-0.6
				c-1.8,0-2.4,0-2.5,0c-0.2,0-0.3,0-0.3-0.3v-1.9c0-0.2,0-0.3,0.3-0.3c0.1,0,0.7,0,2.5,0h0.6v-1.1c0-1.5,0-2.3-0.2-3.4
				c0.9,0,1.7,0.1,2.5,0.2c0.2,0,0.4,0.1,0.4,0.3c0,0.2-0.1,0.3-0.1,0.5c-0.1,0.3-0.1,0.8-0.1,2.4v1.2h0.1c1.8,0,2.4,0,2.5,0
				c0.2,0,0.3,0,0.3,0.3v1.9c0,0.2,0,0.3-0.3,0.3c-0.1,0-0.7,0-2.5,0h-0.1v3.7c1-0.3,2-0.7,2.9-1.1c-0.1,0.4-0.1,1-0.1,1.6
				c0,0.8,0,0.7-0.7,1l-2,0.8V132.9z M253.4,129.7c0.3-0.1,0.4-0.1,0.5,0.1c1.7,3.1,2.9,5.7,4,9.1c0.1,0.2,0.1,0.3-0.2,0.4l-1.8,0.7
				c-0.3,0.1-0.4,0.1-0.4-0.1c-0.2-0.7-0.4-1.4-0.6-2c-3,0.6-6.4,1.2-9.5,1.6c-0.4,0-0.7,0.2-0.9,0.3c-0.1,0.1-0.3,0.2-0.4,0.2
				c-0.2,0-0.3-0.1-0.4-0.3c-0.2-0.6-0.4-1.5-0.6-2.5c0.7,0,1.4,0,2.1-0.1c1.5-5.2,2.5-9.5,3.3-14.4c0.2-1.1,0.3-1.8,0.3-3
				c1,0.2,1.8,0.3,2.6,0.6c0.3,0.1,0.5,0.2,0.5,0.4s-0.1,0.3-0.2,0.5c-0.2,0.2-0.3,0.6-0.4,1.3c-1,5.5-2.1,9.8-3.4,14.5
				c2-0.3,4.1-0.6,6.1-1c-0.6-1.6-1.4-3.2-2.3-4.9c-0.1-0.2-0.1-0.3,0.2-0.4L253.4,129.7z"/>
			<path d="M265.8,122.9c0.2,0.1,0.4,0.3,0.4,0.4c0,0.1-0.1,0.4-0.2,0.7c-0.1,0.3-0.2,1.3-0.2,2.4c0,1.5,0,3.3,0.4,5.5
				c0.3,1.9,1,3.5,2,3.5c0.8,0,1.4-0.8,2.3-3.3c0.5,0.8,1.1,1.4,1.5,1.8c0.3,0.3,0.3,0.6,0.2,0.9c-0.9,2.4-2.4,3.7-4.1,3.7
				c-1.9,0-3.8-2.2-4.5-6.3c-0.4-2.3-0.6-4.8-0.6-7c0-1.3,0-2-0.3-3.1C263.9,122.2,265.1,122.5,265.8,122.9z M276.9,124.4
				c0.1,0,0.2-0.1,0.3-0.1c0.1,0,0.2,0,0.3,0.1c2.2,1.9,4.1,5.2,4.7,8.2c0.1,0.3-0.1,0.4-0.3,0.5c-0.6,0.4-1.2,0.7-1.9,1
				c-0.3,0.1-0.5,0-0.5-0.3c-0.8-3.4-2-5.9-4.5-8.4C275.9,124.9,276.5,124.6,276.9,124.4z"/>
			<path d="M291.4,125.1c-1.6,0-2.9,0.1-4,0.1c-0.3,0-0.4-0.1-0.5-0.5c-0.1-0.5-0.2-1.7-0.2-2.4c1.1,0.1,2.4,0.2,4.6,0.2h8.6
				c0.7,0,1,0,1.3-0.2c0.1-0.1,0.3-0.1,0.4-0.1c0.1,0,0.3,0,0.4,0.2c0.6,0.5,1.2,1.1,1.6,1.7c0.1,0.2,0.2,0.3,0.2,0.5
				c0,0.1-0.1,0.3-0.2,0.5c-0.2,0.2-0.3,0.5-0.6,0.9c-1.2,2.8-2.6,5.5-4.7,7.8c-2.1,2.4-4.4,4.3-6.8,5.7c-0.2,0.1-0.4,0.2-0.6,0.2
				c-0.2,0-0.4-0.1-0.6-0.3c-0.6-0.5-1.3-1-2.2-1.3c3.5-1.8,5.6-3.4,7.8-6c1.9-2.1,3.1-4.2,4.1-6.8H291.4z M308,120.5
				c0,1.4-1.2,2.6-2.6,2.6c-1.4,0-2.6-1.1-2.6-2.6c0-1.5,1.2-2.6,2.6-2.6C306.8,117.9,308,119,308,120.5z M304,120.5
				c0,0.8,0.6,1.4,1.4,1.4c0.8,0,1.4-0.6,1.4-1.4s-0.6-1.4-1.4-1.4C304.6,119.1,304,119.7,304,120.5z"/>
			<path d="M316,128.2c-1.2,0-2.4,0-3.6,0.1c-0.2,0-0.3-0.1-0.4-0.5c-0.1-0.6-0.2-1.5-0.3-2.4c1.4,0.1,2.8,0.2,4.4,0.2h8.2
				c0.4,0,0.9,0,1.3-0.3c0.1-0.1,0.2-0.1,0.3-0.1c0.1,0,0.2,0.1,0.4,0.2c0.6,0.5,1.2,1.1,1.6,1.5c0.2,0.2,0.2,0.3,0.2,0.5
				c0,0.1-0.1,0.3-0.3,0.5c-0.4,0.3-0.6,0.6-0.8,1.1c-2.4,5.1-5.2,8.1-9.8,10.6c-0.2,0.1-0.3,0.2-0.5,0.2c-0.2,0-0.3-0.1-0.5-0.3
				c-0.6-0.6-1.4-0.9-2.2-1.2c4.4-2.1,8.4-5.4,10.1-10L316,128.2z M317.6,123.1c-1.1,0-2.3,0-3.3,0.1c-0.2,0-0.3-0.1-0.3-0.5
				c-0.1-0.5-0.1-1.6-0.1-2.3c1.5,0.1,2.2,0.2,3.9,0.2h4.3c1.6,0,2.8-0.1,3.8-0.1c0.2,0,0.3,0.1,0.3,0.4c0,0.6,0,1.3,0,1.9
				c0,0.4-0.1,0.5-0.4,0.5c-0.8,0-1.9,0-3.4,0H317.6z"/>
			<path d="M335,121.9c0.1-0.1,0.2-0.2,0.3-0.2c0.1,0,0.2,0,0.3,0.1c1.2,0.6,3.2,2.1,4.6,3.4c0.1,0.1,0.2,0.2,0.2,0.3
				c0,0.1,0,0.2-0.1,0.3c-0.4,0.5-1.2,1.4-1.5,1.8c-0.1,0.1-0.2,0.2-0.3,0.2s-0.2-0.1-0.3-0.2c-1.4-1.5-3.2-2.9-4.9-3.9
				C333.8,123.2,334.5,122.4,335,121.9z M337.1,134.6c2.9-1.5,4.5-2.5,6.9-4.5c2.9-2.4,4.5-3.9,6.6-6.5c0.1,1.2,0.4,2,0.7,2.8
				c0.1,0.2,0.1,0.3,0.1,0.5c0,0.2-0.1,0.4-0.4,0.7c-1.3,1.5-3.3,3.4-5.5,5.1c-2,1.6-4,2.9-7.2,4.7c-1.1,0.6-1.4,0.9-1.6,1.1
				c-0.1,0.1-0.3,0.2-0.4,0.2c-0.1,0-0.3-0.1-0.4-0.3c-0.6-0.7-1.3-1.7-1.9-2.7C335,135.4,335.8,135.2,337.1,134.6z"/>
			<path d="M367.3,124c-0.6,4.1-1.6,7.8-3,10.3c-1,1.8-2.3,2.8-4.1,2.8c-2.1,0-4.2-2.3-4.2-6.2c0-2.3,1-4.5,2.7-6.2
				c2-2,4.6-3.1,7.8-3.1c5.8,0,9.1,3.6,9.1,8.3c0,4.5-2.5,7.3-7.4,8.7c-0.5,0.1-0.7,0-1-0.4c-0.3-0.4-0.8-1-1.7-1.5
				c4.1-1,7.2-2.6,7.2-7.2C372.8,126.8,370.6,124,367.3,124L367.3,124z M360.4,126.4c-1.2,1.3-1.9,2.9-1.9,4.4
				c0,2.2,0.9,3.4,1.6,3.4c0.6,0,1.2-0.3,1.8-1.5c1.1-1.9,2.1-5.4,2.5-8.6C362.8,124.5,361.5,125.2,360.4,126.4z"/>
		</g>
		<g class="st2">
			<path class="st3" d="M172.9,173.6c-3.3,0-4.4,0.1-4.6,0.1c-0.3,0-0.4,0-0.4-0.4v-2.5c0-0.3,0-0.4,0.4-0.4c0.2,0,1.3,0.1,4.6,0.1
				h6.1v-6.2c0-2.4,0-3.6-0.3-5.1c1.3,0,2.7,0.1,3.8,0.2c0.3,0,0.5,0.2,0.5,0.4c0,0.2-0.1,0.4-0.2,0.7c-0.1,0.4-0.2,1.2-0.2,3.7v6.3
				h6.6c3.3,0,4.4-0.1,4.6-0.1c0.4,0,0.4,0,0.4,0.4v2.5c0,0.4,0,0.4-0.4,0.4c-0.2,0-1.3-0.1-4.6-0.1h-6.6v4.4h9.1c3,0,4-0.1,4.2-0.1
				c0.3,0,0.3,0,0.3,0.4v2.6c0,0.3,0,0.4-0.3,0.4c-0.2,0-1.2-0.1-4.2-0.1h-9.1v2.7c0,3.8,0.1,5.8,0.1,5.9c0,0.3,0,0.4-0.4,0.4h-3
				c-0.3,0-0.4,0-0.4-0.4c0-0.2,0.1-2.1,0.1-5.9v-2.7h-8.6c-3,0-4,0.1-4.2,0.1c-0.3,0-0.3,0-0.3-0.4v-2.6c0-0.3,0-0.4,0.3-0.4
				c0.2,0,1.2,0.1,4.2,0.1h8.6v-4.4H172.9z M171.3,161.4c0.2-0.1,0.3-0.2,0.4-0.2s0.2,0.1,0.3,0.2c1.5,1.9,2.7,3.9,3.8,5.9
				c0.1,0.3,0.1,0.4-0.3,0.6l-2.1,1.3c-0.2,0.1-0.3,0.2-0.4,0.2c-0.1,0-0.2-0.1-0.2-0.3c-0.9-2.1-2.2-4.1-3.6-5.9
				c-0.2-0.3-0.2-0.3,0.2-0.6L171.3,161.4z M188.8,162.8c0.3-0.6,0.4-1,0.6-1.7c1.1,0.4,2.2,1,3,1.4c0.3,0.2,0.4,0.3,0.4,0.5
				c0,0.2-0.1,0.4-0.4,0.6c-0.2,0.1-0.4,0.4-0.6,0.8c-0.8,1.4-1.7,2.8-3,4.7c-0.3,0.4-0.5,0.6-0.7,0.6c-0.2,0-0.4-0.1-0.8-0.4
				c-0.7-0.4-1.4-0.7-2-1C186.7,166.4,187.9,164.6,188.8,162.8z"/>
			<path class="st3" d="M216.1,165c0,2.3,0.1,2.7,0.1,2.9c0,0.3,0,0.4-0.4,0.4h-1.7l0.3,0.3c0.6,0.6,0.7,0.9,0.7,1.2
				c0,0.2-0.1,0.3-0.3,0.5c-0.3,0.2-0.5,0.4-0.9,1.1c-0.7,1.3-1.5,2.4-2.5,3.5c1.7,1,3.7,1.7,5.9,2.1c-0.4,0.6-0.8,1.4-1.1,2.1
				c-0.4,1-0.4,1-1.4,0.7l-0.5-0.2c0,0.3-0.1,1.1-0.1,2.2v2.1c0,2,0,3.1,0,3.8c2-0.8,3.3-1.6,4.8-2.7c0.4-0.3,0.8-0.7,1.2-1.2
				c0.9,0.4,1.6,1,2.3,1.5c0.3,0.2,0.4,0.4,0.4,0.5c0,0.2-0.2,0.3-0.4,0.4c-0.3,0.1-0.5,0.3-0.9,0.6c-1.5,1.3-3.1,2.4-5.1,3.4
				c-0.4,0.2-0.6,0.3-0.8,0.3c-0.3,0-0.4-0.2-0.7-0.8l-0.6-0.9c0,0.1-0.1,0.1-0.4,0.1h-2.4c-0.3,0-0.4,0-0.4-0.4v-0.7h-4.5v1.4
				c0,0.4,0,0.4-0.4,0.4H204c-0.4,0-0.4,0-0.4-0.4c0-0.2,0.1-0.9,0.1-4.9v-1.9c0-1.3,0-2,0-2.4c-0.2,0.1-0.5,0.2-0.7,0.3
				c-0.3,0.1-0.6,0.2-0.7,0.2c-0.2,0-0.4-0.2-0.5-0.6c-0.3-0.8-0.7-1.6-1.1-2c2.8-0.7,4.9-1.7,6.6-2.8c-0.7-0.7-1.3-1.4-1.8-2.2
				c-0.5,0.5-1.1,1.1-1.7,1.5c-0.4,0.3-0.6,0.5-0.8,0.5s-0.3-0.2-0.5-0.5c-0.4-0.7-0.9-1.3-1.3-1.7c2.3-1.6,3.9-3.6,4.7-5.1
				c0.4-0.6,0.6-1.2,0.7-1.7c1.1,0.2,1.9,0.4,2.6,0.6c0.3,0.1,0.5,0.2,0.5,0.3c0,0.2-0.1,0.2-0.2,0.4c-0.2,0.2-0.4,0.4-0.5,0.6
				l-0.2,0.3h3.4c0.3,0,0.5,0,0.6-0.1l0.3-0.1v-2.5h-8.1v2.7c0,0.3,0,0.4-0.3,0.4h-2.3c-0.3,0-0.4,0-0.4-0.4c0-0.2,0.1-0.6,0.1-2.9
				v-0.7c0-0.8-0.1-1.2-0.1-1.4c0-0.3,0-0.4,0.4-0.4c0.2,0,1.2,0.1,4,0.1h1v-0.1c0-1.2,0-2-0.2-3.2c1.3,0,2.2,0.1,3.4,0.2
				c0.3,0,0.5,0.2,0.5,0.4c0,0.3-0.1,0.5-0.2,0.7c-0.2,0.4-0.2,0.9-0.2,1.9v0.1h1.2c2.8,0,3.8-0.1,4-0.1c0.4,0,0.4,0,0.4,0.4
				c0,0.2-0.1,0.6-0.1,1.2V165z M210.8,179.1c1.2,0,1.9,0,2.4,0c-1.4-0.6-2.7-1.4-3.9-2.2c-1.1,0.8-2.3,1.6-3.7,2.2H210.8z
				 M206.8,181.6v3.6h4.5v-3.6H206.8z M207,170.6c0.6,1,1.3,1.8,2.2,2.5c0.8-0.9,1.5-1.8,2-2.8h-4.1L207,170.6z M221.4,163.5
				c-3,0-4,0.1-4.2,0.1c-0.3,0-0.4,0-0.4-0.4v-2.5c0-0.3,0-0.4,0.4-0.4c0.2,0,1.2,0.1,4.2,0.1h6.2c3.1,0,4.1-0.1,4.3-0.1
				c0.3,0,0.3,0,0.3,0.4v2.5c0,0.3,0,0.4-0.3,0.4c-0.2,0-1.2-0.1-4.3-0.1h-2.1c-0.3,1-0.7,1.8-1.1,2.5h1.8c2.7,0,3.7-0.1,3.9-0.1
				c0.3,0,0.4,0,0.4,0.4c0,0.2-0.1,1.4-0.1,3.9v9c0,2.6,0.1,3.7,0.1,3.9c0,0.4,0,0.4-0.4,0.4c-0.2,0-1.2-0.1-3.9-0.1h-4.4
				c-2.8,0-3.7,0.1-3.9,0.1c-0.4,0-0.4,0-0.4-0.4c0-0.2,0.1-1.3,0.1-3.9v-8.9c0-2.7-0.1-3.9-0.1-4.1c0-0.3,0-0.4,0.4-0.4
				c0.2,0,1,0.1,3,0.1c0.4-0.9,0.6-1.6,1-2.5H221.4z M220.8,168.9v2.1h6.4v-2.1H220.8z M227.3,175.8v-2.2h-6.4v2.2H227.3z
				 M227.3,178.3h-6.4v2.4h6.4V178.3z M226.2,184c0.2-0.2,0.4-0.3,0.7,0c1.8,1.6,3.8,2.8,5.8,3.5c-0.5,0.4-1,1.1-1.4,1.9
				c-0.3,0.6-0.5,0.8-0.7,0.8c-0.2,0-0.4-0.1-0.8-0.3c-2.1-1.1-3.7-2.4-5.2-3.9c-0.3-0.3-0.2-0.3,0.2-0.6L226.2,184z"/>
		</g>
		<g class="st2">
			<path d="M245.6,180.9h-3.4l-1-20.2h5.3L245.6,180.9z M246.2,184.2v4.6h-4.8v-4.6H246.2z"/>
		</g>
	</g>
</g>
</svg>
