<?xml version="1.0" encoding="utf-8"?>
<!-- Generator: Adobe Illustrator 24.2.0, SVG Export Plug-In . SVG Version: 6.00 Build 0)  -->
<svg version="1.1" id="レイヤー_1" xmlns="http://www.w3.org/2000/svg" xmlns:xlink="http://www.w3.org/1999/xlink" x="0px"
	 y="0px" viewBox="0 0 132.3 31.7" style="enable-background:new 0 0 132.3 31.7;" xml:space="preserve">
<style type="text/css">
	.st0{enable-background:new    ;}
	.st1{fill:#FFFFFF;}
</style>
<g id="グループ_20" transform="translate(-460 -2872.995)">
	<path id="長方形_2_のコピー" d="M460,2873h132.3l-17.4,31.7H460V2873z"/>
	<g class="st0">
		<path class="st1" d="M486.9,2887c-0.6,0.9-1.2,1.8-1.8,2.5c-0.1-0.2-0.4-0.7-0.5-0.9c1.4-1.6,2.9-4.2,3.8-6.8l1.2,0.4
			c-0.1,0.1-0.2,0.1-0.3,0.1c-0.4,1-0.9,2.1-1.4,3.1l0.4,0.1c0,0.1-0.1,0.2-0.3,0.2v9.9h-1V2887z M498.3,2890.1h-4
			c-0.1,1-0.3,1.9-0.9,2.8c1.4,1,3.4,1.5,5.7,1.8c-0.2,0.2-0.5,0.6-0.6,0.9c-2.3-0.3-4.2-1-5.6-2c-0.8,0.8-1.9,1.5-3.6,2
			c-0.1-0.2-0.4-0.6-0.6-0.8c1.7-0.4,2.8-1.1,3.5-1.8c-0.7-0.6-1.3-1.4-1.7-2.3l0.9-0.3c0.3,0.7,0.8,1.3,1.4,1.8
			c0.4-0.7,0.6-1.4,0.7-2.2h-3.7v-4.2h3.8v-1.6h-4.3v-0.9h4.3v-1.6l1.3,0.1c0,0.1-0.1,0.2-0.3,0.2v1.3h4.5v0.9h-4.5v1.6h4V2890.1z
			 M490.5,2889.2h2.9c0-0.3,0-0.5,0-0.8v-1.7h-2.9V2889.2z M497.4,2886.8h-3v1.7c0,0.3,0,0.5,0,0.8h3V2886.8z"/>
		<path class="st1" d="M513.6,2882.7v11.4c0,1.4-0.7,1.4-3.5,1.4c0-0.3-0.2-0.7-0.4-1c0.6,0,1.1,0,1.5,0c1.2,0,1.3,0,1.3-0.4v-3.3
			h-4.3v4.6h-1v-4.6h-3.9c-0.2,1.7-0.7,3.5-1.9,4.8c-0.1-0.2-0.5-0.5-0.8-0.7c1.7-1.9,1.8-4.6,1.8-6.7v-5.5H513.6z M503.5,2888.3
			c0,0.5,0,1.1-0.1,1.7h3.9v-2.6h-3.8V2888.3z M507.3,2883.7h-3.8v2.7h3.8V2883.7z M512.6,2886.4v-2.7h-4.3v2.7H512.6z
			 M508.3,2889.9h4.3v-2.6h-4.3V2889.9z"/>
		<path class="st1" d="M519.2,2888.2c0,0.1-0.1,0.2-0.3,0.2c-0.3,1-0.9,2.2-1.5,2.9c-0.2-0.1-0.5-0.3-0.8-0.5
			c0.6-0.7,1.1-1.8,1.4-2.9L519.2,2888.2z M519.6,2891.2c0.4,0,0.4,0,0.4-0.2v-3.8h-3.3v-0.9h1.1v-3.4l1.1,0.1
			c0,0.1-0.1,0.2-0.3,0.2v3.2h1.3v-4.6l1.2,0.1c0,0.1-0.1,0.2-0.3,0.2v1.7h2.5v0.9h-2.5v1.8h2.9v0.9h-2.9v3.8c0,1-0.4,1-2,1
			c0-0.2-0.1-0.6-0.3-0.8H519.6z M523.2,2890.6l0.2,0c0,0.1-0.1,0.1-0.3,0.1c-0.9,2.4-2.7,4-5.6,4.9c-0.1-0.3-0.4-0.6-0.6-0.8
			c2.8-0.8,4.6-2.2,5.3-4.5l0.7,0.2c-0.2-0.7-0.7-1.6-1.1-2.4l0.8-0.3c0.5,0.8,1,1.8,1.2,2.4L523.2,2890.6z M526.5,2893.6
			c0,0.1-0.1,0.1-0.3,0.1c-0.6,0.7-1.9,1.5-3,2c-0.1-0.2-0.5-0.5-0.7-0.7c1.1-0.5,2.4-1.2,2.9-1.9L526.5,2893.6z M524.1,2884.8h2.1
			c0.1-0.5,0.2-1,0.3-1.5h-2.9v-0.9h7v0.9h-3.1c-0.1,0.5-0.2,1-0.4,1.5h3v7.9h-6.1V2884.8z M529.2,2887.2v-1.6H525v1.6H529.2z
			 M529.2,2889.6v-1.6H525v1.6H529.2z M529.2,2891.9v-1.6H525v1.6H529.2z M530.1,2895.6c-0.5-0.6-1.6-1.4-2.4-2l0.8-0.5
			c0.8,0.5,1.9,1.4,2.4,1.9L530.1,2895.6z"/>
		<path class="st1" d="M546.4,2884.1h-11.6v3.5c0,2.3-0.2,5.7-1.5,8c-0.2-0.2-0.6-0.5-0.8-0.6c1.2-2.2,1.3-5.3,1.3-7.5v-4.4h5.7
			v-1.5l1.3,0.1c0,0.1-0.1,0.2-0.3,0.2v1.2h5.9V2884.1z M544.4,2890.3l0.7,0.3c0,0.1-0.1,0.1-0.1,0.1c-0.7,1.2-1.8,2.2-3.1,2.9
			c1.4,0.5,3,0.9,4.7,1c-0.2,0.2-0.5,0.6-0.6,0.9c-1.9-0.3-3.6-0.7-5.1-1.4c-1.6,0.7-3.5,1.1-5.4,1.4c-0.1-0.3-0.3-0.6-0.4-0.9
			c1.7-0.2,3.4-0.5,4.9-1c-1-0.6-1.9-1.4-2.5-2.3l0.6-0.2h-2.4v-0.8h8.7L544.4,2890.3z M543.6,2889.3h-5.7v-2.5h-2.4v-0.8h2.4v-1.4
			l1.3,0.1c0,0.1-0.1,0.2-0.3,0.2v1.1h3.8v-1.4l1.3,0.1c0,0.1-0.1,0.2-0.3,0.2v1.1h2.7v0.8h-2.7V2889.3z M538.2,2891.2
			c0.6,0.8,1.5,1.5,2.6,2.1c1.1-0.5,2-1.2,2.7-2.1H538.2z M542.6,2886.8h-3.8v1.7h3.8V2886.8z"/>
		<path class="st1" d="M550.2,2887.1c-0.5,0.9-1,1.7-1.6,2.4c-0.1-0.2-0.3-0.8-0.5-1c1.3-1.6,2.5-4.2,3.3-6.8l1.2,0.4
			c0,0.1-0.1,0.2-0.3,0.2c-0.3,1-0.7,2-1.2,3l0.3,0.1c0,0.1-0.1,0.2-0.3,0.2v10h-1V2887.1z M558.1,2882.5v0.9H555
			c-0.1,0.7-0.3,1.5-0.5,2.2h2.4c0.1,0,0.1,0,0.2,0c0.1,0,0.3,0.1,0.6,0.2c0,0.1-0.1,0.1-0.1,0.2c-0.6,4.8-2.3,8-4.6,9.7
			c-0.1-0.2-0.5-0.6-0.7-0.8c1.3-0.9,2.4-2.2,3.1-4.1c-0.4-0.5-1.2-1.1-1.9-1.6l0.4-0.8c0.6,0.4,1.4,1,1.8,1.4
			c0.3-1,0.6-2.1,0.8-3.3h-2.2c-0.5,1.5-1.1,3-2,4.1c-0.1-0.2-0.4-0.5-0.6-0.7c1.4-1.7,2.1-4.3,2.4-6.6h-1.5v-0.9H558.1z
			 M559,2892.1h-0.9v-8.8l1.2,0.1c0,0.1-0.1,0.2-0.3,0.2V2892.1z M560.9,2881.9l1.2,0.1c0,0.1-0.1,0.2-0.3,0.2v12.1
			c0,1.2-0.6,1.3-3,1.3c0-0.3-0.2-0.7-0.3-1c0.5,0,0.9,0,1.2,0c1,0,1.1,0,1.1-0.3V2881.9z"/>
	</g>
</g>
</svg>
