<?xml version="1.0" encoding="utf-8"?>
<!-- Generator: Adobe Illustrator 24.2.0, SVG Export Plug-In . SVG Version: 6.00 Build 0)  -->
<svg version="1.1" id="レイヤー_1" xmlns="http://www.w3.org/2000/svg" xmlns:xlink="http://www.w3.org/1999/xlink" x="0px"
	 y="0px" viewBox="0 0 452 312" style="enable-background:new 0 0 452 312;" xml:space="preserve">
<style type="text/css">
	.st0{fill:url(#長方形_39_1_);}
	.st1{fill:url(#長方形_48_1_);}
	.st2{fill:url(#長方形_49_1_);}
	.st3{fill:url(#長方形_50_1_);}
	.st4{fill:url(#長方形_51_1_);}
	.st5{fill:url(#長方形_52_1_);}
	.st6{fill:url(#長方形_53_1_);}
	.st7{fill:none;stroke:#707070;}
	.st8{fill:none;}
	.st9{enable-background:new    ;}
</style>
<linearGradient id="長方形_39_1_" gradientUnits="userSpaceOnUse" x1="74.5" y1="306.0432" x2="74.5" y2="305.0432" gradientTransform="matrix(38 0 0 -139 -2711 42683.3906)">
	<stop  offset="0" style="stop-color:#30B1EB"/>
	<stop  offset="1" style="stop-color:#304DEB"/>
</linearGradient>
<rect id="長方形_39" x="101" y="143.4" class="st0" width="38" height="139"/>
<linearGradient id="長方形_48_1_" gradientUnits="userSpaceOnUse" x1="74.5" y1="306.0432" x2="74.5" y2="305.0432" gradientTransform="matrix(38 0 0 -139 -2659 42683.3906)">
	<stop  offset="0" style="stop-color:#30B1EB"/>
	<stop  offset="1" style="stop-color:#304DEB"/>
</linearGradient>
<rect id="長方形_48" x="153" y="143.4" class="st1" width="38" height="139"/>
<linearGradient id="長方形_49_1_" gradientUnits="userSpaceOnUse" x1="74.5" y1="306.0432" x2="74.5" y2="305.0432" gradientTransform="matrix(38 0 0 -139 -2608 42683.3906)">
	<stop  offset="0" style="stop-color:#30B1EB"/>
	<stop  offset="1" style="stop-color:#304DEB"/>
</linearGradient>
<rect id="長方形_49" x="204" y="143.4" class="st2" width="38" height="139"/>
<linearGradient id="長方形_50_1_" gradientUnits="userSpaceOnUse" x1="74.5" y1="306.0432" x2="74.5" y2="305.0432" gradientTransform="matrix(38 0 0 -139 -2556 42683.3906)">
	<stop  offset="0" style="stop-color:#30B1EB"/>
	<stop  offset="1" style="stop-color:#304DEB"/>
</linearGradient>
<rect id="長方形_50" x="256" y="143.4" class="st3" width="38" height="139"/>
<linearGradient id="長方形_51_1_" gradientUnits="userSpaceOnUse" x1="74.5" y1="306.0432" x2="74.5" y2="305.0432" gradientTransform="matrix(38 0 0 -139 -2504 42683.3906)">
	<stop  offset="0" style="stop-color:#30B1EB"/>
	<stop  offset="1" style="stop-color:#304DEB"/>
</linearGradient>
<rect id="長方形_51" x="308" y="143.4" class="st4" width="38" height="139"/>
<linearGradient id="長方形_52_1_" gradientUnits="userSpaceOnUse" x1="74.5" y1="306.0432" x2="74.5" y2="305.0432" gradientTransform="matrix(38 0 0 -139 -2453 42683.3906)">
	<stop  offset="0" style="stop-color:#30B1EB"/>
	<stop  offset="1" style="stop-color:#304DEB"/>
</linearGradient>
<rect id="長方形_52" x="359" y="143.4" class="st5" width="38" height="139"/>
<linearGradient id="長方形_53_1_" gradientUnits="userSpaceOnUse" x1="74.5" y1="306.0432" x2="74.5" y2="305.0432" gradientTransform="matrix(38 0 0 -139 -2401 42683.3906)">
	<stop  offset="0" style="stop-color:#30B1EB"/>
	<stop  offset="1" style="stop-color:#304DEB"/>
</linearGradient>
<rect id="長方形_53" x="411" y="143.4" class="st6" width="38" height="139"/>
<line id="線_4" class="st7" x1="79.5" y1="4.5" x2="79.5" y2="283.5"/>
<line id="線_5" class="st7" x1="79" y1="282.5" x2="451.5" y2="282.5"/>
<g>
	<rect x="106" y="292" class="st8" width="346" height="20"/>
	<g class="st9">
		<path d="M115,305.7h1.9v1.9H115v3.5h-2.3v-3.5h-5.8v-1.8l5-10.1h3.2V305.7z M112.7,302.3c0-1.6,0.1-3.1,0.1-4.7h-0.3
			c-0.5,1.3-1.1,2.7-1.7,4l-1.9,4h3.7V302.3z"/>
	</g>
	<g class="st9">
		<path d="M130.5,306.8c0,1,0,2.2,0,3c0,0.6-0.1,1-0.5,1.4c-0.4,0.4-0.9,0.4-2.5,0.4c-0.5,0-0.5,0-0.6-0.5c-0.1-0.4-0.2-1-0.4-1.3
			c0.6,0.1,1.1,0.1,1.7,0.1c0.4,0,0.5-0.2,0.5-0.5v-2.6h-5.4c-0.3,2.1-0.9,3.3-2.2,4.7c-0.1,0.2-0.2,0.3-0.3,0.3s-0.2-0.1-0.3-0.2
			c-0.3-0.3-0.7-0.6-1.1-0.7c2-1.8,2.5-3.1,2.5-7.7v-2.2c0-1.3,0-2,0-2c0-0.2,0-0.2,0.2-0.2c0.1,0,0.6,0,2,0h4.2c1.4,0,1.9,0,2,0
			c0.1,0,0.2,0,0.2,0.2c0,0.1,0,0.8,0,2V306.8z M128.9,305.4v-1.9h-5.1c0,0.7,0,1.3-0.1,1.9H128.9z M123.8,300.2v1.8h5.1v-1.8H123.8
			z"/>
	</g>
	<g class="st9">
		<path d="M168,297.8h-6l-0.1,3.1c0,0.5-0.1,1-0.1,1.4c0.5-0.8,1.5-1.3,2.6-1.3c2.5,0,4.3,2,4.3,5c0,3.2-2,5.3-4.9,5.3
			c-2.4,0-4.1-1.1-4.6-3.3l2.4-0.7c0.3,1.5,1.1,2.1,2.2,2.1c1.4,0,2.3-1.2,2.3-3.4c0-2-0.8-3.1-2.2-3.1c-1,0-1.8,0.6-2.2,1.7
			l-2.1-0.3l0.3-8.6h8.1V297.8z"/>
	</g>
	<g class="st9">
		<path d="M182.5,306.8c0,1,0,2.2,0,3c0,0.6-0.1,1-0.5,1.4c-0.4,0.4-0.9,0.4-2.5,0.4c-0.5,0-0.5,0-0.6-0.5c-0.1-0.4-0.2-1-0.4-1.3
			c0.6,0.1,1.1,0.1,1.7,0.1c0.4,0,0.5-0.2,0.5-0.5v-2.6h-5.4c-0.3,2.1-0.9,3.3-2.2,4.7c-0.1,0.2-0.2,0.3-0.3,0.3s-0.2-0.1-0.3-0.2
			c-0.3-0.3-0.7-0.6-1.1-0.7c2-1.8,2.5-3.1,2.5-7.7v-2.2c0-1.3,0-2,0-2c0-0.2,0-0.2,0.2-0.2c0.1,0,0.6,0,2,0h4.2c1.4,0,1.9,0,2,0
			c0.1,0,0.2,0,0.2,0.2c0,0.1,0,0.8,0,2V306.8z M180.9,305.4v-1.9h-5.1c0,0.7,0,1.3-0.1,1.9H180.9z M175.8,300.2v1.8h5.1v-1.8H175.8
			z"/>
	</g>
	<g class="st9">
		<path d="M218,298.9c-0.2-1.1-0.9-1.5-1.6-1.5c-1.8,0-2.7,1.9-2.8,5.4c0.7-1.2,1.8-1.8,3.1-1.8c2.4,0,4,1.9,4,4.9
			c0,3.3-1.9,5.4-4.7,5.4c-2.9,0-4.9-2.2-4.9-7.3c0-6,2-8.5,5.3-8.5c2,0,3.3,0.9,4,2.5L218,298.9z M216.1,309.4
			c1.4,0,2.2-1.1,2.2-3.4c0-2-0.7-3.1-2.1-3.1c-1,0-1.9,0.7-2.5,1.9C213.7,308.1,214.6,309.4,216.1,309.4z"/>
	</g>
	<g class="st9">
		<path d="M234.5,306.8c0,1,0,2.2,0,3c0,0.6-0.1,1-0.5,1.4c-0.4,0.4-0.9,0.4-2.5,0.4c-0.5,0-0.5,0-0.6-0.5c-0.1-0.4-0.2-1-0.4-1.3
			c0.6,0.1,1.1,0.1,1.7,0.1c0.4,0,0.5-0.2,0.5-0.5v-2.6h-5.4c-0.3,2.1-0.9,3.3-2.2,4.7c-0.1,0.2-0.2,0.3-0.3,0.3s-0.2-0.1-0.3-0.2
			c-0.3-0.3-0.7-0.6-1.1-0.7c2-1.8,2.5-3.1,2.5-7.7v-2.2c0-1.3,0-2,0-2c0-0.2,0-0.2,0.2-0.2c0.1,0,0.6,0,2,0h4.2c1.4,0,1.9,0,2,0
			c0.2,0,0.2,0,0.2,0.2c0,0.1,0,0.8,0,2V306.8z M232.9,305.4v-1.9h-5.1c0,0.7,0,1.3-0.1,1.9H232.9z M227.8,300.2v1.8h5.1v-1.8H227.8
			z"/>
	</g>
	<g class="st9">
		<path d="M272.5,297.6c-2.5,4.1-3.8,8.1-4.1,13.5h-2.8c0.4-5.3,2.1-9.3,4.5-13.2h-6.9v-2h9.3V297.6z"/>
	</g>
	<g class="st9">
		<path d="M286.5,306.8c0,1,0,2.2,0,3c0,0.6-0.1,1-0.5,1.4c-0.4,0.4-0.9,0.4-2.5,0.4c-0.5,0-0.5,0-0.6-0.5c-0.1-0.4-0.2-1-0.4-1.3
			c0.6,0.1,1.1,0.1,1.7,0.1c0.4,0,0.5-0.2,0.5-0.5v-2.6h-5.4c-0.3,2.1-0.9,3.3-2.2,4.7c-0.1,0.2-0.2,0.3-0.3,0.3s-0.2-0.1-0.3-0.2
			c-0.3-0.3-0.7-0.6-1.1-0.7c2-1.8,2.5-3.1,2.5-7.7v-2.2c0-1.3,0-2,0-2c0-0.2,0-0.2,0.2-0.2c0.1,0,0.6,0,2,0h4.2c1.4,0,1.9,0,2,0
			c0.2,0,0.2,0,0.2,0.2c0,0.1,0,0.8,0,2V306.8z M284.9,305.4v-1.9h-5.1c0,0.7,0,1.3-0.1,1.9H284.9z M279.8,300.2v1.8h5.1v-1.8H279.8
			z"/>
	</g>
	<g class="st9">
		<path d="M324.8,307.1c0,2.5-1.9,4.2-4.9,4.2c-3,0-4.9-1.6-4.9-4.2c0-1.8,0.9-2.8,3-3.8c-1.9-1-2.6-2.2-2.6-3.9
			c0-2.2,1.8-3.9,4.6-3.9c2.7,0,4.6,1.6,4.6,3.9c0,1.6-0.9,2.7-2.7,3.5C324,303.9,324.8,305.1,324.8,307.1z M319.5,304.1
			c-1.4,0.8-2.1,1.6-2.1,2.9c0,1.5,1,2.5,2.5,2.5c1.6,0,2.6-0.9,2.6-2.3c0-1.2-0.6-1.9-2.4-2.8L319.5,304.1z M320.3,302.1
			c1.3-0.7,1.8-1.5,1.8-2.7c0-1.3-1-2.1-2.2-2.1c-1.3,0-2.2,0.8-2.2,2.1c0,1,0.5,1.7,2.1,2.4L320.3,302.1z"/>
	</g>
	<g class="st9">
		<path d="M338.5,306.8c0,1,0,2.2,0,3c0,0.6-0.1,1-0.5,1.4c-0.4,0.4-0.9,0.4-2.5,0.4c-0.5,0-0.5,0-0.6-0.5c-0.1-0.4-0.2-1-0.4-1.3
			c0.6,0.1,1.1,0.1,1.7,0.1c0.4,0,0.5-0.2,0.5-0.5v-2.6h-5.4c-0.3,2.1-0.9,3.3-2.2,4.7c-0.1,0.2-0.2,0.3-0.3,0.3s-0.2-0.1-0.3-0.2
			c-0.3-0.3-0.7-0.6-1.1-0.7c2-1.8,2.5-3.1,2.5-7.7v-2.2c0-1.3,0-2,0-2c0-0.2,0-0.2,0.2-0.2c0.1,0,0.6,0,2,0h4.2c1.4,0,1.9,0,2,0
			c0.2,0,0.2,0,0.2,0.2c0,0.1,0,0.8,0,2V306.8z M336.9,305.4v-1.9h-5.1c0,0.7,0,1.3-0.1,1.9H336.9z M331.8,300.2v1.8h5.1v-1.8H331.8
			z"/>
	</g>
	<g class="st9">
		<path d="M369.9,307.9c0.3,1,0.8,1.5,1.6,1.5c1.7,0,2.7-1.4,2.8-5.4c-0.7,1.2-1.7,1.8-3.1,1.8c-2.3,0-4.1-1.9-4.1-4.9
			c0-3.3,1.8-5.3,4.6-5.3c3,0,5,2.2,5,7.3c0,6.1-1.9,8.5-5.2,8.5c-2.1,0-3.4-0.8-4-2.5L369.9,307.9z M371.8,297.4
			c-1.5,0-2.2,1.3-2.2,3.4c0,1.9,0.8,3.1,2.1,3.1c1.1,0,1.9-0.7,2.4-1.9C374.1,299,373.4,297.4,371.8,297.4z"/>
	</g>
	<path d="M390.5,306.8c0,1,0,2.2,0,3c0,0.6-0.1,1-0.5,1.4c-0.4,0.4-0.9,0.4-2.5,0.4c-0.5,0-0.5,0-0.6-0.5c-0.1-0.4-0.2-1-0.4-1.3
		c0.6,0.1,1.1,0.1,1.7,0.1c0.4,0,0.5-0.2,0.5-0.5v-2.6h-5.4c-0.3,2.1-0.9,3.3-2.2,4.7c-0.1,0.2-0.2,0.3-0.3,0.3s-0.2-0.1-0.3-0.2
		c-0.3-0.3-0.7-0.6-1.1-0.7c2-1.8,2.5-3.1,2.5-7.7v-2.2c0-1.3,0-2,0-2c0-0.2,0-0.2,0.2-0.2c0.1,0,0.6,0,2,0h4.2c1.4,0,1.9,0,2,0
		c0.2,0,0.2,0,0.2,0.2c0,0.1,0,0.8,0,2V306.8z M388.9,305.4v-1.9h-5.1c0,0.7,0,1.3-0.1,1.9H388.9z M383.8,300.2v1.8h5.1v-1.8H383.8z
		"/>
	<g class="st9">
		<path d="M420.8,309.1h2.9v1.9h-8.2v-1.9h3v-10.9c-0.8,0.5-1.7,1-2.8,1.4l-0.4-2.1c1.3-0.4,2.5-1,3.6-1.8h2V309.1z"/>
		<path d="M435.1,303.4c0,5.7-1.7,8-4.8,8c-3.1,0-4.8-2.3-4.8-7.9s1.7-7.9,4.8-7.9C433.3,295.5,435.1,297.7,435.1,303.4z M428,303.4
			c0,4.5,0.6,6,2.2,6c1.6,0,2.3-1.5,2.3-6c0-4.5-0.6-5.9-2.2-5.9C428.7,297.5,428,298.9,428,303.4z"/>
	</g>
	<path d="M447.1,306.8c0,1,0,2.2,0,3c0,0.6-0.1,1-0.5,1.4c-0.4,0.4-0.9,0.4-2.5,0.4c-0.5,0-0.5,0-0.6-0.5c-0.1-0.4-0.2-1-0.4-1.3
		c0.6,0.1,1.1,0.1,1.7,0.1c0.4,0,0.5-0.2,0.5-0.5v-2.6h-5.4c-0.3,2.1-0.9,3.3-2.2,4.7c-0.1,0.2-0.2,0.3-0.3,0.3s-0.2-0.1-0.3-0.2
		c-0.3-0.3-0.7-0.6-1.1-0.7c2-1.8,2.5-3.1,2.5-7.7v-2.2c0-1.3,0-2,0-2c0-0.2,0-0.2,0.2-0.2c0.1,0,0.6,0,2,0h4.2c1.4,0,1.9,0,2,0
		c0.2,0,0.2,0,0.2,0.2c0,0.1,0,0.8,0,2V306.8z M445.4,305.4v-1.9h-5.1c0,0.7,0,1.3-0.1,1.9H445.4z M440.3,300.2v1.8h5.1v-1.8H440.3z
		"/>
</g>
<g class="st9">
	<path d="M8,9.8h1.5v1.5H8V14H6.2v-2.8H1.5V9.9l4-8.1H8V9.8z M6.2,7.1c0-1.3,0-2.5,0.1-3.7H6.1C5.7,4.4,5.2,5.5,4.7,6.5L3.2,9.8h3
		V7.1z"/>
	<path d="M19.5,7.9c0,4.5-1.4,6.4-3.9,6.4c-2.5,0-3.8-1.8-3.8-6.3c0-4.5,1.4-6.3,3.9-6.3C18.2,1.6,19.5,3.4,19.5,7.9z M13.9,7.9
		c0,3.6,0.5,4.8,1.8,4.8c1.3,0,1.8-1.2,1.8-4.8c0-3.6-0.5-4.7-1.8-4.7C14.4,3.2,13.9,4.3,13.9,7.9z"/>
	<path d="M24.6,14l-1.2,2.5h-1l1.1-2.5h-1.2v-2.2h2.3V14z"/>
	<path d="M35.1,7.9c0,4.5-1.4,6.4-3.9,6.4c-2.5,0-3.8-1.8-3.8-6.3c0-4.5,1.4-6.3,3.9-6.3C33.7,1.6,35.1,3.4,35.1,7.9z M29.4,7.9
		c0,3.6,0.5,4.8,1.8,4.8c1.3,0,1.8-1.2,1.8-4.8c0-3.6-0.5-4.7-1.8-4.7C30,3.2,29.4,4.3,29.4,7.9z"/>
	<path d="M45.2,7.9c0,4.5-1.4,6.4-3.9,6.4c-2.5,0-3.8-1.8-3.8-6.3c0-4.5,1.4-6.3,3.9-6.3C43.8,1.6,45.2,3.4,45.2,7.9z M39.6,7.9
		c0,3.6,0.5,4.8,1.8,4.8c1.3,0,1.8-1.2,1.8-4.8c0-3.6-0.5-4.7-1.8-4.7C40.1,3.2,39.6,4.3,39.6,7.9z"/>
	<path d="M55.3,7.9c0,4.5-1.4,6.4-3.9,6.4c-2.5,0-3.8-1.8-3.8-6.3c0-4.5,1.4-6.3,3.9-6.3C54,1.6,55.3,3.4,55.3,7.9z M49.7,7.9
		c0,3.6,0.5,4.8,1.8,4.8c1.3,0,1.8-1.2,1.8-4.8c0-3.6-0.5-4.7-1.8-4.7C50.2,3.2,49.7,4.3,49.7,7.9z"/>
</g>
<path d="M67.8,11.8c0,1,0,1.7,0,2.1c0,0.5-0.1,0.8-0.4,1c-0.3,0.2-0.7,0.3-2,0.3c-0.4,0-0.4,0-0.5-0.4c-0.1-0.4-0.2-0.7-0.3-0.9
	c0.5,0,1.1,0.1,1.4,0.1c0.4,0,0.5-0.1,0.5-0.4v-3h-7v2.6c0,1.3,0,2,0,2.1c0,0.1,0,0.1-0.1,0.1h-1c-0.1,0-0.1,0-0.1-0.1
	c0-0.1,0-0.8,0-2.4V7.7c0-1.5,0-2.3,0-2.4c0-0.1,0-0.1,0.1-0.1c0.1,0,0.5,0,1.6,0h6.1c1.1,0,1.5,0,1.6,0c0.1,0,0.1,0,0.1,0.1
	c0,0.1,0,0.9,0,2.4V11.8z M62.4,9.4v-3h-2.8v3H62.4z M63.6,6.3v3h2.9v-3H63.6z"/>
<g class="st9">
	<path d="M1.8,140c0.3-2.2,1.8-3.4,3.8-3.4c2.2,0,3.6,1.2,3.6,3.3c0,1.4-0.6,2.4-2.5,4.1c-1.7,1.5-2.5,2.4-3,3.4h5.5v1.6H1.7v-1.4
		c0.7-1.5,1.7-2.8,3.5-4.5c1.6-1.5,2-2.2,2-3.2c0-1.1-0.6-1.7-1.6-1.7c-1,0-1.6,0.8-1.7,2.2L1.8,140z"/>
	<path d="M19.5,142.9c0,4.5-1.4,6.4-3.9,6.4c-2.5,0-3.8-1.8-3.8-6.3c0-4.5,1.4-6.3,3.9-6.3C18.2,136.6,19.5,138.4,19.5,142.9z
		 M13.9,142.9c0,3.6,0.5,4.8,1.8,4.8c1.3,0,1.8-1.2,1.8-4.8c0-3.6-0.5-4.7-1.8-4.7C14.4,138.2,13.9,139.3,13.9,142.9z"/>
	<path d="M24.6,149l-1.2,2.5h-1l1.1-2.5h-1.2v-2.2h2.3V149z"/>
	<path d="M35.1,142.9c0,4.5-1.4,6.4-3.9,6.4c-2.5,0-3.8-1.8-3.8-6.3c0-4.5,1.4-6.3,3.9-6.3C33.7,136.6,35.1,138.4,35.1,142.9z
		 M29.4,142.9c0,3.6,0.5,4.8,1.8,4.8c1.3,0,1.8-1.2,1.8-4.8c0-3.6-0.5-4.7-1.8-4.7C30,138.2,29.4,139.3,29.4,142.9z"/>
	<path d="M45.2,142.9c0,4.5-1.4,6.4-3.9,6.4c-2.5,0-3.8-1.8-3.8-6.3c0-4.5,1.4-6.3,3.9-6.3C43.8,136.6,45.2,138.4,45.2,142.9z
		 M39.6,142.9c0,3.6,0.5,4.8,1.8,4.8c1.3,0,1.8-1.2,1.8-4.8c0-3.6-0.5-4.7-1.8-4.7C40.1,138.2,39.6,139.3,39.6,142.9z"/>
	<path d="M55.3,142.9c0,4.5-1.4,6.4-3.9,6.4c-2.5,0-3.8-1.8-3.8-6.3c0-4.5,1.4-6.3,3.9-6.3C54,136.6,55.3,138.4,55.3,142.9z
		 M49.7,142.9c0,3.6,0.5,4.8,1.8,4.8c1.3,0,1.8-1.2,1.8-4.8c0-3.6-0.5-4.7-1.8-4.7C50.2,138.2,49.7,139.3,49.7,142.9z"/>
</g>
<g class="st9">
	<path d="M67.8,146.8c0,1,0,1.7,0,2.1c0,0.5-0.1,0.8-0.4,1c-0.3,0.2-0.7,0.3-2,0.3c-0.4,0-0.4,0-0.5-0.4c-0.1-0.4-0.2-0.7-0.3-0.9
		c0.5,0,1.1,0.1,1.4,0.1c0.4,0,0.5-0.1,0.5-0.4v-3h-7v2.6c0,1.3,0,2,0,2.1c0,0.1,0,0.1-0.1,0.1h-1c-0.1,0-0.1,0-0.1-0.1
		c0-0.1,0-0.8,0-2.4v-5.1c0-1.5,0-2.3,0-2.4c0-0.1,0-0.1,0.1-0.1c0.1,0,0.5,0,1.6,0h6.1c1.1,0,1.5,0,1.6,0c0.1,0,0.1,0,0.1,0.1
		c0,0.1,0,0.9,0,2.4V146.8z M62.4,144.4v-3h-2.8v3H62.4z M63.6,141.3v3h2.9v-3H63.6z"/>
</g>
</svg>
