<svg xmlns="http://www.w3.org/2000/svg" width="295.083" height="30" viewBox="0 0 295.083 30"><g transform="translate(-15 350)"><g transform="translate(15 -350)"><path d="M18.873,18.546H12.835l.863-3.925h11.36L22.073,28.664a25.2,25.2,0,0,1-8.764,1.6C5.857,30.259,0,26.533,0,19.2,0,7.979,8.626,2.088,18.511,2.088A18.623,18.623,0,0,1,26.084,3.4L24.73,7.859a12.076,12.076,0,0,0-6.262-1.535c-7.254,0-12.205,5.02-12.205,12.309,0,4.011,2.5,7.366,7.763,7.366a11.42,11.42,0,0,0,3.407-.449Z" transform="translate(0 -0.285)"/><path d="M48.371,29.742a17.57,17.57,0,0,1-7.815,1.6c-4.425,0-8.686-1.725-8.686-7.082C31.853,16.027,38.02,9.92,45.326,9.92c3.321,0,7.082,1.19,7.082,4.96,0,6.469-9.488,7.323-14.577,7.323a5.365,5.365,0,0,0-.2,1.587c0,2.743,2.165,3.813,4.666,3.813A12.119,12.119,0,0,0,48.6,25.8Zm-1.078-14.5c0-1.509-1.1-2-2.458-2-3.071,0-5.4,3.148-6.185,5.771.949,0,1.889-.043,2.907-.121C44.472,18.563,47.293,17.7,47.293,15.242Z" transform="translate(-4.38 -1.363)"/><path d="M60.329,14.914a40.9,40.9,0,0,0,.776-4.58h5.322l-.612,3.64c1.967-2.743,4.011-4.054,7.409-4.054s5.615,1.6,5.615,5.037a11.931,11.931,0,0,1-.276,2.338L75.726,30.889h-5.65L72.664,18.52a10.782,10.782,0,0,0,.328-2.131,2.375,2.375,0,0,0-2.708-2.657c-3.028,0-4.537,2.743-5.115,5.4l-2.5,11.757H57Z" transform="translate(-7.834 -1.363)"/><path d="M102.241,29.742a17.631,17.631,0,0,1-7.823,1.6c-4.425,0-8.677-1.725-8.677-7.082C85.74,16.061,91.916,9.92,99.2,9.92c3.321,0,7.09,1.19,7.09,4.96,0,6.469-9.488,7.323-14.577,7.323a5.374,5.374,0,0,0-.207,1.587c0,2.743,2.165,3.813,4.666,3.813a12.119,12.119,0,0,0,6.305-1.8Zm-1.07-14.5c0-1.509-1.1-2-2.458-2-3.071,0-5.4,3.148-6.176,5.771.94,0,1.88-.043,2.907-.121C98.351,18.563,101.171,17.7,101.171,15.242Z" transform="translate(-11.784 -1.363)"/><path d="M110.85,30.882l3.4-15.975a43.71,43.71,0,0,0,.819-4.546h5.322l-.776,4.218c1.311-2.493,3.761-4.71,6.711-4.71a5.3,5.3,0,0,1,1.639.207l-1.311,5.175a4.485,4.485,0,0,0-1.673-.285c-3.726,0-5.857,3.606-6.512,6.9l-1.924,9.048Z" transform="translate(-15.235 -1.356)"/><path d="M143.971,30.893a29.33,29.33,0,0,1,.656-5.175c-2.087,3.8-4.96,5.65-8.238,5.65-3.8,0-6.219-2.588-6.219-6.84A14.454,14.454,0,0,1,145.075,9.95a37.09,37.09,0,0,1,7.944.906l-2.381,11.024a50.816,50.816,0,0,0-1.268,9.014Zm2.657-16.872a6.1,6.1,0,0,0-1.967-.285c-4.5,0-8.557,5.175-8.557,10.394,0,1.967.94,3.4,2.588,3.4,3.235,0,5.934-4.175,6.8-8.229Z" transform="translate(-17.89 -1.367)"/><path d="M158.23,29.526,164.492,0h5.693l-6.271,29.526Z" transform="translate(-21.746)"/><path d="M171.57,29.623l4.313-20.555h5.693l-4.313,20.555Zm5.072-24.35.94-4.563h5.736l-.94,4.563Z" transform="translate(-23.58 -0.098)"/><path d="M185.021,26.207a12.4,12.4,0,0,0,5.529,1.311c2.087,0,3.562-.69,3.562-2.536,0-3.4-7.582-2.984-7.582-8.514,0-5.124,5.175-6.6,9.342-6.6a18.606,18.606,0,0,1,5.934.975l-1.311,3.89a10.523,10.523,0,0,0-4.908-1.225c-2.1,0-3.606.656-3.606,2.329,0,2.95,7.763,3.036,7.763,8.436,0,5.779-5.365,7.047-9.583,7.047A21.754,21.754,0,0,1,183.65,30.3Z" transform="translate(-25.24 -1.356)"/><path d="M210.622,13.2H206.93l.819-3.761h3.683l.863-4.183,6.038-1.837-1.268,6.038h4.5l-.863,3.761h-4.4L214.219,22.8a10.573,10.573,0,0,0-.285,1.924c0,1.354.819,1.8,1.967,1.8a5.641,5.641,0,0,0,2.329-.492L217.7,29.72a12.766,12.766,0,0,1-4.261.742c-2.95,0-5.322-.863-5.322-4.459a15.53,15.53,0,0,1,.371-2.829Z" transform="translate(-28.439 -0.47)"/><path d="M231,7.684a7.522,7.522,0,1,1,7.513,7.539,7.435,7.435,0,0,1-2.924-.587A7.53,7.53,0,0,1,231,7.684Zm7.513,6.452a6.4,6.4,0,0,0,6.3-6.452,6.3,6.3,0,1,0-12.585,0,6.581,6.581,0,0,0,1.837,4.546,6.2,6.2,0,0,0,4.485,1.906ZM235.7,11.928V3.164h2.665c1.57,0,2.95.656,2.95,2.294a2.363,2.363,0,0,1-2.191,2.122,1.725,1.725,0,0,1,1.363,1.113l1.484,3.235h-1.225l-1.268-2.795a1.613,1.613,0,0,0-1.837-1.164h-.785v3.959Zm1.13-4.96h1.07c1.113,0,2.269-.311,2.269-1.484s-1.156-1.311-2.312-1.311h-.992Z" transform="translate(-31.747 -0.025)"/><path d="M247.15,29.877l13.6-27.317h4.313L251.5,29.877Z" transform="translate(-33.967 -0.352)"/><path d="M270.27,29.877,276.075,2.56h6.038l-4.787,22.522h12l-1.026,4.8Z" transform="translate(-37.145 -0.352)"/><path d="M297.808,29.877,296.29,2.56h5.788l.612,21.7,10.428-21.7h6.21l1.1,21.7,9.885-21.7H335.8L322.779,29.877H316.06L314.921,8.115,304.571,29.86Z" transform="translate(-40.721 -0.352)"/></g></g></svg>