<?xml version="1.0" encoding="utf-8"?>
<!-- Generator: Adobe Illustrator 24.2.0, SVG Export Plug-In . SVG Version: 6.00 Build 0)  -->
<svg version="1.1" id="レイヤー_1" xmlns="http://www.w3.org/2000/svg" xmlns:xlink="http://www.w3.org/1999/xlink" x="0px"
	 y="0px" viewBox="0 0 392 82" style="enable-background:new 0 0 392 82;" xml:space="preserve">
<style type="text/css">
	.st0{fill:#304DEB;}
	.st1{fill:none;}
	.st2{fill:none;stroke:#FFFFFF;}
	.st3{fill:#FFFFFF;}
	.st4{enable-background:new    ;}
</style>
<g transform="translate(-289.01 -718)">
	<rect x="289" y="718" class="st0" width="392" height="82"/>
	<g transform="translate(650 742) rotate(90)">
		<circle class="st1" cx="17" cy="17" r="17"/>
		<circle class="st2" cx="17" cy="17" r="16.5"/>
	</g>
	<path class="st3" d="M626.5,757.5l6.5,6.4l6.5-6.4l-1.5-1.5l-5,4.9l-5-4.9L626.5,757.5z"/>
	<g class="st4">
		<path class="st3" d="M433.1,751.5v1.3h-8.9v-1.3H433.1z M432.3,761v6.9h-5.6v1.1h-1.4v-8H432.3z M425.3,755.9v-1.3h7v1.3H425.3z
			 M425.3,759.1v-1.3h7v1.3H425.3z M432.3,748.4v1.3h-6.8v-1.3H432.3z M430.9,762.3h-4.2v4.2h4.2V762.3z M446,761.9v1.4h-5.7v5.9
			h-1.6v-5.9H433v-1.4h5.8v-3.6h-4.5v-1.4h4.5v-3.4h-5v-1.5h2.8c-0.3-1.1-1.1-2.7-1.8-3.9l1.3-0.5c0.8,1.3,1.6,3,1.9,4.1l-0.8,0.4
			h4.8c-0.4-0.2-0.8-0.4-0.8-0.4c0.7-1.1,1.5-3,1.9-4.2l1.8,0.7c-0.1,0.2-0.3,0.2-0.5,0.2c-0.5,1.1-1.2,2.6-1.9,3.7h3.2v1.5h-5.3
			v3.4h4.7v1.4h-4.7v3.6H446z"/>
		<path class="st3" d="M456.3,757.9c-0.4-0.8-1-1.6-1.5-2.3l1.2-0.6c1.1,1.5,2.3,3.5,2.7,4.7l-1.3,0.6c-0.1-0.4-0.3-0.8-0.5-1.3
			l-2.5,0.1v10H453v-9.9c-1.3,0-2.5,0.1-3.5,0.1c0,0.2-0.2,0.3-0.3,0.3l-0.4-1.8h1.7c0.5-0.6,1.1-1.3,1.6-2.1
			c-0.7-1.1-2-2.4-3.1-3.4l0.8-1c0.2,0.2,0.5,0.4,0.7,0.6c0.8-1.4,1.8-3.3,2.3-4.6l1.7,0.7c-0.1,0.1-0.2,0.2-0.5,0.2
			c-0.7,1.4-1.7,3.3-2.6,4.6c0.6,0.6,1.1,1.2,1.5,1.8c1.1-1.6,2.1-3.2,2.8-4.6l1.7,0.8c-0.1,0.1-0.3,0.2-0.5,0.2
			c-1.2,2-3.1,4.8-4.8,6.8L456.3,757.9z M452,761.4c0,0.1-0.2,0.2-0.4,0.2c-0.3,2-0.9,4.2-1.6,5.6c-0.3-0.2-0.8-0.4-1.2-0.6
			c0.7-1.3,1.2-3.6,1.5-5.7L452,761.4z M457,766c-0.2-1.3-0.9-3.2-1.5-4.6l1.2-0.4c0.7,1.5,1.4,3.3,1.6,4.6L457,766z M458.8,749.4
			h10.8v19.5h-1.5v-1.1h-7.8v1.3h-1.4V749.4z M463.5,750.9h-3.2v7h3.2V750.9z M460.3,759.3v7.1h3.2v-7.1H460.3z M468.1,757.8v-7
			h-3.2v7H468.1z M464.9,766.4h3.2v-7.1h-3.2V766.4z"/>
		<path class="st3" d="M493.9,757.5c0,0-0.1,0-0.1,0c-0.1,0-0.3-0.1-0.4-0.1c-1.8,0.6-4.4,1.5-6.3,2.4c0,0.5,0.1,1.1,0.1,1.8
			c0,0.7,0,1.6-0.1,2.5l-1.7,0.1c0.1-0.8,0.1-1.9,0.1-2.8c0-0.4,0-0.7,0-0.9c-2.6,1.3-4.8,2.8-4.8,4.3c0,1.4,1.6,2,4.8,2
			c2.3,0,4.4,0,5.9-0.2l0,1.6c-1.4,0.1-3.5,0.2-5.9,0.2c-4.5,0-6.5-1.1-6.5-3.5c0-2.1,2.7-4,6.2-5.8c-0.1-1.5-0.8-2.2-1.7-2.2
			c-1.7,0-3.5,1-5.6,3.3c-0.7,0.7-1.6,1.6-2.6,2.5l-1.1-1.1c2.3-2.1,4.5-4,5.9-8.6l-1.3,0h-3.9v-1.5c1.4,0,3.1,0,4,0l1.6,0
			c0.3-1.1,0.5-2.1,0.6-3.3l2.3,0.3c0,0.2-0.2,0.4-0.6,0.4c-0.2,0.9-0.4,1.8-0.6,2.6c1.6,0,5-0.4,8-1.4l0.3,1.6
			c-2.9,0.9-6.4,1.2-8.8,1.3c-0.6,1.8-1.1,3.2-1.7,3.9h0c1-0.9,2.6-1.5,3.8-1.5c1.6,0,2.6,1.1,2.9,3c2-0.9,4.4-1.8,6.3-2.6
			L493.9,757.5z"/>
		<path class="st3" d="M517.1,754.3c-0.1,0.3-0.3,0.4-0.7,0.4c-0.3,1.6-0.6,3.3-1,4.8c1.3,0.5,2.6,1.1,3.9,1.8l-0.7,1.6
			c-1.3-0.6-2.5-1.2-3.7-1.8c-1.1,3.4-2.7,5.8-5.2,7.5c-0.3-0.3-0.9-0.7-1.3-1c2.5-1.6,4-3.8,5-7.1c-2.4-0.9-4.5-1.6-6.2-1.7
			c-1.6,5.9-3.1,7.4-5.9,7.4c-2.8,0-3.3-2.2-3.3-3.7c0-3.6,3.8-5.3,7.9-5.3c0.5-1.9,0.9-4.2,1.3-6.6c-1.1,0.1-4.8,0.4-6.6,0.5
			c-0.1,0.2-0.3,0.3-0.5,0.3l-0.2-1.9c2-0.1,6.4-0.4,7.8-0.5c0.3,0,0.4-0.1,0.5-0.3l1.4,0.9c-0.1,0.2-0.3,0.3-0.6,0.4
			c-0.4,2.6-0.9,5.3-1.4,7.3c1.8,0.1,3.9,0.8,6.3,1.7c0.4-1.4,0.7-3.2,1-5.1L517.1,754.3z M505.5,758.6c-3.4,0-6.1,1.4-6.1,3.9
			c0,1.3,0.6,2.2,1.7,2.2C502.9,764.7,504,764.1,505.5,758.6z"/>
		<path class="st3" d="M528.9,757.8c1.5-0.8,3.9-1.4,5.8-1.4c3.7,0,6,2.2,6,5.6c0,4.2-3.7,6.6-8.4,6.6c-3,0-5.1-1.2-5.1-3.3
			c0-1.7,1.7-3.1,3.8-3.1c2.6,0,4.4,2.1,4.8,4.2c1.9-0.7,3.2-2.2,3.2-4.4c0-2.5-1.9-4.1-4.8-4.1c-3.5,0-6.9,1.6-8.5,3.1
			c-0.7,0.7-1.6,1.6-2.2,2.4l-1.2-1.2c2.1-2.2,8.8-8.6,12-11.5c-1.4,0.2-6,0.4-8.7,0.5c-0.1,0.2-0.3,0.3-0.5,0.4l-0.2-2
			c3.2,0,9.2-0.3,10.9-0.5l0.4-0.2l1.2,1.5c-0.1,0.1-0.3,0.2-0.6,0.2C535.2,751.9,530.8,756,528.9,757.8L528.9,757.8z M532.2,767.1
			c0.7,0,1.5-0.1,2.1-0.2c-0.3-1.8-1.6-3.3-3.3-3.3c-1.2,0-2.3,0.7-2.3,1.7C528.7,766.7,530.6,767.1,532.2,767.1z"/>
	</g>
</g>
</svg>
