<?xml version="1.0" encoding="utf-8"?>
<!-- Generator: Adobe Illustrator 24.2.0, SVG Export Plug-In . SVG Version: 6.00 Build 0)  -->
<svg version="1.1" id="レイヤー_1" xmlns="http://www.w3.org/2000/svg" xmlns:xlink="http://www.w3.org/1999/xlink" x="0px"
	 y="0px" viewBox="0 0 288 73" style="enable-background:new 0 0 288 73;" xml:space="preserve">
<style type="text/css">
	.st0{fill:#304DEB;}
	.st1{enable-background:new    ;}
	.st2{fill:#FFFFFF;}
	.st3{fill:none;}
	.st4{fill:none;stroke:#FFFFFF;}
</style>
<g transform="translate(-483 -3552)">
	<rect x="483" y="3552" class="st0" width="288" height="73"/>
	<g class="st1">
		<path class="st2" d="M543.3,3595v1.4h-16.8v-1.4H537c0.4-2.5,1-7.5,1.2-10.2h-9.5v-1.4h10l0.3-0.1l1.1,0.5c0,0.1-0.2,0.2-0.3,0.2
			c-0.2,2.6-0.9,8.2-1.3,10.9H543.3z"/>
		<path class="st2" d="M547.5,3588.6h16.7v1.4h-15.9c-0.1,0.2-0.4,0.3-0.6,0.4L547.5,3588.6z"/>
		<path class="st2" d="M585.4,3587h-4.3v1.3c0,3.8-1.2,7.7-6.4,10.1c-0.3-0.3-0.7-0.7-1-1c5.1-2.2,6-5.8,6-9v-1.4h-6.4v4.9h-1.4
			v-4.9H568v-1.4h3.9v-4.4l1.9,0.1c0,0.2-0.2,0.4-0.5,0.4v3.8h6.4v-4.6l1.9,0.1c0,0.2-0.2,0.3-0.5,0.4v4.1h4.3V3587z M582.3,3581.7
			c0.9,0.8,1.8,1.9,2.4,2.8l-0.7,0.5c-0.6-0.9-1.5-2.1-2.3-2.8L582.3,3581.7z M584.3,3580c0.9,0.8,1.9,1.9,2.4,2.9l-0.7,0.5
			c-0.6-0.9-1.6-2.1-2.4-2.8L584.3,3580z"/>
		<path class="st2" d="M589.2,3588.6h16.7v1.4H590c-0.1,0.2-0.4,0.3-0.6,0.4L589.2,3588.6z"/>
		<path class="st2" d="M627.2,3586.9H623v1.4c0,3.8-1.2,7.7-6.4,10.1c-0.3-0.3-0.7-0.7-1-1c5.1-2.2,6-5.8,6-9v-1.4h-6.5v5h-1.4v-5
			h-3.9v-1.4h3.9v-4.3l1.9,0.1c0,0.2-0.2,0.4-0.5,0.4v3.8h6.5v-4.6l1.9,0.1c0,0.2-0.2,0.3-0.5,0.4v4.1h4.2V3586.9z"/>
		<path class="st2" d="M646.6,3582.2c-0.1,0.1-0.2,0.2-0.4,0.2c-0.1,0-0.1,0-0.2,0c-1.5,1.6-3.8,3.4-5.7,4.8
			c0.2,0.1,0.4,0.2,0.5,0.2c0,0.1-0.2,0.2-0.4,0.3v10.7h-1.5v-10.3c-2.1,1.5-4.9,3.1-7.6,4.5c-0.2-0.3-0.6-0.8-0.8-1.1
			c5.5-2.5,11.4-6.8,14.7-10.3L646.6,3582.2z"/>
		<path class="st2" d="M661.9,3591.6c-2-1.1-4.8-2.4-7-3.3v10h-1.5v-17.4l2,0.1c0,0.2-0.2,0.4-0.5,0.4v5.8l0.3-0.4
			c2.3,0.9,5.4,2.2,7.5,3.3L661.9,3591.6z"/>
		<path class="st2" d="M666.7,3589.9c0.8-0.8,2.9-3,4-4.1c1.5-1.7,2.3-2.1,3.3-2.1c1.2,0,2.1,0.8,3.8,2.9c1.4,1.7,4.7,5.4,7.5,8
			l-1.1,1.2c-2.7-2.5-6-6.2-7.2-7.7c-1.7-2.1-2.3-2.9-3.1-2.9c-0.8,0-1.4,0.7-2.6,2c-0.7,0.8-2.3,2.6-3.2,3.5c0,0.3-0.1,0.5-0.2,0.6
			L666.7,3589.9z"/>
	</g>
	<g transform="translate(717 3571)">
		<circle class="st3" cx="17" cy="17" r="17"/>
		<circle class="st4" cx="17" cy="17" r="16.5"/>
	</g>
	<path class="st2" d="M732.5,3594.5l6.4-6.5l-6.4-6.5l-1.5,1.5l4.9,5l-4.9,5L732.5,3594.5z"/>
</g>
</svg>
