<?xml version="1.0" encoding="utf-8"?>
<!-- Generator: Adobe Illustrator 24.2.0, SVG Export Plug-In . SVG Version: 6.00 Build 0)  -->
<svg version="1.1" id="レイヤー_1" xmlns="http://www.w3.org/2000/svg" xmlns:xlink="http://www.w3.org/1999/xlink" x="0px"
	 y="0px" viewBox="0 0 35 127" style="enable-background:new 0 0 35 127;" xml:space="preserve">
<style type="text/css">
	.st0{enable-background:new    ;}
</style>
<g class="st0">
	<path d="M10.1,8.6c0,2.8,1,4.2,3,4.2c1.6,0,2.5-0.9,2.9-2.8c0.1-0.9,0.2-1.8,0.4-2.8c0.3-1.8,1-3.2,2-4.2c1.1-1,2.4-1.5,4-1.5
		c1.9,0,3.4,0.6,4.5,1.9c1.1,1.2,1.7,2.9,1.7,5.1c-0.1,2.7-0.8,5-2.2,6.9l-2.7-1.8c1.1-1.6,1.6-3.4,1.6-5.3c0-1-0.2-1.8-0.7-2.5
		c-0.5-0.7-1.3-1-2.3-1.1c-0.6,0-1.2,0.2-1.7,0.7c-0.5,0.5-0.9,1.2-1.1,2.3c-0.1,0.6-0.2,1.4-0.3,2.4c-0.3,2-1,3.5-2.2,4.4
		c-1.1,0.9-2.5,1.4-4,1.4C9,15.9,6.9,13.4,6.8,8.6c0-3.2,1-5.9,2.9-8.2l2.4,2.1C10.8,4.2,10.1,6.2,10.1,8.6z"/>
	<path d="M9.5,31.9c-0.8-0.7-1.4-1.4-1.9-2.3c-0.5-0.9-0.8-1.9-0.8-3.1c0-1.8,0.6-3.4,1.8-4.7c1.2-1.4,3.2-2.1,5.9-2.2
		c2.8,0,4.8,0.8,6,2.2c1.2,1.4,1.8,2.9,1.8,4.7c0,1.2-0.3,2.2-0.7,3.1c-0.5,0.9-1.1,1.7-1.9,2.3l-2-2.3c1-0.8,1.6-1.8,1.6-3.1
		c0-2.6-1.5-3.9-4.7-4c-3.2,0-4.8,1.4-4.7,4c0,1.3,0.5,2.3,1.6,3.1L9.5,31.9z"/>
	<path d="M28.4,35.5v3.1h-7.8v0.1c1.2,1,1.8,2.3,1.8,4c0,1.3-0.4,2.4-1.3,3.5c-0.9,1-2.2,1.6-4,1.6H7v-3.1h9.1
		c1.1,0,1.9-0.3,2.4-0.8c0.6-0.6,0.8-1.3,0.8-2.2s-0.3-1.6-0.8-2.2c-0.6-0.6-1.4-0.9-2.4-0.9H7v-3.1H28.4z"/>
	<path d="M13.4,55.4c-1.2,0-2.1,0.4-2.8,1.1c-0.6,0.7-1,1.5-1,2.6c0,1.2,0.5,2.3,1.5,3.3l-1.9,2.2c-1.7-1.6-2.5-3.4-2.5-5.5
		c0-0.8,0.1-1.6,0.4-2.3c0.1-0.4,0.3-0.8,0.5-1.1c0.2-0.4,0.4-0.7,0.7-1.1c0.6-0.6,1.4-1.2,2.4-1.6c1-0.4,2.2-0.7,3.8-0.7
		c1.5,0,2.8,0.2,3.8,0.6c1,0.4,1.8,0.9,2.4,1.5c0.6,0.6,1,1.3,1.3,2c0.3,0.7,0.4,1.5,0.4,2.2c0,1.7-0.6,3.2-1.7,4.4
		c-1.1,1.2-2.7,1.8-4.7,1.9h-2.5V55.4z M16,61.8c1.2,0,2.1-0.4,2.7-1c0.6-0.6,0.9-1.3,0.9-2.3s-0.3-1.7-0.9-2.3
		c-0.6-0.6-1.5-0.9-2.7-1V61.8z"/>
	<path d="M8.6,78.7c-1.1-1-1.7-2.3-1.8-3.9c0-0.9,0.2-1.7,0.6-2.4c0.4-0.7,0.8-1.3,1.4-1.7c0.5-0.4,1.1-0.7,1.9-0.8
		c0.8-0.2,2.1-0.2,3.9-0.2c1.8,0,3.1,0.1,3.9,0.2c0.8,0.1,1.4,0.4,1.9,0.8c1.3,0.9,1.9,2.2,2,4.1c0,0.8-0.2,1.5-0.5,2.2
		c-0.3,0.6-0.8,1.2-1.3,1.8h7.8v3.1H7v-3.1H8.6z M19.3,75.7c0-0.7-0.1-1.3-0.4-1.7c-0.3-0.4-0.6-0.7-1.1-0.9c-0.5-0.2-1-0.3-1.5-0.4
		c-0.6-0.1-1.2-0.1-1.8-0.1c-0.6,0-1.1,0-1.7,0.1c-0.6,0.1-1.1,0.2-1.6,0.4c-0.4,0.2-0.8,0.5-1.1,0.9C10,74.4,9.9,75,9.9,75.7
		s0.1,1.3,0.4,1.7c0.3,0.4,0.7,0.7,1.1,0.9c0.5,0.2,1,0.3,1.5,0.4c0.6,0,1.1,0,1.6,0c0.6,0,1.1,0,1.7,0c0.5-0.1,1-0.2,1.5-0.4
		c0.5-0.2,0.8-0.4,1.1-0.9S19.3,76.4,19.3,75.7z"/>
	<path d="M22.2,86.7v3.1h-9.1c-1,0-1.8,0.3-2.4,0.9c-0.6,0.6-0.9,1.3-0.9,2.2s0.3,1.6,0.9,2.2c0.6,0.6,1.4,0.8,2.4,0.8h9.1v3.1H7
		v-3.1h1.6v-0.1c-1.2-1-1.8-2.3-1.8-3.9c0-1.3,0.5-2.4,1.4-3.4c0.9-1.1,2.2-1.7,3.9-1.7H22.2z"/>
	<path d="M28.4,104.3v3.1H10.9c-0.7,0-1,0.4-1,1.1v1.1H7v-1.4c0-1.1,0.3-2,0.8-2.8c0.6-0.8,1.5-1.1,2.9-1.1H28.4z"/>
	<path d="M13.4,115.9c-1.2,0-2.1,0.4-2.8,1.1c-0.6,0.7-1,1.5-1,2.6c0,1.2,0.5,2.3,1.5,3.3L9.3,125c-1.7-1.6-2.5-3.4-2.5-5.5
		c0-0.8,0.1-1.6,0.4-2.3c0.1-0.4,0.3-0.8,0.5-1.1c0.2-0.4,0.4-0.7,0.7-1.1c0.6-0.6,1.4-1.2,2.4-1.6c1-0.4,2.2-0.7,3.8-0.7
		c1.5,0,2.8,0.2,3.8,0.6c1,0.4,1.8,0.9,2.4,1.5c0.6,0.6,1,1.3,1.3,2c0.3,0.7,0.4,1.5,0.4,2.2c0,1.7-0.6,3.2-1.7,4.4
		c-1.1,1.2-2.7,1.8-4.7,1.9h-2.5V115.9z M16,122.3c1.2,0,2.1-0.4,2.7-1c0.6-0.6,0.9-1.3,0.9-2.3s-0.3-1.7-0.9-2.3
		c-0.6-0.6-1.5-0.9-2.7-1V122.3z"/>
</g>
</svg>
