<svg id="グループ_6770" data-name="グループ 6770" xmlns="http://www.w3.org/2000/svg" xmlns:xlink="http://www.w3.org/1999/xlink" width="15" height="20" viewBox="0 0 15 20">
  <defs>
    <clipPath id="clip-path">
      <rect id="長方形_3421" data-name="長方形 3421" width="15" height="20" fill="none"/>
    </clipPath>
  </defs>
  <g id="グループ_3" data-name="グループ 3" clip-path="url(#clip-path)">
    <path id="パス_6779" data-name="パス 6779" d="M14,0H1A1,1,0,0,0,0,1V19a1,1,0,0,0,1,1H14a1,1,0,0,0,1-1V1a1,1,0,0,0-1-1M5.25,16.35a.147.147,0,0,1-.15.15H3.9a.147.147,0,0,1-.15-.15v-1.2A.147.147,0,0,1,3.9,15H5.1a.147.147,0,0,1,.15.15Zm0-3a.147.147,0,0,1-.15.15H3.9a.147.147,0,0,1-.15-.15v-1.2A.147.147,0,0,1,3.9,12H5.1a.147.147,0,0,1,.15.15Zm0-3a.147.147,0,0,1-.15.15H3.9a.147.147,0,0,1-.15-.15V9.15A.147.147,0,0,1,3.9,9H5.1a.147.147,0,0,1,.15.15Zm3,6a.147.147,0,0,1-.15.15H6.9a.147.147,0,0,1-.15-.15v-1.2A.147.147,0,0,1,6.9,15H8.1a.147.147,0,0,1,.15.15Zm0-3a.147.147,0,0,1-.15.15H6.9a.147.147,0,0,1-.15-.15v-1.2A.147.147,0,0,1,6.9,12H8.1a.147.147,0,0,1,.15.15Zm0-3a.147.147,0,0,1-.15.15H6.9a.147.147,0,0,1-.15-.15V9.15A.147.147,0,0,1,6.9,9H8.1a.147.147,0,0,1,.15.15Zm3,6a.147.147,0,0,1-.15.15H9.9a.147.147,0,0,1-.15-.15v-1.2A.147.147,0,0,1,9.9,15h1.2a.147.147,0,0,1,.15.15Zm0-3a.147.147,0,0,1-.15.15H9.9a.147.147,0,0,1-.15-.15v-1.2A.147.147,0,0,1,9.9,12h1.2a.147.147,0,0,1,.15.15Zm0-3a.147.147,0,0,1-.15.15H9.9a.147.147,0,0,1-.15-.15V9.15A.147.147,0,0,1,9.9,9h1.2a.147.147,0,0,1,.15.15Zm0-5a.147.147,0,0,1-.15.15H3.9a.147.147,0,0,1-.15-.15V3.65A.147.147,0,0,1,3.9,3.5h7.2a.147.147,0,0,1,.15.15Z" fill="#fff"/>
  </g>
</svg>
